%
M48
M72
T01C0.0200
T02C0.0240
T03C0.0400
T04C0.0470
T05C0.1300
%
T01
X18410Y14210
X18410Y15410
X23310Y14210
X24310Y15410
X25870Y15470
X26810Y16610
X25870Y17450
X28210Y16610
X28965Y18504
X31510Y16610
X32510Y18470
X30410Y20980
X30410Y25610
X26810Y14010
X23710Y10710
X20910Y10710
T02
X14117Y16702
X12703Y18117
T03
X4510Y17910
X4510Y18910
X4510Y22410
X4510Y23410
X4510Y13960
X4510Y12960
X4510Y11960
X4510Y10960
X4510Y9960
X4510Y8960
X19910Y26310
X20910Y26310
X21910Y26310
X22910Y26310
X23910Y26310
X24910Y26310
X35910Y22120
X35910Y21120
X35910Y20120
X35910Y19120
X35910Y18120
X35910Y17120
X35910Y16110
X35910Y15110
X35910Y11810
X35910Y10810
X35910Y9810
X32110Y4510
X31110Y4510
X30110Y4510
T04
X10575Y4310
X8606Y4310
T05
X4610Y4510
X4610Y27010
X35610Y27010
X35610Y4510
M30
