G75*
G70*
%OFA0B0*%
%FSLAX24Y24*%
%IPPOS*%
%LPD*%
%AMOC8*
5,1,8,0,0,1.08239X$1,22.5*
%
%ADD10C,0.0160*%
%ADD11R,0.0018X0.0006*%
%ADD12R,0.0018X0.0006*%
%ADD13R,0.0030X0.0006*%
%ADD14R,0.0054X0.0006*%
%ADD15R,0.0066X0.0006*%
%ADD16R,0.0078X0.0006*%
%ADD17R,0.0096X0.0006*%
%ADD18R,0.0108X0.0006*%
%ADD19R,0.0126X0.0006*%
%ADD20R,0.0144X0.0006*%
%ADD21R,0.0150X0.0006*%
%ADD22R,0.0150X0.0006*%
%ADD23R,0.0168X0.0006*%
%ADD24R,0.0042X0.0006*%
%ADD25R,0.0174X0.0006*%
%ADD26R,0.0048X0.0006*%
%ADD27R,0.0174X0.0006*%
%ADD28R,0.0072X0.0006*%
%ADD29R,0.0078X0.0006*%
%ADD30R,0.0168X0.0006*%
%ADD31R,0.0174X0.0006*%
%ADD32R,0.0108X0.0006*%
%ADD33R,0.0174X0.0006*%
%ADD34R,0.0120X0.0006*%
%ADD35R,0.0144X0.0006*%
%ADD36R,0.0156X0.0006*%
%ADD37R,0.0162X0.0006*%
%ADD38R,0.0168X0.0006*%
%ADD39R,0.0168X0.0006*%
%ADD40R,0.0180X0.0006*%
%ADD41R,0.0162X0.0006*%
%ADD42R,0.0162X0.0006*%
%ADD43R,0.0180X0.0006*%
%ADD44R,0.0006X0.0006*%
%ADD45R,0.0258X0.0006*%
%ADD46R,0.0006X0.0006*%
%ADD47R,0.0306X0.0006*%
%ADD48R,0.0306X0.0006*%
%ADD49R,0.0012X0.0006*%
%ADD50R,0.0216X0.0006*%
%ADD51R,0.0234X0.0006*%
%ADD52R,0.0282X0.0006*%
%ADD53R,0.0318X0.0006*%
%ADD54R,0.0336X0.0006*%
%ADD55R,0.0372X0.0006*%
%ADD56R,0.0402X0.0006*%
%ADD57R,0.0420X0.0006*%
%ADD58R,0.0444X0.0006*%
%ADD59R,0.0474X0.0006*%
%ADD60R,0.0492X0.0006*%
%ADD61R,0.0498X0.0006*%
%ADD62R,0.0522X0.0006*%
%ADD63R,0.0534X0.0006*%
%ADD64R,0.0552X0.0006*%
%ADD65R,0.0564X0.0006*%
%ADD66R,0.0582X0.0006*%
%ADD67R,0.0252X0.0006*%
%ADD68R,0.0246X0.0006*%
%ADD69R,0.0222X0.0006*%
%ADD70R,0.0210X0.0006*%
%ADD71R,0.0198X0.0006*%
%ADD72R,0.0192X0.0006*%
%ADD73R,0.0186X0.0006*%
%ADD74R,0.0192X0.0006*%
%ADD75R,0.0156X0.0006*%
%ADD76R,0.0156X0.0006*%
%ADD77R,0.0144X0.0006*%
%ADD78R,0.0144X0.0006*%
%ADD79R,0.0138X0.0006*%
%ADD80R,0.0138X0.0006*%
%ADD81R,0.0132X0.0006*%
%ADD82R,0.0030X0.0006*%
%ADD83R,0.0138X0.0006*%
%ADD84R,0.0156X0.0006*%
%ADD85R,0.0186X0.0006*%
%ADD86R,0.0204X0.0006*%
%ADD87R,0.0312X0.0006*%
%ADD88R,0.0132X0.0006*%
%ADD89R,0.0216X0.0006*%
%ADD90R,0.0312X0.0006*%
%ADD91R,0.0126X0.0006*%
%ADD92R,0.0228X0.0006*%
%ADD93R,0.0318X0.0006*%
%ADD94R,0.0246X0.0006*%
%ADD95R,0.1380X0.0006*%
%ADD96R,0.0126X0.0006*%
%ADD97R,0.0258X0.0006*%
%ADD98R,0.1380X0.0006*%
%ADD99R,0.0126X0.0006*%
%ADD100R,0.1392X0.0006*%
%ADD101R,0.0270X0.0006*%
%ADD102R,0.1386X0.0006*%
%ADD103R,0.1392X0.0006*%
%ADD104R,0.0288X0.0006*%
%ADD105R,0.1392X0.0006*%
%ADD106R,0.0294X0.0006*%
%ADD107R,0.0300X0.0006*%
%ADD108R,0.1386X0.0006*%
%ADD109R,0.0300X0.0006*%
%ADD110R,0.0312X0.0006*%
%ADD111R,0.0312X0.0006*%
%ADD112R,0.0138X0.0006*%
%ADD113R,0.0090X0.0006*%
%ADD114R,0.0120X0.0006*%
%ADD115R,0.0072X0.0006*%
%ADD116R,0.0066X0.0006*%
%ADD117R,0.0072X0.0006*%
%ADD118R,0.0066X0.0006*%
%ADD119R,0.0306X0.0006*%
%ADD120R,0.0066X0.0006*%
%ADD121R,0.0270X0.0006*%
%ADD122R,0.0252X0.0006*%
%ADD123R,0.0240X0.0006*%
%ADD124R,0.0198X0.0006*%
%ADD125R,0.0132X0.0006*%
%ADD126R,0.0024X0.0006*%
%ADD127R,0.0336X0.0006*%
%ADD128R,0.0336X0.0006*%
%ADD129R,0.0336X0.0006*%
%ADD130R,0.0342X0.0006*%
%ADD131R,0.0342X0.0006*%
%ADD132R,0.0348X0.0006*%
%ADD133R,0.0354X0.0006*%
%ADD134R,0.0354X0.0006*%
%ADD135R,0.0366X0.0006*%
%ADD136R,0.0378X0.0006*%
%ADD137R,0.0396X0.0006*%
%ADD138R,0.0228X0.0006*%
%ADD139R,0.0426X0.0006*%
%ADD140R,0.0750X0.0006*%
%ADD141R,0.0732X0.0006*%
%ADD142R,0.0060X0.0006*%
%ADD143R,0.0720X0.0006*%
%ADD144R,0.0708X0.0006*%
%ADD145R,0.0690X0.0006*%
%ADD146R,0.0072X0.0006*%
%ADD147R,0.0672X0.0006*%
%ADD148R,0.0660X0.0006*%
%ADD149R,0.0648X0.0006*%
%ADD150R,0.0624X0.0006*%
%ADD151R,0.0612X0.0006*%
%ADD152R,0.0372X0.0006*%
%ADD153R,0.0360X0.0006*%
%ADD154R,0.0342X0.0006*%
%ADD155R,0.0504X0.0006*%
%ADD156R,0.0486X0.0006*%
%ADD157R,0.0456X0.0006*%
%ADD158R,0.0234X0.0006*%
%ADD159R,0.0210X0.0006*%
%ADD160R,0.0204X0.0006*%
%ADD161R,0.0198X0.0006*%
%ADD162R,0.0228X0.0006*%
%ADD163R,0.0222X0.0006*%
%ADD164R,0.0222X0.0006*%
%ADD165R,0.0216X0.0006*%
%ADD166R,0.0204X0.0006*%
%ADD167R,0.0186X0.0006*%
%ADD168R,0.0246X0.0006*%
%ADD169R,0.0234X0.0006*%
%ADD170R,0.0240X0.0006*%
%ADD171R,0.0252X0.0006*%
%ADD172R,0.0078X0.0006*%
%ADD173R,0.0060X0.0006*%
%ADD174R,0.0330X0.0006*%
%ADD175R,0.0294X0.0006*%
%ADD176R,0.0198X0.0006*%
%ADD177R,0.0222X0.0006*%
%ADD178R,0.0264X0.0006*%
%ADD179R,0.0282X0.0006*%
%ADD180R,0.0294X0.0006*%
%ADD181R,0.0318X0.0006*%
%ADD182R,0.0348X0.0006*%
%ADD183R,0.0354X0.0006*%
%ADD184R,0.0858X0.0006*%
%ADD185R,0.0024X0.0006*%
%ADD186R,0.0930X0.0006*%
%ADD187R,0.0930X0.0006*%
%ADD188R,0.0936X0.0006*%
%ADD189R,0.0948X0.0006*%
%ADD190R,0.0954X0.0006*%
%ADD191R,0.0960X0.0006*%
%ADD192R,0.0966X0.0006*%
%ADD193R,0.0972X0.0006*%
%ADD194R,0.0978X0.0006*%
%ADD195R,0.0984X0.0006*%
%ADD196R,0.0990X0.0006*%
%ADD197R,0.0996X0.0006*%
%ADD198R,0.1008X0.0006*%
%ADD199R,0.1014X0.0006*%
%ADD200R,0.1026X0.0006*%
%ADD201R,0.1032X0.0006*%
%ADD202R,0.1038X0.0006*%
%ADD203R,0.1044X0.0006*%
%ADD204R,0.1050X0.0006*%
%ADD205R,0.1056X0.0006*%
%ADD206R,0.1062X0.0006*%
%ADD207R,0.0882X0.0006*%
%ADD208R,0.0876X0.0006*%
%ADD209R,0.0876X0.0006*%
%ADD210R,0.0084X0.0006*%
%ADD211R,0.0246X0.0006*%
%ADD212R,0.0564X0.0006*%
%ADD213R,0.0006X0.0006*%
%ADD214R,0.0186X0.0006*%
%ADD215R,0.0642X0.0006*%
%ADD216R,0.0636X0.0006*%
%ADD217R,0.0624X0.0006*%
%ADD218R,0.0630X0.0006*%
%ADD219R,0.0618X0.0006*%
%ADD220R,0.0606X0.0006*%
%ADD221R,0.0600X0.0006*%
%ADD222R,0.0594X0.0006*%
%ADD223R,0.0588X0.0006*%
%ADD224R,0.0492X0.0006*%
%ADD225R,0.0204X0.0006*%
%ADD226R,0.0192X0.0006*%
%ADD227R,0.0084X0.0006*%
%ADD228R,0.0252X0.0006*%
%ADD229R,0.0486X0.0006*%
%ADD230R,0.0486X0.0006*%
%ADD231R,0.0492X0.0006*%
%ADD232R,0.0102X0.0006*%
%ADD233R,0.2736X0.0006*%
%ADD234R,0.2748X0.0006*%
%ADD235R,0.2748X0.0006*%
%ADD236R,0.2760X0.0006*%
%ADD237R,0.2760X0.0006*%
%ADD238R,0.2766X0.0006*%
%ADD239R,0.2778X0.0006*%
%ADD240R,0.2808X0.0006*%
%ADD241R,0.2814X0.0006*%
%ADD242R,0.2832X0.0006*%
%ADD243R,0.2844X0.0006*%
%ADD244R,0.2850X0.0006*%
%ADD245R,0.2862X0.0006*%
%ADD246R,0.2868X0.0006*%
%ADD247R,0.2874X0.0006*%
%ADD248R,0.2880X0.0006*%
%ADD249R,0.2886X0.0006*%
%ADD250R,0.2892X0.0006*%
%ADD251R,0.2898X0.0006*%
%ADD252R,0.2898X0.0006*%
%ADD253R,0.2910X0.0006*%
%ADD254R,0.2898X0.0006*%
%ADD255R,0.0384X0.0006*%
%ADD256R,0.0084X0.0006*%
%ADD257R,0.0384X0.0006*%
%ADD258R,0.0390X0.0006*%
%ADD259R,0.0078X0.0006*%
%ADD260R,0.0396X0.0006*%
%ADD261R,0.0402X0.0006*%
%ADD262R,0.0408X0.0006*%
%ADD263R,0.0084X0.0006*%
%ADD264R,0.0414X0.0006*%
%ADD265R,0.0420X0.0006*%
%ADD266R,0.0438X0.0006*%
%ADD267R,0.0438X0.0006*%
%ADD268R,0.0090X0.0006*%
%ADD269R,0.0450X0.0006*%
%ADD270R,0.0444X0.0006*%
%ADD271R,0.0096X0.0006*%
%ADD272R,0.0450X0.0006*%
%ADD273R,0.0456X0.0006*%
%ADD274R,0.0096X0.0006*%
%ADD275R,0.0096X0.0006*%
%ADD276R,0.0324X0.0006*%
%ADD277R,0.0288X0.0006*%
%ADD278R,0.0264X0.0006*%
%ADD279R,0.0102X0.0006*%
%ADD280R,0.0216X0.0006*%
%ADD281R,0.0108X0.0006*%
%ADD282R,0.0324X0.0006*%
%ADD283R,0.0306X0.0006*%
%ADD284R,0.0114X0.0006*%
%ADD285R,0.0114X0.0006*%
%ADD286R,0.0114X0.0006*%
%ADD287R,0.0276X0.0006*%
%ADD288R,0.0720X0.0006*%
%ADD289R,0.0366X0.0006*%
%ADD290R,0.0426X0.0006*%
%ADD291R,0.0468X0.0006*%
%ADD292R,0.0510X0.0006*%
%ADD293R,0.0408X0.0006*%
%ADD294R,0.0396X0.0006*%
%ADD295R,0.0366X0.0006*%
%ADD296R,0.0738X0.0006*%
%ADD297R,0.0330X0.0006*%
%ADD298R,0.0162X0.0006*%
%ADD299R,0.0054X0.0006*%
%ADD300R,0.0054X0.0006*%
%ADD301R,0.0048X0.0006*%
%ADD302R,0.0042X0.0006*%
%ADD303R,0.0012X0.0006*%
%ADD304R,0.0036X0.0006*%
%ADD305R,0.0024X0.0006*%
%ADD306C,0.0000*%
%ADD307C,0.0050*%
%ADD308C,0.0040*%
%ADD309C,0.0080*%
%ADD310R,0.2080X0.0360*%
%ADD311C,0.0320*%
%ADD312C,0.0060*%
%ADD313C,0.0020*%
%ADD314C,0.0030*%
%ADD315C,0.0120*%
%ADD316C,0.0283*%
%ADD317C,0.0100*%
%ADD318C,0.0070*%
%ADD319C,0.0031*%
D10*
X000191Y000181D02*
X056291Y000181D01*
X056291Y037781D01*
X000191Y037781D01*
X000191Y000181D01*
X032551Y033171D02*
X040251Y033171D01*
X040251Y037021D01*
X032551Y037021D01*
X032551Y033171D01*
D11*
X032291Y001651D03*
X035003Y000883D03*
D12*
X035003Y000889D03*
D13*
X035003Y000895D03*
X030497Y000955D03*
X030287Y005305D03*
D14*
X035003Y000901D03*
D15*
X035003Y000907D03*
X033473Y001669D03*
X033473Y001675D03*
X033473Y001699D03*
X033473Y001705D03*
X033497Y001897D03*
X033497Y001909D03*
X033497Y001915D03*
X033497Y001927D03*
X033503Y001969D03*
X033503Y001975D03*
X033515Y002119D03*
X033515Y002125D03*
X033557Y002527D03*
X033557Y002539D03*
X033557Y002545D03*
X033557Y002557D03*
X033563Y002575D03*
X033563Y002587D03*
X033563Y002599D03*
X033575Y002719D03*
X033575Y002725D03*
X033587Y002827D03*
X033587Y002839D03*
X033605Y003007D03*
X033605Y003019D03*
X033605Y003025D03*
X033617Y003145D03*
X033623Y003187D03*
X033623Y003199D03*
X033623Y003205D03*
X033623Y003217D03*
X033623Y003229D03*
X033623Y003235D03*
X033647Y003445D03*
X033665Y003607D03*
X033665Y003619D03*
X033665Y003625D03*
X033665Y003637D03*
X033677Y003769D03*
X033683Y003787D03*
X033683Y003799D03*
X033683Y003805D03*
X033683Y003817D03*
X033683Y003829D03*
X033683Y003835D03*
X033725Y004225D03*
X033725Y004237D03*
X033725Y004249D03*
X033743Y004435D03*
X035027Y005317D03*
X031583Y004327D03*
X031583Y004315D03*
X031583Y004309D03*
X031583Y004285D03*
X031583Y004207D03*
X031445Y004489D03*
X031163Y004309D03*
X031163Y004297D03*
X031163Y004285D03*
X031163Y004279D03*
X031163Y004267D03*
X031163Y004255D03*
X031163Y004237D03*
X031163Y004225D03*
X031163Y004219D03*
X031163Y004207D03*
X031163Y004195D03*
X031163Y004189D03*
X031163Y004177D03*
X031163Y004165D03*
X031163Y004159D03*
X031163Y004147D03*
X031163Y004135D03*
X031163Y004129D03*
X031163Y004117D03*
X031163Y004105D03*
X031163Y004099D03*
X031163Y004087D03*
X031163Y004075D03*
X031163Y004069D03*
X031163Y004057D03*
X031163Y004045D03*
X031505Y003859D03*
X031517Y003745D03*
X031517Y003739D03*
X031517Y003727D03*
X031517Y003715D03*
X031517Y003709D03*
X031523Y003697D03*
X031523Y003685D03*
X031523Y003679D03*
X031535Y003547D03*
X031535Y003535D03*
X031535Y003529D03*
X031565Y003247D03*
X031577Y003139D03*
X031577Y003127D03*
X031583Y003079D03*
X031583Y003067D03*
X031583Y003055D03*
X031583Y003049D03*
X031595Y002947D03*
X031595Y002929D03*
X031607Y002827D03*
X031625Y002659D03*
X031625Y002647D03*
X031625Y002635D03*
X031625Y002629D03*
X031637Y002515D03*
X031637Y002509D03*
X031643Y002485D03*
X031643Y002479D03*
X031643Y002467D03*
X031643Y002455D03*
X031643Y002449D03*
X031667Y002245D03*
X030305Y005275D03*
D16*
X030311Y005263D03*
X031511Y003793D03*
X031529Y003613D03*
X033653Y003511D03*
X033737Y004363D03*
X033719Y004723D03*
X032849Y004993D03*
X032849Y005101D03*
X035021Y005311D03*
X033569Y002653D03*
X033551Y002473D03*
X033551Y002461D03*
X033509Y002041D03*
X035003Y000913D03*
D17*
X035006Y000919D03*
X030494Y000985D03*
X031586Y004849D03*
X033734Y004687D03*
D18*
X031628Y004885D03*
X031616Y004879D03*
X031838Y002035D03*
X031838Y001549D03*
X035006Y000925D03*
D19*
X035009Y000931D03*
X032189Y001681D03*
X032189Y001693D03*
X031499Y001741D03*
X031499Y001621D03*
D20*
X035006Y000937D03*
D21*
X035003Y000943D03*
X031565Y001501D03*
X031553Y001513D03*
X030347Y005191D03*
D22*
X030347Y005197D03*
X034985Y005245D03*
X032135Y001525D03*
X032117Y001507D03*
X031559Y001507D03*
X031547Y001519D03*
X031541Y001525D03*
X031541Y001837D03*
X035003Y000949D03*
D23*
X035000Y000955D03*
X034910Y001039D03*
X034760Y001177D03*
X034640Y001285D03*
X034580Y001339D03*
X034130Y001747D03*
X032390Y002797D03*
X032150Y002575D03*
X032120Y002545D03*
X032090Y002515D03*
X032060Y002485D03*
X032870Y003247D03*
X033170Y003529D03*
X033200Y003559D03*
X034040Y004345D03*
X034310Y004597D03*
X034340Y004627D03*
X034520Y004795D03*
X034580Y004849D03*
X034580Y004855D03*
X034640Y004909D03*
X034790Y005047D03*
X034820Y005077D03*
X034850Y005107D03*
X030380Y005155D03*
X031220Y001699D03*
X031160Y001645D03*
X031130Y001615D03*
X031100Y001585D03*
X031010Y001507D03*
X030950Y001447D03*
X030920Y001417D03*
X030890Y001387D03*
X030740Y001249D03*
X030680Y001195D03*
X030680Y001189D03*
X030650Y001165D03*
X030620Y001135D03*
D24*
X030497Y000961D03*
X035039Y005341D03*
D25*
X034943Y005191D03*
X034877Y005131D03*
X034847Y005101D03*
X034793Y005053D03*
X034763Y005023D03*
X034727Y004993D03*
X034715Y004981D03*
X034697Y004963D03*
X034655Y004921D03*
X034523Y004801D03*
X034505Y004783D03*
X034493Y004771D03*
X034463Y004741D03*
X034427Y004711D03*
X034397Y004681D03*
X034367Y004651D03*
X034313Y004603D03*
X034283Y004573D03*
X034235Y004531D03*
X034217Y004513D03*
X034205Y004501D03*
X034187Y004483D03*
X034175Y004471D03*
X034043Y004351D03*
X034013Y004321D03*
X033995Y004303D03*
X033983Y004291D03*
X033965Y004273D03*
X033947Y004261D03*
X033917Y004231D03*
X033887Y004201D03*
X033857Y004171D03*
X033755Y004081D03*
X033737Y004063D03*
X033725Y004051D03*
X033707Y004033D03*
X033695Y004021D03*
X033545Y003883D03*
X033533Y003871D03*
X033515Y003853D03*
X033503Y003841D03*
X033485Y003823D03*
X033437Y003781D03*
X033407Y003751D03*
X033323Y003673D03*
X033293Y003643D03*
X033275Y003631D03*
X033257Y003613D03*
X033245Y003601D03*
X033227Y003583D03*
X033215Y003571D03*
X033197Y003553D03*
X033053Y003421D03*
X033035Y003403D03*
X033023Y003391D03*
X033005Y003373D03*
X032957Y003331D03*
X032927Y003301D03*
X032843Y003223D03*
X032813Y003193D03*
X032783Y003163D03*
X032573Y003163D03*
X032537Y003193D03*
X032507Y003223D03*
X032477Y003253D03*
X032453Y003271D03*
X032387Y003331D03*
X032375Y003343D03*
X032573Y002971D03*
X032555Y002953D03*
X032543Y002941D03*
X032525Y002923D03*
X032513Y002911D03*
X032495Y002893D03*
X032477Y002881D03*
X032447Y002851D03*
X032255Y002671D03*
X032237Y002653D03*
X032225Y002641D03*
X032093Y002521D03*
X032075Y002503D03*
X031967Y002401D03*
X031937Y002371D03*
X031883Y002323D03*
X031853Y002293D03*
X031535Y001993D03*
X031343Y001813D03*
X031325Y001801D03*
X031307Y001783D03*
X031295Y001771D03*
X031277Y001753D03*
X031247Y001723D03*
X031103Y001591D03*
X031085Y001573D03*
X031055Y001543D03*
X031037Y001531D03*
X031007Y001501D03*
X030815Y001321D03*
X030797Y001303D03*
X030767Y001273D03*
X031595Y001471D03*
X033167Y002623D03*
X033197Y002593D03*
X033215Y002581D03*
X033233Y002563D03*
X033245Y002551D03*
X033347Y002461D03*
X033365Y002443D03*
X033497Y002323D03*
X033545Y002281D03*
X033563Y002263D03*
X033575Y002251D03*
X033677Y002161D03*
X033695Y002143D03*
X033707Y002131D03*
X033773Y002071D03*
X033827Y002023D03*
X033905Y001951D03*
X034007Y001861D03*
X034025Y001843D03*
X034157Y001723D03*
X034187Y001693D03*
X034205Y001681D03*
X034223Y001663D03*
X034235Y001651D03*
X034253Y001633D03*
X034367Y001531D03*
X034403Y001501D03*
X034457Y001453D03*
X034487Y001423D03*
X034535Y001381D03*
X034565Y001351D03*
X034733Y001201D03*
X034763Y001171D03*
X034817Y001123D03*
X034847Y001093D03*
X034865Y001081D03*
X034895Y001051D03*
X034955Y001003D03*
X034985Y000973D03*
X034997Y000961D03*
X033113Y002671D03*
X033047Y002731D03*
X033035Y002743D03*
X032933Y002833D03*
X032915Y002851D03*
X032903Y002863D03*
X032873Y002893D03*
X032837Y002923D03*
X032807Y002953D03*
X031847Y003823D03*
X031727Y003931D03*
X031715Y003943D03*
X031595Y004051D03*
X031385Y004243D03*
X031133Y004471D03*
X030953Y004633D03*
X030935Y004651D03*
X030887Y004693D03*
X030857Y004723D03*
X030803Y004771D03*
X030773Y004801D03*
X030737Y004831D03*
X030725Y004843D03*
X030707Y004861D03*
X030605Y004951D03*
X030557Y004993D03*
X030503Y005041D03*
X030473Y005071D03*
X030437Y005101D03*
X030425Y005113D03*
X030407Y005131D03*
X030395Y005143D03*
D26*
X035036Y005335D03*
X030494Y000967D03*
D27*
X030761Y001267D03*
X030779Y001285D03*
X031001Y001495D03*
X031031Y001525D03*
X031049Y001537D03*
X031061Y001549D03*
X031079Y001567D03*
X031259Y001735D03*
X031271Y001747D03*
X031289Y001765D03*
X031301Y001777D03*
X031349Y001819D03*
X031541Y001999D03*
X031799Y002245D03*
X031829Y002269D03*
X031859Y002299D03*
X031889Y002329D03*
X031931Y002365D03*
X031961Y002395D03*
X031991Y002425D03*
X032231Y002647D03*
X032249Y002665D03*
X032261Y002677D03*
X032399Y002809D03*
X032411Y002815D03*
X032441Y002845D03*
X032471Y002875D03*
X032501Y002899D03*
X032519Y002917D03*
X032531Y002929D03*
X032549Y002947D03*
X032561Y002959D03*
X032579Y003157D03*
X032561Y003175D03*
X032501Y003229D03*
X032459Y003265D03*
X032381Y003337D03*
X032249Y003457D03*
X032129Y003565D03*
X031841Y003829D03*
X031721Y003937D03*
X031601Y004045D03*
X031589Y004057D03*
X031391Y004237D03*
X031139Y004465D03*
X030941Y004645D03*
X030929Y004657D03*
X030911Y004675D03*
X030851Y004729D03*
X030809Y004765D03*
X030749Y004819D03*
X030731Y004837D03*
X030551Y004999D03*
X030479Y005065D03*
X030419Y005119D03*
X030389Y005149D03*
X033059Y003427D03*
X033041Y003409D03*
X033029Y003397D03*
X033011Y003379D03*
X032951Y003325D03*
X032921Y003295D03*
X032849Y003229D03*
X032819Y003199D03*
X032789Y003169D03*
X032771Y003157D03*
X032789Y002965D03*
X032831Y002929D03*
X032891Y002875D03*
X032909Y002857D03*
X033011Y002767D03*
X033029Y002749D03*
X033041Y002737D03*
X033059Y002719D03*
X033089Y002695D03*
X033119Y002665D03*
X033161Y002629D03*
X033191Y002599D03*
X033239Y002557D03*
X033251Y002545D03*
X033329Y002479D03*
X033359Y002449D03*
X033371Y002437D03*
X033389Y002425D03*
X033389Y002419D03*
X033491Y002329D03*
X033551Y002275D03*
X033569Y002257D03*
X033689Y002149D03*
X033701Y002137D03*
X033731Y002107D03*
X033749Y002095D03*
X033779Y002065D03*
X033869Y001987D03*
X033881Y001975D03*
X033899Y001957D03*
X034001Y001867D03*
X034019Y001849D03*
X034031Y001837D03*
X034079Y001795D03*
X034109Y001765D03*
X034199Y001687D03*
X034229Y001657D03*
X034241Y001645D03*
X034349Y001549D03*
X034361Y001537D03*
X034409Y001495D03*
X034439Y001465D03*
X034481Y001429D03*
X034529Y001387D03*
X034541Y001375D03*
X034661Y001267D03*
X034679Y001249D03*
X034691Y001237D03*
X034739Y001195D03*
X034769Y001165D03*
X034781Y001159D03*
X034811Y001129D03*
X034841Y001099D03*
X034859Y001087D03*
X034871Y001075D03*
X034901Y001045D03*
X034991Y000967D03*
X031589Y001477D03*
X033191Y003547D03*
X033209Y003565D03*
X033239Y003595D03*
X033251Y003607D03*
X033281Y003637D03*
X033299Y003649D03*
X033329Y003679D03*
X033401Y003745D03*
X033431Y003775D03*
X033479Y003817D03*
X033521Y003859D03*
X033539Y003877D03*
X033551Y003889D03*
X033659Y003985D03*
X033671Y003997D03*
X033689Y004015D03*
X033719Y004045D03*
X033761Y004087D03*
X033911Y004225D03*
X033941Y004249D03*
X034001Y004309D03*
X034031Y004339D03*
X034181Y004477D03*
X034199Y004495D03*
X034211Y004507D03*
X034289Y004579D03*
X034319Y004609D03*
X034361Y004645D03*
X034391Y004675D03*
X034421Y004705D03*
X034451Y004729D03*
X034469Y004747D03*
X034481Y004759D03*
X034499Y004777D03*
X034679Y004945D03*
X034691Y004957D03*
X034709Y004975D03*
X034721Y004987D03*
X034769Y005029D03*
X034841Y005095D03*
X034961Y005209D03*
D28*
X033746Y004453D03*
X033746Y004441D03*
X033734Y004351D03*
X033734Y004333D03*
X033734Y004321D03*
X033728Y004291D03*
X033728Y004273D03*
X033728Y004261D03*
X033722Y004213D03*
X033692Y003883D03*
X033686Y003853D03*
X033674Y003733D03*
X033674Y003721D03*
X033674Y003703D03*
X033668Y003691D03*
X033668Y003673D03*
X033668Y003661D03*
X033656Y003553D03*
X033656Y003541D03*
X033656Y003523D03*
X033644Y003433D03*
X033638Y003343D03*
X033638Y003331D03*
X033632Y003313D03*
X033632Y003301D03*
X033632Y003283D03*
X033632Y003271D03*
X033626Y003253D03*
X033626Y003241D03*
X033614Y003133D03*
X033614Y003121D03*
X033614Y003103D03*
X033614Y003091D03*
X033608Y003073D03*
X033608Y003061D03*
X033608Y003043D03*
X033608Y003031D03*
X033596Y002923D03*
X033596Y002911D03*
X033584Y002821D03*
X033578Y002731D03*
X033572Y002701D03*
X033572Y002683D03*
X033572Y002671D03*
X033566Y002641D03*
X033566Y002623D03*
X033566Y002611D03*
X033554Y002521D03*
X033554Y002503D03*
X033554Y002491D03*
X033548Y002443D03*
X033548Y002431D03*
X033548Y002413D03*
X033524Y002173D03*
X033512Y002083D03*
X033512Y002071D03*
X033512Y002053D03*
X033506Y002023D03*
X033506Y002011D03*
X033506Y001993D03*
X033506Y001981D03*
X033494Y001891D03*
X033494Y001873D03*
X033494Y001861D03*
X033488Y001843D03*
X033488Y001831D03*
X033488Y001813D03*
X033482Y001783D03*
X033482Y001771D03*
X033476Y001693D03*
X031658Y002293D03*
X031658Y002311D03*
X031658Y002323D03*
X031652Y002341D03*
X031652Y002353D03*
X031652Y002371D03*
X031652Y002383D03*
X031646Y002431D03*
X031634Y002533D03*
X031634Y002551D03*
X031634Y002563D03*
X031634Y002581D03*
X031628Y002593D03*
X031628Y002611D03*
X031628Y002623D03*
X031616Y002731D03*
X031616Y002743D03*
X031616Y002761D03*
X031598Y002941D03*
X031592Y002953D03*
X031592Y002971D03*
X031592Y002983D03*
X031592Y003001D03*
X031586Y003013D03*
X031586Y003031D03*
X031574Y003151D03*
X031574Y003163D03*
X031574Y003181D03*
X031568Y003193D03*
X031568Y003211D03*
X031568Y003223D03*
X031568Y003241D03*
X031556Y003343D03*
X031556Y003361D03*
X031544Y003433D03*
X031544Y003451D03*
X031544Y003463D03*
X031532Y003553D03*
X031532Y003571D03*
X031532Y003583D03*
X031532Y003601D03*
X031526Y003631D03*
X031526Y003643D03*
X031526Y003661D03*
X031514Y003751D03*
X031514Y003763D03*
X031514Y003781D03*
X031508Y003811D03*
X031508Y003823D03*
X031508Y003841D03*
X031508Y003853D03*
X031502Y003871D03*
X031502Y003883D03*
X031502Y003901D03*
X031166Y004033D03*
X031454Y004411D03*
X031448Y004423D03*
X031448Y004441D03*
X031448Y004453D03*
X031448Y004471D03*
X032204Y004993D03*
X032204Y005071D03*
X032204Y005083D03*
X032204Y005101D03*
X032852Y005083D03*
X030494Y000973D03*
D29*
X030497Y000979D03*
X031841Y001327D03*
X033467Y001657D03*
X033551Y002467D03*
X033629Y003265D03*
X033671Y003697D03*
X033719Y004177D03*
X033749Y004477D03*
X033731Y004699D03*
X033719Y004717D03*
X032849Y004987D03*
X032207Y004987D03*
X032201Y004999D03*
X032201Y005065D03*
X031451Y004429D03*
X031451Y004399D03*
X031169Y004027D03*
X031511Y003799D03*
X031613Y002767D03*
D30*
X032006Y002437D03*
X032018Y002449D03*
X032024Y002455D03*
X032036Y002467D03*
X032048Y002479D03*
X032066Y002497D03*
X032084Y002509D03*
X032102Y002527D03*
X032114Y002539D03*
X032144Y002569D03*
X032216Y002635D03*
X032276Y002689D03*
X032282Y002695D03*
X032294Y002707D03*
X032306Y002719D03*
X032312Y002725D03*
X032336Y002749D03*
X032372Y002779D03*
X032378Y002785D03*
X032432Y002839D03*
X032582Y002977D03*
X032882Y003259D03*
X032888Y003265D03*
X032912Y003289D03*
X033158Y003517D03*
X033176Y003535D03*
X033218Y003577D03*
X033236Y003589D03*
X033368Y003715D03*
X033392Y003739D03*
X033428Y003769D03*
X033446Y003787D03*
X033458Y003799D03*
X033464Y003805D03*
X033488Y003829D03*
X033506Y003847D03*
X033698Y004027D03*
X033716Y004039D03*
X033734Y004057D03*
X033752Y004075D03*
X033944Y004255D03*
X033968Y004279D03*
X033986Y004297D03*
X034022Y004327D03*
X034052Y004357D03*
X034064Y004369D03*
X034226Y004519D03*
X034232Y004525D03*
X034256Y004549D03*
X034274Y004567D03*
X034328Y004615D03*
X034352Y004639D03*
X034544Y004819D03*
X034562Y004837D03*
X034598Y004867D03*
X034616Y004885D03*
X034628Y004897D03*
X034646Y004915D03*
X034658Y004927D03*
X034802Y005059D03*
X034808Y005065D03*
X034832Y005089D03*
X034868Y005119D03*
X034868Y005125D03*
X034886Y005137D03*
X034898Y005149D03*
X034904Y005155D03*
X034928Y005179D03*
X034934Y005185D03*
X034946Y005197D03*
X031898Y003775D03*
X032996Y002779D03*
X033218Y002575D03*
X033404Y002407D03*
X033812Y002035D03*
X033986Y001879D03*
X034046Y001825D03*
X034052Y001819D03*
X034064Y001807D03*
X034118Y001759D03*
X034148Y001729D03*
X034166Y001717D03*
X034184Y001699D03*
X034208Y001675D03*
X034328Y001567D03*
X034496Y001417D03*
X034514Y001399D03*
X034562Y001357D03*
X034574Y001345D03*
X034604Y001315D03*
X034616Y001309D03*
X034646Y001279D03*
X034706Y001225D03*
X034712Y001219D03*
X034724Y001207D03*
X034892Y001057D03*
X034976Y000979D03*
X032102Y001489D03*
X032096Y001879D03*
X031814Y002257D03*
X031544Y002005D03*
X031364Y001837D03*
X031334Y001807D03*
X031238Y001717D03*
X031226Y001705D03*
X031208Y001687D03*
X031196Y001675D03*
X031154Y001639D03*
X031142Y001627D03*
X031124Y001609D03*
X031112Y001597D03*
X031094Y001579D03*
X031028Y001519D03*
X030992Y001489D03*
X030986Y001477D03*
X030968Y001465D03*
X030938Y001435D03*
X030932Y001429D03*
X030908Y001405D03*
X030872Y001375D03*
X030854Y001357D03*
X030842Y001345D03*
X030836Y001339D03*
X030824Y001327D03*
X030812Y001315D03*
X030806Y001309D03*
X030794Y001297D03*
X030746Y001255D03*
X030722Y001237D03*
X030704Y001219D03*
X030662Y001177D03*
X030644Y001159D03*
X030584Y001105D03*
X030566Y001087D03*
X030554Y001075D03*
X030548Y001069D03*
X030536Y001057D03*
X030524Y001045D03*
X030518Y001039D03*
X030506Y001027D03*
X031574Y001489D03*
X030662Y004897D03*
X030452Y005089D03*
X030434Y005107D03*
X030398Y005137D03*
X030356Y005179D03*
D31*
X030413Y005125D03*
X030467Y005077D03*
X030485Y005059D03*
X030497Y005047D03*
X030515Y005029D03*
X030575Y004975D03*
X030617Y004939D03*
X030647Y004915D03*
X030677Y004885D03*
X030713Y004855D03*
X030767Y004807D03*
X030785Y004789D03*
X030797Y004777D03*
X030815Y004759D03*
X030833Y004747D03*
X030863Y004717D03*
X030875Y004705D03*
X030917Y004669D03*
X030995Y004597D03*
X031007Y004585D03*
X031013Y004579D03*
X031073Y004525D03*
X031145Y004459D03*
X031193Y004417D03*
X031205Y004405D03*
X031325Y004297D03*
X031403Y004225D03*
X031445Y004189D03*
X031823Y003847D03*
X031865Y003805D03*
X032117Y003577D03*
X032183Y003517D03*
X032195Y003505D03*
X032297Y003415D03*
X032315Y003397D03*
X032393Y003325D03*
X032417Y003307D03*
X032435Y003289D03*
X032447Y003277D03*
X032477Y003247D03*
X032495Y003235D03*
X032513Y003217D03*
X032525Y003205D03*
X032567Y003169D03*
X032567Y002965D03*
X032537Y002935D03*
X032507Y002905D03*
X032465Y002869D03*
X032453Y002857D03*
X032423Y002827D03*
X032357Y002767D03*
X032345Y002755D03*
X032327Y002737D03*
X032243Y002659D03*
X032213Y002629D03*
X032195Y002617D03*
X032177Y002599D03*
X032165Y002587D03*
X032135Y002557D03*
X031985Y002419D03*
X031973Y002407D03*
X031955Y002389D03*
X031943Y002377D03*
X031925Y002359D03*
X031907Y002347D03*
X031877Y002317D03*
X031865Y002305D03*
X031847Y002287D03*
X031835Y002275D03*
X031715Y002167D03*
X031703Y002155D03*
X031697Y002149D03*
X031685Y002137D03*
X031673Y002125D03*
X031667Y002119D03*
X031655Y002107D03*
X031643Y002095D03*
X031637Y002089D03*
X031355Y001825D03*
X031313Y001789D03*
X031283Y001759D03*
X031253Y001729D03*
X031187Y001669D03*
X031175Y001657D03*
X031067Y001555D03*
X030965Y001459D03*
X030773Y001279D03*
X030713Y001225D03*
X030695Y001207D03*
X032087Y001477D03*
X032087Y001885D03*
X033137Y002647D03*
X033125Y002659D03*
X033107Y002677D03*
X033095Y002689D03*
X033077Y002707D03*
X033053Y002725D03*
X033023Y002755D03*
X032987Y002785D03*
X032975Y002797D03*
X032963Y002809D03*
X032957Y002815D03*
X032933Y002839D03*
X032897Y002869D03*
X032855Y002905D03*
X032813Y002947D03*
X032777Y002977D03*
X032795Y003175D03*
X032807Y003187D03*
X032825Y003205D03*
X032837Y003217D03*
X032855Y003235D03*
X032903Y003277D03*
X032933Y003307D03*
X032945Y003319D03*
X032963Y003337D03*
X032993Y003367D03*
X033017Y003385D03*
X033077Y003439D03*
X033083Y003445D03*
X033095Y003457D03*
X033107Y003469D03*
X033113Y003475D03*
X033125Y003487D03*
X033137Y003499D03*
X033143Y003505D03*
X033263Y003619D03*
X033275Y003625D03*
X033305Y003655D03*
X033317Y003667D03*
X033335Y003685D03*
X033347Y003697D03*
X033365Y003709D03*
X033383Y003727D03*
X033413Y003757D03*
X033497Y003835D03*
X033527Y003865D03*
X033653Y003979D03*
X033683Y004009D03*
X033863Y004177D03*
X033875Y004189D03*
X033893Y004207D03*
X033905Y004219D03*
X033923Y004237D03*
X033977Y004285D03*
X034007Y004315D03*
X034073Y004375D03*
X034085Y004387D03*
X034097Y004399D03*
X034103Y004405D03*
X034115Y004417D03*
X034127Y004429D03*
X034133Y004435D03*
X034163Y004459D03*
X034193Y004489D03*
X034247Y004537D03*
X034265Y004555D03*
X034295Y004585D03*
X034373Y004657D03*
X034385Y004669D03*
X034403Y004687D03*
X034415Y004699D03*
X034433Y004717D03*
X034457Y004735D03*
X034487Y004765D03*
X034535Y004807D03*
X034553Y004825D03*
X034607Y004879D03*
X034673Y004939D03*
X034703Y004969D03*
X034745Y005005D03*
X034757Y005017D03*
X034775Y005035D03*
X034913Y005167D03*
X034967Y005215D03*
X033155Y002635D03*
X033173Y002617D03*
X033185Y002605D03*
X033257Y002539D03*
X033287Y002515D03*
X033305Y002497D03*
X033323Y002485D03*
X033353Y002455D03*
X033485Y002335D03*
X033503Y002317D03*
X033515Y002305D03*
X033527Y002299D03*
X033533Y002287D03*
X033557Y002269D03*
X033665Y002167D03*
X033683Y002155D03*
X033713Y002125D03*
X033755Y002089D03*
X033767Y002077D03*
X033815Y002029D03*
X033833Y002017D03*
X033845Y002005D03*
X033887Y001969D03*
X033923Y001939D03*
X033935Y001927D03*
X033947Y001915D03*
X033953Y001909D03*
X033965Y001897D03*
X033983Y001885D03*
X034013Y001855D03*
X034085Y001789D03*
X034097Y001777D03*
X034145Y001735D03*
X034175Y001705D03*
X034217Y001669D03*
X034247Y001639D03*
X034265Y001627D03*
X034283Y001609D03*
X034295Y001597D03*
X034307Y001585D03*
X034313Y001579D03*
X034343Y001555D03*
X034397Y001507D03*
X034415Y001489D03*
X034427Y001477D03*
X034463Y001447D03*
X034475Y001435D03*
X034547Y001369D03*
X034595Y001327D03*
X034625Y001297D03*
X034673Y001255D03*
X034745Y001189D03*
X034787Y001147D03*
X034805Y001135D03*
X034823Y001117D03*
X034877Y001069D03*
X034925Y001027D03*
X034937Y001015D03*
X034943Y001009D03*
X034955Y000997D03*
X034973Y000985D03*
D32*
X031838Y001813D03*
X030494Y000991D03*
X031634Y004891D03*
X030326Y005233D03*
X035006Y005281D03*
D33*
X034811Y005071D03*
X034751Y005011D03*
X034589Y004861D03*
X034571Y004843D03*
X034559Y004831D03*
X034541Y004813D03*
X034439Y004723D03*
X034409Y004693D03*
X034379Y004663D03*
X034301Y004591D03*
X034271Y004561D03*
X034121Y004423D03*
X034109Y004411D03*
X034091Y004393D03*
X034079Y004381D03*
X034061Y004363D03*
X033929Y004243D03*
X033899Y004213D03*
X033869Y004183D03*
X033659Y003991D03*
X033419Y003763D03*
X033389Y003733D03*
X033341Y003691D03*
X033311Y003661D03*
X033161Y003523D03*
X033149Y003511D03*
X033131Y003493D03*
X033119Y003481D03*
X033101Y003463D03*
X032969Y003343D03*
X032939Y003313D03*
X032909Y003283D03*
X032861Y003241D03*
X032831Y003211D03*
X032801Y003181D03*
X032519Y003211D03*
X032441Y003283D03*
X032321Y003391D03*
X032309Y003403D03*
X032189Y003511D03*
X031859Y003811D03*
X031781Y003883D03*
X031001Y004591D03*
X030989Y004603D03*
X030971Y004621D03*
X030869Y004711D03*
X030791Y004783D03*
X030671Y004891D03*
X030539Y005011D03*
X030491Y005053D03*
X030359Y005173D03*
X032459Y002863D03*
X032429Y002833D03*
X032381Y002791D03*
X032189Y002611D03*
X032171Y002593D03*
X032159Y002581D03*
X032141Y002563D03*
X031949Y002383D03*
X031919Y002353D03*
X031901Y002341D03*
X031871Y002311D03*
X031691Y002143D03*
X031679Y002131D03*
X031661Y002113D03*
X031649Y002101D03*
X031631Y002083D03*
X031361Y001831D03*
X031181Y001663D03*
X031169Y001651D03*
X031019Y001513D03*
X030989Y001483D03*
X030731Y001243D03*
X030701Y001213D03*
X030509Y001033D03*
X032081Y001471D03*
X032081Y001891D03*
X033149Y002641D03*
X033179Y002611D03*
X033101Y002683D03*
X032981Y002791D03*
X032969Y002803D03*
X032951Y002821D03*
X033299Y002503D03*
X033311Y002491D03*
X033509Y002311D03*
X033659Y002173D03*
X033791Y002053D03*
X033929Y001933D03*
X033941Y001921D03*
X033971Y001891D03*
X034061Y001813D03*
X034139Y001741D03*
X034169Y001711D03*
X034289Y001603D03*
X034301Y001591D03*
X034421Y001483D03*
X034439Y001471D03*
X034469Y001441D03*
X034499Y001411D03*
X034601Y001321D03*
X034721Y001213D03*
X034751Y001183D03*
X034799Y001141D03*
X034829Y001111D03*
X034919Y001033D03*
X034931Y001021D03*
X034961Y000991D03*
D34*
X032186Y001669D03*
X032186Y001675D03*
X030494Y000997D03*
X031670Y004915D03*
D35*
X031706Y004933D03*
X031304Y004891D03*
X030344Y005203D03*
X030494Y001003D03*
D36*
X030494Y001009D03*
X032126Y001849D03*
X031304Y004885D03*
D37*
X031727Y004939D03*
X031733Y004945D03*
X031301Y004315D03*
X031307Y004309D03*
X030353Y005185D03*
X034973Y005227D03*
X032111Y001867D03*
X032111Y001495D03*
X030899Y001399D03*
X030869Y001369D03*
X030629Y001147D03*
X030611Y001129D03*
X030599Y001117D03*
X030581Y001099D03*
X030497Y001015D03*
D38*
X030500Y001021D03*
X030560Y001081D03*
X030830Y001333D03*
X030860Y001363D03*
X030890Y001393D03*
X031580Y001483D03*
X031550Y002011D03*
X031820Y002263D03*
X032000Y002431D03*
X032030Y002461D03*
X032270Y002683D03*
X032300Y002713D03*
X032330Y002743D03*
X032990Y003361D03*
X033470Y003811D03*
X034250Y004543D03*
X034910Y005161D03*
X034970Y005221D03*
X031310Y004303D03*
X033530Y002293D03*
X034040Y001831D03*
X034070Y001801D03*
X034520Y001393D03*
X034700Y001231D03*
D39*
X034682Y001243D03*
X034664Y001261D03*
X034652Y001273D03*
X034634Y001291D03*
X034622Y001303D03*
X034586Y001333D03*
X034556Y001363D03*
X034352Y001543D03*
X034268Y001621D03*
X034124Y001753D03*
X034106Y001771D03*
X034088Y001783D03*
X033962Y001903D03*
X034784Y001153D03*
X034886Y001063D03*
X032096Y001483D03*
X032102Y001873D03*
X031808Y002251D03*
X031838Y002281D03*
X031712Y002161D03*
X031982Y002413D03*
X032012Y002443D03*
X032042Y002473D03*
X032066Y002491D03*
X032108Y002533D03*
X032126Y002551D03*
X032204Y002623D03*
X032288Y002701D03*
X032318Y002731D03*
X032354Y002761D03*
X032366Y002773D03*
X032396Y002803D03*
X032414Y002821D03*
X033014Y002761D03*
X033068Y002713D03*
X032876Y003253D03*
X032894Y003271D03*
X033182Y003541D03*
X033452Y003793D03*
X033674Y004003D03*
X034028Y004333D03*
X034334Y004621D03*
X034346Y004633D03*
X034478Y004753D03*
X034604Y004873D03*
X034622Y004891D03*
X034634Y004903D03*
X034664Y004933D03*
X034682Y004951D03*
X034784Y005041D03*
X034826Y005083D03*
X034856Y005113D03*
X034892Y005143D03*
X034922Y005173D03*
X034952Y005203D03*
X030626Y004933D03*
X030458Y005083D03*
X030374Y005161D03*
X031262Y001741D03*
X031232Y001711D03*
X031214Y001693D03*
X031202Y001681D03*
X031148Y001633D03*
X031136Y001621D03*
X031118Y001603D03*
X031076Y001561D03*
X030974Y001471D03*
X030956Y001453D03*
X030944Y001441D03*
X030926Y001423D03*
X030914Y001411D03*
X030878Y001381D03*
X030848Y001351D03*
X030788Y001291D03*
X030722Y001231D03*
X030686Y001201D03*
X030668Y001183D03*
X030656Y001171D03*
X030638Y001153D03*
X030596Y001111D03*
X030572Y001093D03*
X030542Y001063D03*
X030524Y001051D03*
D40*
X031322Y001795D03*
X031628Y002077D03*
X031724Y002179D03*
X031898Y002335D03*
X032186Y002605D03*
X032486Y002887D03*
X032546Y003187D03*
X032534Y003199D03*
X032468Y003259D03*
X032426Y003295D03*
X032402Y003319D03*
X032366Y003349D03*
X032360Y003355D03*
X032348Y003367D03*
X032336Y003379D03*
X032330Y003385D03*
X032300Y003409D03*
X032282Y003427D03*
X032270Y003439D03*
X032264Y003445D03*
X032234Y003469D03*
X032228Y003475D03*
X032216Y003487D03*
X032204Y003499D03*
X032168Y003529D03*
X032162Y003535D03*
X032150Y003547D03*
X032138Y003559D03*
X032102Y003589D03*
X032096Y003595D03*
X032084Y003607D03*
X032072Y003619D03*
X031910Y003769D03*
X031886Y003787D03*
X031874Y003799D03*
X031856Y003817D03*
X031832Y003835D03*
X031808Y003859D03*
X031802Y003865D03*
X031772Y003889D03*
X031766Y003895D03*
X031754Y003907D03*
X031742Y003919D03*
X031736Y003925D03*
X031706Y003949D03*
X031700Y003955D03*
X031604Y004039D03*
X031574Y004069D03*
X031568Y004075D03*
X031556Y004087D03*
X031544Y004099D03*
X031538Y004105D03*
X031526Y004117D03*
X031436Y004195D03*
X031424Y004207D03*
X031412Y004219D03*
X031376Y004249D03*
X031370Y004255D03*
X031358Y004267D03*
X031346Y004279D03*
X031340Y004285D03*
X031214Y004399D03*
X031178Y004429D03*
X031172Y004435D03*
X031160Y004447D03*
X031124Y004477D03*
X031112Y004489D03*
X031106Y004495D03*
X031094Y004507D03*
X031082Y004519D03*
X031058Y004537D03*
X031046Y004549D03*
X031040Y004555D03*
X031028Y004567D03*
X030980Y004609D03*
X030974Y004615D03*
X030962Y004627D03*
X030950Y004639D03*
X030896Y004687D03*
X030884Y004699D03*
X030842Y004735D03*
X030776Y004795D03*
X030746Y004825D03*
X030716Y004849D03*
X030698Y004867D03*
X030686Y004879D03*
X030650Y004909D03*
X030632Y004927D03*
X030614Y004945D03*
X030596Y004957D03*
X030584Y004969D03*
X030566Y004987D03*
X030542Y005005D03*
X030530Y005017D03*
X030512Y005035D03*
X030446Y005095D03*
X030368Y005167D03*
X032978Y003349D03*
X032984Y003355D03*
X033050Y003415D03*
X032798Y002959D03*
X032822Y002935D03*
X032846Y002917D03*
X032864Y002899D03*
X032876Y002887D03*
X032924Y002845D03*
X032942Y002827D03*
X033206Y002587D03*
X033224Y002569D03*
X033272Y002527D03*
X033290Y002509D03*
X033338Y002467D03*
X033578Y002245D03*
X033722Y002119D03*
X033788Y002059D03*
X033800Y002047D03*
X033854Y001999D03*
X033914Y001945D03*
X034274Y001615D03*
X034376Y001525D03*
X034382Y001519D03*
X034448Y001459D03*
X034508Y001405D03*
X034838Y001105D03*
X032072Y001897D03*
X031604Y001465D03*
X033746Y004069D03*
X033878Y004195D03*
X033956Y004267D03*
X034148Y004447D03*
X034166Y004465D03*
X034514Y004789D03*
X034736Y004999D03*
D41*
X030605Y001123D03*
D42*
X030623Y001141D03*
X032897Y005071D03*
X034979Y005233D03*
D43*
X034154Y004453D03*
X034142Y004441D03*
X033644Y003973D03*
X033374Y003721D03*
X033356Y003703D03*
X033086Y003451D03*
X033068Y003433D03*
X032552Y003181D03*
X032486Y003241D03*
X032420Y003301D03*
X032408Y003313D03*
X032354Y003361D03*
X032342Y003373D03*
X032288Y003421D03*
X032276Y003433D03*
X032258Y003451D03*
X032246Y003463D03*
X032222Y003481D03*
X032210Y003493D03*
X032174Y003523D03*
X032156Y003541D03*
X032144Y003553D03*
X032126Y003571D03*
X032108Y003583D03*
X032090Y003601D03*
X032078Y003613D03*
X031892Y003781D03*
X031880Y003793D03*
X031826Y003841D03*
X031814Y003853D03*
X031796Y003871D03*
X031760Y003901D03*
X031748Y003913D03*
X031694Y003961D03*
X031580Y004063D03*
X031562Y004081D03*
X031550Y004093D03*
X031532Y004111D03*
X031430Y004201D03*
X031418Y004213D03*
X031400Y004231D03*
X031364Y004261D03*
X031352Y004273D03*
X031334Y004291D03*
X031202Y004411D03*
X031184Y004423D03*
X031166Y004441D03*
X031154Y004453D03*
X031118Y004483D03*
X031100Y004501D03*
X031088Y004513D03*
X031070Y004531D03*
X031052Y004543D03*
X031034Y004561D03*
X031022Y004573D03*
X030920Y004663D03*
X030902Y004681D03*
X030836Y004741D03*
X030824Y004753D03*
X030758Y004813D03*
X030692Y004873D03*
X030656Y004903D03*
X030638Y004921D03*
X030590Y004963D03*
X030572Y004981D03*
X030524Y005023D03*
X031754Y004951D03*
X032786Y002971D03*
X032816Y002941D03*
X032852Y002911D03*
X032882Y002881D03*
X033002Y002773D03*
X033080Y002701D03*
X033134Y002653D03*
X033266Y002533D03*
X033278Y002521D03*
X033332Y002473D03*
X033380Y002431D03*
X033398Y002413D03*
X033482Y002341D03*
X033728Y002113D03*
X033740Y002101D03*
X033758Y002083D03*
X033806Y002041D03*
X033842Y002011D03*
X033860Y001993D03*
X033872Y001981D03*
X033896Y001963D03*
X033992Y001873D03*
X034322Y001573D03*
X034334Y001561D03*
X034388Y001513D03*
X031724Y002173D03*
X030752Y001261D03*
D44*
X033149Y001291D03*
X032879Y003631D03*
X031331Y004393D03*
D45*
X031307Y004861D03*
X031853Y004981D03*
X031841Y001603D03*
X033293Y001291D03*
D46*
X033437Y001291D03*
X031817Y001543D03*
D47*
X033293Y001549D03*
X033293Y001555D03*
X033293Y001567D03*
X033293Y001537D03*
X033293Y001525D03*
X033293Y001519D03*
X033293Y001507D03*
X033293Y001495D03*
X033293Y001489D03*
X033293Y001477D03*
X033293Y001465D03*
X033293Y001459D03*
X033293Y001447D03*
X033293Y001435D03*
X033293Y001429D03*
X033293Y001417D03*
X033293Y001405D03*
X033293Y001399D03*
X033293Y001387D03*
X033293Y001375D03*
X033293Y001369D03*
X033293Y001357D03*
X033293Y001345D03*
X033293Y001339D03*
X033293Y001327D03*
X033293Y001315D03*
X033293Y001309D03*
X033293Y001297D03*
X032675Y003127D03*
D48*
X033293Y001561D03*
X033293Y001543D03*
X033293Y001531D03*
X033293Y001513D03*
X033293Y001501D03*
X033293Y001483D03*
X033293Y001471D03*
X033293Y001453D03*
X033293Y001441D03*
X033293Y001423D03*
X033293Y001411D03*
X033293Y001393D03*
X033293Y001381D03*
X033293Y001363D03*
X033293Y001351D03*
X033293Y001333D03*
X033293Y001321D03*
X033293Y001303D03*
X031925Y004993D03*
D49*
X032018Y004987D03*
X031514Y004339D03*
X035042Y005365D03*
X031898Y001327D03*
X031784Y001327D03*
D50*
X031838Y001333D03*
X031838Y001783D03*
X033620Y003931D03*
D51*
X031499Y004165D03*
X031751Y002227D03*
X031841Y001339D03*
D52*
X031841Y001345D03*
X031841Y001615D03*
X031841Y001747D03*
X032681Y003019D03*
X033449Y004909D03*
D53*
X031307Y004831D03*
X032681Y003001D03*
X031841Y001693D03*
X031841Y001681D03*
X031841Y001663D03*
X031841Y001351D03*
D54*
X031838Y001357D03*
X031460Y001849D03*
D55*
X031838Y001363D03*
D56*
X031841Y001369D03*
X031319Y004687D03*
D57*
X031322Y004747D03*
X031838Y001375D03*
D58*
X031838Y001381D03*
D59*
X031841Y001387D03*
D60*
X031838Y001393D03*
D61*
X031835Y001399D03*
D62*
X031841Y001405D03*
D63*
X031841Y001411D03*
D64*
X031838Y001417D03*
D65*
X031838Y001423D03*
D66*
X031841Y001429D03*
D67*
X031670Y001435D03*
X031490Y004177D03*
D68*
X033431Y004705D03*
X033431Y004765D03*
X033431Y004789D03*
X033431Y004819D03*
X033431Y004939D03*
X033611Y002185D03*
X032009Y001435D03*
D69*
X032033Y001441D03*
X031649Y001441D03*
X031607Y002041D03*
D70*
X031637Y001447D03*
X032045Y001447D03*
X033467Y002365D03*
X032681Y003049D03*
D71*
X031625Y001453D03*
D72*
X032054Y001453D03*
X032066Y001903D03*
X031622Y002071D03*
X032678Y003061D03*
X033476Y002353D03*
X032144Y005053D03*
D73*
X031775Y004957D03*
X031787Y003877D03*
X032675Y003067D03*
X033767Y004099D03*
X031727Y002185D03*
X031613Y001459D03*
X032075Y001465D03*
D74*
X032066Y001459D03*
D75*
X032120Y001855D03*
X031568Y001495D03*
D76*
X032114Y001501D03*
X032126Y001513D03*
X032114Y001861D03*
D77*
X032138Y001837D03*
X032132Y001519D03*
X031538Y001825D03*
X031532Y001819D03*
D78*
X031538Y001831D03*
X031538Y001531D03*
X032138Y001531D03*
X032138Y001831D03*
X032132Y001843D03*
X034988Y005251D03*
D79*
X031535Y001537D03*
D80*
X031529Y001549D03*
X031523Y001555D03*
X031517Y001567D03*
X031517Y001789D03*
X031523Y001807D03*
X031841Y001555D03*
X032141Y001537D03*
X032153Y001549D03*
X032153Y001555D03*
X032159Y001567D03*
X032171Y001585D03*
X032159Y001795D03*
X032153Y001807D03*
X032147Y001819D03*
X032141Y001825D03*
D81*
X032168Y001783D03*
X032168Y001771D03*
X032162Y001573D03*
X031532Y001543D03*
X031514Y001573D03*
X031508Y001591D03*
X031502Y001753D03*
X031508Y001771D03*
X031514Y001783D03*
X031682Y004921D03*
D82*
X031361Y004393D03*
X031841Y001543D03*
X035045Y005353D03*
D83*
X032153Y001813D03*
X032159Y001801D03*
X032159Y001561D03*
X032147Y001543D03*
X031523Y001561D03*
X031523Y001801D03*
X031529Y001813D03*
D84*
X031838Y001801D03*
X031838Y001561D03*
D85*
X031841Y001567D03*
X031841Y001795D03*
X033479Y002347D03*
X033581Y002239D03*
X032069Y003625D03*
X033641Y003967D03*
D86*
X033590Y002221D03*
X031838Y001573D03*
D87*
X033290Y001573D03*
D88*
X032168Y001579D03*
X032168Y001777D03*
X032162Y001789D03*
X031838Y001807D03*
X031508Y001765D03*
X031502Y001747D03*
X031496Y001729D03*
X031502Y001609D03*
X031514Y001579D03*
X031688Y004927D03*
X030338Y005209D03*
X030338Y005215D03*
X034994Y005257D03*
D89*
X033788Y004129D03*
X032678Y003085D03*
X031508Y004147D03*
X031808Y004969D03*
X032132Y005047D03*
X031742Y002209D03*
X031610Y002047D03*
X032042Y001915D03*
X031838Y001579D03*
D90*
X033290Y001579D03*
D91*
X032189Y001657D03*
X032189Y001687D03*
X032189Y001699D03*
X032189Y001705D03*
X032171Y001759D03*
X032171Y001765D03*
X031511Y001777D03*
X031499Y001735D03*
X031499Y001627D03*
X031499Y001615D03*
X031511Y001585D03*
D92*
X031838Y001585D03*
X031838Y001777D03*
X033464Y002377D03*
X033614Y003919D03*
X033614Y003925D03*
X033428Y005095D03*
X031502Y004159D03*
D93*
X033389Y004975D03*
X033467Y004879D03*
X033293Y001585D03*
X031841Y001669D03*
X031841Y001675D03*
X031841Y001687D03*
X031841Y001699D03*
D94*
X031841Y001591D03*
X031751Y002233D03*
X033431Y004843D03*
D95*
X032798Y001591D03*
D96*
X032183Y001717D03*
X032183Y001729D03*
X032183Y001735D03*
X032177Y001747D03*
X031505Y001759D03*
X031493Y001717D03*
X031493Y001705D03*
X031493Y001699D03*
X031493Y001687D03*
X031493Y001675D03*
X031493Y001669D03*
X031493Y001657D03*
X031493Y001645D03*
X031493Y001639D03*
X031505Y001597D03*
X032177Y005059D03*
X034997Y005269D03*
D97*
X033599Y003895D03*
X031871Y004987D03*
X031841Y001759D03*
X031841Y001597D03*
D98*
X032798Y001597D03*
D99*
X032183Y001723D03*
X032177Y001753D03*
X031493Y001723D03*
X031493Y001711D03*
X031493Y001693D03*
X031493Y001681D03*
X031493Y001663D03*
X031493Y001651D03*
X031493Y001633D03*
X031505Y001603D03*
X030335Y005221D03*
X034997Y005263D03*
D100*
X032804Y001603D03*
D101*
X031841Y001609D03*
X032681Y003025D03*
X033425Y004687D03*
D102*
X032813Y001645D03*
X032813Y001639D03*
X032813Y001627D03*
X032807Y001609D03*
D103*
X032810Y001615D03*
D104*
X031838Y001621D03*
X031838Y001741D03*
X031304Y004843D03*
X033452Y004903D03*
D105*
X032810Y001621D03*
D106*
X031841Y001627D03*
X031841Y001735D03*
D107*
X031838Y001723D03*
X031838Y001633D03*
D108*
X032813Y001633D03*
D109*
X031838Y001639D03*
X031838Y001729D03*
X032678Y003007D03*
X033458Y004897D03*
X031304Y004837D03*
D110*
X032084Y005035D03*
X033464Y004885D03*
X031838Y001705D03*
X031838Y001657D03*
X031838Y001645D03*
D111*
X031838Y001651D03*
X031838Y001711D03*
D112*
X032195Y001651D03*
D113*
X033461Y001651D03*
X031493Y003961D03*
X031445Y004501D03*
X031547Y004813D03*
X031565Y004831D03*
X032213Y004981D03*
X033629Y004831D03*
X033671Y004783D03*
X033683Y004771D03*
X033695Y004753D03*
X030317Y005251D03*
D114*
X032180Y001741D03*
X032186Y001711D03*
X032186Y001663D03*
D115*
X031640Y002503D03*
X031610Y002773D03*
X031610Y002791D03*
X031610Y002803D03*
X031610Y002821D03*
X031550Y003373D03*
X031550Y003391D03*
X031550Y003403D03*
X031550Y003421D03*
X031580Y004213D03*
X031580Y004231D03*
X031580Y004243D03*
X031580Y004261D03*
X031580Y004273D03*
X031580Y004291D03*
X031580Y004303D03*
X033740Y004381D03*
X033740Y004393D03*
X033740Y004411D03*
X033740Y004423D03*
X033680Y003781D03*
X033680Y003751D03*
X033650Y003493D03*
X033650Y003481D03*
X033650Y003463D03*
X033650Y003451D03*
X033620Y003151D03*
X033590Y002893D03*
X033590Y002881D03*
X033590Y002863D03*
X033590Y002851D03*
X033500Y001963D03*
X033500Y001951D03*
X033470Y001663D03*
D116*
X033473Y001681D03*
X033485Y001801D03*
X033497Y001903D03*
X033497Y001921D03*
X033497Y001933D03*
X033515Y002101D03*
X033515Y002113D03*
X033557Y002533D03*
X033557Y002551D03*
X033563Y002581D03*
X033563Y002593D03*
X033575Y002713D03*
X033587Y002833D03*
X033605Y003013D03*
X033623Y003193D03*
X033623Y003211D03*
X033623Y003223D03*
X033665Y003613D03*
X033665Y003631D03*
X033665Y003643D03*
X033677Y003763D03*
X033683Y003793D03*
X033683Y003811D03*
X033683Y003823D03*
X033683Y003841D03*
X033725Y004231D03*
X033725Y004243D03*
X035027Y005323D03*
X031583Y004333D03*
X031583Y004321D03*
X031583Y004201D03*
X031445Y004483D03*
X031163Y004303D03*
X031163Y004291D03*
X031163Y004273D03*
X031163Y004261D03*
X031163Y004243D03*
X031163Y004231D03*
X031163Y004213D03*
X031163Y004201D03*
X031163Y004183D03*
X031163Y004171D03*
X031163Y004153D03*
X031163Y004141D03*
X031163Y004123D03*
X031163Y004111D03*
X031163Y004093D03*
X031163Y004081D03*
X031163Y004063D03*
X031163Y004051D03*
X031517Y003733D03*
X031517Y003721D03*
X031523Y003691D03*
X031523Y003673D03*
X031535Y003541D03*
X031565Y003253D03*
X031577Y003133D03*
X031577Y003121D03*
X031583Y003073D03*
X031583Y003061D03*
X031583Y003043D03*
X031607Y002833D03*
X031625Y002653D03*
X031625Y002641D03*
X031637Y002521D03*
X031643Y002491D03*
X031643Y002473D03*
X031643Y002461D03*
X031643Y002443D03*
X031667Y002251D03*
D117*
X031664Y002257D03*
X031658Y002299D03*
X031658Y002305D03*
X031658Y002317D03*
X031658Y002329D03*
X031658Y002335D03*
X031652Y002347D03*
X031652Y002359D03*
X031652Y002365D03*
X031652Y002377D03*
X031652Y002389D03*
X031652Y002395D03*
X031646Y002407D03*
X031646Y002419D03*
X031646Y002425D03*
X031646Y002437D03*
X031634Y002527D03*
X031634Y002539D03*
X031634Y002545D03*
X031634Y002557D03*
X031634Y002569D03*
X031634Y002575D03*
X031628Y002587D03*
X031628Y002599D03*
X031628Y002605D03*
X031628Y002617D03*
X031616Y002725D03*
X031616Y002737D03*
X031616Y002749D03*
X031616Y002755D03*
X031604Y002839D03*
X031598Y002935D03*
X031592Y002959D03*
X031592Y002965D03*
X031592Y002977D03*
X031592Y002989D03*
X031592Y002995D03*
X031586Y003019D03*
X031586Y003025D03*
X031586Y003037D03*
X031574Y003145D03*
X031574Y003157D03*
X031574Y003169D03*
X031574Y003175D03*
X031574Y003187D03*
X031568Y003199D03*
X031568Y003205D03*
X031568Y003217D03*
X031568Y003229D03*
X031568Y003235D03*
X031562Y003259D03*
X031556Y003349D03*
X031556Y003355D03*
X031556Y003367D03*
X031544Y003439D03*
X031544Y003445D03*
X031544Y003457D03*
X031532Y003559D03*
X031532Y003565D03*
X031532Y003577D03*
X031532Y003589D03*
X031532Y003595D03*
X031532Y003607D03*
X031526Y003619D03*
X031526Y003625D03*
X031526Y003637D03*
X031526Y003649D03*
X031526Y003655D03*
X031526Y003667D03*
X031514Y003757D03*
X031514Y003769D03*
X031514Y003775D03*
X031514Y003787D03*
X031508Y003805D03*
X031508Y003817D03*
X031508Y003829D03*
X031508Y003835D03*
X031508Y003847D03*
X031502Y003865D03*
X031502Y003877D03*
X031502Y003889D03*
X031502Y003895D03*
X031496Y003949D03*
X031496Y003955D03*
X031166Y004039D03*
X031166Y004249D03*
X031166Y004315D03*
X031454Y004417D03*
X031448Y004435D03*
X031448Y004447D03*
X031448Y004459D03*
X031448Y004465D03*
X031448Y004477D03*
X032204Y005077D03*
X032204Y005089D03*
X032204Y005095D03*
X032846Y005095D03*
X032852Y005089D03*
X032852Y005005D03*
X032852Y004999D03*
X033752Y004495D03*
X033752Y004489D03*
X033746Y004459D03*
X033746Y004447D03*
X033734Y004357D03*
X033734Y004345D03*
X033734Y004339D03*
X033734Y004327D03*
X033734Y004315D03*
X033734Y004309D03*
X033728Y004297D03*
X033728Y004285D03*
X033728Y004279D03*
X033728Y004267D03*
X033728Y004255D03*
X033722Y004219D03*
X033722Y004207D03*
X033692Y003877D03*
X033686Y003859D03*
X033686Y003847D03*
X033674Y003745D03*
X033674Y003739D03*
X033674Y003727D03*
X033674Y003715D03*
X033674Y003709D03*
X033668Y003685D03*
X033668Y003679D03*
X033668Y003667D03*
X033668Y003655D03*
X033668Y003649D03*
X033662Y003595D03*
X033656Y003559D03*
X033656Y003547D03*
X033656Y003535D03*
X033656Y003529D03*
X033656Y003517D03*
X033644Y003439D03*
X033638Y003355D03*
X033638Y003349D03*
X033638Y003337D03*
X033638Y003325D03*
X033632Y003319D03*
X033632Y003307D03*
X033632Y003295D03*
X033632Y003289D03*
X033632Y003277D03*
X033626Y003259D03*
X033626Y003247D03*
X033614Y003139D03*
X033614Y003127D03*
X033614Y003115D03*
X033614Y003109D03*
X033614Y003097D03*
X033614Y003085D03*
X033608Y003079D03*
X033608Y003067D03*
X033608Y003055D03*
X033608Y003049D03*
X033608Y003037D03*
X033596Y002917D03*
X033596Y002905D03*
X033596Y002899D03*
X033584Y002815D03*
X033584Y002809D03*
X033578Y002737D03*
X033572Y002707D03*
X033572Y002695D03*
X033572Y002689D03*
X033572Y002677D03*
X033572Y002665D03*
X033572Y002659D03*
X033566Y002647D03*
X033566Y002635D03*
X033566Y002629D03*
X033566Y002617D03*
X033566Y002605D03*
X033554Y002515D03*
X033554Y002509D03*
X033554Y002497D03*
X033554Y002485D03*
X033554Y002479D03*
X033548Y002455D03*
X033548Y002449D03*
X033548Y002437D03*
X033548Y002425D03*
X033548Y002419D03*
X033518Y002107D03*
X033512Y002095D03*
X033512Y002089D03*
X033512Y002077D03*
X033512Y002065D03*
X033512Y002059D03*
X033512Y002047D03*
X033506Y002035D03*
X033506Y002029D03*
X033506Y002017D03*
X033506Y002005D03*
X033506Y001999D03*
X033506Y001987D03*
X033494Y001885D03*
X033494Y001879D03*
X033494Y001867D03*
X033488Y001855D03*
X033488Y001849D03*
X033488Y001837D03*
X033488Y001825D03*
X033488Y001819D03*
X033488Y001807D03*
X033482Y001795D03*
X033482Y001789D03*
X033482Y001777D03*
X033482Y001765D03*
X033482Y001759D03*
X033476Y001687D03*
X030308Y005269D03*
D118*
X031499Y003943D03*
X031499Y003931D03*
X031499Y003913D03*
X031541Y003511D03*
X031541Y003493D03*
X031541Y003481D03*
X031559Y003331D03*
X031559Y003313D03*
X031559Y003301D03*
X031601Y002923D03*
X031601Y002911D03*
X031601Y002893D03*
X031601Y002881D03*
X031619Y002713D03*
X031619Y002701D03*
X031649Y002413D03*
X031649Y002401D03*
X031661Y002281D03*
X031661Y002263D03*
X033521Y002161D03*
X033521Y002143D03*
X033521Y002131D03*
X033479Y001753D03*
X033479Y001741D03*
X033479Y001723D03*
X033479Y001711D03*
X033581Y002743D03*
X033581Y002761D03*
X033581Y002773D03*
X033581Y002791D03*
X033581Y002803D03*
X033599Y002941D03*
X033599Y002953D03*
X033641Y003361D03*
X033641Y003373D03*
X033641Y003391D03*
X033641Y003403D03*
X033659Y003571D03*
X033659Y003583D03*
X033689Y003871D03*
X033719Y004183D03*
X033719Y004201D03*
X033731Y004303D03*
X033749Y004471D03*
X033749Y004483D03*
D119*
X031841Y001717D03*
D120*
X031661Y002269D03*
X031661Y002275D03*
X031661Y002287D03*
X031619Y002689D03*
X031619Y002695D03*
X031619Y002707D03*
X031619Y002719D03*
X031601Y002845D03*
X031601Y002869D03*
X031601Y002875D03*
X031601Y002887D03*
X031601Y002905D03*
X031601Y002917D03*
X031589Y003007D03*
X031559Y003289D03*
X031559Y003295D03*
X031559Y003307D03*
X031559Y003319D03*
X031559Y003325D03*
X031559Y003337D03*
X031541Y003469D03*
X031541Y003475D03*
X031541Y003487D03*
X031541Y003499D03*
X031541Y003505D03*
X031541Y003517D03*
X031499Y003907D03*
X031499Y003919D03*
X031499Y003925D03*
X031499Y003937D03*
X031451Y004405D03*
X033719Y004195D03*
X033719Y004189D03*
X033749Y004465D03*
X033689Y003865D03*
X033659Y003589D03*
X033659Y003577D03*
X033659Y003565D03*
X033641Y003409D03*
X033641Y003397D03*
X033641Y003385D03*
X033641Y003379D03*
X033641Y003367D03*
X033599Y002965D03*
X033599Y002959D03*
X033599Y002947D03*
X033599Y002935D03*
X033599Y002929D03*
X033581Y002797D03*
X033581Y002785D03*
X033581Y002779D03*
X033581Y002767D03*
X033521Y002167D03*
X033521Y002155D03*
X033521Y002149D03*
X033521Y002137D03*
X033479Y001747D03*
X033479Y001735D03*
X033479Y001729D03*
X033479Y001717D03*
D121*
X031841Y001753D03*
X033443Y004921D03*
X032105Y005041D03*
D122*
X031256Y004327D03*
X033422Y005029D03*
X033806Y004165D03*
X033614Y002179D03*
X032006Y001927D03*
X031838Y001765D03*
D123*
X031838Y001771D03*
X033608Y002191D03*
X033800Y004153D03*
X033428Y004711D03*
X033428Y004723D03*
X033428Y004741D03*
X033428Y004753D03*
X033428Y004771D03*
X033428Y004783D03*
X033428Y004801D03*
X033428Y004813D03*
X033428Y004831D03*
X033428Y005041D03*
X033428Y005053D03*
X033428Y005071D03*
X033428Y005083D03*
X031496Y004171D03*
D124*
X031517Y004129D03*
X031307Y004879D03*
X033773Y004105D03*
X032051Y001909D03*
X031841Y001789D03*
X031619Y002065D03*
D125*
X031520Y001795D03*
D126*
X031844Y001819D03*
X030284Y005317D03*
D127*
X031304Y004813D03*
X031454Y001843D03*
D128*
X031466Y001855D03*
X031304Y004819D03*
D129*
X031490Y001873D03*
X031472Y001861D03*
D130*
X031481Y001867D03*
X031493Y001879D03*
X032681Y002989D03*
X031307Y004807D03*
X031949Y004999D03*
D131*
X031505Y001885D03*
D132*
X031514Y001891D03*
D133*
X031523Y001897D03*
X031973Y005005D03*
X032993Y005047D03*
D134*
X032681Y002983D03*
X031529Y001903D03*
D135*
X031541Y001909D03*
D136*
X031553Y001915D03*
D137*
X031568Y001921D03*
X031838Y001993D03*
X031310Y004711D03*
D138*
X032030Y001921D03*
D139*
X031589Y001927D03*
X031331Y004759D03*
D140*
X031757Y001933D03*
D141*
X031754Y001939D03*
X033182Y005017D03*
D142*
X035030Y005329D03*
X033644Y003427D03*
X033644Y003415D03*
X033620Y003175D03*
X033620Y003169D03*
X033620Y003157D03*
X033602Y002995D03*
X033602Y002989D03*
X033602Y002977D03*
X033578Y002755D03*
X033578Y002749D03*
X033560Y002569D03*
X033500Y001945D03*
X033500Y001939D03*
X031622Y002665D03*
X031622Y002677D03*
X031604Y002857D03*
X031598Y002899D03*
X031580Y003085D03*
X031580Y003097D03*
X031580Y003109D03*
X031580Y003115D03*
X031562Y003265D03*
X031562Y003277D03*
D143*
X031754Y001945D03*
X032528Y004927D03*
X032528Y004939D03*
X032528Y004945D03*
X032528Y004957D03*
X032528Y004969D03*
X032528Y004975D03*
X032528Y005119D03*
X032528Y005125D03*
X032528Y005137D03*
X032528Y005149D03*
X032528Y005155D03*
D144*
X032528Y004921D03*
X031754Y001951D03*
D145*
X031757Y001957D03*
X032519Y005167D03*
D146*
X031580Y004339D03*
X031580Y004297D03*
X031580Y004279D03*
X031580Y004267D03*
X031580Y004255D03*
X031580Y004249D03*
X031580Y004237D03*
X031580Y004225D03*
X031580Y004219D03*
X031580Y004195D03*
X031580Y004189D03*
X031550Y003427D03*
X031550Y003415D03*
X031550Y003409D03*
X031550Y003397D03*
X031550Y003385D03*
X031550Y003379D03*
X031610Y002815D03*
X031610Y002809D03*
X031610Y002797D03*
X031610Y002785D03*
X031610Y002779D03*
X031640Y002497D03*
X033500Y001957D03*
X033590Y002845D03*
X033590Y002857D03*
X033590Y002869D03*
X033590Y002875D03*
X033590Y002887D03*
X033650Y003457D03*
X033650Y003469D03*
X033650Y003475D03*
X033650Y003487D03*
X033650Y003499D03*
X033650Y003505D03*
X033680Y003757D03*
X033680Y003775D03*
X033740Y004369D03*
X033740Y004375D03*
X033740Y004387D03*
X033740Y004399D03*
X033740Y004405D03*
X033740Y004417D03*
X033740Y004429D03*
D147*
X031754Y001963D03*
D148*
X031754Y001969D03*
D149*
X031754Y001975D03*
D150*
X031748Y001981D03*
D151*
X031748Y001987D03*
X031436Y003997D03*
D152*
X031838Y001999D03*
D153*
X031832Y002005D03*
D154*
X031823Y002011D03*
X033479Y004861D03*
X033377Y004981D03*
D155*
X031724Y002017D03*
D156*
X031721Y002023D03*
D157*
X031712Y002029D03*
D158*
X031607Y002035D03*
X032675Y003097D03*
X033797Y004147D03*
X031835Y004975D03*
X033605Y002197D03*
D159*
X033467Y002371D03*
X031739Y002203D03*
X031613Y002053D03*
X031511Y004141D03*
X033629Y003943D03*
X033785Y004123D03*
D160*
X031514Y004135D03*
X031736Y002197D03*
X031616Y002059D03*
D161*
X031733Y002191D03*
D162*
X031748Y002221D03*
X032678Y003043D03*
X033794Y004141D03*
X033602Y002203D03*
D163*
X033599Y002209D03*
X033791Y004135D03*
D164*
X031745Y002215D03*
D165*
X033596Y002215D03*
X033626Y003937D03*
D166*
X033632Y003949D03*
X033782Y004117D03*
X032678Y003055D03*
X033470Y002359D03*
X033590Y002227D03*
X032918Y005065D03*
D167*
X033767Y004093D03*
X032675Y003073D03*
X031607Y004033D03*
X031217Y004393D03*
X033587Y002233D03*
D168*
X033455Y002395D03*
X031757Y002239D03*
X033605Y003907D03*
X033803Y004159D03*
X033425Y004957D03*
X033425Y005077D03*
D169*
X033611Y003913D03*
X033461Y002383D03*
D170*
X033458Y002389D03*
X032678Y003037D03*
X033428Y004699D03*
X033428Y004717D03*
X033428Y004729D03*
X033428Y004735D03*
X033428Y004747D03*
X033428Y004759D03*
X033428Y004777D03*
X033428Y004795D03*
X033428Y004807D03*
X033428Y004825D03*
X033428Y004837D03*
X033428Y004945D03*
X033428Y005035D03*
X033428Y005047D03*
X033428Y005059D03*
X033428Y005065D03*
X033428Y005089D03*
X031304Y004867D03*
D171*
X031256Y004333D03*
X031256Y004321D03*
X032678Y003103D03*
X032678Y003031D03*
X033452Y002401D03*
X033428Y004693D03*
X033434Y004933D03*
X033422Y004963D03*
D172*
X033725Y004705D03*
X031445Y004495D03*
X033545Y002407D03*
D173*
X033560Y002563D03*
X033602Y002971D03*
X033602Y002983D03*
X033602Y003001D03*
X033620Y003163D03*
X033620Y003181D03*
X033644Y003421D03*
X033662Y003601D03*
X031562Y003283D03*
X031562Y003271D03*
X031580Y003103D03*
X031580Y003091D03*
X031604Y002863D03*
X031604Y002851D03*
X031622Y002683D03*
X031622Y002671D03*
X031538Y003523D03*
X031520Y003703D03*
D174*
X032675Y003139D03*
X032681Y002995D03*
X033473Y004867D03*
X032075Y005029D03*
D175*
X032681Y003013D03*
D176*
X032675Y003079D03*
X033635Y003955D03*
D177*
X032675Y003091D03*
X031505Y004153D03*
D178*
X031262Y004339D03*
X032678Y003109D03*
X033440Y004927D03*
D179*
X032675Y003115D03*
D180*
X032675Y003121D03*
D181*
X032675Y003133D03*
D182*
X032678Y003145D03*
X033482Y004849D03*
X033482Y004855D03*
D183*
X032675Y003151D03*
D184*
X032399Y003631D03*
D185*
X032846Y003631D03*
X030284Y005311D03*
D186*
X032423Y003637D03*
D187*
X032423Y003643D03*
D188*
X032420Y003649D03*
D189*
X032414Y003655D03*
D190*
X032411Y003661D03*
D191*
X032408Y003667D03*
D192*
X032405Y003673D03*
D193*
X032402Y003679D03*
D194*
X032399Y003685D03*
D195*
X032396Y003691D03*
D196*
X032393Y003697D03*
D197*
X032390Y003703D03*
D198*
X032384Y003709D03*
X032384Y003715D03*
D199*
X032381Y003721D03*
D200*
X032375Y003727D03*
D201*
X032372Y003733D03*
D202*
X032369Y003739D03*
D203*
X032366Y003745D03*
D204*
X032363Y003751D03*
D205*
X032360Y003757D03*
D206*
X032357Y003763D03*
D207*
X032447Y003769D03*
D208*
X032450Y003775D03*
X032450Y003787D03*
X032450Y003799D03*
X032450Y003805D03*
X032450Y003817D03*
X032450Y003829D03*
X032450Y003835D03*
X032450Y003847D03*
X032450Y003859D03*
X032450Y003865D03*
X032450Y003877D03*
X032450Y003889D03*
X032450Y003895D03*
D209*
X032450Y003901D03*
X032450Y003883D03*
X032450Y003871D03*
X032450Y003853D03*
X032450Y003841D03*
X032450Y003823D03*
X032450Y003811D03*
X032450Y003793D03*
X032450Y003781D03*
D210*
X031454Y004339D03*
X030314Y005257D03*
X032846Y005107D03*
X033686Y004765D03*
X033686Y003889D03*
D211*
X033605Y003901D03*
X033425Y004951D03*
D212*
X032306Y003907D03*
D213*
X032879Y003907D03*
X033161Y004987D03*
D214*
X033641Y003961D03*
D215*
X031457Y003967D03*
D216*
X031454Y003973D03*
D217*
X031448Y003979D03*
D218*
X031445Y003985D03*
D219*
X031439Y003991D03*
D220*
X031433Y004003D03*
X033245Y005011D03*
D221*
X031430Y004009D03*
D222*
X031427Y004015D03*
D223*
X031424Y004021D03*
D224*
X031466Y004027D03*
D225*
X031784Y004963D03*
X033776Y004111D03*
D226*
X031520Y004123D03*
D227*
X031562Y004393D03*
X033722Y004171D03*
X033752Y004501D03*
D228*
X031490Y004183D03*
D229*
X031373Y004345D03*
X031373Y004357D03*
X031373Y004369D03*
X031373Y004375D03*
D230*
X031373Y004381D03*
X031373Y004363D03*
X031373Y004351D03*
D231*
X031370Y004387D03*
D232*
X031445Y004393D03*
X031595Y004861D03*
D233*
X032654Y004507D03*
D234*
X032654Y004513D03*
D235*
X032654Y004519D03*
D236*
X032654Y004525D03*
X032654Y004537D03*
X032654Y004549D03*
X032654Y004555D03*
D237*
X032654Y004561D03*
X032654Y004543D03*
X032654Y004531D03*
D238*
X032651Y004567D03*
D239*
X032645Y004573D03*
D240*
X032630Y004579D03*
D241*
X032627Y004585D03*
D242*
X032618Y004591D03*
D243*
X032612Y004597D03*
D244*
X032609Y004603D03*
D245*
X032603Y004609D03*
D246*
X032600Y004615D03*
D247*
X032597Y004621D03*
D248*
X032594Y004627D03*
D249*
X032591Y004633D03*
D250*
X032588Y004639D03*
X032588Y004645D03*
D251*
X032585Y004651D03*
X032585Y004663D03*
D252*
X032585Y004657D03*
D253*
X032579Y004669D03*
X032579Y004675D03*
D254*
X032567Y004681D03*
D255*
X031310Y004693D03*
D256*
X032846Y004981D03*
X033704Y004741D03*
X033734Y004693D03*
D257*
X031310Y004699D03*
D258*
X031313Y004705D03*
D259*
X032855Y005011D03*
X033725Y004711D03*
D260*
X031316Y004717D03*
D261*
X031313Y004723D03*
D262*
X031316Y004729D03*
D263*
X032198Y005005D03*
X032210Y005107D03*
X032858Y005077D03*
X033692Y004759D03*
X033698Y004747D03*
X033710Y004735D03*
X033710Y004729D03*
X035018Y005305D03*
D264*
X031319Y004735D03*
D265*
X031322Y004741D03*
X031328Y004753D03*
X033020Y005041D03*
D266*
X031337Y004777D03*
X031331Y004765D03*
D267*
X031337Y004771D03*
D268*
X031541Y004807D03*
X031553Y004819D03*
X031559Y004825D03*
X031571Y004837D03*
X033665Y004795D03*
X033677Y004777D03*
X035015Y005299D03*
D269*
X031343Y004783D03*
D270*
X031346Y004789D03*
D271*
X031592Y004855D03*
X030320Y005245D03*
X033620Y004837D03*
X033632Y004825D03*
X033638Y004819D03*
X033650Y004807D03*
X033668Y004789D03*
D272*
X033035Y005035D03*
X031349Y004795D03*
D273*
X031352Y004801D03*
D274*
X031574Y004843D03*
X033656Y004801D03*
D275*
X033650Y004813D03*
X033620Y004843D03*
X035012Y005293D03*
D276*
X031304Y004825D03*
D277*
X031304Y004849D03*
D278*
X031304Y004855D03*
X033416Y004969D03*
D279*
X035009Y005287D03*
X031601Y004867D03*
X031301Y004897D03*
X030323Y005239D03*
D280*
X031304Y004873D03*
D281*
X031610Y004873D03*
D282*
X033470Y004873D03*
D283*
X033461Y004891D03*
D284*
X035003Y005275D03*
X031643Y004897D03*
D285*
X031649Y004903D03*
D286*
X031661Y004909D03*
X030329Y005227D03*
D287*
X032954Y005059D03*
X033446Y004915D03*
D288*
X032528Y004933D03*
X032528Y004951D03*
X032528Y004963D03*
X032528Y005113D03*
X032528Y005131D03*
X032528Y005143D03*
X032528Y005161D03*
D289*
X033365Y004987D03*
D290*
X033335Y004993D03*
D291*
X033314Y004999D03*
X033044Y005029D03*
D292*
X033293Y005005D03*
D293*
X032036Y005011D03*
D294*
X032042Y005017D03*
D295*
X032057Y005023D03*
D296*
X033179Y005023D03*
D297*
X032981Y005053D03*
D298*
X034985Y005239D03*
D299*
X030299Y005281D03*
D300*
X030299Y005287D03*
D301*
X030296Y005293D03*
D302*
X030293Y005299D03*
D303*
X030284Y005323D03*
D304*
X035042Y005347D03*
D305*
X035048Y005359D03*
D306*
X021230Y002681D02*
X021232Y002728D01*
X021238Y002774D01*
X021248Y002820D01*
X021261Y002865D01*
X021279Y002908D01*
X021300Y002950D01*
X021324Y002990D01*
X021352Y003027D01*
X021383Y003062D01*
X021417Y003095D01*
X021453Y003124D01*
X021492Y003150D01*
X021533Y003173D01*
X021576Y003192D01*
X021620Y003208D01*
X021665Y003220D01*
X021711Y003228D01*
X021758Y003232D01*
X021804Y003232D01*
X021851Y003228D01*
X021897Y003220D01*
X021942Y003208D01*
X021986Y003192D01*
X022029Y003173D01*
X022070Y003150D01*
X022109Y003124D01*
X022145Y003095D01*
X022179Y003062D01*
X022210Y003027D01*
X022238Y002990D01*
X022262Y002950D01*
X022283Y002908D01*
X022301Y002865D01*
X022314Y002820D01*
X022324Y002774D01*
X022330Y002728D01*
X022332Y002681D01*
X022330Y002634D01*
X022324Y002588D01*
X022314Y002542D01*
X022301Y002497D01*
X022283Y002454D01*
X022262Y002412D01*
X022238Y002372D01*
X022210Y002335D01*
X022179Y002300D01*
X022145Y002267D01*
X022109Y002238D01*
X022070Y002212D01*
X022029Y002189D01*
X021986Y002170D01*
X021942Y002154D01*
X021897Y002142D01*
X021851Y002134D01*
X021804Y002130D01*
X021758Y002130D01*
X021711Y002134D01*
X021665Y002142D01*
X021620Y002154D01*
X021576Y002170D01*
X021533Y002189D01*
X021492Y002212D01*
X021453Y002238D01*
X021417Y002267D01*
X021383Y002300D01*
X021352Y002335D01*
X021324Y002372D01*
X021300Y002412D01*
X021279Y002454D01*
X021261Y002497D01*
X021248Y002542D01*
X021238Y002588D01*
X021232Y002634D01*
X021230Y002681D01*
X009290Y002661D02*
X009292Y002708D01*
X009298Y002754D01*
X009308Y002800D01*
X009321Y002845D01*
X009339Y002888D01*
X009360Y002930D01*
X009384Y002970D01*
X009412Y003007D01*
X009443Y003042D01*
X009477Y003075D01*
X009513Y003104D01*
X009552Y003130D01*
X009593Y003153D01*
X009636Y003172D01*
X009680Y003188D01*
X009725Y003200D01*
X009771Y003208D01*
X009818Y003212D01*
X009864Y003212D01*
X009911Y003208D01*
X009957Y003200D01*
X010002Y003188D01*
X010046Y003172D01*
X010089Y003153D01*
X010130Y003130D01*
X010169Y003104D01*
X010205Y003075D01*
X010239Y003042D01*
X010270Y003007D01*
X010298Y002970D01*
X010322Y002930D01*
X010343Y002888D01*
X010361Y002845D01*
X010374Y002800D01*
X010384Y002754D01*
X010390Y002708D01*
X010392Y002661D01*
X010390Y002614D01*
X010384Y002568D01*
X010374Y002522D01*
X010361Y002477D01*
X010343Y002434D01*
X010322Y002392D01*
X010298Y002352D01*
X010270Y002315D01*
X010239Y002280D01*
X010205Y002247D01*
X010169Y002218D01*
X010130Y002192D01*
X010089Y002169D01*
X010046Y002150D01*
X010002Y002134D01*
X009957Y002122D01*
X009911Y002114D01*
X009864Y002110D01*
X009818Y002110D01*
X009771Y002114D01*
X009725Y002122D01*
X009680Y002134D01*
X009636Y002150D01*
X009593Y002169D01*
X009552Y002192D01*
X009513Y002218D01*
X009477Y002247D01*
X009443Y002280D01*
X009412Y002315D01*
X009384Y002352D01*
X009360Y002392D01*
X009339Y002434D01*
X009321Y002477D01*
X009308Y002522D01*
X009298Y002568D01*
X009292Y002614D01*
X009290Y002661D01*
X007288Y005481D02*
X007290Y005522D01*
X007296Y005563D01*
X007306Y005603D01*
X007319Y005642D01*
X007336Y005679D01*
X007357Y005715D01*
X007381Y005749D01*
X007408Y005780D01*
X007437Y005808D01*
X007470Y005834D01*
X007504Y005856D01*
X007541Y005875D01*
X007579Y005890D01*
X007619Y005902D01*
X007659Y005910D01*
X007700Y005914D01*
X007742Y005914D01*
X007783Y005910D01*
X007823Y005902D01*
X007863Y005890D01*
X007901Y005875D01*
X007937Y005856D01*
X007972Y005834D01*
X008005Y005808D01*
X008034Y005780D01*
X008061Y005749D01*
X008085Y005715D01*
X008106Y005679D01*
X008123Y005642D01*
X008136Y005603D01*
X008146Y005563D01*
X008152Y005522D01*
X008154Y005481D01*
X008152Y005440D01*
X008146Y005399D01*
X008136Y005359D01*
X008123Y005320D01*
X008106Y005283D01*
X008085Y005247D01*
X008061Y005213D01*
X008034Y005182D01*
X008005Y005154D01*
X007972Y005128D01*
X007938Y005106D01*
X007901Y005087D01*
X007863Y005072D01*
X007823Y005060D01*
X007783Y005052D01*
X007742Y005048D01*
X007700Y005048D01*
X007659Y005052D01*
X007619Y005060D01*
X007579Y005072D01*
X007541Y005087D01*
X007505Y005106D01*
X007470Y005128D01*
X007437Y005154D01*
X007408Y005182D01*
X007381Y005213D01*
X007357Y005247D01*
X007336Y005283D01*
X007319Y005320D01*
X007306Y005359D01*
X007296Y005399D01*
X007290Y005440D01*
X007288Y005481D01*
X004518Y005481D02*
X004520Y005522D01*
X004526Y005563D01*
X004536Y005603D01*
X004549Y005642D01*
X004566Y005679D01*
X004587Y005715D01*
X004611Y005749D01*
X004638Y005780D01*
X004667Y005808D01*
X004700Y005834D01*
X004734Y005856D01*
X004771Y005875D01*
X004809Y005890D01*
X004849Y005902D01*
X004889Y005910D01*
X004930Y005914D01*
X004972Y005914D01*
X005013Y005910D01*
X005053Y005902D01*
X005093Y005890D01*
X005131Y005875D01*
X005167Y005856D01*
X005202Y005834D01*
X005235Y005808D01*
X005264Y005780D01*
X005291Y005749D01*
X005315Y005715D01*
X005336Y005679D01*
X005353Y005642D01*
X005366Y005603D01*
X005376Y005563D01*
X005382Y005522D01*
X005384Y005481D01*
X005382Y005440D01*
X005376Y005399D01*
X005366Y005359D01*
X005353Y005320D01*
X005336Y005283D01*
X005315Y005247D01*
X005291Y005213D01*
X005264Y005182D01*
X005235Y005154D01*
X005202Y005128D01*
X005168Y005106D01*
X005131Y005087D01*
X005093Y005072D01*
X005053Y005060D01*
X005013Y005052D01*
X004972Y005048D01*
X004930Y005048D01*
X004889Y005052D01*
X004849Y005060D01*
X004809Y005072D01*
X004771Y005087D01*
X004735Y005106D01*
X004700Y005128D01*
X004667Y005154D01*
X004638Y005182D01*
X004611Y005213D01*
X004587Y005247D01*
X004566Y005283D01*
X004549Y005320D01*
X004536Y005359D01*
X004526Y005399D01*
X004520Y005440D01*
X004518Y005481D01*
X021240Y018681D02*
X021242Y018728D01*
X021248Y018774D01*
X021258Y018820D01*
X021271Y018865D01*
X021289Y018908D01*
X021310Y018950D01*
X021334Y018990D01*
X021362Y019027D01*
X021393Y019062D01*
X021427Y019095D01*
X021463Y019124D01*
X021502Y019150D01*
X021543Y019173D01*
X021586Y019192D01*
X021630Y019208D01*
X021675Y019220D01*
X021721Y019228D01*
X021768Y019232D01*
X021814Y019232D01*
X021861Y019228D01*
X021907Y019220D01*
X021952Y019208D01*
X021996Y019192D01*
X022039Y019173D01*
X022080Y019150D01*
X022119Y019124D01*
X022155Y019095D01*
X022189Y019062D01*
X022220Y019027D01*
X022248Y018990D01*
X022272Y018950D01*
X022293Y018908D01*
X022311Y018865D01*
X022324Y018820D01*
X022334Y018774D01*
X022340Y018728D01*
X022342Y018681D01*
X022340Y018634D01*
X022334Y018588D01*
X022324Y018542D01*
X022311Y018497D01*
X022293Y018454D01*
X022272Y018412D01*
X022248Y018372D01*
X022220Y018335D01*
X022189Y018300D01*
X022155Y018267D01*
X022119Y018238D01*
X022080Y018212D01*
X022039Y018189D01*
X021996Y018170D01*
X021952Y018154D01*
X021907Y018142D01*
X021861Y018134D01*
X021814Y018130D01*
X021768Y018130D01*
X021721Y018134D01*
X021675Y018142D01*
X021630Y018154D01*
X021586Y018170D01*
X021543Y018189D01*
X021502Y018212D01*
X021463Y018238D01*
X021427Y018267D01*
X021393Y018300D01*
X021362Y018335D01*
X021334Y018372D01*
X021310Y018412D01*
X021289Y018454D01*
X021271Y018497D01*
X021258Y018542D01*
X021248Y018588D01*
X021242Y018634D01*
X021240Y018681D01*
D307*
X020063Y018029D02*
X020063Y017979D01*
X020063Y018029D02*
X019383Y018029D01*
X019383Y017969D01*
X019383Y017359D02*
X019383Y017279D01*
X020063Y017279D01*
X020063Y017349D01*
X025707Y013517D02*
X025857Y013442D01*
X026007Y013292D01*
X025782Y013292D01*
X025707Y013217D01*
X025707Y013141D01*
X025782Y013066D01*
X025932Y013066D01*
X026007Y013141D01*
X026007Y013292D01*
X026167Y013442D02*
X026242Y013517D01*
X026392Y013517D01*
X026467Y013442D01*
X026467Y013141D01*
X026392Y013066D01*
X026242Y013066D01*
X026167Y013141D01*
X026624Y013066D02*
X026774Y013066D01*
X026699Y013066D02*
X026699Y013517D01*
X026774Y013517D02*
X026624Y013517D01*
X026551Y012481D02*
X026511Y012481D01*
X026511Y011831D01*
X026541Y011831D01*
X026421Y011821D02*
X026381Y011821D01*
X026421Y011821D02*
X026421Y012481D01*
X026371Y012481D01*
X025911Y012471D02*
X025871Y012471D01*
X025871Y011821D01*
X025901Y011821D01*
X027021Y011831D02*
X027061Y011831D01*
X027061Y012491D01*
X027011Y012491D01*
X027151Y012491D02*
X027151Y011831D01*
X027201Y011831D01*
X027661Y011841D02*
X027701Y011841D01*
X027701Y012491D01*
X027671Y012491D01*
X027781Y012491D02*
X027781Y011831D01*
X027831Y011831D01*
X028291Y011841D02*
X028331Y011841D01*
X028331Y012491D01*
X028301Y012491D01*
X028421Y012491D02*
X028421Y011831D01*
X028471Y011831D01*
X028931Y011841D02*
X028971Y011841D01*
X028971Y012491D01*
X028941Y012491D01*
X029051Y012481D02*
X029051Y011831D01*
X029081Y011831D01*
X029561Y011831D02*
X029601Y011831D01*
X029601Y012491D01*
X029551Y012491D01*
X029091Y012481D02*
X029051Y012481D01*
X028461Y012491D02*
X028421Y012491D01*
X027821Y012491D02*
X027781Y012491D01*
X027191Y012491D02*
X027151Y012491D01*
X028671Y010551D02*
X028711Y010551D01*
X028671Y010551D02*
X028671Y009881D01*
X028721Y009881D01*
X029141Y009891D02*
X029181Y009891D01*
X029181Y010541D01*
X029151Y010541D01*
X030741Y010531D02*
X030741Y009881D01*
X030771Y009881D01*
X031251Y009881D02*
X031291Y009881D01*
X031291Y010541D01*
X031241Y010541D01*
X030781Y010531D02*
X030741Y010531D01*
X033481Y010541D02*
X033481Y009881D01*
X033531Y009881D01*
X033991Y009891D02*
X034031Y009891D01*
X034031Y010541D01*
X034001Y010541D01*
X034151Y010541D02*
X034191Y010541D01*
X034151Y010541D02*
X034151Y009881D01*
X034201Y009881D01*
X034661Y009891D02*
X034701Y009891D01*
X034701Y010541D01*
X034671Y010541D01*
X034791Y010541D02*
X034831Y010541D01*
X034791Y010541D02*
X034791Y009881D01*
X034841Y009881D01*
X035301Y009891D02*
X035341Y009891D01*
X035341Y010541D01*
X035311Y010541D01*
X033521Y010541D02*
X033481Y010541D01*
X032021Y013651D02*
X031981Y013651D01*
X032021Y013651D02*
X032021Y014311D01*
X031971Y014311D01*
X031511Y014301D02*
X031471Y014301D01*
X031471Y013651D01*
X031501Y013651D01*
X031371Y015871D02*
X031231Y015871D01*
X031231Y016981D01*
X031361Y016981D01*
X031401Y016741D02*
X031241Y016741D01*
X031241Y016701D02*
X031401Y016701D01*
X031401Y016741D01*
X031401Y016681D02*
X031241Y016681D01*
X031241Y016701D01*
X031241Y016641D02*
X031401Y016641D01*
X032181Y016641D01*
X032221Y016621D02*
X031241Y016621D01*
X031401Y016641D02*
X031401Y016681D01*
X032091Y016681D02*
X032241Y016681D01*
X032241Y016731D01*
X032091Y016731D01*
X032091Y016631D01*
X032241Y016631D01*
X032241Y016681D01*
X032241Y016631D02*
X032241Y015861D01*
X032101Y015861D01*
X033671Y015781D02*
X033671Y015741D01*
X034341Y015741D01*
X034341Y015791D01*
X034331Y016211D02*
X034331Y016251D01*
X033681Y016251D01*
X033681Y016221D01*
X032241Y016731D02*
X032241Y016971D01*
X032121Y016971D01*
X032431Y017731D02*
X032431Y018841D01*
X032561Y018841D01*
X032601Y018601D02*
X032441Y018601D01*
X032441Y018561D02*
X032601Y018561D01*
X032601Y018601D01*
X032601Y018541D02*
X032441Y018541D01*
X032441Y018561D01*
X032441Y018501D02*
X032601Y018501D01*
X033381Y018501D01*
X033421Y018481D02*
X032441Y018481D01*
X032601Y018501D02*
X032601Y018541D01*
X032241Y018571D02*
X032081Y018571D01*
X032081Y018611D01*
X032241Y018611D01*
X032241Y018631D01*
X032081Y018631D01*
X032081Y018671D01*
X031301Y018671D01*
X031261Y018691D02*
X032241Y018691D01*
X032241Y018671D02*
X032081Y018671D01*
X032121Y018331D02*
X032251Y018331D01*
X032251Y019441D01*
X032111Y019441D01*
X031381Y019451D02*
X031241Y019451D01*
X031241Y018681D01*
X031391Y018681D01*
X031391Y018581D01*
X031241Y018581D01*
X031241Y018341D01*
X031361Y018341D01*
X031241Y018581D02*
X031241Y018631D01*
X031391Y018631D01*
X031241Y018631D02*
X031241Y018681D01*
X032431Y017731D02*
X032571Y017731D01*
X033301Y017721D02*
X033441Y017721D01*
X033441Y018491D01*
X033291Y018491D01*
X033291Y018591D01*
X033441Y018591D01*
X033441Y018831D01*
X033321Y018831D01*
X033441Y018591D02*
X033441Y018541D01*
X033291Y018541D01*
X033441Y018541D02*
X033441Y018491D01*
X033311Y020031D02*
X033261Y020031D01*
X033311Y020031D02*
X033311Y020711D01*
X033251Y020711D01*
X032641Y020711D02*
X032561Y020711D01*
X032561Y020031D01*
X032631Y020031D01*
X031991Y020831D02*
X031951Y020831D01*
X031991Y020831D02*
X031991Y021481D01*
X031961Y021481D01*
X031521Y021491D02*
X031481Y021491D01*
X031481Y020821D01*
X031531Y020821D01*
X030451Y021631D02*
X030321Y021631D01*
X030451Y021631D02*
X030451Y022741D01*
X030311Y022741D01*
X029581Y022751D02*
X029441Y022751D01*
X029441Y021981D01*
X029591Y021981D01*
X029591Y021881D01*
X029441Y021881D01*
X029441Y021641D01*
X029561Y021641D01*
X029441Y021881D02*
X029441Y021931D01*
X029591Y021931D01*
X029501Y021971D02*
X030281Y021971D01*
X030281Y021931D01*
X030441Y021931D01*
X030441Y021911D01*
X030281Y021911D01*
X030281Y021871D01*
X030441Y021871D01*
X030441Y021971D02*
X030281Y021971D01*
X030441Y021991D02*
X029461Y021991D01*
X029441Y021981D02*
X029441Y021931D01*
X029141Y021931D02*
X029141Y021911D01*
X028981Y021911D01*
X028981Y021871D01*
X029141Y021871D01*
X029141Y021931D02*
X028981Y021931D01*
X028981Y021971D01*
X028201Y021971D01*
X028161Y021991D02*
X029141Y021991D01*
X029141Y021971D02*
X028981Y021971D01*
X029021Y021631D02*
X029151Y021631D01*
X029151Y022741D01*
X029011Y022741D01*
X028281Y022751D02*
X028141Y022751D01*
X028141Y021981D01*
X028291Y021981D01*
X028291Y021881D01*
X028141Y021881D01*
X028141Y021641D01*
X028261Y021641D01*
X028141Y021881D02*
X028141Y021931D01*
X028291Y021931D01*
X028141Y021931D02*
X028141Y021981D01*
X027891Y021971D02*
X027731Y021971D01*
X026951Y021971D01*
X026911Y021991D02*
X027891Y021991D01*
X027891Y021931D02*
X027891Y021911D01*
X027731Y021911D01*
X027731Y021871D01*
X027891Y021871D01*
X027891Y021931D02*
X027731Y021931D01*
X027731Y021971D01*
X027771Y021631D02*
X027901Y021631D01*
X027901Y022741D01*
X027761Y022741D01*
X027031Y022751D02*
X026891Y022751D01*
X026891Y021981D01*
X027041Y021981D01*
X027041Y021881D01*
X026891Y021881D01*
X026891Y021641D01*
X027011Y021641D01*
X026751Y021631D02*
X026621Y021631D01*
X026751Y021631D02*
X026751Y022741D01*
X026611Y022741D01*
X025881Y022751D02*
X025741Y022751D01*
X025741Y021981D01*
X025891Y021981D01*
X025891Y021881D01*
X025741Y021881D01*
X025741Y021641D01*
X025861Y021641D01*
X025741Y021881D02*
X025741Y021931D01*
X025891Y021931D01*
X025801Y021971D02*
X026581Y021971D01*
X026581Y021931D01*
X026741Y021931D01*
X026741Y021911D01*
X026581Y021911D01*
X026581Y021871D01*
X026741Y021871D01*
X026741Y021971D02*
X026581Y021971D01*
X026741Y021991D02*
X025761Y021991D01*
X025741Y021981D02*
X025741Y021931D01*
X026891Y021931D02*
X027041Y021931D01*
X026891Y021931D02*
X026891Y021881D01*
X026891Y021931D02*
X026891Y021981D01*
X034551Y020441D02*
X034551Y020411D01*
X034551Y020441D02*
X035201Y020441D01*
X035201Y020401D01*
X035211Y019941D02*
X035211Y019891D01*
X034551Y019891D01*
X034551Y019931D01*
X037191Y019891D02*
X037191Y019211D01*
X037261Y019211D01*
X037891Y019211D02*
X037941Y019211D01*
X037941Y019891D01*
X037881Y019891D01*
X037271Y019891D02*
X037191Y019891D01*
X037231Y018071D02*
X037091Y018071D01*
X037091Y017301D01*
X037241Y017301D01*
X037241Y017201D01*
X037091Y017201D01*
X037091Y016961D01*
X037211Y016961D01*
X037091Y017201D02*
X037091Y017251D01*
X037241Y017251D01*
X037151Y017291D02*
X037931Y017291D01*
X037931Y017251D01*
X038091Y017251D01*
X038091Y017231D01*
X037931Y017231D01*
X037931Y017191D01*
X038091Y017191D01*
X038091Y017291D02*
X037931Y017291D01*
X038091Y017311D02*
X037111Y017311D01*
X037091Y017301D02*
X037091Y017251D01*
X037971Y016951D02*
X038101Y016951D01*
X038101Y018061D01*
X037961Y018061D01*
X036681Y016261D02*
X036031Y016261D01*
X036031Y016231D01*
X036021Y015791D02*
X036021Y015751D01*
X036691Y015751D01*
X036691Y015801D01*
X036681Y016221D02*
X036681Y016261D01*
X042221Y016361D02*
X042221Y016331D01*
X042221Y016361D02*
X042871Y016361D01*
X042871Y016321D01*
X042881Y015901D02*
X042881Y015851D01*
X042211Y015851D01*
X042211Y015891D01*
X042221Y014841D02*
X042221Y014811D01*
X042221Y014841D02*
X042871Y014841D01*
X042871Y014801D01*
X042881Y014381D02*
X042881Y014331D01*
X042211Y014331D01*
X042211Y014371D01*
X043721Y014421D02*
X043721Y014451D01*
X044371Y014451D01*
X044371Y014411D01*
X044381Y013951D02*
X044381Y013901D01*
X043721Y013901D01*
X043721Y013941D01*
X043721Y013051D02*
X043721Y013021D01*
X043721Y013051D02*
X044371Y013051D01*
X044371Y013011D01*
X044381Y012551D02*
X044381Y012501D01*
X043721Y012501D01*
X043721Y012541D01*
X042871Y012571D02*
X042871Y012611D01*
X042221Y012611D01*
X042221Y012581D01*
X042211Y012141D02*
X042211Y012101D01*
X042881Y012101D01*
X042881Y012151D01*
X042871Y011141D02*
X042221Y011141D01*
X042221Y011111D01*
X042211Y010671D02*
X042211Y010631D01*
X042881Y010631D01*
X042881Y010681D01*
X042871Y011101D02*
X042871Y011141D01*
X043721Y010751D02*
X043721Y010721D01*
X043721Y010751D02*
X044371Y010751D01*
X044371Y010711D01*
X045221Y010671D02*
X045221Y010631D01*
X045881Y010631D01*
X045881Y010681D01*
X045871Y011141D02*
X045871Y011181D01*
X045221Y011181D01*
X045221Y011151D01*
X045221Y012071D02*
X045221Y012111D01*
X045221Y012071D02*
X045881Y012071D01*
X045881Y012121D01*
X045871Y012581D02*
X045871Y012621D01*
X045221Y012621D01*
X045221Y012591D01*
X045221Y014331D02*
X045221Y014371D01*
X045221Y014331D02*
X045881Y014331D01*
X045881Y014381D01*
X045871Y014841D02*
X045871Y014881D01*
X045221Y014881D01*
X045221Y014851D01*
X045221Y015811D02*
X045221Y015851D01*
X045221Y015811D02*
X045881Y015811D01*
X045881Y015861D01*
X045871Y016321D02*
X045871Y016361D01*
X045221Y016361D01*
X045221Y016331D01*
X044381Y016301D02*
X044381Y016251D01*
X043721Y016251D01*
X043721Y016291D01*
X043721Y016771D02*
X043721Y016801D01*
X044371Y016801D01*
X044371Y016761D01*
X044381Y017701D02*
X043721Y017701D01*
X043721Y017741D01*
X043721Y018221D02*
X043721Y018251D01*
X044371Y018251D01*
X044371Y018211D01*
X044381Y017751D02*
X044381Y017701D01*
X045221Y018141D02*
X045221Y018181D01*
X045221Y018141D02*
X045881Y018141D01*
X045881Y018191D01*
X045871Y018651D02*
X045871Y018691D01*
X045221Y018691D01*
X045221Y018661D01*
X045221Y019811D02*
X045221Y019851D01*
X045221Y019811D02*
X045881Y019811D01*
X045881Y019861D01*
X045871Y020321D02*
X045871Y020361D01*
X045221Y020361D01*
X045221Y020331D01*
X044381Y020301D02*
X044381Y020251D01*
X043721Y020251D01*
X043721Y020291D01*
X043721Y020771D02*
X043721Y020801D01*
X044371Y020801D01*
X044371Y020761D01*
X044381Y021551D02*
X043721Y021551D01*
X043721Y021591D01*
X044381Y021601D02*
X044381Y021551D01*
X045221Y021981D02*
X045221Y022021D01*
X045221Y021981D02*
X045881Y021981D01*
X045881Y022031D01*
X045871Y022491D02*
X045871Y022531D01*
X045221Y022531D01*
X045221Y022501D01*
X044371Y022101D02*
X043721Y022101D01*
X043721Y022071D01*
X044371Y022061D02*
X044371Y022101D01*
X042881Y022031D02*
X042881Y021981D01*
X042211Y021981D01*
X042211Y022021D01*
X042221Y022461D02*
X042221Y022491D01*
X042871Y022491D01*
X042871Y022451D01*
X042871Y020371D02*
X042221Y020371D01*
X042221Y020341D01*
X042211Y019901D02*
X042211Y019861D01*
X042881Y019861D01*
X042881Y019911D01*
X042871Y020331D02*
X042871Y020371D01*
X042871Y018651D02*
X042221Y018651D01*
X042221Y018621D01*
X042211Y018181D02*
X042211Y018141D01*
X042881Y018141D01*
X042881Y018191D01*
X042871Y018611D02*
X042871Y018651D01*
X044461Y026301D02*
X044491Y026301D01*
X044461Y026301D02*
X044461Y026951D01*
X044501Y026951D01*
X044921Y026961D02*
X044971Y026961D01*
X044971Y026291D01*
X044931Y026291D01*
X044757Y027676D02*
X044757Y027827D01*
X044757Y027751D02*
X044306Y027751D01*
X044306Y027676D02*
X044306Y027827D01*
X044382Y027983D02*
X044306Y028058D01*
X044306Y028208D01*
X044382Y028284D01*
X044382Y028444D02*
X044306Y028519D01*
X044306Y028669D01*
X044382Y028744D01*
X044457Y028744D01*
X044532Y028669D01*
X044532Y028594D01*
X044532Y028669D02*
X044607Y028744D01*
X044682Y028744D01*
X044757Y028669D01*
X044757Y028519D01*
X044682Y028444D01*
X044682Y028284D02*
X044757Y028208D01*
X044757Y028058D01*
X044682Y027983D01*
X044382Y027983D01*
X046211Y029251D02*
X046211Y029731D01*
X046681Y029731D01*
X046681Y029251D01*
X046211Y029251D01*
X047551Y029251D02*
X048031Y029251D01*
X048031Y029731D01*
X047551Y029731D01*
X047551Y029251D01*
X044691Y030441D02*
X044021Y030441D01*
X044021Y030481D01*
X044031Y030921D02*
X044031Y030951D01*
X044681Y030951D01*
X044681Y030911D01*
X044691Y030491D02*
X044691Y030441D01*
X040561Y030061D02*
X040561Y028951D01*
X040431Y028951D01*
X040391Y029191D02*
X040551Y029191D01*
X040551Y029231D02*
X040391Y029231D01*
X040391Y029191D01*
X040391Y029251D02*
X040551Y029251D01*
X040551Y029231D01*
X040551Y029291D02*
X040391Y029291D01*
X039611Y029291D01*
X039571Y029311D02*
X040551Y029311D01*
X040391Y029291D02*
X040391Y029251D01*
X039701Y029251D02*
X039551Y029251D01*
X039551Y029201D01*
X039701Y029201D01*
X039701Y029301D01*
X039551Y029301D01*
X039551Y029251D01*
X039551Y029201D02*
X039551Y028961D01*
X039671Y028961D01*
X039551Y029301D02*
X039551Y030071D01*
X039691Y030071D01*
X040421Y030061D02*
X040561Y030061D01*
X038651Y029731D02*
X038651Y029251D01*
X038171Y029251D01*
X038171Y029731D01*
X038651Y029731D01*
X038651Y030601D02*
X038171Y030601D01*
X038171Y031071D01*
X038651Y031071D01*
X038651Y030601D01*
X039141Y032231D02*
X039791Y032231D01*
X039791Y032261D01*
X039141Y032271D02*
X039141Y032231D01*
X039131Y032691D02*
X039131Y032741D01*
X039801Y032741D01*
X039801Y032701D01*
X036601Y031071D02*
X036121Y031071D01*
X036121Y030601D01*
X036601Y030601D01*
X036601Y031071D01*
X036601Y029731D02*
X036121Y029731D01*
X036121Y029251D01*
X036601Y029251D01*
X036601Y029731D01*
X035311Y029701D02*
X035161Y029701D01*
X035161Y029601D01*
X035311Y029601D01*
X035311Y029651D01*
X035161Y029651D01*
X035251Y029611D02*
X034471Y029611D01*
X034471Y029651D01*
X034311Y029651D01*
X034311Y029671D01*
X034471Y029671D01*
X034471Y029711D01*
X034311Y029711D01*
X034311Y029611D02*
X034471Y029611D01*
X034311Y029591D02*
X035291Y029591D01*
X035311Y029601D02*
X035311Y028831D01*
X035171Y028831D01*
X034441Y028841D02*
X034301Y028841D01*
X034301Y029951D01*
X034431Y029951D01*
X035191Y029941D02*
X035311Y029941D01*
X035311Y029701D01*
X035311Y029651D01*
X035641Y032221D02*
X034971Y032221D01*
X034971Y032261D01*
X034981Y032701D02*
X034981Y032731D01*
X035631Y032731D01*
X035631Y032691D01*
X035641Y032271D02*
X035641Y032221D01*
X018862Y023837D02*
X018411Y023837D01*
X018411Y024138D01*
X018411Y023677D02*
X018712Y023677D01*
X018862Y023527D01*
X018712Y023377D01*
X018411Y023377D01*
X018637Y023377D02*
X018637Y023677D01*
X018862Y023217D02*
X018862Y022917D01*
X018862Y023067D02*
X018411Y023067D01*
X018411Y022757D02*
X018862Y022456D01*
X018862Y022757D02*
X018411Y022456D01*
X014451Y022411D02*
X014451Y021741D01*
X014411Y021741D01*
X013971Y021751D02*
X013941Y021751D01*
X013941Y022401D01*
X013981Y022401D01*
X014401Y022411D02*
X014451Y022411D01*
X014441Y023621D02*
X014441Y024271D01*
X014411Y024271D01*
X013971Y024281D02*
X013931Y024281D01*
X013931Y023611D01*
X013981Y023611D01*
X014401Y023621D02*
X014441Y023621D01*
X012690Y018004D02*
X012010Y018004D01*
X012010Y017944D01*
X012010Y017334D02*
X012010Y017254D01*
X012690Y017254D01*
X012690Y017324D01*
X012690Y017954D02*
X012690Y018004D01*
X019450Y013014D02*
X019450Y012944D01*
X019450Y013014D02*
X020130Y013014D01*
X020130Y012934D01*
X020130Y012324D02*
X020130Y012264D01*
X019450Y012264D01*
X019450Y012314D01*
X019320Y010964D02*
X020220Y010964D01*
X020220Y009884D01*
X019320Y009884D01*
X019320Y010964D01*
X019470Y010954D02*
X019470Y009894D01*
X019490Y009894D01*
X019490Y010934D01*
X019520Y010934D01*
X019520Y009894D01*
X019560Y009894D01*
X019560Y010954D01*
X019590Y010954D01*
X019590Y009914D01*
X012820Y009904D02*
X011920Y009904D01*
X011920Y010984D01*
X012820Y010984D01*
X012820Y009904D01*
X012670Y009914D02*
X012670Y010974D01*
X012650Y010974D01*
X012650Y009934D01*
X012620Y009934D01*
X012620Y010974D01*
X012580Y010974D01*
X012580Y009914D01*
X012550Y009914D01*
X012550Y010954D01*
X042221Y009051D02*
X042221Y009021D01*
X042221Y009051D02*
X042871Y009051D01*
X042871Y009011D01*
X042881Y008591D02*
X042881Y008541D01*
X042211Y008541D01*
X042211Y008581D01*
X043721Y008951D02*
X043721Y008991D01*
X043721Y008951D02*
X044381Y008951D01*
X044381Y009001D01*
X044371Y009461D02*
X044371Y009501D01*
X043721Y009501D01*
X043721Y009471D01*
X043721Y010201D02*
X043721Y010241D01*
X043721Y010201D02*
X044381Y010201D01*
X044381Y010251D01*
X045221Y009051D02*
X045221Y009021D01*
X045221Y009051D02*
X045871Y009051D01*
X045871Y009011D01*
X045881Y008551D02*
X045881Y008501D01*
X045221Y008501D01*
X045221Y008541D01*
D308*
X045021Y008312D02*
X045251Y008082D01*
X044944Y008082D01*
X045021Y008312D02*
X045021Y007851D01*
X045404Y007851D02*
X045711Y007851D01*
X045558Y007851D02*
X045558Y008312D01*
X045711Y008158D01*
X045865Y008082D02*
X045941Y008005D01*
X046171Y008005D01*
X046018Y008005D02*
X045865Y007851D01*
X045865Y008082D02*
X045865Y008235D01*
X045941Y008312D01*
X046171Y008312D01*
X046171Y007851D01*
X044571Y008281D02*
X044571Y008742D01*
X044341Y008742D01*
X044265Y008665D01*
X044265Y008512D01*
X044341Y008435D01*
X044571Y008435D01*
X044418Y008435D02*
X044265Y008281D01*
X044111Y008281D02*
X043804Y008281D01*
X043958Y008281D02*
X043958Y008742D01*
X044111Y008588D01*
X043651Y008665D02*
X043574Y008742D01*
X043421Y008742D01*
X043344Y008665D01*
X043344Y008588D01*
X043421Y008512D01*
X043344Y008435D01*
X043344Y008358D01*
X043421Y008281D01*
X043574Y008281D01*
X043651Y008358D01*
X043497Y008512D02*
X043421Y008512D01*
X042921Y008305D02*
X042845Y008382D01*
X042691Y008382D01*
X042615Y008305D01*
X042461Y008382D02*
X042154Y008382D01*
X042154Y008305D01*
X042461Y007998D01*
X042461Y007921D01*
X042615Y007998D02*
X042691Y007921D01*
X042845Y007921D01*
X042921Y007998D01*
X042921Y008305D01*
X042845Y010041D02*
X042691Y010041D01*
X042615Y010118D01*
X042461Y010118D02*
X042461Y010195D01*
X042384Y010272D01*
X042231Y010272D01*
X042154Y010195D01*
X042154Y010118D01*
X042231Y010041D01*
X042384Y010041D01*
X042461Y010118D01*
X042384Y010272D02*
X042461Y010348D01*
X042461Y010425D01*
X042384Y010502D01*
X042231Y010502D01*
X042154Y010425D01*
X042154Y010348D01*
X042231Y010272D01*
X042615Y010425D02*
X042691Y010502D01*
X042845Y010502D01*
X042921Y010425D01*
X042921Y010118D01*
X042845Y010041D01*
X043421Y010951D02*
X043574Y010951D01*
X043651Y011028D01*
X043651Y011182D02*
X043497Y011258D01*
X043421Y011258D01*
X043344Y011182D01*
X043344Y011028D01*
X043421Y010951D01*
X043651Y011182D02*
X043651Y011412D01*
X043344Y011412D01*
X043958Y011412D02*
X043958Y010951D01*
X044111Y010951D02*
X043804Y010951D01*
X044111Y011258D02*
X043958Y011412D01*
X044265Y011335D02*
X044265Y011182D01*
X044341Y011105D01*
X044571Y011105D01*
X044418Y011105D02*
X044265Y010951D01*
X044571Y010951D02*
X044571Y011412D01*
X044341Y011412D01*
X044265Y011335D01*
X044944Y011508D02*
X045021Y011431D01*
X045174Y011431D01*
X045251Y011508D01*
X044944Y011815D01*
X044944Y011508D01*
X045251Y011508D02*
X045251Y011815D01*
X045174Y011892D01*
X045021Y011892D01*
X044944Y011815D01*
X044471Y011861D02*
X044471Y012322D01*
X044241Y012322D01*
X044165Y012245D01*
X044165Y012092D01*
X044241Y012015D01*
X044471Y012015D01*
X044318Y012015D02*
X044165Y011861D01*
X044011Y011938D02*
X043934Y011861D01*
X043781Y011861D01*
X043704Y011938D01*
X043704Y012245D01*
X043781Y012322D01*
X043934Y012322D01*
X044011Y012245D01*
X044011Y012168D01*
X043934Y012092D01*
X043704Y012092D01*
X042921Y012898D02*
X042845Y012821D01*
X042691Y012821D01*
X042615Y012898D01*
X042461Y012898D02*
X042384Y012821D01*
X042231Y012821D01*
X042154Y012898D01*
X042154Y013052D01*
X042231Y013128D01*
X042308Y013128D01*
X042461Y013052D01*
X042461Y013282D01*
X042154Y013282D01*
X042615Y013205D02*
X042691Y013282D01*
X042845Y013282D01*
X042921Y013205D01*
X042921Y012898D01*
X043344Y013261D02*
X043651Y013261D01*
X043804Y013261D02*
X044111Y013261D01*
X043958Y013261D02*
X043958Y013722D01*
X044111Y013568D01*
X044265Y013492D02*
X044341Y013415D01*
X044571Y013415D01*
X044418Y013415D02*
X044265Y013261D01*
X044265Y013492D02*
X044265Y013645D01*
X044341Y013722D01*
X044571Y013722D01*
X044571Y013261D01*
X044944Y013671D02*
X045251Y013671D01*
X044944Y013978D01*
X044944Y014055D01*
X045021Y014132D01*
X045174Y014132D01*
X045251Y014055D01*
X045558Y014132D02*
X045558Y013671D01*
X045711Y013671D02*
X045404Y013671D01*
X045711Y013978D02*
X045558Y014132D01*
X045865Y014055D02*
X045865Y013902D01*
X045941Y013825D01*
X046171Y013825D01*
X046018Y013825D02*
X045865Y013671D01*
X046171Y013671D02*
X046171Y014132D01*
X045941Y014132D01*
X045865Y014055D01*
X045971Y015211D02*
X045971Y015672D01*
X045741Y015672D01*
X045665Y015595D01*
X045665Y015442D01*
X045741Y015365D01*
X045971Y015365D01*
X045818Y015365D02*
X045665Y015211D01*
X045511Y015288D02*
X045434Y015211D01*
X045281Y015211D01*
X045204Y015288D01*
X045204Y015365D01*
X045281Y015442D01*
X045511Y015442D01*
X045511Y015288D01*
X045511Y015442D02*
X045358Y015595D01*
X045204Y015672D01*
X044471Y016981D02*
X044471Y017442D01*
X044241Y017442D01*
X044165Y017365D01*
X044165Y017212D01*
X044241Y017135D01*
X044471Y017135D01*
X044318Y017135D02*
X044165Y016981D01*
X044011Y017058D02*
X043934Y016981D01*
X043781Y016981D01*
X043704Y017058D01*
X043704Y017212D01*
X043781Y017288D01*
X043858Y017288D01*
X044011Y017212D01*
X044011Y017442D01*
X043704Y017442D01*
X042921Y017588D02*
X042845Y017511D01*
X042691Y017511D01*
X042615Y017588D01*
X042461Y017742D02*
X042154Y017742D01*
X042231Y017972D02*
X042231Y017511D01*
X042461Y017742D02*
X042231Y017972D01*
X042615Y017895D02*
X042691Y017972D01*
X042845Y017972D01*
X042921Y017895D01*
X042921Y017588D01*
X044011Y018391D02*
X044011Y018468D01*
X043704Y018775D01*
X043704Y018852D01*
X044011Y018852D01*
X044165Y018775D02*
X044165Y018622D01*
X044241Y018545D01*
X044471Y018545D01*
X044318Y018545D02*
X044165Y018391D01*
X044471Y018391D02*
X044471Y018852D01*
X044241Y018852D01*
X044165Y018775D01*
X045204Y019151D02*
X045511Y019151D01*
X045204Y019458D01*
X045204Y019535D01*
X045281Y019612D01*
X045434Y019612D01*
X045511Y019535D01*
X045665Y019535D02*
X045665Y019382D01*
X045741Y019305D01*
X045971Y019305D01*
X045818Y019305D02*
X045665Y019151D01*
X045971Y019151D02*
X045971Y019612D01*
X045741Y019612D01*
X045665Y019535D01*
X044471Y019621D02*
X044471Y020082D01*
X044241Y020082D01*
X044165Y020005D01*
X044165Y019852D01*
X044241Y019775D01*
X044471Y019775D01*
X044318Y019775D02*
X044165Y019621D01*
X044011Y019621D02*
X043704Y019621D01*
X043858Y019621D02*
X043858Y020082D01*
X044011Y019928D01*
X042921Y020668D02*
X042845Y020591D01*
X042691Y020591D01*
X042615Y020668D01*
X042461Y020591D02*
X042154Y020591D01*
X042308Y020591D02*
X042308Y021052D01*
X042461Y020898D01*
X042615Y020975D02*
X042691Y021052D01*
X042845Y021052D01*
X042921Y020975D01*
X042921Y020668D01*
X042845Y021331D02*
X042691Y021331D01*
X042615Y021408D01*
X042461Y021331D02*
X042154Y021638D01*
X042154Y021715D01*
X042231Y021792D01*
X042384Y021792D01*
X042461Y021715D01*
X042615Y021715D02*
X042691Y021792D01*
X042845Y021792D01*
X042921Y021715D01*
X042921Y021408D01*
X042845Y021331D01*
X042461Y021331D02*
X042154Y021331D01*
X043704Y022378D02*
X043704Y022455D01*
X043781Y022532D01*
X043858Y022532D01*
X043781Y022532D02*
X043704Y022608D01*
X043704Y022685D01*
X043781Y022762D01*
X043934Y022762D01*
X044011Y022685D01*
X044165Y022685D02*
X044165Y022532D01*
X044241Y022455D01*
X044471Y022455D01*
X044318Y022455D02*
X044165Y022301D01*
X044011Y022378D02*
X043934Y022301D01*
X043781Y022301D01*
X043704Y022378D01*
X044165Y022685D02*
X044241Y022762D01*
X044471Y022762D01*
X044471Y022301D01*
X045281Y021782D02*
X045511Y021552D01*
X045204Y021552D01*
X045281Y021782D02*
X045281Y021321D01*
X045665Y021321D02*
X045818Y021475D01*
X045741Y021475D02*
X045971Y021475D01*
X045971Y021321D02*
X045971Y021782D01*
X045741Y021782D01*
X045665Y021705D01*
X045665Y021552D01*
X045741Y021475D01*
X044895Y024580D02*
X044588Y024580D01*
X044511Y024657D01*
X044511Y024810D01*
X044588Y024887D01*
X044511Y025041D02*
X044818Y025348D01*
X044895Y025348D01*
X044972Y025271D01*
X044972Y025117D01*
X044895Y025041D01*
X044895Y024887D02*
X044972Y024810D01*
X044972Y024657D01*
X044895Y024580D01*
X044511Y025041D02*
X044511Y025348D01*
X044511Y025501D02*
X044511Y025808D01*
X044511Y025654D02*
X044972Y025654D01*
X044818Y025501D01*
X045677Y024817D02*
X046937Y024817D01*
X047646Y024817D02*
X048906Y024817D01*
X048906Y027140D01*
X048000Y028046D01*
X047646Y028046D01*
X046937Y028046D02*
X046583Y028046D01*
X045677Y027140D01*
X045677Y024817D01*
X046937Y024915D02*
X046860Y024935D01*
X046785Y024958D01*
X046711Y024986D01*
X046639Y025017D01*
X046568Y025052D01*
X046499Y025090D01*
X046433Y025132D01*
X046368Y025177D01*
X046306Y025225D01*
X046246Y025277D01*
X046189Y025331D01*
X046135Y025388D01*
X046083Y025448D01*
X046035Y025510D01*
X045990Y025575D01*
X045949Y025642D01*
X045911Y025711D01*
X045876Y025782D01*
X045845Y025854D01*
X045817Y025928D01*
X045794Y026003D01*
X045774Y026079D01*
X045758Y026157D01*
X045746Y026235D01*
X045738Y026313D01*
X045734Y026392D01*
X045734Y026470D01*
X045738Y026549D01*
X045746Y026627D01*
X045758Y026705D01*
X045774Y026783D01*
X045794Y026859D01*
X045817Y026934D01*
X045845Y027008D01*
X045876Y027080D01*
X045911Y027151D01*
X045949Y027220D01*
X045990Y027287D01*
X046035Y027352D01*
X046083Y027414D01*
X046135Y027474D01*
X046189Y027531D01*
X046246Y027585D01*
X046306Y027637D01*
X046368Y027685D01*
X046433Y027730D01*
X046499Y027772D01*
X046568Y027810D01*
X046639Y027845D01*
X046711Y027876D01*
X046785Y027904D01*
X046860Y027927D01*
X046937Y027947D01*
X047645Y027947D02*
X047722Y027927D01*
X047797Y027904D01*
X047871Y027876D01*
X047943Y027845D01*
X048014Y027810D01*
X048083Y027772D01*
X048149Y027730D01*
X048214Y027685D01*
X048276Y027637D01*
X048336Y027585D01*
X048393Y027531D01*
X048447Y027474D01*
X048499Y027414D01*
X048547Y027352D01*
X048592Y027287D01*
X048633Y027220D01*
X048671Y027151D01*
X048706Y027080D01*
X048737Y027008D01*
X048765Y026934D01*
X048788Y026859D01*
X048808Y026783D01*
X048824Y026705D01*
X048836Y026627D01*
X048844Y026549D01*
X048848Y026470D01*
X048848Y026392D01*
X048844Y026313D01*
X048836Y026235D01*
X048824Y026157D01*
X048808Y026079D01*
X048788Y026003D01*
X048765Y025928D01*
X048737Y025854D01*
X048706Y025782D01*
X048671Y025711D01*
X048633Y025642D01*
X048592Y025575D01*
X048547Y025510D01*
X048499Y025448D01*
X048447Y025388D01*
X048393Y025331D01*
X048336Y025277D01*
X048276Y025225D01*
X048214Y025177D01*
X048149Y025132D01*
X048083Y025090D01*
X048014Y025052D01*
X047943Y025017D01*
X047871Y024986D01*
X047797Y024958D01*
X047722Y024935D01*
X047645Y024915D01*
X041328Y028715D02*
X041251Y028638D01*
X040944Y028638D01*
X040868Y028715D01*
X040868Y028868D01*
X040944Y028945D01*
X040868Y029098D02*
X040868Y029405D01*
X040868Y029252D02*
X041328Y029252D01*
X041175Y029098D01*
X041251Y028945D02*
X041328Y028868D01*
X041328Y028715D01*
X041251Y029559D02*
X041328Y029635D01*
X041328Y029789D01*
X041251Y029866D01*
X041175Y029866D01*
X041098Y029789D01*
X041021Y029866D01*
X040944Y029866D01*
X040868Y029789D01*
X040868Y029635D01*
X040944Y029559D01*
X041098Y029712D02*
X041098Y029789D01*
X040697Y030547D02*
X043020Y030547D01*
X043926Y031453D01*
X043926Y031807D01*
X044164Y031495D02*
X044471Y031188D01*
X044394Y031111D01*
X044241Y031111D01*
X044164Y031188D01*
X044164Y031495D01*
X044241Y031572D01*
X044394Y031572D01*
X044471Y031495D01*
X044471Y031188D01*
X044624Y031111D02*
X044931Y031111D01*
X044624Y031418D01*
X044624Y031495D01*
X044701Y031572D01*
X044854Y031572D01*
X044931Y031495D01*
X045085Y031495D02*
X045161Y031572D01*
X045315Y031572D01*
X045391Y031495D01*
X045391Y031188D01*
X045315Y031111D01*
X045161Y031111D01*
X045085Y031188D01*
X045757Y031453D02*
X045757Y031807D01*
X045757Y031453D02*
X046663Y030547D01*
X048986Y030547D01*
X048986Y031807D01*
X048986Y032516D02*
X048986Y033776D01*
X046663Y033776D01*
X045757Y032870D01*
X045757Y032516D01*
X045855Y031807D02*
X045875Y031730D01*
X045898Y031655D01*
X045926Y031581D01*
X045957Y031509D01*
X045992Y031438D01*
X046030Y031369D01*
X046072Y031303D01*
X046117Y031238D01*
X046165Y031176D01*
X046217Y031116D01*
X046271Y031059D01*
X046328Y031005D01*
X046388Y030953D01*
X046450Y030905D01*
X046515Y030860D01*
X046582Y030819D01*
X046651Y030781D01*
X046722Y030746D01*
X046794Y030715D01*
X046868Y030687D01*
X046943Y030664D01*
X047019Y030644D01*
X047097Y030628D01*
X047175Y030616D01*
X047253Y030608D01*
X047332Y030604D01*
X047410Y030604D01*
X047489Y030608D01*
X047567Y030616D01*
X047645Y030628D01*
X047723Y030644D01*
X047799Y030664D01*
X047874Y030687D01*
X047948Y030715D01*
X048020Y030746D01*
X048091Y030781D01*
X048160Y030819D01*
X048227Y030860D01*
X048292Y030905D01*
X048354Y030953D01*
X048414Y031005D01*
X048471Y031059D01*
X048525Y031116D01*
X048577Y031176D01*
X048625Y031238D01*
X048670Y031303D01*
X048712Y031369D01*
X048750Y031438D01*
X048785Y031509D01*
X048816Y031581D01*
X048844Y031655D01*
X048867Y031730D01*
X048887Y031807D01*
X048887Y032515D02*
X048867Y032592D01*
X048844Y032667D01*
X048816Y032741D01*
X048785Y032813D01*
X048750Y032884D01*
X048712Y032953D01*
X048670Y033019D01*
X048625Y033084D01*
X048577Y033146D01*
X048525Y033206D01*
X048471Y033263D01*
X048414Y033317D01*
X048354Y033369D01*
X048292Y033417D01*
X048227Y033462D01*
X048160Y033503D01*
X048091Y033541D01*
X048020Y033576D01*
X047948Y033607D01*
X047874Y033635D01*
X047799Y033658D01*
X047723Y033678D01*
X047645Y033694D01*
X047567Y033706D01*
X047489Y033714D01*
X047410Y033718D01*
X047332Y033718D01*
X047253Y033714D01*
X047175Y033706D01*
X047097Y033694D01*
X047019Y033678D01*
X046943Y033658D01*
X046868Y033635D01*
X046794Y033607D01*
X046722Y033576D01*
X046651Y033541D01*
X046582Y033503D01*
X046515Y033462D01*
X046450Y033417D01*
X046388Y033369D01*
X046328Y033317D01*
X046271Y033263D01*
X046217Y033206D01*
X046165Y033146D01*
X046117Y033084D01*
X046072Y033019D01*
X046030Y032953D01*
X045992Y032884D01*
X045957Y032813D01*
X045926Y032741D01*
X045898Y032667D01*
X045875Y032592D01*
X045855Y032515D01*
X043926Y032516D02*
X043926Y032870D01*
X043020Y033776D01*
X040697Y033776D01*
X040697Y032516D01*
X040111Y031995D02*
X040111Y031688D01*
X040035Y031611D01*
X039881Y031611D01*
X039805Y031688D01*
X039651Y031611D02*
X039344Y031611D01*
X039498Y031611D02*
X039498Y032072D01*
X039651Y031918D01*
X039805Y031995D02*
X039881Y032072D01*
X040035Y032072D01*
X040111Y031995D01*
X040697Y031807D02*
X040697Y030547D01*
X039191Y031842D02*
X038884Y031842D01*
X038961Y032072D02*
X039191Y031842D01*
X038961Y031611D02*
X038961Y032072D01*
X035801Y031995D02*
X035801Y031688D01*
X035725Y031611D01*
X035571Y031611D01*
X035495Y031688D01*
X035341Y031611D02*
X035034Y031611D01*
X035188Y031611D02*
X035188Y032072D01*
X035341Y031918D01*
X035495Y031995D02*
X035571Y032072D01*
X035725Y032072D01*
X035801Y031995D01*
X034881Y031842D02*
X034651Y031842D01*
X034574Y031765D01*
X034574Y031688D01*
X034651Y031611D01*
X034804Y031611D01*
X034881Y031688D01*
X034881Y031842D01*
X034727Y031995D01*
X034574Y032072D01*
X033928Y029866D02*
X033928Y029559D01*
X033698Y029559D01*
X033775Y029712D01*
X033775Y029789D01*
X033698Y029866D01*
X033544Y029866D01*
X033468Y029789D01*
X033468Y029635D01*
X033544Y029559D01*
X033468Y029405D02*
X033468Y029098D01*
X033468Y029252D02*
X033928Y029252D01*
X033775Y029098D01*
X033851Y028945D02*
X033928Y028868D01*
X033928Y028715D01*
X033851Y028638D01*
X033544Y028638D01*
X033468Y028715D01*
X033468Y028868D01*
X033544Y028945D01*
X036151Y028068D02*
X036151Y027761D01*
X036458Y028068D01*
X036535Y028068D01*
X036612Y027991D01*
X036612Y027838D01*
X036535Y027761D01*
X036612Y027608D02*
X036612Y027301D01*
X036151Y027301D01*
X036382Y027301D02*
X036382Y027454D01*
X036225Y026792D02*
X036071Y026792D01*
X035995Y026715D01*
X036071Y026562D02*
X035995Y026485D01*
X035995Y026408D01*
X036071Y026331D01*
X036225Y026331D01*
X036301Y026408D01*
X036225Y026562D02*
X036071Y026562D01*
X036225Y026562D02*
X036301Y026638D01*
X036301Y026715D01*
X036225Y026792D01*
X035841Y026792D02*
X035841Y026331D01*
X035841Y026562D02*
X035534Y026562D01*
X035534Y026792D02*
X035534Y026331D01*
X035381Y026331D02*
X035227Y026331D01*
X035304Y026331D02*
X035304Y026792D01*
X035381Y026792D02*
X035227Y026792D01*
X035074Y026792D02*
X035074Y026331D01*
X034767Y026331D01*
X034614Y026331D02*
X034307Y026331D01*
X034153Y026331D02*
X033923Y026331D01*
X033846Y026408D01*
X033846Y026715D01*
X033923Y026792D01*
X034153Y026792D01*
X034153Y026331D01*
X033693Y026331D02*
X033386Y026331D01*
X033539Y026331D02*
X033539Y026792D01*
X033693Y026638D01*
X034614Y026792D02*
X034614Y026331D01*
X034920Y026562D02*
X035074Y026562D01*
X035074Y026792D02*
X034767Y026792D01*
X038191Y027291D02*
X038652Y027291D01*
X038652Y027598D01*
X038498Y027751D02*
X038652Y027904D01*
X038191Y027904D01*
X038191Y027751D02*
X038191Y028058D01*
X038422Y027444D02*
X038422Y027291D01*
X037692Y022388D02*
X037615Y022388D01*
X037308Y022081D01*
X037231Y022081D01*
X037231Y021851D02*
X037692Y021851D01*
X037462Y021621D01*
X037462Y021928D01*
X037692Y022081D02*
X037692Y022388D01*
X037615Y021467D02*
X037462Y021467D01*
X037385Y021390D01*
X037385Y021160D01*
X037231Y021160D02*
X037692Y021160D01*
X037692Y021390D01*
X037615Y021467D01*
X037385Y021314D02*
X037231Y021467D01*
X036961Y020292D02*
X036808Y020292D01*
X036885Y020292D02*
X036885Y019831D01*
X036961Y019831D02*
X036808Y019831D01*
X036655Y019908D02*
X036655Y020215D01*
X036578Y020292D01*
X036424Y020292D01*
X036348Y020215D01*
X036194Y020138D02*
X036041Y020292D01*
X036041Y019831D01*
X036194Y019831D02*
X035887Y019831D01*
X035734Y019908D02*
X035657Y019831D01*
X035504Y019831D01*
X035427Y019908D01*
X035427Y020062D01*
X035504Y020138D01*
X035580Y020138D01*
X035734Y020062D01*
X035734Y020292D01*
X035427Y020292D01*
X035441Y020651D02*
X035441Y021112D01*
X035211Y021112D01*
X035135Y021035D01*
X035135Y020882D01*
X035211Y020805D01*
X035441Y020805D01*
X035288Y020805D02*
X035135Y020651D01*
X034981Y020651D02*
X034674Y020958D01*
X034674Y021035D01*
X034751Y021112D01*
X034904Y021112D01*
X034981Y021035D01*
X034981Y020651D02*
X034674Y020651D01*
X034521Y020728D02*
X034214Y021035D01*
X034214Y020728D01*
X034291Y020651D01*
X034444Y020651D01*
X034521Y020728D01*
X034521Y021035D01*
X034444Y021112D01*
X034291Y021112D01*
X034214Y021035D01*
X033182Y021060D02*
X033182Y021290D01*
X033105Y021367D01*
X032952Y021367D01*
X032875Y021290D01*
X032875Y021060D01*
X032721Y021060D02*
X033182Y021060D01*
X032875Y021214D02*
X032721Y021367D01*
X032952Y021521D02*
X032952Y021828D01*
X032952Y021981D02*
X032952Y022211D01*
X032875Y022288D01*
X032798Y022288D01*
X032721Y022211D01*
X032721Y022058D01*
X032798Y021981D01*
X032952Y021981D01*
X033105Y022134D01*
X033182Y022288D01*
X033182Y021751D02*
X032952Y021521D01*
X032721Y021751D02*
X033182Y021751D01*
X031342Y021719D02*
X031265Y021642D01*
X030958Y021642D01*
X031265Y021949D01*
X030958Y021949D01*
X030881Y021872D01*
X030881Y021719D01*
X030958Y021642D01*
X030958Y021489D02*
X031035Y021489D01*
X031112Y021412D01*
X031112Y021182D01*
X030958Y021182D01*
X030881Y021258D01*
X030881Y021412D01*
X030958Y021489D01*
X031265Y021335D02*
X031112Y021182D01*
X031265Y021335D02*
X031342Y021489D01*
X031342Y021719D02*
X031342Y021872D01*
X031265Y021949D01*
X031265Y021028D02*
X031342Y020952D01*
X031342Y020798D01*
X031265Y020721D01*
X030958Y020721D01*
X030881Y020798D01*
X030881Y020952D01*
X030958Y021028D01*
X030811Y019366D02*
X030734Y019366D01*
X030658Y019289D01*
X030658Y019135D01*
X030734Y019059D01*
X030888Y019059D01*
X030888Y019289D01*
X030811Y019366D01*
X031041Y019212D02*
X030888Y019059D01*
X030965Y018905D02*
X030888Y018829D01*
X030811Y018905D01*
X030734Y018905D01*
X030658Y018829D01*
X030658Y018675D01*
X030734Y018598D01*
X030734Y018445D02*
X030658Y018368D01*
X030658Y018215D01*
X030734Y018138D01*
X031041Y018138D01*
X031118Y018215D01*
X031118Y018368D01*
X031041Y018445D01*
X031041Y018598D02*
X031118Y018675D01*
X031118Y018829D01*
X031041Y018905D01*
X030965Y018905D01*
X030888Y018829D02*
X030888Y018752D01*
X031041Y019212D02*
X031118Y019366D01*
X032792Y017121D02*
X032715Y017045D01*
X032715Y016891D01*
X032792Y016814D01*
X032869Y016814D01*
X032945Y016891D01*
X032945Y017045D01*
X032869Y017121D01*
X032792Y017121D01*
X032945Y017045D02*
X033022Y017121D01*
X033099Y017121D01*
X033176Y017045D01*
X033176Y016891D01*
X033099Y016814D01*
X033022Y016814D01*
X032945Y016891D01*
X032945Y016661D02*
X032792Y016661D01*
X032715Y016584D01*
X032715Y016431D01*
X032792Y016354D01*
X032945Y016354D02*
X033022Y016507D01*
X033022Y016584D01*
X032945Y016661D01*
X033176Y016661D02*
X033176Y016354D01*
X032945Y016354D01*
X032792Y016201D02*
X032715Y016124D01*
X032715Y015970D01*
X032792Y015894D01*
X033099Y015894D01*
X033176Y015970D01*
X033176Y016124D01*
X033099Y016201D01*
X033474Y016498D02*
X033551Y016421D01*
X033704Y016421D01*
X033781Y016498D01*
X033474Y016805D01*
X033474Y016498D01*
X033781Y016498D02*
X033781Y016805D01*
X033704Y016882D01*
X033551Y016882D01*
X033474Y016805D01*
X033934Y016421D02*
X034241Y016421D01*
X034088Y016421D02*
X034088Y016882D01*
X034241Y016728D01*
X034395Y016805D02*
X034471Y016882D01*
X034625Y016882D01*
X034701Y016805D01*
X034701Y016498D01*
X034625Y016421D01*
X034471Y016421D01*
X034395Y016498D01*
X035984Y016498D02*
X035984Y016805D01*
X036061Y016882D01*
X036214Y016882D01*
X036291Y016805D01*
X036291Y016728D01*
X036214Y016652D01*
X035984Y016652D01*
X035984Y016498D02*
X036061Y016421D01*
X036214Y016421D01*
X036291Y016498D01*
X036445Y016498D02*
X036521Y016421D01*
X036675Y016421D01*
X036751Y016498D01*
X036751Y016805D01*
X036675Y016882D01*
X036521Y016882D01*
X036445Y016805D01*
X037504Y014896D02*
X037811Y014896D01*
X037888Y014819D01*
X037888Y014665D01*
X037811Y014589D01*
X037735Y014589D01*
X037658Y014665D01*
X037658Y014896D01*
X037504Y014896D02*
X037428Y014819D01*
X037428Y014665D01*
X037504Y014589D01*
X037504Y014435D02*
X037428Y014359D01*
X037428Y014205D01*
X037504Y014128D01*
X037504Y013975D02*
X037428Y013898D01*
X037428Y013745D01*
X037504Y013668D01*
X037811Y013668D01*
X037888Y013745D01*
X037888Y013898D01*
X037811Y013975D01*
X037888Y014128D02*
X037658Y014128D01*
X037735Y014282D01*
X037735Y014359D01*
X037658Y014435D01*
X037504Y014435D01*
X037888Y014435D02*
X037888Y014128D01*
X042154Y014152D02*
X042308Y014075D01*
X042461Y013922D01*
X042231Y013922D01*
X042154Y013845D01*
X042154Y013768D01*
X042231Y013691D01*
X042384Y013691D01*
X042461Y013768D01*
X042461Y013922D01*
X042615Y014075D02*
X042691Y014152D01*
X042845Y014152D01*
X042921Y014075D01*
X042921Y013768D01*
X042845Y013691D01*
X042691Y013691D01*
X042615Y013768D01*
X043497Y013722D02*
X043497Y013261D01*
X043651Y013568D02*
X043497Y013722D01*
X042845Y015201D02*
X042691Y015201D01*
X042615Y015278D01*
X042461Y015278D02*
X042384Y015201D01*
X042231Y015201D01*
X042154Y015278D01*
X042154Y015355D01*
X042231Y015432D01*
X042308Y015432D01*
X042231Y015432D02*
X042154Y015508D01*
X042154Y015585D01*
X042231Y015662D01*
X042384Y015662D01*
X042461Y015585D01*
X042615Y015585D02*
X042691Y015662D01*
X042845Y015662D01*
X042921Y015585D01*
X042921Y015278D01*
X042845Y015201D01*
X045204Y017558D02*
X045281Y017481D01*
X045434Y017481D01*
X045511Y017558D01*
X045511Y017635D01*
X045434Y017712D01*
X045281Y017712D01*
X045204Y017635D01*
X045204Y017558D01*
X045281Y017712D02*
X045204Y017788D01*
X045204Y017865D01*
X045281Y017942D01*
X045434Y017942D01*
X045511Y017865D01*
X045511Y017788D01*
X045434Y017712D01*
X045665Y017712D02*
X045741Y017635D01*
X045971Y017635D01*
X045818Y017635D02*
X045665Y017481D01*
X045665Y017712D02*
X045665Y017865D01*
X045741Y017942D01*
X045971Y017942D01*
X045971Y017481D01*
X045941Y011892D02*
X045865Y011815D01*
X045865Y011662D01*
X045941Y011585D01*
X046171Y011585D01*
X046018Y011585D02*
X045865Y011431D01*
X045711Y011431D02*
X045404Y011431D01*
X045558Y011431D02*
X045558Y011892D01*
X045711Y011738D01*
X045941Y011892D02*
X046171Y011892D01*
X046171Y011431D01*
X046171Y010502D02*
X045941Y010502D01*
X045865Y010425D01*
X045865Y010272D01*
X045941Y010195D01*
X046171Y010195D01*
X046018Y010195D02*
X045865Y010041D01*
X045711Y010041D02*
X045404Y010041D01*
X045558Y010041D02*
X045558Y010502D01*
X045711Y010348D01*
X045251Y010272D02*
X045021Y010272D01*
X044944Y010195D01*
X044944Y010118D01*
X045021Y010041D01*
X045174Y010041D01*
X045251Y010118D01*
X045251Y010272D01*
X045097Y010425D01*
X044944Y010502D01*
X046171Y010502D02*
X046171Y010041D01*
X037167Y010877D02*
X037013Y010877D01*
X037090Y010877D02*
X037090Y011338D01*
X037167Y011338D02*
X037013Y011338D01*
X036860Y011261D02*
X036860Y010954D01*
X036783Y010877D01*
X036630Y010877D01*
X036553Y010954D01*
X036400Y010877D02*
X036093Y010877D01*
X036246Y010877D02*
X036246Y011338D01*
X036400Y011184D01*
X036553Y011261D02*
X036630Y011338D01*
X036783Y011338D01*
X036860Y011261D01*
X035305Y009509D02*
X035382Y009432D01*
X035382Y009279D01*
X035305Y009202D01*
X035228Y009202D01*
X035152Y009279D01*
X035152Y009509D01*
X035305Y009509D02*
X034998Y009509D01*
X034921Y009432D01*
X034921Y009279D01*
X034998Y009202D01*
X034921Y009049D02*
X034921Y008742D01*
X034921Y008895D02*
X035382Y008895D01*
X035228Y008742D01*
X035152Y008588D02*
X035075Y008512D01*
X035075Y008281D01*
X034921Y008281D02*
X035382Y008281D01*
X035382Y008512D01*
X035305Y008588D01*
X035152Y008588D01*
X035075Y008435D02*
X034921Y008588D01*
X034722Y008512D02*
X034645Y008588D01*
X034492Y008588D01*
X034415Y008512D01*
X034415Y008281D01*
X034261Y008281D02*
X034722Y008281D01*
X034722Y008512D01*
X034568Y008742D02*
X034722Y008895D01*
X034261Y008895D01*
X034261Y008742D02*
X034261Y009049D01*
X034338Y009202D02*
X034415Y009202D01*
X034492Y009279D01*
X034492Y009432D01*
X034415Y009509D01*
X034338Y009509D01*
X034261Y009432D01*
X034261Y009279D01*
X034338Y009202D01*
X034492Y009279D02*
X034568Y009202D01*
X034645Y009202D01*
X034722Y009279D01*
X034722Y009432D01*
X034645Y009509D01*
X034568Y009509D01*
X034492Y009432D01*
X034012Y009499D02*
X033935Y009499D01*
X033628Y009192D01*
X033551Y009192D01*
X033551Y009039D02*
X033551Y008732D01*
X033551Y008885D02*
X034012Y008885D01*
X033858Y008732D01*
X033782Y008578D02*
X033935Y008578D01*
X034012Y008502D01*
X034012Y008271D01*
X033551Y008271D01*
X033705Y008271D02*
X033705Y008502D01*
X033782Y008578D01*
X033705Y008425D02*
X033551Y008578D01*
X034261Y008588D02*
X034415Y008435D01*
X034012Y009192D02*
X034012Y009499D01*
X031252Y009288D02*
X031252Y008981D01*
X031022Y008981D01*
X031098Y009134D01*
X031098Y009211D01*
X031022Y009288D01*
X030868Y009288D01*
X030791Y009211D01*
X030791Y009058D01*
X030868Y008981D01*
X031022Y008828D02*
X031022Y008521D01*
X031252Y008751D01*
X030791Y008751D01*
X030791Y008367D02*
X030945Y008214D01*
X030945Y008290D02*
X030945Y008060D01*
X030791Y008060D02*
X031252Y008060D01*
X031252Y008290D01*
X031175Y008367D01*
X031022Y008367D01*
X030945Y008290D01*
X030189Y008377D02*
X030112Y008301D01*
X029805Y008301D01*
X029728Y008377D01*
X029728Y008531D01*
X029805Y008607D01*
X029728Y008761D02*
X029728Y009068D01*
X029728Y008914D02*
X030189Y008914D01*
X030035Y008761D01*
X030112Y008607D02*
X030189Y008531D01*
X030189Y008377D01*
X030189Y008147D02*
X030189Y007994D01*
X030189Y008070D02*
X029728Y008070D01*
X029728Y007994D02*
X029728Y008147D01*
X029132Y008268D02*
X029132Y008422D01*
X029055Y008498D01*
X029132Y008652D02*
X028902Y008652D01*
X028978Y008805D01*
X028978Y008882D01*
X028902Y008959D01*
X028748Y008959D01*
X028671Y008882D01*
X028671Y008728D01*
X028748Y008652D01*
X028748Y008498D02*
X028671Y008422D01*
X028671Y008268D01*
X028748Y008191D01*
X029055Y008191D01*
X029132Y008268D01*
X029132Y008652D02*
X029132Y008959D01*
X029132Y009112D02*
X029132Y009419D01*
X029055Y009419D01*
X028748Y009112D01*
X028671Y009112D01*
X028362Y009390D02*
X027901Y009390D01*
X028055Y009390D02*
X028055Y009620D01*
X028132Y009697D01*
X028285Y009697D01*
X028362Y009620D01*
X028362Y009390D01*
X028055Y009544D02*
X027901Y009697D01*
X027652Y009620D02*
X027652Y009390D01*
X027191Y009390D01*
X027345Y009390D02*
X027345Y009620D01*
X027422Y009697D01*
X027575Y009697D01*
X027652Y009620D01*
X027575Y009851D02*
X027652Y009927D01*
X027652Y010081D01*
X027575Y010158D01*
X027498Y010158D01*
X027191Y009851D01*
X027191Y010158D01*
X027191Y010311D02*
X027498Y010618D01*
X027575Y010618D01*
X027652Y010541D01*
X027652Y010388D01*
X027575Y010311D01*
X027901Y010311D02*
X028208Y010618D01*
X028285Y010618D01*
X028362Y010541D01*
X028362Y010388D01*
X028285Y010311D01*
X028132Y010158D02*
X028132Y009851D01*
X028362Y010081D01*
X027901Y010081D01*
X027901Y010311D02*
X027901Y010618D01*
X027191Y010618D02*
X027191Y010311D01*
X026942Y010531D02*
X026712Y010301D01*
X026712Y010608D01*
X026942Y010531D02*
X026481Y010531D01*
X026332Y010598D02*
X026332Y010291D01*
X026102Y010291D01*
X026178Y010444D01*
X026178Y010521D01*
X026102Y010598D01*
X025948Y010598D01*
X025871Y010521D01*
X025871Y010368D01*
X025948Y010291D01*
X025871Y010138D02*
X025871Y009831D01*
X026178Y010138D01*
X026255Y010138D01*
X026332Y010061D01*
X026332Y009907D01*
X026255Y009831D01*
X026255Y009677D02*
X026102Y009677D01*
X026025Y009600D01*
X026025Y009370D01*
X025871Y009370D02*
X026332Y009370D01*
X026332Y009600D01*
X026255Y009677D01*
X026481Y009687D02*
X026635Y009534D01*
X026635Y009610D02*
X026635Y009380D01*
X026481Y009380D02*
X026942Y009380D01*
X026942Y009610D01*
X026865Y009687D01*
X026712Y009687D01*
X026635Y009610D01*
X026481Y009841D02*
X026481Y010148D01*
X026481Y009841D02*
X026788Y010148D01*
X026865Y010148D01*
X026942Y010071D01*
X026942Y009917D01*
X026865Y009841D01*
X027191Y009697D02*
X027345Y009544D01*
X026025Y009524D02*
X025871Y009677D01*
X029728Y009451D02*
X030189Y009451D01*
X029958Y009221D01*
X029958Y009528D01*
X029945Y011480D02*
X029945Y011710D01*
X030022Y011787D01*
X030175Y011787D01*
X030252Y011710D01*
X030252Y011480D01*
X029791Y011480D01*
X029945Y011634D02*
X029791Y011787D01*
X030022Y011941D02*
X030022Y012248D01*
X030022Y012401D02*
X030022Y012708D01*
X030252Y012631D02*
X029791Y012631D01*
X030022Y012401D02*
X030252Y012631D01*
X030252Y012171D02*
X029791Y012171D01*
X030022Y011941D02*
X030252Y012171D01*
X030811Y013190D02*
X031272Y013190D01*
X031272Y013420D01*
X031195Y013497D01*
X031042Y013497D01*
X030965Y013420D01*
X030965Y013190D01*
X030965Y013344D02*
X030811Y013497D01*
X030811Y013651D02*
X031118Y013958D01*
X031195Y013958D01*
X031272Y013881D01*
X031272Y013727D01*
X031195Y013651D01*
X030811Y013651D02*
X030811Y013958D01*
X030888Y014111D02*
X030811Y014188D01*
X030811Y014341D01*
X030888Y014418D01*
X030965Y014418D01*
X031042Y014341D01*
X031042Y014264D01*
X031042Y014341D02*
X031118Y014418D01*
X031195Y014418D01*
X031272Y014341D01*
X031272Y014188D01*
X031195Y014111D01*
X029241Y013382D02*
X029241Y012921D01*
X029241Y013075D02*
X029011Y013075D01*
X028935Y013152D01*
X028935Y013305D01*
X029011Y013382D01*
X029241Y013382D01*
X029088Y013075D02*
X028935Y012921D01*
X028781Y012921D02*
X028474Y013228D01*
X028474Y013305D01*
X028551Y013382D01*
X028704Y013382D01*
X028781Y013305D01*
X028781Y012921D02*
X028474Y012921D01*
X028321Y012921D02*
X028014Y012921D01*
X028167Y012921D02*
X028167Y013382D01*
X028321Y013228D01*
X030734Y015638D02*
X030658Y015715D01*
X030658Y015868D01*
X030734Y015945D01*
X030734Y016098D02*
X030658Y016175D01*
X030658Y016329D01*
X030734Y016405D01*
X030811Y016405D01*
X030888Y016329D01*
X030888Y016252D01*
X030888Y016329D02*
X030965Y016405D01*
X031041Y016405D01*
X031118Y016329D01*
X031118Y016175D01*
X031041Y016098D01*
X031041Y015945D02*
X031118Y015868D01*
X031118Y015715D01*
X031041Y015638D01*
X030734Y015638D01*
X030734Y016559D02*
X030658Y016559D01*
X030734Y016559D02*
X031041Y016866D01*
X031118Y016866D01*
X031118Y016559D01*
X036348Y019908D02*
X036424Y019831D01*
X036578Y019831D01*
X036655Y019908D01*
X030138Y023295D02*
X030061Y023218D01*
X029754Y023218D01*
X029678Y023295D01*
X029678Y023448D01*
X029754Y023525D01*
X029754Y023678D02*
X029678Y023755D01*
X029678Y023909D01*
X029754Y023985D01*
X029831Y023985D01*
X029908Y023909D01*
X029908Y023832D01*
X029908Y023909D02*
X029985Y023985D01*
X030061Y023985D01*
X030138Y023909D01*
X030138Y023755D01*
X030061Y023678D01*
X030061Y023525D02*
X030138Y023448D01*
X030138Y023295D01*
X030138Y024139D02*
X029908Y024139D01*
X029985Y024292D01*
X029985Y024369D01*
X029908Y024446D01*
X029754Y024446D01*
X029678Y024369D01*
X029678Y024215D01*
X029754Y024139D01*
X030138Y024139D02*
X030138Y024446D01*
X028868Y024369D02*
X028638Y024139D01*
X028638Y024446D01*
X028408Y024369D02*
X028868Y024369D01*
X028791Y023985D02*
X028715Y023985D01*
X028638Y023909D01*
X028561Y023985D01*
X028484Y023985D01*
X028408Y023909D01*
X028408Y023755D01*
X028484Y023678D01*
X028484Y023525D02*
X028408Y023448D01*
X028408Y023295D01*
X028484Y023218D01*
X028791Y023218D01*
X028868Y023295D01*
X028868Y023448D01*
X028791Y023525D01*
X028791Y023678D02*
X028868Y023755D01*
X028868Y023909D01*
X028791Y023985D01*
X028638Y023909D02*
X028638Y023832D01*
X027588Y023909D02*
X027511Y023985D01*
X027435Y023985D01*
X027358Y023909D01*
X027281Y023985D01*
X027204Y023985D01*
X027128Y023909D01*
X027128Y023755D01*
X027204Y023678D01*
X027204Y023525D02*
X027128Y023448D01*
X027128Y023295D01*
X027204Y023218D01*
X027511Y023218D01*
X027588Y023295D01*
X027588Y023448D01*
X027511Y023525D01*
X027511Y023678D02*
X027588Y023755D01*
X027588Y023909D01*
X027358Y023909D02*
X027358Y023832D01*
X027511Y024139D02*
X027588Y024215D01*
X027588Y024369D01*
X027511Y024446D01*
X027435Y024446D01*
X027128Y024139D01*
X027128Y024446D01*
X026468Y024369D02*
X026468Y024215D01*
X026391Y024139D01*
X026391Y023985D02*
X026315Y023985D01*
X026238Y023909D01*
X026161Y023985D01*
X026084Y023985D01*
X026008Y023909D01*
X026008Y023755D01*
X026084Y023678D01*
X026084Y023525D02*
X026008Y023448D01*
X026008Y023295D01*
X026084Y023218D01*
X026391Y023218D01*
X026468Y023295D01*
X026468Y023448D01*
X026391Y023525D01*
X026391Y023678D02*
X026468Y023755D01*
X026468Y023909D01*
X026391Y023985D01*
X026238Y023909D02*
X026238Y023832D01*
X026084Y024139D02*
X026008Y024215D01*
X026008Y024369D01*
X026084Y024446D01*
X026161Y024446D01*
X026238Y024369D01*
X026238Y024292D01*
X026238Y024369D02*
X026315Y024446D01*
X026391Y024446D01*
X026468Y024369D01*
X020163Y018739D02*
X019932Y018739D01*
X019856Y018662D01*
X019856Y018509D01*
X019932Y018432D01*
X020163Y018432D01*
X020163Y018279D02*
X020163Y018739D01*
X020009Y018432D02*
X019856Y018279D01*
X019702Y018279D02*
X019395Y018586D01*
X019395Y018662D01*
X019472Y018739D01*
X019626Y018739D01*
X019702Y018662D01*
X019702Y018279D02*
X019395Y018279D01*
X019242Y018356D02*
X019165Y018279D01*
X019012Y018279D01*
X018935Y018356D01*
X018935Y018662D01*
X019012Y018739D01*
X019165Y018739D01*
X019242Y018662D01*
X019242Y018586D01*
X019165Y018509D01*
X018935Y018509D01*
X015252Y021388D02*
X015175Y021311D01*
X014868Y021311D01*
X014791Y021388D01*
X014791Y021542D01*
X014868Y021618D01*
X015022Y021772D02*
X015022Y022079D01*
X015022Y022232D02*
X015098Y022386D01*
X015098Y022462D01*
X015022Y022539D01*
X014868Y022539D01*
X014791Y022462D01*
X014791Y022309D01*
X014868Y022232D01*
X015022Y022232D02*
X015252Y022232D01*
X015252Y022539D01*
X015252Y022002D02*
X015022Y021772D01*
X015175Y021618D02*
X015252Y021542D01*
X015252Y021388D01*
X015252Y022002D02*
X014791Y022002D01*
X014858Y023401D02*
X014781Y023478D01*
X014781Y023632D01*
X014858Y023708D01*
X015012Y023862D02*
X015012Y024169D01*
X015165Y024322D02*
X015242Y024399D01*
X015242Y024552D01*
X015165Y024629D01*
X015088Y024629D01*
X014781Y024322D01*
X014781Y024629D01*
X014781Y024092D02*
X015242Y024092D01*
X015012Y023862D01*
X015165Y023708D02*
X015242Y023632D01*
X015242Y023478D01*
X015165Y023401D01*
X014858Y023401D01*
X012813Y018699D02*
X012582Y018699D01*
X012506Y018622D01*
X012506Y018469D01*
X012582Y018392D01*
X012813Y018392D01*
X012813Y018239D02*
X012813Y018699D01*
X012659Y018392D02*
X012506Y018239D01*
X012352Y018316D02*
X012276Y018239D01*
X012122Y018239D01*
X012045Y018316D01*
X012045Y018392D01*
X012122Y018469D01*
X012199Y018469D01*
X012122Y018469D02*
X012045Y018546D01*
X012045Y018622D01*
X012122Y018699D01*
X012276Y018699D01*
X012352Y018622D01*
X011892Y018546D02*
X011738Y018699D01*
X011738Y018239D01*
X011585Y018239D02*
X011892Y018239D01*
X012000Y014344D02*
X012230Y014114D01*
X011923Y014114D01*
X012000Y013884D02*
X012000Y014344D01*
X012384Y014268D02*
X012384Y013961D01*
X012460Y013884D01*
X012690Y013884D01*
X012690Y014344D01*
X012460Y014344D01*
X012384Y014268D01*
X019083Y011978D02*
X019160Y012054D01*
X019313Y012054D01*
X019390Y011978D01*
X019543Y011978D02*
X019543Y011901D01*
X019620Y011824D01*
X019543Y011747D01*
X019543Y011671D01*
X019620Y011594D01*
X019773Y011594D01*
X019850Y011671D01*
X020004Y011594D02*
X020157Y011747D01*
X020080Y011747D02*
X020310Y011747D01*
X020310Y011594D02*
X020310Y012054D01*
X020080Y012054D01*
X020004Y011978D01*
X020004Y011824D01*
X020080Y011747D01*
X019850Y011978D02*
X019773Y012054D01*
X019620Y012054D01*
X019543Y011978D01*
X019620Y011824D02*
X019697Y011824D01*
X019390Y011594D02*
X019083Y011594D01*
X019390Y011594D02*
X019083Y011901D01*
X019083Y011978D01*
X019503Y013939D02*
X019656Y013939D01*
X019733Y014016D01*
X019886Y014016D02*
X019886Y014322D01*
X019963Y014399D01*
X020193Y014399D01*
X020193Y013939D01*
X019963Y013939D01*
X019886Y014016D01*
X019580Y014169D02*
X019503Y014169D01*
X019426Y014092D01*
X019426Y014016D01*
X019503Y013939D01*
X019503Y014169D02*
X019426Y014246D01*
X019426Y014322D01*
X019503Y014399D01*
X019656Y014399D01*
X019733Y014322D01*
X019607Y009694D02*
X019607Y009234D01*
X019760Y009234D02*
X019453Y009234D01*
X019760Y009541D02*
X019607Y009694D01*
X019914Y009618D02*
X019914Y009311D01*
X019990Y009234D01*
X020220Y009234D01*
X020220Y009694D01*
X019990Y009694D01*
X019914Y009618D01*
X012771Y009654D02*
X012771Y009194D01*
X012541Y009194D01*
X012464Y009271D01*
X012464Y009578D01*
X012541Y009654D01*
X012771Y009654D01*
X012311Y009578D02*
X012234Y009654D01*
X012081Y009654D01*
X012004Y009578D01*
X012004Y009501D01*
X012311Y009194D01*
X012004Y009194D01*
X014825Y003740D02*
X014978Y003740D01*
X015055Y003663D01*
X015055Y003587D01*
X014978Y003510D01*
X014825Y003510D01*
X014748Y003433D01*
X014748Y003357D01*
X014825Y003280D01*
X014978Y003280D01*
X015055Y003357D01*
X015208Y003510D02*
X015285Y003433D01*
X015515Y003433D01*
X015515Y003280D02*
X015515Y003740D01*
X015285Y003740D01*
X015208Y003663D01*
X015208Y003510D01*
X014825Y003740D02*
X014748Y003663D01*
X015669Y003663D02*
X015745Y003740D01*
X015899Y003740D01*
X015976Y003663D01*
X015976Y003357D01*
X015899Y003280D01*
X015745Y003280D01*
X015669Y003357D01*
X015669Y003510D01*
X015822Y003510D01*
X049245Y029308D02*
X049322Y029231D01*
X049475Y029231D01*
X049552Y029308D01*
X049398Y029462D02*
X049322Y029462D01*
X049245Y029385D01*
X049245Y029308D01*
X049322Y029462D02*
X049245Y029538D01*
X049245Y029615D01*
X049322Y029692D01*
X049475Y029692D01*
X049552Y029615D01*
X049705Y029692D02*
X050012Y029692D01*
X050012Y029231D01*
X050012Y029462D02*
X049859Y029462D01*
X043827Y032515D02*
X043807Y032592D01*
X043784Y032667D01*
X043756Y032741D01*
X043725Y032813D01*
X043690Y032884D01*
X043652Y032953D01*
X043610Y033019D01*
X043565Y033084D01*
X043517Y033146D01*
X043465Y033206D01*
X043411Y033263D01*
X043354Y033317D01*
X043294Y033369D01*
X043232Y033417D01*
X043167Y033462D01*
X043100Y033503D01*
X043031Y033541D01*
X042960Y033576D01*
X042888Y033607D01*
X042814Y033635D01*
X042739Y033658D01*
X042663Y033678D01*
X042585Y033694D01*
X042507Y033706D01*
X042429Y033714D01*
X042350Y033718D01*
X042272Y033718D01*
X042193Y033714D01*
X042115Y033706D01*
X042037Y033694D01*
X041959Y033678D01*
X041883Y033658D01*
X041808Y033635D01*
X041734Y033607D01*
X041662Y033576D01*
X041591Y033541D01*
X041522Y033503D01*
X041455Y033462D01*
X041390Y033417D01*
X041328Y033369D01*
X041268Y033317D01*
X041211Y033263D01*
X041157Y033206D01*
X041105Y033146D01*
X041057Y033084D01*
X041012Y033019D01*
X040970Y032953D01*
X040932Y032884D01*
X040897Y032813D01*
X040866Y032741D01*
X040838Y032667D01*
X040815Y032592D01*
X040795Y032515D01*
X040795Y031807D02*
X040815Y031730D01*
X040838Y031655D01*
X040866Y031581D01*
X040897Y031509D01*
X040932Y031438D01*
X040970Y031369D01*
X041012Y031303D01*
X041057Y031238D01*
X041105Y031176D01*
X041157Y031116D01*
X041211Y031059D01*
X041268Y031005D01*
X041328Y030953D01*
X041390Y030905D01*
X041455Y030860D01*
X041522Y030819D01*
X041591Y030781D01*
X041662Y030746D01*
X041734Y030715D01*
X041808Y030687D01*
X041883Y030664D01*
X041959Y030644D01*
X042037Y030628D01*
X042115Y030616D01*
X042193Y030608D01*
X042272Y030604D01*
X042350Y030604D01*
X042429Y030608D01*
X042507Y030616D01*
X042585Y030628D01*
X042663Y030644D01*
X042739Y030664D01*
X042814Y030687D01*
X042888Y030715D01*
X042960Y030746D01*
X043031Y030781D01*
X043100Y030819D01*
X043167Y030860D01*
X043232Y030905D01*
X043294Y030953D01*
X043354Y031005D01*
X043411Y031059D01*
X043465Y031116D01*
X043517Y031176D01*
X043565Y031238D01*
X043610Y031303D01*
X043652Y031369D01*
X043690Y031438D01*
X043725Y031509D01*
X043756Y031581D01*
X043784Y031655D01*
X043807Y031730D01*
X043827Y031807D01*
X043182Y035411D02*
X042721Y035411D01*
X042721Y035641D01*
X042798Y035718D01*
X043105Y035718D01*
X043182Y035641D01*
X043182Y035411D01*
X043182Y035871D02*
X042952Y035871D01*
X043028Y036024D01*
X043028Y036101D01*
X042952Y036178D01*
X042798Y036178D01*
X042721Y036101D01*
X042721Y035948D01*
X042798Y035871D01*
X043182Y035871D02*
X043182Y036178D01*
X032312Y035579D02*
X032312Y035425D01*
X032235Y035349D01*
X032235Y035195D02*
X032312Y035118D01*
X032312Y034965D01*
X032235Y034888D01*
X031928Y034888D01*
X031851Y034965D01*
X031851Y035118D01*
X031928Y035195D01*
X031851Y035349D02*
X032158Y035656D01*
X032235Y035656D01*
X032312Y035579D01*
X031851Y035656D02*
X031851Y035349D01*
X031851Y034735D02*
X031851Y034581D01*
X031851Y034658D02*
X032312Y034658D01*
X032312Y034581D02*
X032312Y034735D01*
D309*
X034168Y015539D02*
X034168Y011524D01*
X036215Y011524D01*
X036215Y015539D01*
X030305Y010255D02*
X030305Y010168D01*
X029994Y009995D02*
X029829Y009995D01*
X029518Y010168D02*
X029518Y010255D01*
X020075Y003061D02*
X020075Y000935D01*
X016256Y000935D01*
X015902Y001289D01*
X015902Y003061D01*
X015900Y003084D02*
X016420Y003084D01*
X019540Y003064D02*
X020070Y003064D01*
D310*
X035181Y015391D03*
D311*
X033255Y035831D02*
X033257Y035854D01*
X033263Y035876D01*
X033272Y035897D01*
X033285Y035916D01*
X033301Y035933D01*
X033320Y035947D01*
X033340Y035957D01*
X033362Y035964D01*
X033385Y035967D01*
X033408Y035966D01*
X033431Y035961D01*
X033452Y035952D01*
X033472Y035940D01*
X033489Y035925D01*
X033504Y035907D01*
X033515Y035887D01*
X033523Y035865D01*
X033527Y035843D01*
X033527Y035819D01*
X033523Y035797D01*
X033515Y035775D01*
X033504Y035755D01*
X033489Y035737D01*
X033472Y035722D01*
X033452Y035710D01*
X033431Y035701D01*
X033408Y035696D01*
X033385Y035695D01*
X033362Y035698D01*
X033340Y035705D01*
X033320Y035715D01*
X033301Y035729D01*
X033285Y035746D01*
X033272Y035765D01*
X033263Y035786D01*
X033257Y035808D01*
X033255Y035831D01*
D312*
X042201Y028941D02*
X043901Y028941D01*
X043924Y028939D01*
X043947Y028934D01*
X043969Y028925D01*
X043989Y028912D01*
X044007Y028897D01*
X044022Y028879D01*
X044035Y028859D01*
X044044Y028837D01*
X044049Y028814D01*
X044051Y028791D01*
X044051Y028371D01*
X044051Y027971D01*
X044051Y027551D01*
X044049Y027528D01*
X044044Y027505D01*
X044035Y027483D01*
X044022Y027463D01*
X044007Y027445D01*
X043989Y027430D01*
X043969Y027417D01*
X043947Y027408D01*
X043924Y027403D01*
X043901Y027401D01*
X042201Y027401D01*
X042178Y027403D01*
X042155Y027408D01*
X042133Y027417D01*
X042113Y027430D01*
X042095Y027445D01*
X042080Y027463D01*
X042067Y027483D01*
X042058Y027505D01*
X042053Y027528D01*
X042051Y027551D01*
X042051Y028791D01*
X042053Y028814D01*
X042058Y028837D01*
X042067Y028859D01*
X042080Y028879D01*
X042095Y028897D01*
X042113Y028912D01*
X042133Y028925D01*
X042155Y028934D01*
X042178Y028939D01*
X042201Y028941D01*
X044051Y028371D02*
X044024Y028369D01*
X043997Y028364D01*
X043971Y028354D01*
X043947Y028342D01*
X043925Y028326D01*
X043905Y028308D01*
X043888Y028286D01*
X043873Y028263D01*
X043863Y028238D01*
X043855Y028212D01*
X043851Y028185D01*
X043851Y028157D01*
X043855Y028130D01*
X043863Y028104D01*
X043873Y028079D01*
X043888Y028056D01*
X043905Y028034D01*
X043925Y028016D01*
X043947Y028000D01*
X043971Y027988D01*
X043997Y027978D01*
X044024Y027973D01*
X044051Y027971D01*
X017946Y025151D02*
X017946Y020851D01*
X017944Y020834D01*
X017940Y020817D01*
X017933Y020801D01*
X017923Y020787D01*
X017910Y020774D01*
X017896Y020764D01*
X017880Y020757D01*
X017863Y020753D01*
X017846Y020751D01*
X017446Y020751D01*
X016546Y020751D02*
X016146Y020751D01*
X016129Y020753D01*
X016112Y020757D01*
X016096Y020764D01*
X016082Y020774D01*
X016069Y020787D01*
X016059Y020801D01*
X016052Y020817D01*
X016048Y020834D01*
X016046Y020851D01*
X016046Y025151D01*
X016048Y025168D01*
X016052Y025185D01*
X016059Y025201D01*
X016069Y025215D01*
X016082Y025228D01*
X016096Y025238D01*
X016112Y025245D01*
X016129Y025249D01*
X016146Y025251D01*
X016546Y025251D01*
X017446Y025251D02*
X017846Y025251D01*
X017863Y025249D01*
X017880Y025245D01*
X017896Y025238D01*
X017910Y025228D01*
X017923Y025215D01*
X017933Y025201D01*
X017940Y025185D01*
X017944Y025168D01*
X017946Y025151D01*
X017246Y023251D02*
X016996Y023251D01*
X016746Y023251D01*
X016746Y023101D02*
X017246Y023101D01*
X017246Y022901D01*
X016746Y022901D01*
X016746Y023101D01*
X016746Y022751D02*
X016996Y022751D01*
X017246Y022751D01*
D313*
X016996Y022751D02*
X016996Y022551D01*
X016996Y023251D02*
X016996Y023451D01*
X016196Y024351D02*
X016198Y024407D01*
X016204Y024462D01*
X016213Y024517D01*
X016227Y024571D01*
X016244Y024624D01*
X016265Y024675D01*
X016289Y024725D01*
X016317Y024773D01*
X016348Y024820D01*
X016382Y024864D01*
X016419Y024905D01*
X016459Y024944D01*
X016501Y024980D01*
X016546Y025012D01*
X016496Y024351D02*
X016496Y021651D01*
X016196Y021651D02*
X016196Y024351D01*
X016496Y024351D02*
X016497Y024389D01*
X016502Y024426D01*
X016509Y024463D01*
X016518Y024499D01*
X016531Y024535D01*
X016546Y024569D01*
X017446Y024569D02*
X017461Y024535D01*
X017474Y024499D01*
X017483Y024463D01*
X017490Y024426D01*
X017495Y024389D01*
X017496Y024351D01*
X017496Y021651D01*
X017796Y021651D02*
X017796Y024351D01*
X017794Y024407D01*
X017788Y024462D01*
X017779Y024517D01*
X017765Y024571D01*
X017748Y024624D01*
X017727Y024675D01*
X017703Y024725D01*
X017675Y024773D01*
X017644Y024820D01*
X017610Y024863D01*
X017573Y024905D01*
X017533Y024944D01*
X017491Y024980D01*
X017446Y025012D01*
X017796Y021651D02*
X017794Y021595D01*
X017788Y021540D01*
X017779Y021485D01*
X017765Y021431D01*
X017748Y021378D01*
X017727Y021327D01*
X017703Y021277D01*
X017675Y021229D01*
X017644Y021182D01*
X017610Y021138D01*
X017573Y021097D01*
X017533Y021058D01*
X017491Y021022D01*
X017446Y020990D01*
X016546Y021433D02*
X016531Y021467D01*
X016518Y021503D01*
X016509Y021539D01*
X016502Y021576D01*
X016497Y021613D01*
X016496Y021651D01*
X017446Y021433D02*
X017461Y021467D01*
X017474Y021503D01*
X017483Y021539D01*
X017490Y021576D01*
X017495Y021613D01*
X017496Y021651D01*
X016546Y020990D02*
X016501Y021022D01*
X016459Y021058D01*
X016419Y021097D01*
X016382Y021139D01*
X016348Y021182D01*
X016317Y021229D01*
X016289Y021277D01*
X016265Y021327D01*
X016244Y021378D01*
X016227Y021431D01*
X016213Y021485D01*
X016204Y021540D01*
X016198Y021595D01*
X016196Y021651D01*
X042051Y027541D02*
X044051Y027541D01*
D314*
X047942Y024467D02*
X047942Y024405D01*
X048003Y024343D01*
X048127Y024343D01*
X048189Y024405D01*
X048189Y024467D01*
X048127Y024529D01*
X048003Y024529D01*
X047942Y024467D01*
X048003Y024343D02*
X047942Y024282D01*
X047942Y024220D01*
X048003Y024158D01*
X048127Y024158D01*
X048189Y024220D01*
X048189Y024282D01*
X048127Y024343D01*
X048310Y024158D02*
X048557Y024158D01*
X048433Y024158D02*
X048433Y024529D01*
X048557Y024405D01*
X048678Y024467D02*
X048740Y024529D01*
X048863Y024529D01*
X048925Y024467D01*
X048925Y024220D01*
X048863Y024158D01*
X048740Y024158D01*
X048678Y024220D01*
X048657Y033988D02*
X048410Y033988D01*
X048533Y033988D02*
X048533Y034359D01*
X048657Y034235D01*
X048778Y034297D02*
X048840Y034359D01*
X048963Y034359D01*
X049025Y034297D01*
X049025Y034050D01*
X048963Y033988D01*
X048840Y033988D01*
X048778Y034050D01*
X048289Y034050D02*
X048227Y033988D01*
X048103Y033988D01*
X048042Y034050D01*
X048042Y034297D01*
X048103Y034359D01*
X048227Y034359D01*
X048289Y034297D01*
X048289Y034235D01*
X048227Y034173D01*
X048042Y034173D01*
X041735Y034050D02*
X041673Y033988D01*
X041550Y033988D01*
X041488Y034050D01*
X041367Y033988D02*
X041120Y033988D01*
X040999Y033988D02*
X040999Y034050D01*
X040752Y034297D01*
X040752Y034359D01*
X040999Y034359D01*
X041243Y034359D02*
X041243Y033988D01*
X041367Y034235D02*
X041243Y034359D01*
X041488Y034297D02*
X041550Y034359D01*
X041673Y034359D01*
X041735Y034297D01*
X041735Y034050D01*
D315*
X029621Y020661D02*
X026621Y020661D01*
X026621Y013661D01*
X029621Y013661D01*
X029621Y020661D01*
X020563Y016149D02*
X020563Y015919D01*
X020543Y016159D02*
X018743Y016159D01*
X018733Y016149D02*
X018733Y015919D01*
X018743Y014799D02*
X018743Y014609D01*
X020543Y014609D01*
X020553Y014619D02*
X020553Y014799D01*
X013170Y014794D02*
X013170Y014614D01*
X013160Y014604D02*
X011360Y014604D01*
X011360Y014794D01*
X011350Y015914D02*
X011350Y016144D01*
X011360Y016154D02*
X013160Y016154D01*
X013180Y016144D02*
X013180Y015914D01*
D316*
X029271Y020411D03*
D317*
X024241Y023481D02*
X024241Y008681D01*
X026891Y006081D02*
X036691Y006081D01*
X039241Y008681D02*
X039241Y023481D01*
X036591Y026081D02*
X026791Y026081D01*
X034451Y019681D02*
X035641Y019681D01*
X035641Y017671D01*
X034441Y017671D01*
X034441Y017751D01*
X034451Y018091D02*
X034451Y018251D01*
X034451Y018591D02*
X034451Y018751D01*
X034451Y019091D02*
X034451Y019251D01*
X034451Y019591D02*
X034451Y019681D01*
X035340Y019411D02*
X035342Y019425D01*
X035347Y019437D01*
X035356Y019448D01*
X035368Y019456D01*
X035381Y019461D01*
X035394Y019462D01*
X035408Y019459D01*
X035420Y019453D01*
X035431Y019443D01*
X035438Y019431D01*
X035442Y019418D01*
X035442Y019404D01*
X035438Y019391D01*
X035431Y019379D01*
X035420Y019369D01*
X035408Y019363D01*
X035394Y019360D01*
X035381Y019361D01*
X035368Y019366D01*
X035356Y019374D01*
X035347Y019385D01*
X035342Y019397D01*
X035340Y019411D01*
X035641Y019681D02*
X035951Y019681D01*
X035951Y019591D01*
X035951Y019251D02*
X035951Y019091D01*
X035951Y018751D02*
X035951Y018591D01*
X035951Y018251D02*
X035951Y018091D01*
X035951Y017751D02*
X035951Y017671D01*
X035641Y017671D01*
D318*
X038541Y025381D02*
X024941Y025381D01*
X024941Y006781D01*
X038541Y006781D01*
X038541Y025381D01*
D319*
X043427Y035370D02*
X043427Y035586D01*
X044037Y035586D01*
X044037Y035566D02*
X043446Y035566D01*
X043446Y035547D02*
X044037Y035547D01*
X044037Y035566D01*
X044037Y035527D02*
X043446Y035527D01*
X043446Y035547D01*
X043446Y035507D02*
X044037Y035507D01*
X044037Y035527D01*
X044056Y035370D02*
X043978Y035370D01*
X044056Y035370D02*
X044056Y036393D01*
X043978Y036393D01*
X043505Y036393D02*
X043427Y036393D01*
X043427Y035586D01*
X043427Y035370D02*
X043505Y035370D01*
M02*
