G75*
G70*
%OFA0B0*%
%FSLAX24Y24*%
%IPPOS*%
%LPD*%
%AMOC8*
5,1,8,0,0,1.08239X$1,22.5*
%
%ADD10C,0.0946*%
%ADD11R,0.0474X0.0513*%
%ADD12R,0.0513X0.0474*%
%ADD13C,0.0780*%
%ADD14C,0.2080*%
%ADD15R,0.0671X0.0237*%
%ADD16C,0.0680*%
%ADD17R,0.0789X0.0926*%
%ADD18R,0.0340X0.0880*%
%ADD19R,0.1576X0.0631*%
%ADD20R,0.0631X0.1576*%
%ADD21R,0.0880X0.0340*%
%ADD22R,0.0860X0.2240*%
%ADD23R,0.0316X0.0867*%
%ADD24R,0.0671X0.0789*%
%ADD25C,0.1182*%
%ADD26C,0.0940*%
%ADD27R,0.0718X0.0938*%
%ADD28R,0.0980X0.1060*%
%ADD29R,0.0592X0.0671*%
%ADD30R,0.1104X0.0867*%
%ADD31R,0.0710X0.0867*%
%ADD32R,0.0867X0.1104*%
%ADD33R,0.0867X0.0710*%
%ADD34R,0.0237X0.0434*%
%ADD35R,0.0946X0.0316*%
%ADD36R,0.0671X0.0592*%
%ADD37C,0.0680*%
%ADD38C,0.0785*%
%ADD39R,0.2980X0.0880*%
%ADD40R,0.0880X0.2180*%
%ADD41R,0.0740X0.0740*%
%ADD42C,0.0740*%
%ADD43C,0.0004*%
%ADD44C,0.0360*%
%ADD45C,0.2880*%
D10*
X004951Y005481D03*
X007721Y005481D03*
D11*
X028931Y009877D03*
X028931Y010546D03*
X043717Y010481D03*
X044386Y010481D03*
X045217Y010911D03*
X045886Y010911D03*
X045886Y012351D03*
X045217Y012351D03*
X044386Y012781D03*
X043717Y012781D03*
X043717Y014181D03*
X044386Y014181D03*
X045217Y014611D03*
X045886Y014611D03*
X045886Y016091D03*
X045217Y016091D03*
X044386Y016531D03*
X043717Y016531D03*
X043717Y017981D03*
X044386Y017981D03*
X045217Y018421D03*
X045886Y018421D03*
X045886Y020091D03*
X045217Y020091D03*
X044386Y020531D03*
X043717Y020531D03*
X043717Y021831D03*
X044386Y021831D03*
X045217Y022261D03*
X045886Y022261D03*
X044711Y026297D03*
X044711Y026966D03*
X035216Y020171D03*
X034547Y020171D03*
X031741Y020817D03*
X031741Y021486D03*
X014191Y021747D03*
X014191Y022416D03*
X014191Y023607D03*
X014191Y024276D03*
X043717Y009231D03*
X044386Y009231D03*
X045217Y008781D03*
X045886Y008781D03*
D12*
X042886Y008801D03*
X042217Y008801D03*
X042217Y010891D03*
X042886Y010891D03*
X042886Y012361D03*
X042217Y012361D03*
X042217Y014591D03*
X042886Y014591D03*
X042886Y016111D03*
X042217Y016111D03*
X042217Y018401D03*
X042886Y018401D03*
X042886Y020121D03*
X042217Y020121D03*
X042217Y022241D03*
X042886Y022241D03*
X036696Y016011D03*
X036027Y016011D03*
X034346Y016001D03*
X033677Y016001D03*
X031741Y014316D03*
X031741Y013647D03*
X029321Y012496D03*
X028701Y012496D03*
X028061Y012496D03*
X027431Y012496D03*
X026781Y012496D03*
X026141Y012486D03*
X026141Y011817D03*
X026781Y011827D03*
X027431Y011827D03*
X028061Y011827D03*
X028701Y011827D03*
X029321Y011827D03*
X031011Y010546D03*
X031011Y009877D03*
X033761Y009877D03*
X033761Y010546D03*
X034431Y010546D03*
X035071Y010546D03*
X035071Y009877D03*
X034431Y009877D03*
X044027Y030701D03*
X044696Y030701D03*
X039796Y032481D03*
X039127Y032481D03*
X035646Y032481D03*
X034977Y032481D03*
D13*
X052641Y025496D03*
X053641Y024956D03*
X052641Y024406D03*
X053641Y023866D03*
X052641Y023326D03*
X053641Y022776D03*
X052641Y022236D03*
X053641Y021696D03*
X052641Y021146D03*
X053641Y020606D03*
X052641Y020066D03*
X053641Y019516D03*
X052641Y018976D03*
X053641Y018436D03*
X052641Y017886D03*
X053641Y017346D03*
X052641Y016806D03*
X053641Y016256D03*
X052641Y015716D03*
X053641Y015176D03*
X052641Y014626D03*
X053641Y014086D03*
X052641Y013546D03*
X053641Y012996D03*
X052641Y012456D03*
D14*
X053141Y009716D03*
X053141Y028236D03*
D15*
X036619Y015195D03*
X036619Y014939D03*
X036619Y014683D03*
X036619Y014427D03*
X036619Y014171D03*
X036619Y013915D03*
X036619Y013659D03*
X036619Y013403D03*
X036619Y013148D03*
X036619Y012892D03*
X036619Y012636D03*
X036619Y012380D03*
X036619Y012124D03*
X036619Y011868D03*
X033764Y011868D03*
X033764Y012124D03*
X033764Y012380D03*
X033764Y012636D03*
X033764Y012892D03*
X033764Y013148D03*
X033764Y013403D03*
X033764Y013659D03*
X033764Y013915D03*
X033764Y014171D03*
X033764Y014427D03*
X033764Y014683D03*
X033764Y014939D03*
X033764Y015195D03*
D16*
X033391Y033601D03*
X036391Y033601D03*
X038391Y033601D03*
X039391Y033601D03*
X039391Y036601D03*
X033391Y036601D03*
D17*
X034811Y030032D03*
X034811Y028871D03*
X040051Y028871D03*
X040051Y030032D03*
X029941Y022712D03*
X028641Y022712D03*
X027391Y022712D03*
X026241Y022712D03*
X026241Y021551D03*
X027391Y021551D03*
X028641Y021551D03*
X029941Y021551D03*
X031741Y019412D03*
X032941Y018922D03*
X031741Y018251D03*
X032941Y017761D03*
X031741Y017062D03*
X031741Y015901D03*
X037591Y016871D03*
X037591Y018032D03*
D18*
X042301Y026961D03*
X042801Y026961D03*
X043301Y026961D03*
X043801Y026961D03*
X043801Y029381D03*
X043301Y029381D03*
X042801Y029381D03*
X042301Y029381D03*
D19*
X041130Y032161D03*
X043493Y032161D03*
X046190Y032161D03*
X048553Y032161D03*
D20*
X047291Y027613D03*
X047291Y025250D03*
D21*
X030101Y020411D03*
X030101Y019911D03*
X030101Y019411D03*
X030101Y018911D03*
X030101Y018411D03*
X030101Y017911D03*
X030101Y017411D03*
X030101Y016911D03*
X030101Y016411D03*
X030101Y015911D03*
X030101Y015411D03*
X030101Y014911D03*
X030101Y014411D03*
X030101Y013911D03*
X026141Y013911D03*
X026141Y014411D03*
X026141Y014911D03*
X026141Y015411D03*
X026141Y015911D03*
X026141Y016411D03*
X026141Y016911D03*
X026141Y017411D03*
X026141Y017911D03*
X026141Y018411D03*
X026141Y018911D03*
X026141Y019411D03*
X026141Y019911D03*
X026141Y020411D03*
D22*
X017016Y021131D03*
X017016Y024871D03*
D23*
X017008Y003234D03*
X016614Y003234D03*
X017402Y003234D03*
X017796Y003234D03*
X018189Y003234D03*
X018583Y003234D03*
X018977Y003234D03*
X019370Y003234D03*
D24*
X020168Y001345D03*
X015827Y001344D03*
D25*
X021781Y002681D03*
X009841Y002661D03*
X021791Y018681D03*
D26*
X021393Y016849D03*
X018193Y016849D03*
X013970Y016834D03*
X010770Y016834D03*
X010770Y011834D03*
X013970Y011834D03*
X018170Y011834D03*
X021370Y011834D03*
D27*
X020601Y010434D03*
X018940Y010434D03*
X013201Y010434D03*
X011540Y010434D03*
D28*
X011460Y015354D03*
X013060Y015354D03*
X018843Y015359D03*
X020443Y015359D03*
D29*
X020117Y017659D03*
X019369Y017659D03*
X012744Y017634D03*
X011996Y017634D03*
X019396Y012634D03*
X020144Y012634D03*
D30*
X036371Y030161D03*
X038421Y030161D03*
D31*
X038421Y031500D03*
X036371Y031500D03*
X036371Y028823D03*
X038421Y028823D03*
D32*
X047121Y029501D03*
D33*
X048460Y029501D03*
X045783Y029501D03*
D34*
X030167Y010526D03*
X029911Y010526D03*
X029656Y010526D03*
X029656Y009896D03*
X030167Y009896D03*
D35*
X034178Y017921D03*
X034178Y018421D03*
X034178Y018921D03*
X034178Y019421D03*
X036225Y019421D03*
X036225Y018921D03*
X036225Y018421D03*
X036225Y017921D03*
D36*
X037571Y019157D03*
X037571Y019905D03*
X032941Y019977D03*
X032941Y020725D03*
D37*
X007461Y010111D02*
X007461Y009511D01*
X006461Y009511D02*
X006461Y010111D01*
X005461Y010111D02*
X005461Y009511D01*
X004461Y009511D02*
X004461Y010111D01*
X025771Y002106D02*
X025771Y001506D01*
X026771Y001506D02*
X026771Y002106D01*
X007561Y035501D02*
X007561Y036101D01*
X006561Y036101D02*
X006561Y035501D01*
D38*
X045307Y035604D02*
X045307Y034899D01*
X047276Y034899D02*
X047276Y035604D01*
D39*
X038141Y026081D03*
X025241Y026081D03*
X025341Y006081D03*
X038241Y006081D03*
D40*
X039291Y007531D03*
X024291Y007531D03*
X024191Y024631D03*
X039191Y024631D03*
D41*
X003291Y022741D03*
D42*
X002291Y022741D03*
X002291Y023741D03*
X003291Y023741D03*
X003291Y024741D03*
X002291Y024741D03*
X002291Y025741D03*
X003291Y025741D03*
X003291Y026741D03*
X002291Y026741D03*
D43*
X043487Y035036D02*
X043487Y035466D01*
X043995Y035466D01*
X043995Y035036D01*
X043487Y035036D01*
X043487Y035039D02*
X043995Y035039D01*
X043995Y035042D02*
X043487Y035042D01*
X043487Y035045D02*
X043995Y035045D01*
X043995Y035048D02*
X043487Y035048D01*
X043487Y035051D02*
X043995Y035051D01*
X043995Y035054D02*
X043487Y035054D01*
X043487Y035057D02*
X043995Y035057D01*
X043995Y035060D02*
X043487Y035060D01*
X043487Y035063D02*
X043995Y035063D01*
X043995Y035066D02*
X043487Y035066D01*
X043487Y035069D02*
X043995Y035069D01*
X043995Y035072D02*
X043487Y035072D01*
X043487Y035075D02*
X043995Y035075D01*
X043995Y035078D02*
X043487Y035078D01*
X043487Y035081D02*
X043995Y035081D01*
X043995Y035084D02*
X043487Y035084D01*
X043487Y035087D02*
X043995Y035087D01*
X043995Y035090D02*
X043487Y035090D01*
X043487Y035093D02*
X043995Y035093D01*
X043995Y035096D02*
X043487Y035096D01*
X043487Y035099D02*
X043995Y035099D01*
X043995Y035102D02*
X043487Y035102D01*
X043487Y035105D02*
X043995Y035105D01*
X043995Y035108D02*
X043487Y035108D01*
X043487Y035111D02*
X043995Y035111D01*
X043995Y035114D02*
X043487Y035114D01*
X043487Y035117D02*
X043995Y035117D01*
X043995Y035120D02*
X043487Y035120D01*
X043487Y035123D02*
X043995Y035123D01*
X043995Y035126D02*
X043487Y035126D01*
X043487Y035129D02*
X043995Y035129D01*
X043995Y035132D02*
X043487Y035132D01*
X043487Y035135D02*
X043995Y035135D01*
X043995Y035138D02*
X043487Y035138D01*
X043487Y035141D02*
X043995Y035141D01*
X043995Y035144D02*
X043487Y035144D01*
X043487Y035147D02*
X043995Y035147D01*
X043995Y035150D02*
X043487Y035150D01*
X043487Y035153D02*
X043995Y035153D01*
X043995Y035156D02*
X043487Y035156D01*
X043487Y035159D02*
X043995Y035159D01*
X043995Y035162D02*
X043487Y035162D01*
X043487Y035165D02*
X043995Y035165D01*
X043995Y035168D02*
X043487Y035168D01*
X043487Y035171D02*
X043995Y035171D01*
X043995Y035174D02*
X043487Y035174D01*
X043487Y035177D02*
X043995Y035177D01*
X043995Y035180D02*
X043487Y035180D01*
X043487Y035183D02*
X043995Y035183D01*
X043995Y035186D02*
X043487Y035186D01*
X043487Y035189D02*
X043995Y035189D01*
X043995Y035192D02*
X043487Y035192D01*
X043487Y035195D02*
X043995Y035195D01*
X043995Y035198D02*
X043487Y035198D01*
X043487Y035201D02*
X043995Y035201D01*
X043995Y035204D02*
X043487Y035204D01*
X043487Y035207D02*
X043995Y035207D01*
X043995Y035210D02*
X043487Y035210D01*
X043487Y035213D02*
X043995Y035213D01*
X043995Y035216D02*
X043487Y035216D01*
X043487Y035219D02*
X043995Y035219D01*
X043995Y035222D02*
X043487Y035222D01*
X043487Y035225D02*
X043995Y035225D01*
X043995Y035228D02*
X043487Y035228D01*
X043487Y035231D02*
X043995Y035231D01*
X043995Y035234D02*
X043487Y035234D01*
X043487Y035237D02*
X043995Y035237D01*
X043995Y035240D02*
X043487Y035240D01*
X043487Y035243D02*
X043995Y035243D01*
X043995Y035246D02*
X043487Y035246D01*
X043487Y035249D02*
X043995Y035249D01*
X043995Y035252D02*
X043487Y035252D01*
X043487Y035255D02*
X043995Y035255D01*
X043995Y035258D02*
X043487Y035258D01*
X043487Y035261D02*
X043995Y035261D01*
X043995Y035264D02*
X043487Y035264D01*
X043487Y035267D02*
X043995Y035267D01*
X043995Y035270D02*
X043487Y035270D01*
X043487Y035273D02*
X043995Y035273D01*
X043995Y035276D02*
X043487Y035276D01*
X043487Y035279D02*
X043995Y035279D01*
X043995Y035282D02*
X043487Y035282D01*
X043487Y035285D02*
X043995Y035285D01*
X043995Y035288D02*
X043487Y035288D01*
X043487Y035291D02*
X043995Y035291D01*
X043995Y035294D02*
X043487Y035294D01*
X043487Y035297D02*
X043995Y035297D01*
X043995Y035300D02*
X043487Y035300D01*
X043487Y035303D02*
X043995Y035303D01*
X043995Y035306D02*
X043487Y035306D01*
X043487Y035309D02*
X043995Y035309D01*
X043995Y035312D02*
X043487Y035312D01*
X043487Y035315D02*
X043995Y035315D01*
X043995Y035318D02*
X043487Y035318D01*
X043487Y035321D02*
X043995Y035321D01*
X043995Y035324D02*
X043487Y035324D01*
X043487Y035327D02*
X043995Y035327D01*
X043995Y035330D02*
X043487Y035330D01*
X043487Y035333D02*
X043995Y035333D01*
X043995Y035336D02*
X043487Y035336D01*
X043487Y035339D02*
X043995Y035339D01*
X043995Y035342D02*
X043487Y035342D01*
X043487Y035345D02*
X043995Y035345D01*
X043995Y035348D02*
X043487Y035348D01*
X043487Y035351D02*
X043995Y035351D01*
X043995Y035354D02*
X043487Y035354D01*
X043487Y035357D02*
X043995Y035357D01*
X043995Y035360D02*
X043487Y035360D01*
X043487Y035363D02*
X043995Y035363D01*
X043995Y035366D02*
X043487Y035366D01*
X043487Y035369D02*
X043995Y035369D01*
X043995Y035372D02*
X043487Y035372D01*
X043487Y035375D02*
X043995Y035375D01*
X043995Y035378D02*
X043487Y035378D01*
X043487Y035381D02*
X043995Y035381D01*
X043995Y035384D02*
X043487Y035384D01*
X043487Y035387D02*
X043995Y035387D01*
X043995Y035390D02*
X043487Y035390D01*
X043487Y035393D02*
X043995Y035393D01*
X043995Y035396D02*
X043487Y035396D01*
X043487Y035399D02*
X043995Y035399D01*
X043995Y035402D02*
X043487Y035402D01*
X043487Y035405D02*
X043995Y035405D01*
X043995Y035408D02*
X043487Y035408D01*
X043487Y035411D02*
X043995Y035411D01*
X043995Y035414D02*
X043487Y035414D01*
X043487Y035417D02*
X043995Y035417D01*
X043995Y035420D02*
X043487Y035420D01*
X043487Y035423D02*
X043995Y035423D01*
X043995Y035426D02*
X043487Y035426D01*
X043487Y035429D02*
X043995Y035429D01*
X043995Y035432D02*
X043487Y035432D01*
X043487Y035435D02*
X043995Y035435D01*
X043995Y035438D02*
X043487Y035438D01*
X043487Y035441D02*
X043995Y035441D01*
X043995Y035444D02*
X043487Y035444D01*
X043487Y035447D02*
X043995Y035447D01*
X043995Y035450D02*
X043487Y035450D01*
X043487Y035453D02*
X043995Y035453D01*
X043995Y035456D02*
X043487Y035456D01*
X043487Y035459D02*
X043995Y035459D01*
X043995Y035462D02*
X043487Y035462D01*
X043487Y035465D02*
X043995Y035465D01*
X043487Y036296D02*
X043487Y036726D01*
X043995Y036726D01*
X043995Y036296D01*
X043487Y036296D01*
X043487Y036299D02*
X043995Y036299D01*
X043995Y036302D02*
X043487Y036302D01*
X043487Y036305D02*
X043995Y036305D01*
X043995Y036308D02*
X043487Y036308D01*
X043487Y036311D02*
X043995Y036311D01*
X043995Y036314D02*
X043487Y036314D01*
X043487Y036317D02*
X043995Y036317D01*
X043995Y036320D02*
X043487Y036320D01*
X043487Y036323D02*
X043995Y036323D01*
X043995Y036326D02*
X043487Y036326D01*
X043487Y036329D02*
X043995Y036329D01*
X043995Y036332D02*
X043487Y036332D01*
X043487Y036335D02*
X043995Y036335D01*
X043995Y036338D02*
X043487Y036338D01*
X043487Y036341D02*
X043995Y036341D01*
X043995Y036344D02*
X043487Y036344D01*
X043487Y036347D02*
X043995Y036347D01*
X043995Y036350D02*
X043487Y036350D01*
X043487Y036353D02*
X043995Y036353D01*
X043995Y036356D02*
X043487Y036356D01*
X043487Y036359D02*
X043995Y036359D01*
X043995Y036362D02*
X043487Y036362D01*
X043487Y036365D02*
X043995Y036365D01*
X043995Y036368D02*
X043487Y036368D01*
X043487Y036371D02*
X043995Y036371D01*
X043995Y036374D02*
X043487Y036374D01*
X043487Y036377D02*
X043995Y036377D01*
X043995Y036380D02*
X043487Y036380D01*
X043487Y036383D02*
X043995Y036383D01*
X043995Y036386D02*
X043487Y036386D01*
X043487Y036389D02*
X043995Y036389D01*
X043995Y036392D02*
X043487Y036392D01*
X043487Y036395D02*
X043995Y036395D01*
X043995Y036398D02*
X043487Y036398D01*
X043487Y036401D02*
X043995Y036401D01*
X043995Y036404D02*
X043487Y036404D01*
X043487Y036407D02*
X043995Y036407D01*
X043995Y036410D02*
X043487Y036410D01*
X043487Y036413D02*
X043995Y036413D01*
X043995Y036416D02*
X043487Y036416D01*
X043487Y036419D02*
X043995Y036419D01*
X043995Y036422D02*
X043487Y036422D01*
X043487Y036425D02*
X043995Y036425D01*
X043995Y036428D02*
X043487Y036428D01*
X043487Y036431D02*
X043995Y036431D01*
X043995Y036434D02*
X043487Y036434D01*
X043487Y036437D02*
X043995Y036437D01*
X043995Y036440D02*
X043487Y036440D01*
X043487Y036443D02*
X043995Y036443D01*
X043995Y036446D02*
X043487Y036446D01*
X043487Y036449D02*
X043995Y036449D01*
X043995Y036452D02*
X043487Y036452D01*
X043487Y036455D02*
X043995Y036455D01*
X043995Y036458D02*
X043487Y036458D01*
X043487Y036461D02*
X043995Y036461D01*
X043995Y036464D02*
X043487Y036464D01*
X043487Y036467D02*
X043995Y036467D01*
X043995Y036470D02*
X043487Y036470D01*
X043487Y036473D02*
X043995Y036473D01*
X043995Y036476D02*
X043487Y036476D01*
X043487Y036479D02*
X043995Y036479D01*
X043995Y036482D02*
X043487Y036482D01*
X043487Y036485D02*
X043995Y036485D01*
X043995Y036488D02*
X043487Y036488D01*
X043487Y036491D02*
X043995Y036491D01*
X043995Y036494D02*
X043487Y036494D01*
X043487Y036497D02*
X043995Y036497D01*
X043995Y036500D02*
X043487Y036500D01*
X043487Y036503D02*
X043995Y036503D01*
X043995Y036506D02*
X043487Y036506D01*
X043487Y036509D02*
X043995Y036509D01*
X043995Y036512D02*
X043487Y036512D01*
X043487Y036515D02*
X043995Y036515D01*
X043995Y036518D02*
X043487Y036518D01*
X043487Y036521D02*
X043995Y036521D01*
X043995Y036524D02*
X043487Y036524D01*
X043487Y036527D02*
X043995Y036527D01*
X043995Y036530D02*
X043487Y036530D01*
X043487Y036533D02*
X043995Y036533D01*
X043995Y036536D02*
X043487Y036536D01*
X043487Y036539D02*
X043995Y036539D01*
X043995Y036542D02*
X043487Y036542D01*
X043487Y036545D02*
X043995Y036545D01*
X043995Y036548D02*
X043487Y036548D01*
X043487Y036551D02*
X043995Y036551D01*
X043995Y036554D02*
X043487Y036554D01*
X043487Y036557D02*
X043995Y036557D01*
X043995Y036560D02*
X043487Y036560D01*
X043487Y036563D02*
X043995Y036563D01*
X043995Y036566D02*
X043487Y036566D01*
X043487Y036569D02*
X043995Y036569D01*
X043995Y036572D02*
X043487Y036572D01*
X043487Y036575D02*
X043995Y036575D01*
X043995Y036578D02*
X043487Y036578D01*
X043487Y036581D02*
X043995Y036581D01*
X043995Y036584D02*
X043487Y036584D01*
X043487Y036587D02*
X043995Y036587D01*
X043995Y036590D02*
X043487Y036590D01*
X043487Y036593D02*
X043995Y036593D01*
X043995Y036596D02*
X043487Y036596D01*
X043487Y036599D02*
X043995Y036599D01*
X043995Y036602D02*
X043487Y036602D01*
X043487Y036605D02*
X043995Y036605D01*
X043995Y036608D02*
X043487Y036608D01*
X043487Y036611D02*
X043995Y036611D01*
X043995Y036614D02*
X043487Y036614D01*
X043487Y036617D02*
X043995Y036617D01*
X043995Y036620D02*
X043487Y036620D01*
X043487Y036623D02*
X043995Y036623D01*
X043995Y036626D02*
X043487Y036626D01*
X043487Y036629D02*
X043995Y036629D01*
X043995Y036632D02*
X043487Y036632D01*
X043487Y036635D02*
X043995Y036635D01*
X043995Y036638D02*
X043487Y036638D01*
X043487Y036641D02*
X043995Y036641D01*
X043995Y036644D02*
X043487Y036644D01*
X043487Y036647D02*
X043995Y036647D01*
X043995Y036650D02*
X043487Y036650D01*
X043487Y036653D02*
X043995Y036653D01*
X043995Y036656D02*
X043487Y036656D01*
X043487Y036659D02*
X043995Y036659D01*
X043995Y036662D02*
X043487Y036662D01*
X043487Y036665D02*
X043995Y036665D01*
X043995Y036668D02*
X043487Y036668D01*
X043487Y036671D02*
X043995Y036671D01*
X043995Y036674D02*
X043487Y036674D01*
X043487Y036677D02*
X043995Y036677D01*
X043995Y036680D02*
X043487Y036680D01*
X043487Y036683D02*
X043995Y036683D01*
X043995Y036686D02*
X043487Y036686D01*
X043487Y036689D02*
X043995Y036689D01*
X043995Y036692D02*
X043487Y036692D01*
X043487Y036695D02*
X043995Y036695D01*
X043995Y036698D02*
X043487Y036698D01*
X043487Y036701D02*
X043995Y036701D01*
X043995Y036704D02*
X043487Y036704D01*
X043487Y036707D02*
X043995Y036707D01*
X043995Y036710D02*
X043487Y036710D01*
X043487Y036713D02*
X043995Y036713D01*
X043995Y036716D02*
X043487Y036716D01*
X043487Y036719D02*
X043995Y036719D01*
X043995Y036722D02*
X043487Y036722D01*
X043487Y036725D02*
X043995Y036725D01*
D44*
X052591Y032031D03*
X041291Y024381D03*
X042591Y023081D03*
X044681Y023801D03*
X042591Y019281D03*
X042591Y016981D03*
X044091Y015381D03*
X042591Y011581D03*
X042591Y009481D03*
X037601Y010591D03*
X036981Y009191D03*
X036161Y008691D03*
X035561Y008191D03*
X036271Y007351D03*
X027971Y010161D03*
X028061Y011241D03*
X027421Y011251D03*
X026791Y011251D03*
X026131Y011251D03*
X020991Y008901D03*
X022201Y005121D03*
X032501Y013711D03*
X034351Y016561D03*
X037591Y015471D03*
X033731Y020421D03*
X032491Y023051D03*
X031251Y024231D03*
X027651Y027871D03*
X029861Y030071D03*
X022041Y031101D03*
X020991Y029741D03*
X019351Y029721D03*
X016561Y031091D03*
X018991Y032221D03*
X022041Y032301D03*
X029991Y035555D03*
X020671Y026911D03*
X020551Y026041D03*
X019511Y025731D03*
X020571Y024501D03*
X021621Y020901D03*
X019561Y020211D03*
X018651Y021231D03*
X014461Y019581D03*
X012601Y019811D03*
X011981Y021831D03*
X012771Y022551D03*
X012771Y023461D03*
X010851Y025171D03*
X012281Y025741D03*
X011661Y027211D03*
X007891Y024071D03*
X009061Y023691D03*
X009471Y022491D03*
X009461Y018051D03*
X016011Y017941D03*
X004731Y030281D03*
X003871Y030271D03*
X037581Y020841D03*
X050911Y017521D03*
X049611Y008541D03*
D45*
X002191Y002181D03*
X054291Y002181D03*
X054291Y035781D03*
X002191Y035781D03*
M02*
