G75*
G70*
%OFA0B0*%
%FSLAX24Y24*%
%IPPOS*%
%LPD*%
%AMOC8*
5,1,8,0,0,1.08239X$1,22.5*
%
%ADD10C,0.0010*%
D10*
X001801Y002181D02*
X001803Y002220D01*
X001809Y002258D01*
X001818Y002296D01*
X001832Y002332D01*
X001848Y002368D01*
X001869Y002401D01*
X001892Y002432D01*
X001919Y002460D01*
X001948Y002486D01*
X001979Y002509D01*
X002013Y002528D01*
X002049Y002544D01*
X002085Y002556D01*
X002123Y002565D01*
X002162Y002570D01*
X002201Y002571D01*
X002239Y002568D01*
X002278Y002561D01*
X002315Y002551D01*
X002351Y002536D01*
X002386Y002519D01*
X002419Y002498D01*
X002449Y002473D01*
X002477Y002446D01*
X002502Y002416D01*
X002524Y002384D01*
X002542Y002350D01*
X002557Y002314D01*
X002569Y002277D01*
X002577Y002239D01*
X002581Y002200D01*
X002581Y002162D01*
X002577Y002123D01*
X002569Y002085D01*
X002557Y002048D01*
X002542Y002012D01*
X002524Y001978D01*
X002502Y001946D01*
X002477Y001916D01*
X002449Y001889D01*
X002419Y001864D01*
X002386Y001843D01*
X002351Y001826D01*
X002315Y001811D01*
X002278Y001801D01*
X002239Y001794D01*
X002201Y001791D01*
X002162Y001792D01*
X002123Y001797D01*
X002085Y001806D01*
X002049Y001818D01*
X002013Y001834D01*
X001979Y001853D01*
X001948Y001876D01*
X001919Y001902D01*
X001892Y001930D01*
X001869Y001961D01*
X001848Y001994D01*
X001832Y002030D01*
X001818Y002066D01*
X001809Y002104D01*
X001803Y002142D01*
X001801Y002181D01*
X001791Y001781D02*
X002591Y002581D01*
X004951Y005481D02*
X005351Y005481D01*
X004951Y005481D02*
X004551Y005881D01*
X004551Y005081D01*
X004951Y005481D01*
X007721Y005481D02*
X008121Y005481D01*
X007721Y005481D02*
X007321Y005881D01*
X007321Y005081D01*
X007721Y005481D01*
X009441Y002661D02*
X010241Y002661D01*
X009841Y002261D02*
X009841Y003061D01*
X009451Y002661D02*
X009453Y002700D01*
X009459Y002738D01*
X009468Y002776D01*
X009482Y002812D01*
X009498Y002848D01*
X009519Y002881D01*
X009542Y002912D01*
X009569Y002940D01*
X009598Y002966D01*
X009629Y002989D01*
X009663Y003008D01*
X009699Y003024D01*
X009735Y003036D01*
X009773Y003045D01*
X009812Y003050D01*
X009851Y003051D01*
X009889Y003048D01*
X009928Y003041D01*
X009965Y003031D01*
X010001Y003016D01*
X010036Y002999D01*
X010069Y002978D01*
X010099Y002953D01*
X010127Y002926D01*
X010152Y002896D01*
X010174Y002864D01*
X010192Y002830D01*
X010207Y002794D01*
X010219Y002757D01*
X010227Y002719D01*
X010231Y002680D01*
X010231Y002642D01*
X010227Y002603D01*
X010219Y002565D01*
X010207Y002528D01*
X010192Y002492D01*
X010174Y002458D01*
X010152Y002426D01*
X010127Y002396D01*
X010099Y002369D01*
X010069Y002344D01*
X010036Y002323D01*
X010001Y002306D01*
X009965Y002291D01*
X009928Y002281D01*
X009889Y002274D01*
X009851Y002271D01*
X009812Y002272D01*
X009773Y002277D01*
X009735Y002286D01*
X009699Y002298D01*
X009663Y002314D01*
X009629Y002333D01*
X009598Y002356D01*
X009569Y002382D01*
X009542Y002410D01*
X009519Y002441D01*
X009498Y002474D01*
X009482Y002510D01*
X009468Y002546D01*
X009459Y002584D01*
X009453Y002622D01*
X009451Y002661D01*
X007071Y009811D02*
X007073Y009850D01*
X007079Y009888D01*
X007088Y009926D01*
X007102Y009962D01*
X007118Y009998D01*
X007139Y010031D01*
X007162Y010062D01*
X007189Y010090D01*
X007218Y010116D01*
X007249Y010139D01*
X007283Y010158D01*
X007319Y010174D01*
X007355Y010186D01*
X007393Y010195D01*
X007432Y010200D01*
X007471Y010201D01*
X007509Y010198D01*
X007548Y010191D01*
X007585Y010181D01*
X007621Y010166D01*
X007656Y010149D01*
X007689Y010128D01*
X007719Y010103D01*
X007747Y010076D01*
X007772Y010046D01*
X007794Y010014D01*
X007812Y009980D01*
X007827Y009944D01*
X007839Y009907D01*
X007847Y009869D01*
X007851Y009830D01*
X007851Y009792D01*
X007847Y009753D01*
X007839Y009715D01*
X007827Y009678D01*
X007812Y009642D01*
X007794Y009608D01*
X007772Y009576D01*
X007747Y009546D01*
X007719Y009519D01*
X007689Y009494D01*
X007656Y009473D01*
X007621Y009456D01*
X007585Y009441D01*
X007548Y009431D01*
X007509Y009424D01*
X007471Y009421D01*
X007432Y009422D01*
X007393Y009427D01*
X007355Y009436D01*
X007319Y009448D01*
X007283Y009464D01*
X007249Y009483D01*
X007218Y009506D01*
X007189Y009532D01*
X007162Y009560D01*
X007139Y009591D01*
X007118Y009624D01*
X007102Y009660D01*
X007088Y009696D01*
X007079Y009734D01*
X007073Y009772D01*
X007071Y009811D01*
X007061Y009411D02*
X007861Y010211D01*
X006071Y009811D02*
X006073Y009850D01*
X006079Y009888D01*
X006088Y009926D01*
X006102Y009962D01*
X006118Y009998D01*
X006139Y010031D01*
X006162Y010062D01*
X006189Y010090D01*
X006218Y010116D01*
X006249Y010139D01*
X006283Y010158D01*
X006319Y010174D01*
X006355Y010186D01*
X006393Y010195D01*
X006432Y010200D01*
X006471Y010201D01*
X006509Y010198D01*
X006548Y010191D01*
X006585Y010181D01*
X006621Y010166D01*
X006656Y010149D01*
X006689Y010128D01*
X006719Y010103D01*
X006747Y010076D01*
X006772Y010046D01*
X006794Y010014D01*
X006812Y009980D01*
X006827Y009944D01*
X006839Y009907D01*
X006847Y009869D01*
X006851Y009830D01*
X006851Y009792D01*
X006847Y009753D01*
X006839Y009715D01*
X006827Y009678D01*
X006812Y009642D01*
X006794Y009608D01*
X006772Y009576D01*
X006747Y009546D01*
X006719Y009519D01*
X006689Y009494D01*
X006656Y009473D01*
X006621Y009456D01*
X006585Y009441D01*
X006548Y009431D01*
X006509Y009424D01*
X006471Y009421D01*
X006432Y009422D01*
X006393Y009427D01*
X006355Y009436D01*
X006319Y009448D01*
X006283Y009464D01*
X006249Y009483D01*
X006218Y009506D01*
X006189Y009532D01*
X006162Y009560D01*
X006139Y009591D01*
X006118Y009624D01*
X006102Y009660D01*
X006088Y009696D01*
X006079Y009734D01*
X006073Y009772D01*
X006071Y009811D01*
X006061Y009411D02*
X006861Y010211D01*
X005071Y009811D02*
X005073Y009850D01*
X005079Y009888D01*
X005088Y009926D01*
X005102Y009962D01*
X005118Y009998D01*
X005139Y010031D01*
X005162Y010062D01*
X005189Y010090D01*
X005218Y010116D01*
X005249Y010139D01*
X005283Y010158D01*
X005319Y010174D01*
X005355Y010186D01*
X005393Y010195D01*
X005432Y010200D01*
X005471Y010201D01*
X005509Y010198D01*
X005548Y010191D01*
X005585Y010181D01*
X005621Y010166D01*
X005656Y010149D01*
X005689Y010128D01*
X005719Y010103D01*
X005747Y010076D01*
X005772Y010046D01*
X005794Y010014D01*
X005812Y009980D01*
X005827Y009944D01*
X005839Y009907D01*
X005847Y009869D01*
X005851Y009830D01*
X005851Y009792D01*
X005847Y009753D01*
X005839Y009715D01*
X005827Y009678D01*
X005812Y009642D01*
X005794Y009608D01*
X005772Y009576D01*
X005747Y009546D01*
X005719Y009519D01*
X005689Y009494D01*
X005656Y009473D01*
X005621Y009456D01*
X005585Y009441D01*
X005548Y009431D01*
X005509Y009424D01*
X005471Y009421D01*
X005432Y009422D01*
X005393Y009427D01*
X005355Y009436D01*
X005319Y009448D01*
X005283Y009464D01*
X005249Y009483D01*
X005218Y009506D01*
X005189Y009532D01*
X005162Y009560D01*
X005139Y009591D01*
X005118Y009624D01*
X005102Y009660D01*
X005088Y009696D01*
X005079Y009734D01*
X005073Y009772D01*
X005071Y009811D01*
X005061Y009411D02*
X005861Y010211D01*
X004071Y009811D02*
X004073Y009850D01*
X004079Y009888D01*
X004088Y009926D01*
X004102Y009962D01*
X004118Y009998D01*
X004139Y010031D01*
X004162Y010062D01*
X004189Y010090D01*
X004218Y010116D01*
X004249Y010139D01*
X004283Y010158D01*
X004319Y010174D01*
X004355Y010186D01*
X004393Y010195D01*
X004432Y010200D01*
X004471Y010201D01*
X004509Y010198D01*
X004548Y010191D01*
X004585Y010181D01*
X004621Y010166D01*
X004656Y010149D01*
X004689Y010128D01*
X004719Y010103D01*
X004747Y010076D01*
X004772Y010046D01*
X004794Y010014D01*
X004812Y009980D01*
X004827Y009944D01*
X004839Y009907D01*
X004847Y009869D01*
X004851Y009830D01*
X004851Y009792D01*
X004847Y009753D01*
X004839Y009715D01*
X004827Y009678D01*
X004812Y009642D01*
X004794Y009608D01*
X004772Y009576D01*
X004747Y009546D01*
X004719Y009519D01*
X004689Y009494D01*
X004656Y009473D01*
X004621Y009456D01*
X004585Y009441D01*
X004548Y009431D01*
X004509Y009424D01*
X004471Y009421D01*
X004432Y009422D01*
X004393Y009427D01*
X004355Y009436D01*
X004319Y009448D01*
X004283Y009464D01*
X004249Y009483D01*
X004218Y009506D01*
X004189Y009532D01*
X004162Y009560D01*
X004139Y009591D01*
X004118Y009624D01*
X004102Y009660D01*
X004088Y009696D01*
X004079Y009734D01*
X004073Y009772D01*
X004071Y009811D01*
X004061Y009411D02*
X004861Y010211D01*
X010370Y011434D02*
X011170Y012234D01*
X011170Y011434D01*
X010370Y012234D01*
X010370Y011434D01*
X013570Y011434D02*
X014370Y012234D01*
X014370Y011434D01*
X013570Y012234D01*
X013570Y011434D01*
X017770Y011434D02*
X018570Y012234D01*
X018570Y011434D01*
X017770Y012234D01*
X017770Y011434D01*
X020970Y011434D02*
X021770Y012234D01*
X021770Y011434D01*
X020970Y012234D01*
X020970Y011434D01*
X020601Y008901D02*
X020603Y008940D01*
X020609Y008978D01*
X020618Y009016D01*
X020632Y009052D01*
X020648Y009088D01*
X020669Y009121D01*
X020692Y009152D01*
X020719Y009180D01*
X020748Y009206D01*
X020779Y009229D01*
X020813Y009248D01*
X020849Y009264D01*
X020885Y009276D01*
X020923Y009285D01*
X020962Y009290D01*
X021001Y009291D01*
X021039Y009288D01*
X021078Y009281D01*
X021115Y009271D01*
X021151Y009256D01*
X021186Y009239D01*
X021219Y009218D01*
X021249Y009193D01*
X021277Y009166D01*
X021302Y009136D01*
X021324Y009104D01*
X021342Y009070D01*
X021357Y009034D01*
X021369Y008997D01*
X021377Y008959D01*
X021381Y008920D01*
X021381Y008882D01*
X021377Y008843D01*
X021369Y008805D01*
X021357Y008768D01*
X021342Y008732D01*
X021324Y008698D01*
X021302Y008666D01*
X021277Y008636D01*
X021249Y008609D01*
X021219Y008584D01*
X021186Y008563D01*
X021151Y008546D01*
X021115Y008531D01*
X021078Y008521D01*
X021039Y008514D01*
X021001Y008511D01*
X020962Y008512D01*
X020923Y008517D01*
X020885Y008526D01*
X020849Y008538D01*
X020813Y008554D01*
X020779Y008573D01*
X020748Y008596D01*
X020719Y008622D01*
X020692Y008650D01*
X020669Y008681D01*
X020648Y008714D01*
X020632Y008750D01*
X020618Y008786D01*
X020609Y008824D01*
X020603Y008862D01*
X020601Y008901D01*
X020591Y008501D02*
X021391Y009301D01*
X025741Y011251D02*
X025743Y011290D01*
X025749Y011328D01*
X025758Y011366D01*
X025772Y011402D01*
X025788Y011438D01*
X025809Y011471D01*
X025832Y011502D01*
X025859Y011530D01*
X025888Y011556D01*
X025919Y011579D01*
X025953Y011598D01*
X025989Y011614D01*
X026025Y011626D01*
X026063Y011635D01*
X026102Y011640D01*
X026141Y011641D01*
X026179Y011638D01*
X026218Y011631D01*
X026255Y011621D01*
X026291Y011606D01*
X026326Y011589D01*
X026359Y011568D01*
X026389Y011543D01*
X026417Y011516D01*
X026442Y011486D01*
X026464Y011454D01*
X026482Y011420D01*
X026497Y011384D01*
X026509Y011347D01*
X026517Y011309D01*
X026521Y011270D01*
X026521Y011232D01*
X026517Y011193D01*
X026509Y011155D01*
X026497Y011118D01*
X026482Y011082D01*
X026464Y011048D01*
X026442Y011016D01*
X026417Y010986D01*
X026389Y010959D01*
X026359Y010934D01*
X026326Y010913D01*
X026291Y010896D01*
X026255Y010881D01*
X026218Y010871D01*
X026179Y010864D01*
X026141Y010861D01*
X026102Y010862D01*
X026063Y010867D01*
X026025Y010876D01*
X025989Y010888D01*
X025953Y010904D01*
X025919Y010923D01*
X025888Y010946D01*
X025859Y010972D01*
X025832Y011000D01*
X025809Y011031D01*
X025788Y011064D01*
X025772Y011100D01*
X025758Y011136D01*
X025749Y011174D01*
X025743Y011212D01*
X025741Y011251D01*
X025731Y010851D02*
X026531Y011651D01*
X026401Y011251D02*
X026403Y011290D01*
X026409Y011328D01*
X026418Y011366D01*
X026432Y011402D01*
X026448Y011438D01*
X026469Y011471D01*
X026492Y011502D01*
X026519Y011530D01*
X026548Y011556D01*
X026579Y011579D01*
X026613Y011598D01*
X026649Y011614D01*
X026685Y011626D01*
X026723Y011635D01*
X026762Y011640D01*
X026801Y011641D01*
X026839Y011638D01*
X026878Y011631D01*
X026915Y011621D01*
X026951Y011606D01*
X026986Y011589D01*
X027019Y011568D01*
X027049Y011543D01*
X027077Y011516D01*
X027102Y011486D01*
X027124Y011454D01*
X027142Y011420D01*
X027157Y011384D01*
X027169Y011347D01*
X027177Y011309D01*
X027181Y011270D01*
X027181Y011232D01*
X027177Y011193D01*
X027169Y011155D01*
X027157Y011118D01*
X027142Y011082D01*
X027124Y011048D01*
X027102Y011016D01*
X027077Y010986D01*
X027049Y010959D01*
X027019Y010934D01*
X026986Y010913D01*
X026951Y010896D01*
X026915Y010881D01*
X026878Y010871D01*
X026839Y010864D01*
X026801Y010861D01*
X026762Y010862D01*
X026723Y010867D01*
X026685Y010876D01*
X026649Y010888D01*
X026613Y010904D01*
X026579Y010923D01*
X026548Y010946D01*
X026519Y010972D01*
X026492Y011000D01*
X026469Y011031D01*
X026448Y011064D01*
X026432Y011100D01*
X026418Y011136D01*
X026409Y011174D01*
X026403Y011212D01*
X026401Y011251D01*
X026391Y010851D02*
X027191Y011651D01*
X027031Y011251D02*
X027033Y011290D01*
X027039Y011328D01*
X027048Y011366D01*
X027062Y011402D01*
X027078Y011438D01*
X027099Y011471D01*
X027122Y011502D01*
X027149Y011530D01*
X027178Y011556D01*
X027209Y011579D01*
X027243Y011598D01*
X027279Y011614D01*
X027315Y011626D01*
X027353Y011635D01*
X027392Y011640D01*
X027431Y011641D01*
X027469Y011638D01*
X027508Y011631D01*
X027545Y011621D01*
X027581Y011606D01*
X027616Y011589D01*
X027649Y011568D01*
X027679Y011543D01*
X027707Y011516D01*
X027732Y011486D01*
X027754Y011454D01*
X027772Y011420D01*
X027787Y011384D01*
X027799Y011347D01*
X027807Y011309D01*
X027811Y011270D01*
X027811Y011232D01*
X027807Y011193D01*
X027799Y011155D01*
X027787Y011118D01*
X027772Y011082D01*
X027754Y011048D01*
X027732Y011016D01*
X027707Y010986D01*
X027679Y010959D01*
X027649Y010934D01*
X027616Y010913D01*
X027581Y010896D01*
X027545Y010881D01*
X027508Y010871D01*
X027469Y010864D01*
X027431Y010861D01*
X027392Y010862D01*
X027353Y010867D01*
X027315Y010876D01*
X027279Y010888D01*
X027243Y010904D01*
X027209Y010923D01*
X027178Y010946D01*
X027149Y010972D01*
X027122Y011000D01*
X027099Y011031D01*
X027078Y011064D01*
X027062Y011100D01*
X027048Y011136D01*
X027039Y011174D01*
X027033Y011212D01*
X027031Y011251D01*
X027021Y010851D02*
X027821Y011651D01*
X027671Y011241D02*
X027673Y011280D01*
X027679Y011318D01*
X027688Y011356D01*
X027702Y011392D01*
X027718Y011428D01*
X027739Y011461D01*
X027762Y011492D01*
X027789Y011520D01*
X027818Y011546D01*
X027849Y011569D01*
X027883Y011588D01*
X027919Y011604D01*
X027955Y011616D01*
X027993Y011625D01*
X028032Y011630D01*
X028071Y011631D01*
X028109Y011628D01*
X028148Y011621D01*
X028185Y011611D01*
X028221Y011596D01*
X028256Y011579D01*
X028289Y011558D01*
X028319Y011533D01*
X028347Y011506D01*
X028372Y011476D01*
X028394Y011444D01*
X028412Y011410D01*
X028427Y011374D01*
X028439Y011337D01*
X028447Y011299D01*
X028451Y011260D01*
X028451Y011222D01*
X028447Y011183D01*
X028439Y011145D01*
X028427Y011108D01*
X028412Y011072D01*
X028394Y011038D01*
X028372Y011006D01*
X028347Y010976D01*
X028319Y010949D01*
X028289Y010924D01*
X028256Y010903D01*
X028221Y010886D01*
X028185Y010871D01*
X028148Y010861D01*
X028109Y010854D01*
X028071Y010851D01*
X028032Y010852D01*
X027993Y010857D01*
X027955Y010866D01*
X027919Y010878D01*
X027883Y010894D01*
X027849Y010913D01*
X027818Y010936D01*
X027789Y010962D01*
X027762Y010990D01*
X027739Y011021D01*
X027718Y011054D01*
X027702Y011090D01*
X027688Y011126D01*
X027679Y011164D01*
X027673Y011202D01*
X027671Y011241D01*
X027661Y010841D02*
X028461Y011641D01*
X027581Y010161D02*
X027583Y010200D01*
X027589Y010238D01*
X027598Y010276D01*
X027612Y010312D01*
X027628Y010348D01*
X027649Y010381D01*
X027672Y010412D01*
X027699Y010440D01*
X027728Y010466D01*
X027759Y010489D01*
X027793Y010508D01*
X027829Y010524D01*
X027865Y010536D01*
X027903Y010545D01*
X027942Y010550D01*
X027981Y010551D01*
X028019Y010548D01*
X028058Y010541D01*
X028095Y010531D01*
X028131Y010516D01*
X028166Y010499D01*
X028199Y010478D01*
X028229Y010453D01*
X028257Y010426D01*
X028282Y010396D01*
X028304Y010364D01*
X028322Y010330D01*
X028337Y010294D01*
X028349Y010257D01*
X028357Y010219D01*
X028361Y010180D01*
X028361Y010142D01*
X028357Y010103D01*
X028349Y010065D01*
X028337Y010028D01*
X028322Y009992D01*
X028304Y009958D01*
X028282Y009926D01*
X028257Y009896D01*
X028229Y009869D01*
X028199Y009844D01*
X028166Y009823D01*
X028131Y009806D01*
X028095Y009791D01*
X028058Y009781D01*
X028019Y009774D01*
X027981Y009771D01*
X027942Y009772D01*
X027903Y009777D01*
X027865Y009786D01*
X027829Y009798D01*
X027793Y009814D01*
X027759Y009833D01*
X027728Y009856D01*
X027699Y009882D01*
X027672Y009910D01*
X027649Y009941D01*
X027628Y009974D01*
X027612Y010010D01*
X027598Y010046D01*
X027589Y010084D01*
X027583Y010122D01*
X027581Y010161D01*
X027571Y009761D02*
X028371Y010561D01*
X032111Y013711D02*
X032113Y013750D01*
X032119Y013788D01*
X032128Y013826D01*
X032142Y013862D01*
X032158Y013898D01*
X032179Y013931D01*
X032202Y013962D01*
X032229Y013990D01*
X032258Y014016D01*
X032289Y014039D01*
X032323Y014058D01*
X032359Y014074D01*
X032395Y014086D01*
X032433Y014095D01*
X032472Y014100D01*
X032511Y014101D01*
X032549Y014098D01*
X032588Y014091D01*
X032625Y014081D01*
X032661Y014066D01*
X032696Y014049D01*
X032729Y014028D01*
X032759Y014003D01*
X032787Y013976D01*
X032812Y013946D01*
X032834Y013914D01*
X032852Y013880D01*
X032867Y013844D01*
X032879Y013807D01*
X032887Y013769D01*
X032891Y013730D01*
X032891Y013692D01*
X032887Y013653D01*
X032879Y013615D01*
X032867Y013578D01*
X032852Y013542D01*
X032834Y013508D01*
X032812Y013476D01*
X032787Y013446D01*
X032759Y013419D01*
X032729Y013394D01*
X032696Y013373D01*
X032661Y013356D01*
X032625Y013341D01*
X032588Y013331D01*
X032549Y013324D01*
X032511Y013321D01*
X032472Y013322D01*
X032433Y013327D01*
X032395Y013336D01*
X032359Y013348D01*
X032323Y013364D01*
X032289Y013383D01*
X032258Y013406D01*
X032229Y013432D01*
X032202Y013460D01*
X032179Y013491D01*
X032158Y013524D01*
X032142Y013560D01*
X032128Y013596D01*
X032119Y013634D01*
X032113Y013672D01*
X032111Y013711D01*
X032101Y013311D02*
X032901Y014111D01*
X033961Y016561D02*
X033963Y016600D01*
X033969Y016638D01*
X033978Y016676D01*
X033992Y016712D01*
X034008Y016748D01*
X034029Y016781D01*
X034052Y016812D01*
X034079Y016840D01*
X034108Y016866D01*
X034139Y016889D01*
X034173Y016908D01*
X034209Y016924D01*
X034245Y016936D01*
X034283Y016945D01*
X034322Y016950D01*
X034361Y016951D01*
X034399Y016948D01*
X034438Y016941D01*
X034475Y016931D01*
X034511Y016916D01*
X034546Y016899D01*
X034579Y016878D01*
X034609Y016853D01*
X034637Y016826D01*
X034662Y016796D01*
X034684Y016764D01*
X034702Y016730D01*
X034717Y016694D01*
X034729Y016657D01*
X034737Y016619D01*
X034741Y016580D01*
X034741Y016542D01*
X034737Y016503D01*
X034729Y016465D01*
X034717Y016428D01*
X034702Y016392D01*
X034684Y016358D01*
X034662Y016326D01*
X034637Y016296D01*
X034609Y016269D01*
X034579Y016244D01*
X034546Y016223D01*
X034511Y016206D01*
X034475Y016191D01*
X034438Y016181D01*
X034399Y016174D01*
X034361Y016171D01*
X034322Y016172D01*
X034283Y016177D01*
X034245Y016186D01*
X034209Y016198D01*
X034173Y016214D01*
X034139Y016233D01*
X034108Y016256D01*
X034079Y016282D01*
X034052Y016310D01*
X034029Y016341D01*
X034008Y016374D01*
X033992Y016410D01*
X033978Y016446D01*
X033969Y016484D01*
X033963Y016522D01*
X033961Y016561D01*
X033951Y016161D02*
X034751Y016961D01*
X037201Y015471D02*
X037203Y015510D01*
X037209Y015548D01*
X037218Y015586D01*
X037232Y015622D01*
X037248Y015658D01*
X037269Y015691D01*
X037292Y015722D01*
X037319Y015750D01*
X037348Y015776D01*
X037379Y015799D01*
X037413Y015818D01*
X037449Y015834D01*
X037485Y015846D01*
X037523Y015855D01*
X037562Y015860D01*
X037601Y015861D01*
X037639Y015858D01*
X037678Y015851D01*
X037715Y015841D01*
X037751Y015826D01*
X037786Y015809D01*
X037819Y015788D01*
X037849Y015763D01*
X037877Y015736D01*
X037902Y015706D01*
X037924Y015674D01*
X037942Y015640D01*
X037957Y015604D01*
X037969Y015567D01*
X037977Y015529D01*
X037981Y015490D01*
X037981Y015452D01*
X037977Y015413D01*
X037969Y015375D01*
X037957Y015338D01*
X037942Y015302D01*
X037924Y015268D01*
X037902Y015236D01*
X037877Y015206D01*
X037849Y015179D01*
X037819Y015154D01*
X037786Y015133D01*
X037751Y015116D01*
X037715Y015101D01*
X037678Y015091D01*
X037639Y015084D01*
X037601Y015081D01*
X037562Y015082D01*
X037523Y015087D01*
X037485Y015096D01*
X037449Y015108D01*
X037413Y015124D01*
X037379Y015143D01*
X037348Y015166D01*
X037319Y015192D01*
X037292Y015220D01*
X037269Y015251D01*
X037248Y015284D01*
X037232Y015320D01*
X037218Y015356D01*
X037209Y015394D01*
X037203Y015432D01*
X037201Y015471D01*
X037191Y015071D02*
X037991Y015871D01*
X042201Y016981D02*
X042203Y017020D01*
X042209Y017058D01*
X042218Y017096D01*
X042232Y017132D01*
X042248Y017168D01*
X042269Y017201D01*
X042292Y017232D01*
X042319Y017260D01*
X042348Y017286D01*
X042379Y017309D01*
X042413Y017328D01*
X042449Y017344D01*
X042485Y017356D01*
X042523Y017365D01*
X042562Y017370D01*
X042601Y017371D01*
X042639Y017368D01*
X042678Y017361D01*
X042715Y017351D01*
X042751Y017336D01*
X042786Y017319D01*
X042819Y017298D01*
X042849Y017273D01*
X042877Y017246D01*
X042902Y017216D01*
X042924Y017184D01*
X042942Y017150D01*
X042957Y017114D01*
X042969Y017077D01*
X042977Y017039D01*
X042981Y017000D01*
X042981Y016962D01*
X042977Y016923D01*
X042969Y016885D01*
X042957Y016848D01*
X042942Y016812D01*
X042924Y016778D01*
X042902Y016746D01*
X042877Y016716D01*
X042849Y016689D01*
X042819Y016664D01*
X042786Y016643D01*
X042751Y016626D01*
X042715Y016611D01*
X042678Y016601D01*
X042639Y016594D01*
X042601Y016591D01*
X042562Y016592D01*
X042523Y016597D01*
X042485Y016606D01*
X042449Y016618D01*
X042413Y016634D01*
X042379Y016653D01*
X042348Y016676D01*
X042319Y016702D01*
X042292Y016730D01*
X042269Y016761D01*
X042248Y016794D01*
X042232Y016830D01*
X042218Y016866D01*
X042209Y016904D01*
X042203Y016942D01*
X042201Y016981D01*
X042191Y016581D02*
X042991Y017381D01*
X042201Y019281D02*
X042203Y019320D01*
X042209Y019358D01*
X042218Y019396D01*
X042232Y019432D01*
X042248Y019468D01*
X042269Y019501D01*
X042292Y019532D01*
X042319Y019560D01*
X042348Y019586D01*
X042379Y019609D01*
X042413Y019628D01*
X042449Y019644D01*
X042485Y019656D01*
X042523Y019665D01*
X042562Y019670D01*
X042601Y019671D01*
X042639Y019668D01*
X042678Y019661D01*
X042715Y019651D01*
X042751Y019636D01*
X042786Y019619D01*
X042819Y019598D01*
X042849Y019573D01*
X042877Y019546D01*
X042902Y019516D01*
X042924Y019484D01*
X042942Y019450D01*
X042957Y019414D01*
X042969Y019377D01*
X042977Y019339D01*
X042981Y019300D01*
X042981Y019262D01*
X042977Y019223D01*
X042969Y019185D01*
X042957Y019148D01*
X042942Y019112D01*
X042924Y019078D01*
X042902Y019046D01*
X042877Y019016D01*
X042849Y018989D01*
X042819Y018964D01*
X042786Y018943D01*
X042751Y018926D01*
X042715Y018911D01*
X042678Y018901D01*
X042639Y018894D01*
X042601Y018891D01*
X042562Y018892D01*
X042523Y018897D01*
X042485Y018906D01*
X042449Y018918D01*
X042413Y018934D01*
X042379Y018953D01*
X042348Y018976D01*
X042319Y019002D01*
X042292Y019030D01*
X042269Y019061D01*
X042248Y019094D01*
X042232Y019130D01*
X042218Y019166D01*
X042209Y019204D01*
X042203Y019242D01*
X042201Y019281D01*
X042191Y018881D02*
X042991Y019681D01*
X042201Y023081D02*
X042203Y023120D01*
X042209Y023158D01*
X042218Y023196D01*
X042232Y023232D01*
X042248Y023268D01*
X042269Y023301D01*
X042292Y023332D01*
X042319Y023360D01*
X042348Y023386D01*
X042379Y023409D01*
X042413Y023428D01*
X042449Y023444D01*
X042485Y023456D01*
X042523Y023465D01*
X042562Y023470D01*
X042601Y023471D01*
X042639Y023468D01*
X042678Y023461D01*
X042715Y023451D01*
X042751Y023436D01*
X042786Y023419D01*
X042819Y023398D01*
X042849Y023373D01*
X042877Y023346D01*
X042902Y023316D01*
X042924Y023284D01*
X042942Y023250D01*
X042957Y023214D01*
X042969Y023177D01*
X042977Y023139D01*
X042981Y023100D01*
X042981Y023062D01*
X042977Y023023D01*
X042969Y022985D01*
X042957Y022948D01*
X042942Y022912D01*
X042924Y022878D01*
X042902Y022846D01*
X042877Y022816D01*
X042849Y022789D01*
X042819Y022764D01*
X042786Y022743D01*
X042751Y022726D01*
X042715Y022711D01*
X042678Y022701D01*
X042639Y022694D01*
X042601Y022691D01*
X042562Y022692D01*
X042523Y022697D01*
X042485Y022706D01*
X042449Y022718D01*
X042413Y022734D01*
X042379Y022753D01*
X042348Y022776D01*
X042319Y022802D01*
X042292Y022830D01*
X042269Y022861D01*
X042248Y022894D01*
X042232Y022930D01*
X042218Y022966D01*
X042209Y023004D01*
X042203Y023042D01*
X042201Y023081D01*
X042191Y022681D02*
X042991Y023481D01*
X044291Y023801D02*
X044293Y023840D01*
X044299Y023878D01*
X044308Y023916D01*
X044322Y023952D01*
X044338Y023988D01*
X044359Y024021D01*
X044382Y024052D01*
X044409Y024080D01*
X044438Y024106D01*
X044469Y024129D01*
X044503Y024148D01*
X044539Y024164D01*
X044575Y024176D01*
X044613Y024185D01*
X044652Y024190D01*
X044691Y024191D01*
X044729Y024188D01*
X044768Y024181D01*
X044805Y024171D01*
X044841Y024156D01*
X044876Y024139D01*
X044909Y024118D01*
X044939Y024093D01*
X044967Y024066D01*
X044992Y024036D01*
X045014Y024004D01*
X045032Y023970D01*
X045047Y023934D01*
X045059Y023897D01*
X045067Y023859D01*
X045071Y023820D01*
X045071Y023782D01*
X045067Y023743D01*
X045059Y023705D01*
X045047Y023668D01*
X045032Y023632D01*
X045014Y023598D01*
X044992Y023566D01*
X044967Y023536D01*
X044939Y023509D01*
X044909Y023484D01*
X044876Y023463D01*
X044841Y023446D01*
X044805Y023431D01*
X044768Y023421D01*
X044729Y023414D01*
X044691Y023411D01*
X044652Y023412D01*
X044613Y023417D01*
X044575Y023426D01*
X044539Y023438D01*
X044503Y023454D01*
X044469Y023473D01*
X044438Y023496D01*
X044409Y023522D01*
X044382Y023550D01*
X044359Y023581D01*
X044338Y023614D01*
X044322Y023650D01*
X044308Y023686D01*
X044299Y023724D01*
X044293Y023762D01*
X044291Y023801D01*
X044281Y023401D02*
X045081Y024201D01*
X040901Y024381D02*
X040903Y024420D01*
X040909Y024458D01*
X040918Y024496D01*
X040932Y024532D01*
X040948Y024568D01*
X040969Y024601D01*
X040992Y024632D01*
X041019Y024660D01*
X041048Y024686D01*
X041079Y024709D01*
X041113Y024728D01*
X041149Y024744D01*
X041185Y024756D01*
X041223Y024765D01*
X041262Y024770D01*
X041301Y024771D01*
X041339Y024768D01*
X041378Y024761D01*
X041415Y024751D01*
X041451Y024736D01*
X041486Y024719D01*
X041519Y024698D01*
X041549Y024673D01*
X041577Y024646D01*
X041602Y024616D01*
X041624Y024584D01*
X041642Y024550D01*
X041657Y024514D01*
X041669Y024477D01*
X041677Y024439D01*
X041681Y024400D01*
X041681Y024362D01*
X041677Y024323D01*
X041669Y024285D01*
X041657Y024248D01*
X041642Y024212D01*
X041624Y024178D01*
X041602Y024146D01*
X041577Y024116D01*
X041549Y024089D01*
X041519Y024064D01*
X041486Y024043D01*
X041451Y024026D01*
X041415Y024011D01*
X041378Y024001D01*
X041339Y023994D01*
X041301Y023991D01*
X041262Y023992D01*
X041223Y023997D01*
X041185Y024006D01*
X041149Y024018D01*
X041113Y024034D01*
X041079Y024053D01*
X041048Y024076D01*
X041019Y024102D01*
X040992Y024130D01*
X040969Y024161D01*
X040948Y024194D01*
X040932Y024230D01*
X040918Y024266D01*
X040909Y024304D01*
X040903Y024342D01*
X040901Y024381D01*
X040891Y023981D02*
X041691Y024781D01*
X037191Y020841D02*
X037193Y020880D01*
X037199Y020918D01*
X037208Y020956D01*
X037222Y020992D01*
X037238Y021028D01*
X037259Y021061D01*
X037282Y021092D01*
X037309Y021120D01*
X037338Y021146D01*
X037369Y021169D01*
X037403Y021188D01*
X037439Y021204D01*
X037475Y021216D01*
X037513Y021225D01*
X037552Y021230D01*
X037591Y021231D01*
X037629Y021228D01*
X037668Y021221D01*
X037705Y021211D01*
X037741Y021196D01*
X037776Y021179D01*
X037809Y021158D01*
X037839Y021133D01*
X037867Y021106D01*
X037892Y021076D01*
X037914Y021044D01*
X037932Y021010D01*
X037947Y020974D01*
X037959Y020937D01*
X037967Y020899D01*
X037971Y020860D01*
X037971Y020822D01*
X037967Y020783D01*
X037959Y020745D01*
X037947Y020708D01*
X037932Y020672D01*
X037914Y020638D01*
X037892Y020606D01*
X037867Y020576D01*
X037839Y020549D01*
X037809Y020524D01*
X037776Y020503D01*
X037741Y020486D01*
X037705Y020471D01*
X037668Y020461D01*
X037629Y020454D01*
X037591Y020451D01*
X037552Y020452D01*
X037513Y020457D01*
X037475Y020466D01*
X037439Y020478D01*
X037403Y020494D01*
X037369Y020513D01*
X037338Y020536D01*
X037309Y020562D01*
X037282Y020590D01*
X037259Y020621D01*
X037238Y020654D01*
X037222Y020690D01*
X037208Y020726D01*
X037199Y020764D01*
X037193Y020802D01*
X037191Y020841D01*
X037181Y020441D02*
X037981Y021241D01*
X033341Y020421D02*
X033343Y020460D01*
X033349Y020498D01*
X033358Y020536D01*
X033372Y020572D01*
X033388Y020608D01*
X033409Y020641D01*
X033432Y020672D01*
X033459Y020700D01*
X033488Y020726D01*
X033519Y020749D01*
X033553Y020768D01*
X033589Y020784D01*
X033625Y020796D01*
X033663Y020805D01*
X033702Y020810D01*
X033741Y020811D01*
X033779Y020808D01*
X033818Y020801D01*
X033855Y020791D01*
X033891Y020776D01*
X033926Y020759D01*
X033959Y020738D01*
X033989Y020713D01*
X034017Y020686D01*
X034042Y020656D01*
X034064Y020624D01*
X034082Y020590D01*
X034097Y020554D01*
X034109Y020517D01*
X034117Y020479D01*
X034121Y020440D01*
X034121Y020402D01*
X034117Y020363D01*
X034109Y020325D01*
X034097Y020288D01*
X034082Y020252D01*
X034064Y020218D01*
X034042Y020186D01*
X034017Y020156D01*
X033989Y020129D01*
X033959Y020104D01*
X033926Y020083D01*
X033891Y020066D01*
X033855Y020051D01*
X033818Y020041D01*
X033779Y020034D01*
X033741Y020031D01*
X033702Y020032D01*
X033663Y020037D01*
X033625Y020046D01*
X033589Y020058D01*
X033553Y020074D01*
X033519Y020093D01*
X033488Y020116D01*
X033459Y020142D01*
X033432Y020170D01*
X033409Y020201D01*
X033388Y020234D01*
X033372Y020270D01*
X033358Y020306D01*
X033349Y020344D01*
X033343Y020382D01*
X033341Y020421D01*
X033331Y020021D02*
X034131Y020821D01*
X032101Y023051D02*
X032103Y023090D01*
X032109Y023128D01*
X032118Y023166D01*
X032132Y023202D01*
X032148Y023238D01*
X032169Y023271D01*
X032192Y023302D01*
X032219Y023330D01*
X032248Y023356D01*
X032279Y023379D01*
X032313Y023398D01*
X032349Y023414D01*
X032385Y023426D01*
X032423Y023435D01*
X032462Y023440D01*
X032501Y023441D01*
X032539Y023438D01*
X032578Y023431D01*
X032615Y023421D01*
X032651Y023406D01*
X032686Y023389D01*
X032719Y023368D01*
X032749Y023343D01*
X032777Y023316D01*
X032802Y023286D01*
X032824Y023254D01*
X032842Y023220D01*
X032857Y023184D01*
X032869Y023147D01*
X032877Y023109D01*
X032881Y023070D01*
X032881Y023032D01*
X032877Y022993D01*
X032869Y022955D01*
X032857Y022918D01*
X032842Y022882D01*
X032824Y022848D01*
X032802Y022816D01*
X032777Y022786D01*
X032749Y022759D01*
X032719Y022734D01*
X032686Y022713D01*
X032651Y022696D01*
X032615Y022681D01*
X032578Y022671D01*
X032539Y022664D01*
X032501Y022661D01*
X032462Y022662D01*
X032423Y022667D01*
X032385Y022676D01*
X032349Y022688D01*
X032313Y022704D01*
X032279Y022723D01*
X032248Y022746D01*
X032219Y022772D01*
X032192Y022800D01*
X032169Y022831D01*
X032148Y022864D01*
X032132Y022900D01*
X032118Y022936D01*
X032109Y022974D01*
X032103Y023012D01*
X032101Y023051D01*
X032091Y022651D02*
X032891Y023451D01*
X030861Y024231D02*
X030863Y024270D01*
X030869Y024308D01*
X030878Y024346D01*
X030892Y024382D01*
X030908Y024418D01*
X030929Y024451D01*
X030952Y024482D01*
X030979Y024510D01*
X031008Y024536D01*
X031039Y024559D01*
X031073Y024578D01*
X031109Y024594D01*
X031145Y024606D01*
X031183Y024615D01*
X031222Y024620D01*
X031261Y024621D01*
X031299Y024618D01*
X031338Y024611D01*
X031375Y024601D01*
X031411Y024586D01*
X031446Y024569D01*
X031479Y024548D01*
X031509Y024523D01*
X031537Y024496D01*
X031562Y024466D01*
X031584Y024434D01*
X031602Y024400D01*
X031617Y024364D01*
X031629Y024327D01*
X031637Y024289D01*
X031641Y024250D01*
X031641Y024212D01*
X031637Y024173D01*
X031629Y024135D01*
X031617Y024098D01*
X031602Y024062D01*
X031584Y024028D01*
X031562Y023996D01*
X031537Y023966D01*
X031509Y023939D01*
X031479Y023914D01*
X031446Y023893D01*
X031411Y023876D01*
X031375Y023861D01*
X031338Y023851D01*
X031299Y023844D01*
X031261Y023841D01*
X031222Y023842D01*
X031183Y023847D01*
X031145Y023856D01*
X031109Y023868D01*
X031073Y023884D01*
X031039Y023903D01*
X031008Y023926D01*
X030979Y023952D01*
X030952Y023980D01*
X030929Y024011D01*
X030908Y024044D01*
X030892Y024080D01*
X030878Y024116D01*
X030869Y024154D01*
X030863Y024192D01*
X030861Y024231D01*
X030851Y023831D02*
X031651Y024631D01*
X027261Y027871D02*
X027263Y027910D01*
X027269Y027948D01*
X027278Y027986D01*
X027292Y028022D01*
X027308Y028058D01*
X027329Y028091D01*
X027352Y028122D01*
X027379Y028150D01*
X027408Y028176D01*
X027439Y028199D01*
X027473Y028218D01*
X027509Y028234D01*
X027545Y028246D01*
X027583Y028255D01*
X027622Y028260D01*
X027661Y028261D01*
X027699Y028258D01*
X027738Y028251D01*
X027775Y028241D01*
X027811Y028226D01*
X027846Y028209D01*
X027879Y028188D01*
X027909Y028163D01*
X027937Y028136D01*
X027962Y028106D01*
X027984Y028074D01*
X028002Y028040D01*
X028017Y028004D01*
X028029Y027967D01*
X028037Y027929D01*
X028041Y027890D01*
X028041Y027852D01*
X028037Y027813D01*
X028029Y027775D01*
X028017Y027738D01*
X028002Y027702D01*
X027984Y027668D01*
X027962Y027636D01*
X027937Y027606D01*
X027909Y027579D01*
X027879Y027554D01*
X027846Y027533D01*
X027811Y027516D01*
X027775Y027501D01*
X027738Y027491D01*
X027699Y027484D01*
X027661Y027481D01*
X027622Y027482D01*
X027583Y027487D01*
X027545Y027496D01*
X027509Y027508D01*
X027473Y027524D01*
X027439Y027543D01*
X027408Y027566D01*
X027379Y027592D01*
X027352Y027620D01*
X027329Y027651D01*
X027308Y027684D01*
X027292Y027720D01*
X027278Y027756D01*
X027269Y027794D01*
X027263Y027832D01*
X027261Y027871D01*
X027251Y027471D02*
X028051Y028271D01*
X029471Y030071D02*
X029473Y030110D01*
X029479Y030148D01*
X029488Y030186D01*
X029502Y030222D01*
X029518Y030258D01*
X029539Y030291D01*
X029562Y030322D01*
X029589Y030350D01*
X029618Y030376D01*
X029649Y030399D01*
X029683Y030418D01*
X029719Y030434D01*
X029755Y030446D01*
X029793Y030455D01*
X029832Y030460D01*
X029871Y030461D01*
X029909Y030458D01*
X029948Y030451D01*
X029985Y030441D01*
X030021Y030426D01*
X030056Y030409D01*
X030089Y030388D01*
X030119Y030363D01*
X030147Y030336D01*
X030172Y030306D01*
X030194Y030274D01*
X030212Y030240D01*
X030227Y030204D01*
X030239Y030167D01*
X030247Y030129D01*
X030251Y030090D01*
X030251Y030052D01*
X030247Y030013D01*
X030239Y029975D01*
X030227Y029938D01*
X030212Y029902D01*
X030194Y029868D01*
X030172Y029836D01*
X030147Y029806D01*
X030119Y029779D01*
X030089Y029754D01*
X030056Y029733D01*
X030021Y029716D01*
X029985Y029701D01*
X029948Y029691D01*
X029909Y029684D01*
X029871Y029681D01*
X029832Y029682D01*
X029793Y029687D01*
X029755Y029696D01*
X029719Y029708D01*
X029683Y029724D01*
X029649Y029743D01*
X029618Y029766D01*
X029589Y029792D01*
X029562Y029820D01*
X029539Y029851D01*
X029518Y029884D01*
X029502Y029920D01*
X029488Y029956D01*
X029479Y029994D01*
X029473Y030032D01*
X029471Y030071D01*
X029461Y029671D02*
X030261Y030471D01*
X033391Y033601D02*
X033391Y034001D01*
X033791Y034001D01*
X033791Y033201D01*
X032991Y033201D01*
X032991Y034001D01*
X033391Y034001D01*
X036391Y034001D02*
X036391Y033601D01*
X036391Y034001D02*
X036791Y034001D01*
X036791Y033201D01*
X035991Y033201D01*
X035991Y034001D01*
X036391Y034001D01*
X038391Y034001D02*
X038391Y033601D01*
X038391Y034001D02*
X038791Y034001D01*
X038791Y033201D01*
X037991Y033201D01*
X037991Y034001D01*
X038391Y034001D01*
X039391Y034001D02*
X039391Y033601D01*
X039391Y034001D02*
X039791Y034001D01*
X039791Y033201D01*
X038991Y033201D01*
X038991Y034001D01*
X039391Y034001D01*
X039391Y036601D02*
X039391Y037001D01*
X039791Y037001D01*
X039791Y036201D01*
X038991Y036201D01*
X038991Y037001D01*
X039391Y037001D01*
X033391Y037001D02*
X033391Y036601D01*
X033391Y037001D02*
X033791Y037001D01*
X033791Y036201D01*
X032991Y036201D01*
X032991Y037001D01*
X033391Y037001D01*
X029601Y035555D02*
X029603Y035594D01*
X029609Y035632D01*
X029618Y035670D01*
X029632Y035706D01*
X029648Y035742D01*
X029669Y035775D01*
X029692Y035806D01*
X029719Y035834D01*
X029748Y035860D01*
X029779Y035883D01*
X029813Y035902D01*
X029849Y035918D01*
X029885Y035930D01*
X029923Y035939D01*
X029962Y035944D01*
X030001Y035945D01*
X030039Y035942D01*
X030078Y035935D01*
X030115Y035925D01*
X030151Y035910D01*
X030186Y035893D01*
X030219Y035872D01*
X030249Y035847D01*
X030277Y035820D01*
X030302Y035790D01*
X030324Y035758D01*
X030342Y035724D01*
X030357Y035688D01*
X030369Y035651D01*
X030377Y035613D01*
X030381Y035574D01*
X030381Y035536D01*
X030377Y035497D01*
X030369Y035459D01*
X030357Y035422D01*
X030342Y035386D01*
X030324Y035352D01*
X030302Y035320D01*
X030277Y035290D01*
X030249Y035263D01*
X030219Y035238D01*
X030186Y035217D01*
X030151Y035200D01*
X030115Y035185D01*
X030078Y035175D01*
X030039Y035168D01*
X030001Y035165D01*
X029962Y035166D01*
X029923Y035171D01*
X029885Y035180D01*
X029849Y035192D01*
X029813Y035208D01*
X029779Y035227D01*
X029748Y035250D01*
X029719Y035276D01*
X029692Y035304D01*
X029669Y035335D01*
X029648Y035368D01*
X029632Y035404D01*
X029618Y035440D01*
X029609Y035478D01*
X029603Y035516D01*
X029601Y035555D01*
X029591Y035155D02*
X030391Y035955D01*
X021651Y032301D02*
X021653Y032340D01*
X021659Y032378D01*
X021668Y032416D01*
X021682Y032452D01*
X021698Y032488D01*
X021719Y032521D01*
X021742Y032552D01*
X021769Y032580D01*
X021798Y032606D01*
X021829Y032629D01*
X021863Y032648D01*
X021899Y032664D01*
X021935Y032676D01*
X021973Y032685D01*
X022012Y032690D01*
X022051Y032691D01*
X022089Y032688D01*
X022128Y032681D01*
X022165Y032671D01*
X022201Y032656D01*
X022236Y032639D01*
X022269Y032618D01*
X022299Y032593D01*
X022327Y032566D01*
X022352Y032536D01*
X022374Y032504D01*
X022392Y032470D01*
X022407Y032434D01*
X022419Y032397D01*
X022427Y032359D01*
X022431Y032320D01*
X022431Y032282D01*
X022427Y032243D01*
X022419Y032205D01*
X022407Y032168D01*
X022392Y032132D01*
X022374Y032098D01*
X022352Y032066D01*
X022327Y032036D01*
X022299Y032009D01*
X022269Y031984D01*
X022236Y031963D01*
X022201Y031946D01*
X022165Y031931D01*
X022128Y031921D01*
X022089Y031914D01*
X022051Y031911D01*
X022012Y031912D01*
X021973Y031917D01*
X021935Y031926D01*
X021899Y031938D01*
X021863Y031954D01*
X021829Y031973D01*
X021798Y031996D01*
X021769Y032022D01*
X021742Y032050D01*
X021719Y032081D01*
X021698Y032114D01*
X021682Y032150D01*
X021668Y032186D01*
X021659Y032224D01*
X021653Y032262D01*
X021651Y032301D01*
X021641Y031901D02*
X022441Y032701D01*
X021651Y031101D02*
X021653Y031140D01*
X021659Y031178D01*
X021668Y031216D01*
X021682Y031252D01*
X021698Y031288D01*
X021719Y031321D01*
X021742Y031352D01*
X021769Y031380D01*
X021798Y031406D01*
X021829Y031429D01*
X021863Y031448D01*
X021899Y031464D01*
X021935Y031476D01*
X021973Y031485D01*
X022012Y031490D01*
X022051Y031491D01*
X022089Y031488D01*
X022128Y031481D01*
X022165Y031471D01*
X022201Y031456D01*
X022236Y031439D01*
X022269Y031418D01*
X022299Y031393D01*
X022327Y031366D01*
X022352Y031336D01*
X022374Y031304D01*
X022392Y031270D01*
X022407Y031234D01*
X022419Y031197D01*
X022427Y031159D01*
X022431Y031120D01*
X022431Y031082D01*
X022427Y031043D01*
X022419Y031005D01*
X022407Y030968D01*
X022392Y030932D01*
X022374Y030898D01*
X022352Y030866D01*
X022327Y030836D01*
X022299Y030809D01*
X022269Y030784D01*
X022236Y030763D01*
X022201Y030746D01*
X022165Y030731D01*
X022128Y030721D01*
X022089Y030714D01*
X022051Y030711D01*
X022012Y030712D01*
X021973Y030717D01*
X021935Y030726D01*
X021899Y030738D01*
X021863Y030754D01*
X021829Y030773D01*
X021798Y030796D01*
X021769Y030822D01*
X021742Y030850D01*
X021719Y030881D01*
X021698Y030914D01*
X021682Y030950D01*
X021668Y030986D01*
X021659Y031024D01*
X021653Y031062D01*
X021651Y031101D01*
X021641Y030701D02*
X022441Y031501D01*
X020601Y029741D02*
X020603Y029780D01*
X020609Y029818D01*
X020618Y029856D01*
X020632Y029892D01*
X020648Y029928D01*
X020669Y029961D01*
X020692Y029992D01*
X020719Y030020D01*
X020748Y030046D01*
X020779Y030069D01*
X020813Y030088D01*
X020849Y030104D01*
X020885Y030116D01*
X020923Y030125D01*
X020962Y030130D01*
X021001Y030131D01*
X021039Y030128D01*
X021078Y030121D01*
X021115Y030111D01*
X021151Y030096D01*
X021186Y030079D01*
X021219Y030058D01*
X021249Y030033D01*
X021277Y030006D01*
X021302Y029976D01*
X021324Y029944D01*
X021342Y029910D01*
X021357Y029874D01*
X021369Y029837D01*
X021377Y029799D01*
X021381Y029760D01*
X021381Y029722D01*
X021377Y029683D01*
X021369Y029645D01*
X021357Y029608D01*
X021342Y029572D01*
X021324Y029538D01*
X021302Y029506D01*
X021277Y029476D01*
X021249Y029449D01*
X021219Y029424D01*
X021186Y029403D01*
X021151Y029386D01*
X021115Y029371D01*
X021078Y029361D01*
X021039Y029354D01*
X021001Y029351D01*
X020962Y029352D01*
X020923Y029357D01*
X020885Y029366D01*
X020849Y029378D01*
X020813Y029394D01*
X020779Y029413D01*
X020748Y029436D01*
X020719Y029462D01*
X020692Y029490D01*
X020669Y029521D01*
X020648Y029554D01*
X020632Y029590D01*
X020618Y029626D01*
X020609Y029664D01*
X020603Y029702D01*
X020601Y029741D01*
X020591Y029341D02*
X021391Y030141D01*
X018961Y029721D02*
X018963Y029760D01*
X018969Y029798D01*
X018978Y029836D01*
X018992Y029872D01*
X019008Y029908D01*
X019029Y029941D01*
X019052Y029972D01*
X019079Y030000D01*
X019108Y030026D01*
X019139Y030049D01*
X019173Y030068D01*
X019209Y030084D01*
X019245Y030096D01*
X019283Y030105D01*
X019322Y030110D01*
X019361Y030111D01*
X019399Y030108D01*
X019438Y030101D01*
X019475Y030091D01*
X019511Y030076D01*
X019546Y030059D01*
X019579Y030038D01*
X019609Y030013D01*
X019637Y029986D01*
X019662Y029956D01*
X019684Y029924D01*
X019702Y029890D01*
X019717Y029854D01*
X019729Y029817D01*
X019737Y029779D01*
X019741Y029740D01*
X019741Y029702D01*
X019737Y029663D01*
X019729Y029625D01*
X019717Y029588D01*
X019702Y029552D01*
X019684Y029518D01*
X019662Y029486D01*
X019637Y029456D01*
X019609Y029429D01*
X019579Y029404D01*
X019546Y029383D01*
X019511Y029366D01*
X019475Y029351D01*
X019438Y029341D01*
X019399Y029334D01*
X019361Y029331D01*
X019322Y029332D01*
X019283Y029337D01*
X019245Y029346D01*
X019209Y029358D01*
X019173Y029374D01*
X019139Y029393D01*
X019108Y029416D01*
X019079Y029442D01*
X019052Y029470D01*
X019029Y029501D01*
X019008Y029534D01*
X018992Y029570D01*
X018978Y029606D01*
X018969Y029644D01*
X018963Y029682D01*
X018961Y029721D01*
X018951Y029321D02*
X019751Y030121D01*
X018601Y032221D02*
X018603Y032260D01*
X018609Y032298D01*
X018618Y032336D01*
X018632Y032372D01*
X018648Y032408D01*
X018669Y032441D01*
X018692Y032472D01*
X018719Y032500D01*
X018748Y032526D01*
X018779Y032549D01*
X018813Y032568D01*
X018849Y032584D01*
X018885Y032596D01*
X018923Y032605D01*
X018962Y032610D01*
X019001Y032611D01*
X019039Y032608D01*
X019078Y032601D01*
X019115Y032591D01*
X019151Y032576D01*
X019186Y032559D01*
X019219Y032538D01*
X019249Y032513D01*
X019277Y032486D01*
X019302Y032456D01*
X019324Y032424D01*
X019342Y032390D01*
X019357Y032354D01*
X019369Y032317D01*
X019377Y032279D01*
X019381Y032240D01*
X019381Y032202D01*
X019377Y032163D01*
X019369Y032125D01*
X019357Y032088D01*
X019342Y032052D01*
X019324Y032018D01*
X019302Y031986D01*
X019277Y031956D01*
X019249Y031929D01*
X019219Y031904D01*
X019186Y031883D01*
X019151Y031866D01*
X019115Y031851D01*
X019078Y031841D01*
X019039Y031834D01*
X019001Y031831D01*
X018962Y031832D01*
X018923Y031837D01*
X018885Y031846D01*
X018849Y031858D01*
X018813Y031874D01*
X018779Y031893D01*
X018748Y031916D01*
X018719Y031942D01*
X018692Y031970D01*
X018669Y032001D01*
X018648Y032034D01*
X018632Y032070D01*
X018618Y032106D01*
X018609Y032144D01*
X018603Y032182D01*
X018601Y032221D01*
X018591Y031821D02*
X019391Y032621D01*
X016171Y031091D02*
X016173Y031130D01*
X016179Y031168D01*
X016188Y031206D01*
X016202Y031242D01*
X016218Y031278D01*
X016239Y031311D01*
X016262Y031342D01*
X016289Y031370D01*
X016318Y031396D01*
X016349Y031419D01*
X016383Y031438D01*
X016419Y031454D01*
X016455Y031466D01*
X016493Y031475D01*
X016532Y031480D01*
X016571Y031481D01*
X016609Y031478D01*
X016648Y031471D01*
X016685Y031461D01*
X016721Y031446D01*
X016756Y031429D01*
X016789Y031408D01*
X016819Y031383D01*
X016847Y031356D01*
X016872Y031326D01*
X016894Y031294D01*
X016912Y031260D01*
X016927Y031224D01*
X016939Y031187D01*
X016947Y031149D01*
X016951Y031110D01*
X016951Y031072D01*
X016947Y031033D01*
X016939Y030995D01*
X016927Y030958D01*
X016912Y030922D01*
X016894Y030888D01*
X016872Y030856D01*
X016847Y030826D01*
X016819Y030799D01*
X016789Y030774D01*
X016756Y030753D01*
X016721Y030736D01*
X016685Y030721D01*
X016648Y030711D01*
X016609Y030704D01*
X016571Y030701D01*
X016532Y030702D01*
X016493Y030707D01*
X016455Y030716D01*
X016419Y030728D01*
X016383Y030744D01*
X016349Y030763D01*
X016318Y030786D01*
X016289Y030812D01*
X016262Y030840D01*
X016239Y030871D01*
X016218Y030904D01*
X016202Y030940D01*
X016188Y030976D01*
X016179Y031014D01*
X016173Y031052D01*
X016171Y031091D01*
X016161Y030691D02*
X016961Y031491D01*
X011271Y027211D02*
X011273Y027250D01*
X011279Y027288D01*
X011288Y027326D01*
X011302Y027362D01*
X011318Y027398D01*
X011339Y027431D01*
X011362Y027462D01*
X011389Y027490D01*
X011418Y027516D01*
X011449Y027539D01*
X011483Y027558D01*
X011519Y027574D01*
X011555Y027586D01*
X011593Y027595D01*
X011632Y027600D01*
X011671Y027601D01*
X011709Y027598D01*
X011748Y027591D01*
X011785Y027581D01*
X011821Y027566D01*
X011856Y027549D01*
X011889Y027528D01*
X011919Y027503D01*
X011947Y027476D01*
X011972Y027446D01*
X011994Y027414D01*
X012012Y027380D01*
X012027Y027344D01*
X012039Y027307D01*
X012047Y027269D01*
X012051Y027230D01*
X012051Y027192D01*
X012047Y027153D01*
X012039Y027115D01*
X012027Y027078D01*
X012012Y027042D01*
X011994Y027008D01*
X011972Y026976D01*
X011947Y026946D01*
X011919Y026919D01*
X011889Y026894D01*
X011856Y026873D01*
X011821Y026856D01*
X011785Y026841D01*
X011748Y026831D01*
X011709Y026824D01*
X011671Y026821D01*
X011632Y026822D01*
X011593Y026827D01*
X011555Y026836D01*
X011519Y026848D01*
X011483Y026864D01*
X011449Y026883D01*
X011418Y026906D01*
X011389Y026932D01*
X011362Y026960D01*
X011339Y026991D01*
X011318Y027024D01*
X011302Y027060D01*
X011288Y027096D01*
X011279Y027134D01*
X011273Y027172D01*
X011271Y027211D01*
X011261Y026811D02*
X012061Y027611D01*
X011891Y025741D02*
X011893Y025780D01*
X011899Y025818D01*
X011908Y025856D01*
X011922Y025892D01*
X011938Y025928D01*
X011959Y025961D01*
X011982Y025992D01*
X012009Y026020D01*
X012038Y026046D01*
X012069Y026069D01*
X012103Y026088D01*
X012139Y026104D01*
X012175Y026116D01*
X012213Y026125D01*
X012252Y026130D01*
X012291Y026131D01*
X012329Y026128D01*
X012368Y026121D01*
X012405Y026111D01*
X012441Y026096D01*
X012476Y026079D01*
X012509Y026058D01*
X012539Y026033D01*
X012567Y026006D01*
X012592Y025976D01*
X012614Y025944D01*
X012632Y025910D01*
X012647Y025874D01*
X012659Y025837D01*
X012667Y025799D01*
X012671Y025760D01*
X012671Y025722D01*
X012667Y025683D01*
X012659Y025645D01*
X012647Y025608D01*
X012632Y025572D01*
X012614Y025538D01*
X012592Y025506D01*
X012567Y025476D01*
X012539Y025449D01*
X012509Y025424D01*
X012476Y025403D01*
X012441Y025386D01*
X012405Y025371D01*
X012368Y025361D01*
X012329Y025354D01*
X012291Y025351D01*
X012252Y025352D01*
X012213Y025357D01*
X012175Y025366D01*
X012139Y025378D01*
X012103Y025394D01*
X012069Y025413D01*
X012038Y025436D01*
X012009Y025462D01*
X011982Y025490D01*
X011959Y025521D01*
X011938Y025554D01*
X011922Y025590D01*
X011908Y025626D01*
X011899Y025664D01*
X011893Y025702D01*
X011891Y025741D01*
X011881Y025341D02*
X012681Y026141D01*
X010461Y025171D02*
X010463Y025210D01*
X010469Y025248D01*
X010478Y025286D01*
X010492Y025322D01*
X010508Y025358D01*
X010529Y025391D01*
X010552Y025422D01*
X010579Y025450D01*
X010608Y025476D01*
X010639Y025499D01*
X010673Y025518D01*
X010709Y025534D01*
X010745Y025546D01*
X010783Y025555D01*
X010822Y025560D01*
X010861Y025561D01*
X010899Y025558D01*
X010938Y025551D01*
X010975Y025541D01*
X011011Y025526D01*
X011046Y025509D01*
X011079Y025488D01*
X011109Y025463D01*
X011137Y025436D01*
X011162Y025406D01*
X011184Y025374D01*
X011202Y025340D01*
X011217Y025304D01*
X011229Y025267D01*
X011237Y025229D01*
X011241Y025190D01*
X011241Y025152D01*
X011237Y025113D01*
X011229Y025075D01*
X011217Y025038D01*
X011202Y025002D01*
X011184Y024968D01*
X011162Y024936D01*
X011137Y024906D01*
X011109Y024879D01*
X011079Y024854D01*
X011046Y024833D01*
X011011Y024816D01*
X010975Y024801D01*
X010938Y024791D01*
X010899Y024784D01*
X010861Y024781D01*
X010822Y024782D01*
X010783Y024787D01*
X010745Y024796D01*
X010709Y024808D01*
X010673Y024824D01*
X010639Y024843D01*
X010608Y024866D01*
X010579Y024892D01*
X010552Y024920D01*
X010529Y024951D01*
X010508Y024984D01*
X010492Y025020D01*
X010478Y025056D01*
X010469Y025094D01*
X010463Y025132D01*
X010461Y025171D01*
X010451Y024771D02*
X011251Y025571D01*
X008671Y023691D02*
X008673Y023730D01*
X008679Y023768D01*
X008688Y023806D01*
X008702Y023842D01*
X008718Y023878D01*
X008739Y023911D01*
X008762Y023942D01*
X008789Y023970D01*
X008818Y023996D01*
X008849Y024019D01*
X008883Y024038D01*
X008919Y024054D01*
X008955Y024066D01*
X008993Y024075D01*
X009032Y024080D01*
X009071Y024081D01*
X009109Y024078D01*
X009148Y024071D01*
X009185Y024061D01*
X009221Y024046D01*
X009256Y024029D01*
X009289Y024008D01*
X009319Y023983D01*
X009347Y023956D01*
X009372Y023926D01*
X009394Y023894D01*
X009412Y023860D01*
X009427Y023824D01*
X009439Y023787D01*
X009447Y023749D01*
X009451Y023710D01*
X009451Y023672D01*
X009447Y023633D01*
X009439Y023595D01*
X009427Y023558D01*
X009412Y023522D01*
X009394Y023488D01*
X009372Y023456D01*
X009347Y023426D01*
X009319Y023399D01*
X009289Y023374D01*
X009256Y023353D01*
X009221Y023336D01*
X009185Y023321D01*
X009148Y023311D01*
X009109Y023304D01*
X009071Y023301D01*
X009032Y023302D01*
X008993Y023307D01*
X008955Y023316D01*
X008919Y023328D01*
X008883Y023344D01*
X008849Y023363D01*
X008818Y023386D01*
X008789Y023412D01*
X008762Y023440D01*
X008739Y023471D01*
X008718Y023504D01*
X008702Y023540D01*
X008688Y023576D01*
X008679Y023614D01*
X008673Y023652D01*
X008671Y023691D01*
X008661Y023291D02*
X009461Y024091D01*
X007501Y024071D02*
X007503Y024110D01*
X007509Y024148D01*
X007518Y024186D01*
X007532Y024222D01*
X007548Y024258D01*
X007569Y024291D01*
X007592Y024322D01*
X007619Y024350D01*
X007648Y024376D01*
X007679Y024399D01*
X007713Y024418D01*
X007749Y024434D01*
X007785Y024446D01*
X007823Y024455D01*
X007862Y024460D01*
X007901Y024461D01*
X007939Y024458D01*
X007978Y024451D01*
X008015Y024441D01*
X008051Y024426D01*
X008086Y024409D01*
X008119Y024388D01*
X008149Y024363D01*
X008177Y024336D01*
X008202Y024306D01*
X008224Y024274D01*
X008242Y024240D01*
X008257Y024204D01*
X008269Y024167D01*
X008277Y024129D01*
X008281Y024090D01*
X008281Y024052D01*
X008277Y024013D01*
X008269Y023975D01*
X008257Y023938D01*
X008242Y023902D01*
X008224Y023868D01*
X008202Y023836D01*
X008177Y023806D01*
X008149Y023779D01*
X008119Y023754D01*
X008086Y023733D01*
X008051Y023716D01*
X008015Y023701D01*
X007978Y023691D01*
X007939Y023684D01*
X007901Y023681D01*
X007862Y023682D01*
X007823Y023687D01*
X007785Y023696D01*
X007749Y023708D01*
X007713Y023724D01*
X007679Y023743D01*
X007648Y023766D01*
X007619Y023792D01*
X007592Y023820D01*
X007569Y023851D01*
X007548Y023884D01*
X007532Y023920D01*
X007518Y023956D01*
X007509Y023994D01*
X007503Y024032D01*
X007501Y024071D01*
X007491Y023671D02*
X008291Y024471D01*
X009081Y022491D02*
X009083Y022530D01*
X009089Y022568D01*
X009098Y022606D01*
X009112Y022642D01*
X009128Y022678D01*
X009149Y022711D01*
X009172Y022742D01*
X009199Y022770D01*
X009228Y022796D01*
X009259Y022819D01*
X009293Y022838D01*
X009329Y022854D01*
X009365Y022866D01*
X009403Y022875D01*
X009442Y022880D01*
X009481Y022881D01*
X009519Y022878D01*
X009558Y022871D01*
X009595Y022861D01*
X009631Y022846D01*
X009666Y022829D01*
X009699Y022808D01*
X009729Y022783D01*
X009757Y022756D01*
X009782Y022726D01*
X009804Y022694D01*
X009822Y022660D01*
X009837Y022624D01*
X009849Y022587D01*
X009857Y022549D01*
X009861Y022510D01*
X009861Y022472D01*
X009857Y022433D01*
X009849Y022395D01*
X009837Y022358D01*
X009822Y022322D01*
X009804Y022288D01*
X009782Y022256D01*
X009757Y022226D01*
X009729Y022199D01*
X009699Y022174D01*
X009666Y022153D01*
X009631Y022136D01*
X009595Y022121D01*
X009558Y022111D01*
X009519Y022104D01*
X009481Y022101D01*
X009442Y022102D01*
X009403Y022107D01*
X009365Y022116D01*
X009329Y022128D01*
X009293Y022144D01*
X009259Y022163D01*
X009228Y022186D01*
X009199Y022212D01*
X009172Y022240D01*
X009149Y022271D01*
X009128Y022304D01*
X009112Y022340D01*
X009098Y022376D01*
X009089Y022414D01*
X009083Y022452D01*
X009081Y022491D01*
X009071Y022091D02*
X009871Y022891D01*
X011591Y021831D02*
X011593Y021870D01*
X011599Y021908D01*
X011608Y021946D01*
X011622Y021982D01*
X011638Y022018D01*
X011659Y022051D01*
X011682Y022082D01*
X011709Y022110D01*
X011738Y022136D01*
X011769Y022159D01*
X011803Y022178D01*
X011839Y022194D01*
X011875Y022206D01*
X011913Y022215D01*
X011952Y022220D01*
X011991Y022221D01*
X012029Y022218D01*
X012068Y022211D01*
X012105Y022201D01*
X012141Y022186D01*
X012176Y022169D01*
X012209Y022148D01*
X012239Y022123D01*
X012267Y022096D01*
X012292Y022066D01*
X012314Y022034D01*
X012332Y022000D01*
X012347Y021964D01*
X012359Y021927D01*
X012367Y021889D01*
X012371Y021850D01*
X012371Y021812D01*
X012367Y021773D01*
X012359Y021735D01*
X012347Y021698D01*
X012332Y021662D01*
X012314Y021628D01*
X012292Y021596D01*
X012267Y021566D01*
X012239Y021539D01*
X012209Y021514D01*
X012176Y021493D01*
X012141Y021476D01*
X012105Y021461D01*
X012068Y021451D01*
X012029Y021444D01*
X011991Y021441D01*
X011952Y021442D01*
X011913Y021447D01*
X011875Y021456D01*
X011839Y021468D01*
X011803Y021484D01*
X011769Y021503D01*
X011738Y021526D01*
X011709Y021552D01*
X011682Y021580D01*
X011659Y021611D01*
X011638Y021644D01*
X011622Y021680D01*
X011608Y021716D01*
X011599Y021754D01*
X011593Y021792D01*
X011591Y021831D01*
X011581Y021431D02*
X012381Y022231D01*
X012381Y022551D02*
X012383Y022590D01*
X012389Y022628D01*
X012398Y022666D01*
X012412Y022702D01*
X012428Y022738D01*
X012449Y022771D01*
X012472Y022802D01*
X012499Y022830D01*
X012528Y022856D01*
X012559Y022879D01*
X012593Y022898D01*
X012629Y022914D01*
X012665Y022926D01*
X012703Y022935D01*
X012742Y022940D01*
X012781Y022941D01*
X012819Y022938D01*
X012858Y022931D01*
X012895Y022921D01*
X012931Y022906D01*
X012966Y022889D01*
X012999Y022868D01*
X013029Y022843D01*
X013057Y022816D01*
X013082Y022786D01*
X013104Y022754D01*
X013122Y022720D01*
X013137Y022684D01*
X013149Y022647D01*
X013157Y022609D01*
X013161Y022570D01*
X013161Y022532D01*
X013157Y022493D01*
X013149Y022455D01*
X013137Y022418D01*
X013122Y022382D01*
X013104Y022348D01*
X013082Y022316D01*
X013057Y022286D01*
X013029Y022259D01*
X012999Y022234D01*
X012966Y022213D01*
X012931Y022196D01*
X012895Y022181D01*
X012858Y022171D01*
X012819Y022164D01*
X012781Y022161D01*
X012742Y022162D01*
X012703Y022167D01*
X012665Y022176D01*
X012629Y022188D01*
X012593Y022204D01*
X012559Y022223D01*
X012528Y022246D01*
X012499Y022272D01*
X012472Y022300D01*
X012449Y022331D01*
X012428Y022364D01*
X012412Y022400D01*
X012398Y022436D01*
X012389Y022474D01*
X012383Y022512D01*
X012381Y022551D01*
X012371Y022151D02*
X013171Y022951D01*
X012381Y023461D02*
X012383Y023500D01*
X012389Y023538D01*
X012398Y023576D01*
X012412Y023612D01*
X012428Y023648D01*
X012449Y023681D01*
X012472Y023712D01*
X012499Y023740D01*
X012528Y023766D01*
X012559Y023789D01*
X012593Y023808D01*
X012629Y023824D01*
X012665Y023836D01*
X012703Y023845D01*
X012742Y023850D01*
X012781Y023851D01*
X012819Y023848D01*
X012858Y023841D01*
X012895Y023831D01*
X012931Y023816D01*
X012966Y023799D01*
X012999Y023778D01*
X013029Y023753D01*
X013057Y023726D01*
X013082Y023696D01*
X013104Y023664D01*
X013122Y023630D01*
X013137Y023594D01*
X013149Y023557D01*
X013157Y023519D01*
X013161Y023480D01*
X013161Y023442D01*
X013157Y023403D01*
X013149Y023365D01*
X013137Y023328D01*
X013122Y023292D01*
X013104Y023258D01*
X013082Y023226D01*
X013057Y023196D01*
X013029Y023169D01*
X012999Y023144D01*
X012966Y023123D01*
X012931Y023106D01*
X012895Y023091D01*
X012858Y023081D01*
X012819Y023074D01*
X012781Y023071D01*
X012742Y023072D01*
X012703Y023077D01*
X012665Y023086D01*
X012629Y023098D01*
X012593Y023114D01*
X012559Y023133D01*
X012528Y023156D01*
X012499Y023182D01*
X012472Y023210D01*
X012449Y023241D01*
X012428Y023274D01*
X012412Y023310D01*
X012398Y023346D01*
X012389Y023384D01*
X012383Y023422D01*
X012381Y023461D01*
X012371Y023061D02*
X013171Y023861D01*
X018261Y021231D02*
X018263Y021270D01*
X018269Y021308D01*
X018278Y021346D01*
X018292Y021382D01*
X018308Y021418D01*
X018329Y021451D01*
X018352Y021482D01*
X018379Y021510D01*
X018408Y021536D01*
X018439Y021559D01*
X018473Y021578D01*
X018509Y021594D01*
X018545Y021606D01*
X018583Y021615D01*
X018622Y021620D01*
X018661Y021621D01*
X018699Y021618D01*
X018738Y021611D01*
X018775Y021601D01*
X018811Y021586D01*
X018846Y021569D01*
X018879Y021548D01*
X018909Y021523D01*
X018937Y021496D01*
X018962Y021466D01*
X018984Y021434D01*
X019002Y021400D01*
X019017Y021364D01*
X019029Y021327D01*
X019037Y021289D01*
X019041Y021250D01*
X019041Y021212D01*
X019037Y021173D01*
X019029Y021135D01*
X019017Y021098D01*
X019002Y021062D01*
X018984Y021028D01*
X018962Y020996D01*
X018937Y020966D01*
X018909Y020939D01*
X018879Y020914D01*
X018846Y020893D01*
X018811Y020876D01*
X018775Y020861D01*
X018738Y020851D01*
X018699Y020844D01*
X018661Y020841D01*
X018622Y020842D01*
X018583Y020847D01*
X018545Y020856D01*
X018509Y020868D01*
X018473Y020884D01*
X018439Y020903D01*
X018408Y020926D01*
X018379Y020952D01*
X018352Y020980D01*
X018329Y021011D01*
X018308Y021044D01*
X018292Y021080D01*
X018278Y021116D01*
X018269Y021154D01*
X018263Y021192D01*
X018261Y021231D01*
X018251Y020831D02*
X019051Y021631D01*
X019171Y020211D02*
X019173Y020250D01*
X019179Y020288D01*
X019188Y020326D01*
X019202Y020362D01*
X019218Y020398D01*
X019239Y020431D01*
X019262Y020462D01*
X019289Y020490D01*
X019318Y020516D01*
X019349Y020539D01*
X019383Y020558D01*
X019419Y020574D01*
X019455Y020586D01*
X019493Y020595D01*
X019532Y020600D01*
X019571Y020601D01*
X019609Y020598D01*
X019648Y020591D01*
X019685Y020581D01*
X019721Y020566D01*
X019756Y020549D01*
X019789Y020528D01*
X019819Y020503D01*
X019847Y020476D01*
X019872Y020446D01*
X019894Y020414D01*
X019912Y020380D01*
X019927Y020344D01*
X019939Y020307D01*
X019947Y020269D01*
X019951Y020230D01*
X019951Y020192D01*
X019947Y020153D01*
X019939Y020115D01*
X019927Y020078D01*
X019912Y020042D01*
X019894Y020008D01*
X019872Y019976D01*
X019847Y019946D01*
X019819Y019919D01*
X019789Y019894D01*
X019756Y019873D01*
X019721Y019856D01*
X019685Y019841D01*
X019648Y019831D01*
X019609Y019824D01*
X019571Y019821D01*
X019532Y019822D01*
X019493Y019827D01*
X019455Y019836D01*
X019419Y019848D01*
X019383Y019864D01*
X019349Y019883D01*
X019318Y019906D01*
X019289Y019932D01*
X019262Y019960D01*
X019239Y019991D01*
X019218Y020024D01*
X019202Y020060D01*
X019188Y020096D01*
X019179Y020134D01*
X019173Y020172D01*
X019171Y020211D01*
X019161Y019811D02*
X019961Y020611D01*
X021231Y020901D02*
X021233Y020940D01*
X021239Y020978D01*
X021248Y021016D01*
X021262Y021052D01*
X021278Y021088D01*
X021299Y021121D01*
X021322Y021152D01*
X021349Y021180D01*
X021378Y021206D01*
X021409Y021229D01*
X021443Y021248D01*
X021479Y021264D01*
X021515Y021276D01*
X021553Y021285D01*
X021592Y021290D01*
X021631Y021291D01*
X021669Y021288D01*
X021708Y021281D01*
X021745Y021271D01*
X021781Y021256D01*
X021816Y021239D01*
X021849Y021218D01*
X021879Y021193D01*
X021907Y021166D01*
X021932Y021136D01*
X021954Y021104D01*
X021972Y021070D01*
X021987Y021034D01*
X021999Y020997D01*
X022007Y020959D01*
X022011Y020920D01*
X022011Y020882D01*
X022007Y020843D01*
X021999Y020805D01*
X021987Y020768D01*
X021972Y020732D01*
X021954Y020698D01*
X021932Y020666D01*
X021907Y020636D01*
X021879Y020609D01*
X021849Y020584D01*
X021816Y020563D01*
X021781Y020546D01*
X021745Y020531D01*
X021708Y020521D01*
X021669Y020514D01*
X021631Y020511D01*
X021592Y020512D01*
X021553Y020517D01*
X021515Y020526D01*
X021479Y020538D01*
X021443Y020554D01*
X021409Y020573D01*
X021378Y020596D01*
X021349Y020622D01*
X021322Y020650D01*
X021299Y020681D01*
X021278Y020714D01*
X021262Y020750D01*
X021248Y020786D01*
X021239Y020824D01*
X021233Y020862D01*
X021231Y020901D01*
X021221Y020501D02*
X022021Y021301D01*
X022191Y018681D02*
X021391Y018681D01*
X021791Y018281D02*
X021791Y019081D01*
X021401Y018681D02*
X021403Y018720D01*
X021409Y018758D01*
X021418Y018796D01*
X021432Y018832D01*
X021448Y018868D01*
X021469Y018901D01*
X021492Y018932D01*
X021519Y018960D01*
X021548Y018986D01*
X021579Y019009D01*
X021613Y019028D01*
X021649Y019044D01*
X021685Y019056D01*
X021723Y019065D01*
X021762Y019070D01*
X021801Y019071D01*
X021839Y019068D01*
X021878Y019061D01*
X021915Y019051D01*
X021951Y019036D01*
X021986Y019019D01*
X022019Y018998D01*
X022049Y018973D01*
X022077Y018946D01*
X022102Y018916D01*
X022124Y018884D01*
X022142Y018850D01*
X022157Y018814D01*
X022169Y018777D01*
X022177Y018739D01*
X022181Y018700D01*
X022181Y018662D01*
X022177Y018623D01*
X022169Y018585D01*
X022157Y018548D01*
X022142Y018512D01*
X022124Y018478D01*
X022102Y018446D01*
X022077Y018416D01*
X022049Y018389D01*
X022019Y018364D01*
X021986Y018343D01*
X021951Y018326D01*
X021915Y018311D01*
X021878Y018301D01*
X021839Y018294D01*
X021801Y018291D01*
X021762Y018292D01*
X021723Y018297D01*
X021685Y018306D01*
X021649Y018318D01*
X021613Y018334D01*
X021579Y018353D01*
X021548Y018376D01*
X021519Y018402D01*
X021492Y018430D01*
X021469Y018461D01*
X021448Y018494D01*
X021432Y018530D01*
X021418Y018566D01*
X021409Y018604D01*
X021403Y018642D01*
X021401Y018681D01*
X021793Y017249D02*
X020993Y016449D01*
X021793Y016449D02*
X021793Y017249D01*
X021793Y016449D02*
X020993Y017249D01*
X020993Y016449D01*
X018593Y017249D02*
X017793Y016449D01*
X018593Y016449D02*
X018593Y017249D01*
X018593Y016449D02*
X017793Y017249D01*
X017793Y016449D01*
X015621Y017941D02*
X015623Y017980D01*
X015629Y018018D01*
X015638Y018056D01*
X015652Y018092D01*
X015668Y018128D01*
X015689Y018161D01*
X015712Y018192D01*
X015739Y018220D01*
X015768Y018246D01*
X015799Y018269D01*
X015833Y018288D01*
X015869Y018304D01*
X015905Y018316D01*
X015943Y018325D01*
X015982Y018330D01*
X016021Y018331D01*
X016059Y018328D01*
X016098Y018321D01*
X016135Y018311D01*
X016171Y018296D01*
X016206Y018279D01*
X016239Y018258D01*
X016269Y018233D01*
X016297Y018206D01*
X016322Y018176D01*
X016344Y018144D01*
X016362Y018110D01*
X016377Y018074D01*
X016389Y018037D01*
X016397Y017999D01*
X016401Y017960D01*
X016401Y017922D01*
X016397Y017883D01*
X016389Y017845D01*
X016377Y017808D01*
X016362Y017772D01*
X016344Y017738D01*
X016322Y017706D01*
X016297Y017676D01*
X016269Y017649D01*
X016239Y017624D01*
X016206Y017603D01*
X016171Y017586D01*
X016135Y017571D01*
X016098Y017561D01*
X016059Y017554D01*
X016021Y017551D01*
X015982Y017552D01*
X015943Y017557D01*
X015905Y017566D01*
X015869Y017578D01*
X015833Y017594D01*
X015799Y017613D01*
X015768Y017636D01*
X015739Y017662D01*
X015712Y017690D01*
X015689Y017721D01*
X015668Y017754D01*
X015652Y017790D01*
X015638Y017826D01*
X015629Y017864D01*
X015623Y017902D01*
X015621Y017941D01*
X015611Y017541D02*
X016411Y018341D01*
X014071Y019581D02*
X014073Y019620D01*
X014079Y019658D01*
X014088Y019696D01*
X014102Y019732D01*
X014118Y019768D01*
X014139Y019801D01*
X014162Y019832D01*
X014189Y019860D01*
X014218Y019886D01*
X014249Y019909D01*
X014283Y019928D01*
X014319Y019944D01*
X014355Y019956D01*
X014393Y019965D01*
X014432Y019970D01*
X014471Y019971D01*
X014509Y019968D01*
X014548Y019961D01*
X014585Y019951D01*
X014621Y019936D01*
X014656Y019919D01*
X014689Y019898D01*
X014719Y019873D01*
X014747Y019846D01*
X014772Y019816D01*
X014794Y019784D01*
X014812Y019750D01*
X014827Y019714D01*
X014839Y019677D01*
X014847Y019639D01*
X014851Y019600D01*
X014851Y019562D01*
X014847Y019523D01*
X014839Y019485D01*
X014827Y019448D01*
X014812Y019412D01*
X014794Y019378D01*
X014772Y019346D01*
X014747Y019316D01*
X014719Y019289D01*
X014689Y019264D01*
X014656Y019243D01*
X014621Y019226D01*
X014585Y019211D01*
X014548Y019201D01*
X014509Y019194D01*
X014471Y019191D01*
X014432Y019192D01*
X014393Y019197D01*
X014355Y019206D01*
X014319Y019218D01*
X014283Y019234D01*
X014249Y019253D01*
X014218Y019276D01*
X014189Y019302D01*
X014162Y019330D01*
X014139Y019361D01*
X014118Y019394D01*
X014102Y019430D01*
X014088Y019466D01*
X014079Y019504D01*
X014073Y019542D01*
X014071Y019581D01*
X014061Y019181D02*
X014861Y019981D01*
X012211Y019811D02*
X012213Y019850D01*
X012219Y019888D01*
X012228Y019926D01*
X012242Y019962D01*
X012258Y019998D01*
X012279Y020031D01*
X012302Y020062D01*
X012329Y020090D01*
X012358Y020116D01*
X012389Y020139D01*
X012423Y020158D01*
X012459Y020174D01*
X012495Y020186D01*
X012533Y020195D01*
X012572Y020200D01*
X012611Y020201D01*
X012649Y020198D01*
X012688Y020191D01*
X012725Y020181D01*
X012761Y020166D01*
X012796Y020149D01*
X012829Y020128D01*
X012859Y020103D01*
X012887Y020076D01*
X012912Y020046D01*
X012934Y020014D01*
X012952Y019980D01*
X012967Y019944D01*
X012979Y019907D01*
X012987Y019869D01*
X012991Y019830D01*
X012991Y019792D01*
X012987Y019753D01*
X012979Y019715D01*
X012967Y019678D01*
X012952Y019642D01*
X012934Y019608D01*
X012912Y019576D01*
X012887Y019546D01*
X012859Y019519D01*
X012829Y019494D01*
X012796Y019473D01*
X012761Y019456D01*
X012725Y019441D01*
X012688Y019431D01*
X012649Y019424D01*
X012611Y019421D01*
X012572Y019422D01*
X012533Y019427D01*
X012495Y019436D01*
X012459Y019448D01*
X012423Y019464D01*
X012389Y019483D01*
X012358Y019506D01*
X012329Y019532D01*
X012302Y019560D01*
X012279Y019591D01*
X012258Y019624D01*
X012242Y019660D01*
X012228Y019696D01*
X012219Y019734D01*
X012213Y019772D01*
X012211Y019811D01*
X012201Y019411D02*
X013001Y020211D01*
X009071Y018051D02*
X009073Y018090D01*
X009079Y018128D01*
X009088Y018166D01*
X009102Y018202D01*
X009118Y018238D01*
X009139Y018271D01*
X009162Y018302D01*
X009189Y018330D01*
X009218Y018356D01*
X009249Y018379D01*
X009283Y018398D01*
X009319Y018414D01*
X009355Y018426D01*
X009393Y018435D01*
X009432Y018440D01*
X009471Y018441D01*
X009509Y018438D01*
X009548Y018431D01*
X009585Y018421D01*
X009621Y018406D01*
X009656Y018389D01*
X009689Y018368D01*
X009719Y018343D01*
X009747Y018316D01*
X009772Y018286D01*
X009794Y018254D01*
X009812Y018220D01*
X009827Y018184D01*
X009839Y018147D01*
X009847Y018109D01*
X009851Y018070D01*
X009851Y018032D01*
X009847Y017993D01*
X009839Y017955D01*
X009827Y017918D01*
X009812Y017882D01*
X009794Y017848D01*
X009772Y017816D01*
X009747Y017786D01*
X009719Y017759D01*
X009689Y017734D01*
X009656Y017713D01*
X009621Y017696D01*
X009585Y017681D01*
X009548Y017671D01*
X009509Y017664D01*
X009471Y017661D01*
X009432Y017662D01*
X009393Y017667D01*
X009355Y017676D01*
X009319Y017688D01*
X009283Y017704D01*
X009249Y017723D01*
X009218Y017746D01*
X009189Y017772D01*
X009162Y017800D01*
X009139Y017831D01*
X009118Y017864D01*
X009102Y017900D01*
X009088Y017936D01*
X009079Y017974D01*
X009073Y018012D01*
X009071Y018051D01*
X009061Y017651D02*
X009861Y018451D01*
X011170Y017234D02*
X010370Y016434D01*
X011170Y016434D02*
X011170Y017234D01*
X011170Y016434D02*
X010370Y017234D01*
X010370Y016434D01*
X013570Y016434D02*
X014370Y017234D01*
X014370Y016434D01*
X013570Y017234D01*
X013570Y016434D01*
X002901Y022741D02*
X002903Y022780D01*
X002909Y022818D01*
X002918Y022856D01*
X002932Y022892D01*
X002948Y022928D01*
X002969Y022961D01*
X002992Y022992D01*
X003019Y023020D01*
X003048Y023046D01*
X003079Y023069D01*
X003113Y023088D01*
X003149Y023104D01*
X003185Y023116D01*
X003223Y023125D01*
X003262Y023130D01*
X003301Y023131D01*
X003339Y023128D01*
X003378Y023121D01*
X003415Y023111D01*
X003451Y023096D01*
X003486Y023079D01*
X003519Y023058D01*
X003549Y023033D01*
X003577Y023006D01*
X003602Y022976D01*
X003624Y022944D01*
X003642Y022910D01*
X003657Y022874D01*
X003669Y022837D01*
X003677Y022799D01*
X003681Y022760D01*
X003681Y022722D01*
X003677Y022683D01*
X003669Y022645D01*
X003657Y022608D01*
X003642Y022572D01*
X003624Y022538D01*
X003602Y022506D01*
X003577Y022476D01*
X003549Y022449D01*
X003519Y022424D01*
X003486Y022403D01*
X003451Y022386D01*
X003415Y022371D01*
X003378Y022361D01*
X003339Y022354D01*
X003301Y022351D01*
X003262Y022352D01*
X003223Y022357D01*
X003185Y022366D01*
X003149Y022378D01*
X003113Y022394D01*
X003079Y022413D01*
X003048Y022436D01*
X003019Y022462D01*
X002992Y022490D01*
X002969Y022521D01*
X002948Y022554D01*
X002932Y022590D01*
X002918Y022626D01*
X002909Y022664D01*
X002903Y022702D01*
X002901Y022741D01*
X002891Y022341D02*
X003691Y023141D01*
X002901Y023741D02*
X002903Y023780D01*
X002909Y023818D01*
X002918Y023856D01*
X002932Y023892D01*
X002948Y023928D01*
X002969Y023961D01*
X002992Y023992D01*
X003019Y024020D01*
X003048Y024046D01*
X003079Y024069D01*
X003113Y024088D01*
X003149Y024104D01*
X003185Y024116D01*
X003223Y024125D01*
X003262Y024130D01*
X003301Y024131D01*
X003339Y024128D01*
X003378Y024121D01*
X003415Y024111D01*
X003451Y024096D01*
X003486Y024079D01*
X003519Y024058D01*
X003549Y024033D01*
X003577Y024006D01*
X003602Y023976D01*
X003624Y023944D01*
X003642Y023910D01*
X003657Y023874D01*
X003669Y023837D01*
X003677Y023799D01*
X003681Y023760D01*
X003681Y023722D01*
X003677Y023683D01*
X003669Y023645D01*
X003657Y023608D01*
X003642Y023572D01*
X003624Y023538D01*
X003602Y023506D01*
X003577Y023476D01*
X003549Y023449D01*
X003519Y023424D01*
X003486Y023403D01*
X003451Y023386D01*
X003415Y023371D01*
X003378Y023361D01*
X003339Y023354D01*
X003301Y023351D01*
X003262Y023352D01*
X003223Y023357D01*
X003185Y023366D01*
X003149Y023378D01*
X003113Y023394D01*
X003079Y023413D01*
X003048Y023436D01*
X003019Y023462D01*
X002992Y023490D01*
X002969Y023521D01*
X002948Y023554D01*
X002932Y023590D01*
X002918Y023626D01*
X002909Y023664D01*
X002903Y023702D01*
X002901Y023741D01*
X002891Y023341D02*
X003691Y024141D01*
X002901Y024741D02*
X002903Y024780D01*
X002909Y024818D01*
X002918Y024856D01*
X002932Y024892D01*
X002948Y024928D01*
X002969Y024961D01*
X002992Y024992D01*
X003019Y025020D01*
X003048Y025046D01*
X003079Y025069D01*
X003113Y025088D01*
X003149Y025104D01*
X003185Y025116D01*
X003223Y025125D01*
X003262Y025130D01*
X003301Y025131D01*
X003339Y025128D01*
X003378Y025121D01*
X003415Y025111D01*
X003451Y025096D01*
X003486Y025079D01*
X003519Y025058D01*
X003549Y025033D01*
X003577Y025006D01*
X003602Y024976D01*
X003624Y024944D01*
X003642Y024910D01*
X003657Y024874D01*
X003669Y024837D01*
X003677Y024799D01*
X003681Y024760D01*
X003681Y024722D01*
X003677Y024683D01*
X003669Y024645D01*
X003657Y024608D01*
X003642Y024572D01*
X003624Y024538D01*
X003602Y024506D01*
X003577Y024476D01*
X003549Y024449D01*
X003519Y024424D01*
X003486Y024403D01*
X003451Y024386D01*
X003415Y024371D01*
X003378Y024361D01*
X003339Y024354D01*
X003301Y024351D01*
X003262Y024352D01*
X003223Y024357D01*
X003185Y024366D01*
X003149Y024378D01*
X003113Y024394D01*
X003079Y024413D01*
X003048Y024436D01*
X003019Y024462D01*
X002992Y024490D01*
X002969Y024521D01*
X002948Y024554D01*
X002932Y024590D01*
X002918Y024626D01*
X002909Y024664D01*
X002903Y024702D01*
X002901Y024741D01*
X002891Y024341D02*
X003691Y025141D01*
X002901Y025741D02*
X002903Y025780D01*
X002909Y025818D01*
X002918Y025856D01*
X002932Y025892D01*
X002948Y025928D01*
X002969Y025961D01*
X002992Y025992D01*
X003019Y026020D01*
X003048Y026046D01*
X003079Y026069D01*
X003113Y026088D01*
X003149Y026104D01*
X003185Y026116D01*
X003223Y026125D01*
X003262Y026130D01*
X003301Y026131D01*
X003339Y026128D01*
X003378Y026121D01*
X003415Y026111D01*
X003451Y026096D01*
X003486Y026079D01*
X003519Y026058D01*
X003549Y026033D01*
X003577Y026006D01*
X003602Y025976D01*
X003624Y025944D01*
X003642Y025910D01*
X003657Y025874D01*
X003669Y025837D01*
X003677Y025799D01*
X003681Y025760D01*
X003681Y025722D01*
X003677Y025683D01*
X003669Y025645D01*
X003657Y025608D01*
X003642Y025572D01*
X003624Y025538D01*
X003602Y025506D01*
X003577Y025476D01*
X003549Y025449D01*
X003519Y025424D01*
X003486Y025403D01*
X003451Y025386D01*
X003415Y025371D01*
X003378Y025361D01*
X003339Y025354D01*
X003301Y025351D01*
X003262Y025352D01*
X003223Y025357D01*
X003185Y025366D01*
X003149Y025378D01*
X003113Y025394D01*
X003079Y025413D01*
X003048Y025436D01*
X003019Y025462D01*
X002992Y025490D01*
X002969Y025521D01*
X002948Y025554D01*
X002932Y025590D01*
X002918Y025626D01*
X002909Y025664D01*
X002903Y025702D01*
X002901Y025741D01*
X002891Y025341D02*
X003691Y026141D01*
X002901Y026741D02*
X002903Y026780D01*
X002909Y026818D01*
X002918Y026856D01*
X002932Y026892D01*
X002948Y026928D01*
X002969Y026961D01*
X002992Y026992D01*
X003019Y027020D01*
X003048Y027046D01*
X003079Y027069D01*
X003113Y027088D01*
X003149Y027104D01*
X003185Y027116D01*
X003223Y027125D01*
X003262Y027130D01*
X003301Y027131D01*
X003339Y027128D01*
X003378Y027121D01*
X003415Y027111D01*
X003451Y027096D01*
X003486Y027079D01*
X003519Y027058D01*
X003549Y027033D01*
X003577Y027006D01*
X003602Y026976D01*
X003624Y026944D01*
X003642Y026910D01*
X003657Y026874D01*
X003669Y026837D01*
X003677Y026799D01*
X003681Y026760D01*
X003681Y026722D01*
X003677Y026683D01*
X003669Y026645D01*
X003657Y026608D01*
X003642Y026572D01*
X003624Y026538D01*
X003602Y026506D01*
X003577Y026476D01*
X003549Y026449D01*
X003519Y026424D01*
X003486Y026403D01*
X003451Y026386D01*
X003415Y026371D01*
X003378Y026361D01*
X003339Y026354D01*
X003301Y026351D01*
X003262Y026352D01*
X003223Y026357D01*
X003185Y026366D01*
X003149Y026378D01*
X003113Y026394D01*
X003079Y026413D01*
X003048Y026436D01*
X003019Y026462D01*
X002992Y026490D01*
X002969Y026521D01*
X002948Y026554D01*
X002932Y026590D01*
X002918Y026626D01*
X002909Y026664D01*
X002903Y026702D01*
X002901Y026741D01*
X002891Y026341D02*
X003691Y027141D01*
X001901Y026741D02*
X001903Y026780D01*
X001909Y026818D01*
X001918Y026856D01*
X001932Y026892D01*
X001948Y026928D01*
X001969Y026961D01*
X001992Y026992D01*
X002019Y027020D01*
X002048Y027046D01*
X002079Y027069D01*
X002113Y027088D01*
X002149Y027104D01*
X002185Y027116D01*
X002223Y027125D01*
X002262Y027130D01*
X002301Y027131D01*
X002339Y027128D01*
X002378Y027121D01*
X002415Y027111D01*
X002451Y027096D01*
X002486Y027079D01*
X002519Y027058D01*
X002549Y027033D01*
X002577Y027006D01*
X002602Y026976D01*
X002624Y026944D01*
X002642Y026910D01*
X002657Y026874D01*
X002669Y026837D01*
X002677Y026799D01*
X002681Y026760D01*
X002681Y026722D01*
X002677Y026683D01*
X002669Y026645D01*
X002657Y026608D01*
X002642Y026572D01*
X002624Y026538D01*
X002602Y026506D01*
X002577Y026476D01*
X002549Y026449D01*
X002519Y026424D01*
X002486Y026403D01*
X002451Y026386D01*
X002415Y026371D01*
X002378Y026361D01*
X002339Y026354D01*
X002301Y026351D01*
X002262Y026352D01*
X002223Y026357D01*
X002185Y026366D01*
X002149Y026378D01*
X002113Y026394D01*
X002079Y026413D01*
X002048Y026436D01*
X002019Y026462D01*
X001992Y026490D01*
X001969Y026521D01*
X001948Y026554D01*
X001932Y026590D01*
X001918Y026626D01*
X001909Y026664D01*
X001903Y026702D01*
X001901Y026741D01*
X001891Y026341D02*
X002691Y027141D01*
X001901Y025741D02*
X001903Y025780D01*
X001909Y025818D01*
X001918Y025856D01*
X001932Y025892D01*
X001948Y025928D01*
X001969Y025961D01*
X001992Y025992D01*
X002019Y026020D01*
X002048Y026046D01*
X002079Y026069D01*
X002113Y026088D01*
X002149Y026104D01*
X002185Y026116D01*
X002223Y026125D01*
X002262Y026130D01*
X002301Y026131D01*
X002339Y026128D01*
X002378Y026121D01*
X002415Y026111D01*
X002451Y026096D01*
X002486Y026079D01*
X002519Y026058D01*
X002549Y026033D01*
X002577Y026006D01*
X002602Y025976D01*
X002624Y025944D01*
X002642Y025910D01*
X002657Y025874D01*
X002669Y025837D01*
X002677Y025799D01*
X002681Y025760D01*
X002681Y025722D01*
X002677Y025683D01*
X002669Y025645D01*
X002657Y025608D01*
X002642Y025572D01*
X002624Y025538D01*
X002602Y025506D01*
X002577Y025476D01*
X002549Y025449D01*
X002519Y025424D01*
X002486Y025403D01*
X002451Y025386D01*
X002415Y025371D01*
X002378Y025361D01*
X002339Y025354D01*
X002301Y025351D01*
X002262Y025352D01*
X002223Y025357D01*
X002185Y025366D01*
X002149Y025378D01*
X002113Y025394D01*
X002079Y025413D01*
X002048Y025436D01*
X002019Y025462D01*
X001992Y025490D01*
X001969Y025521D01*
X001948Y025554D01*
X001932Y025590D01*
X001918Y025626D01*
X001909Y025664D01*
X001903Y025702D01*
X001901Y025741D01*
X001891Y025341D02*
X002691Y026141D01*
X001901Y024741D02*
X001903Y024780D01*
X001909Y024818D01*
X001918Y024856D01*
X001932Y024892D01*
X001948Y024928D01*
X001969Y024961D01*
X001992Y024992D01*
X002019Y025020D01*
X002048Y025046D01*
X002079Y025069D01*
X002113Y025088D01*
X002149Y025104D01*
X002185Y025116D01*
X002223Y025125D01*
X002262Y025130D01*
X002301Y025131D01*
X002339Y025128D01*
X002378Y025121D01*
X002415Y025111D01*
X002451Y025096D01*
X002486Y025079D01*
X002519Y025058D01*
X002549Y025033D01*
X002577Y025006D01*
X002602Y024976D01*
X002624Y024944D01*
X002642Y024910D01*
X002657Y024874D01*
X002669Y024837D01*
X002677Y024799D01*
X002681Y024760D01*
X002681Y024722D01*
X002677Y024683D01*
X002669Y024645D01*
X002657Y024608D01*
X002642Y024572D01*
X002624Y024538D01*
X002602Y024506D01*
X002577Y024476D01*
X002549Y024449D01*
X002519Y024424D01*
X002486Y024403D01*
X002451Y024386D01*
X002415Y024371D01*
X002378Y024361D01*
X002339Y024354D01*
X002301Y024351D01*
X002262Y024352D01*
X002223Y024357D01*
X002185Y024366D01*
X002149Y024378D01*
X002113Y024394D01*
X002079Y024413D01*
X002048Y024436D01*
X002019Y024462D01*
X001992Y024490D01*
X001969Y024521D01*
X001948Y024554D01*
X001932Y024590D01*
X001918Y024626D01*
X001909Y024664D01*
X001903Y024702D01*
X001901Y024741D01*
X001891Y024341D02*
X002691Y025141D01*
X001901Y023741D02*
X001903Y023780D01*
X001909Y023818D01*
X001918Y023856D01*
X001932Y023892D01*
X001948Y023928D01*
X001969Y023961D01*
X001992Y023992D01*
X002019Y024020D01*
X002048Y024046D01*
X002079Y024069D01*
X002113Y024088D01*
X002149Y024104D01*
X002185Y024116D01*
X002223Y024125D01*
X002262Y024130D01*
X002301Y024131D01*
X002339Y024128D01*
X002378Y024121D01*
X002415Y024111D01*
X002451Y024096D01*
X002486Y024079D01*
X002519Y024058D01*
X002549Y024033D01*
X002577Y024006D01*
X002602Y023976D01*
X002624Y023944D01*
X002642Y023910D01*
X002657Y023874D01*
X002669Y023837D01*
X002677Y023799D01*
X002681Y023760D01*
X002681Y023722D01*
X002677Y023683D01*
X002669Y023645D01*
X002657Y023608D01*
X002642Y023572D01*
X002624Y023538D01*
X002602Y023506D01*
X002577Y023476D01*
X002549Y023449D01*
X002519Y023424D01*
X002486Y023403D01*
X002451Y023386D01*
X002415Y023371D01*
X002378Y023361D01*
X002339Y023354D01*
X002301Y023351D01*
X002262Y023352D01*
X002223Y023357D01*
X002185Y023366D01*
X002149Y023378D01*
X002113Y023394D01*
X002079Y023413D01*
X002048Y023436D01*
X002019Y023462D01*
X001992Y023490D01*
X001969Y023521D01*
X001948Y023554D01*
X001932Y023590D01*
X001918Y023626D01*
X001909Y023664D01*
X001903Y023702D01*
X001901Y023741D01*
X001891Y023341D02*
X002691Y024141D01*
X001901Y022741D02*
X001903Y022780D01*
X001909Y022818D01*
X001918Y022856D01*
X001932Y022892D01*
X001948Y022928D01*
X001969Y022961D01*
X001992Y022992D01*
X002019Y023020D01*
X002048Y023046D01*
X002079Y023069D01*
X002113Y023088D01*
X002149Y023104D01*
X002185Y023116D01*
X002223Y023125D01*
X002262Y023130D01*
X002301Y023131D01*
X002339Y023128D01*
X002378Y023121D01*
X002415Y023111D01*
X002451Y023096D01*
X002486Y023079D01*
X002519Y023058D01*
X002549Y023033D01*
X002577Y023006D01*
X002602Y022976D01*
X002624Y022944D01*
X002642Y022910D01*
X002657Y022874D01*
X002669Y022837D01*
X002677Y022799D01*
X002681Y022760D01*
X002681Y022722D01*
X002677Y022683D01*
X002669Y022645D01*
X002657Y022608D01*
X002642Y022572D01*
X002624Y022538D01*
X002602Y022506D01*
X002577Y022476D01*
X002549Y022449D01*
X002519Y022424D01*
X002486Y022403D01*
X002451Y022386D01*
X002415Y022371D01*
X002378Y022361D01*
X002339Y022354D01*
X002301Y022351D01*
X002262Y022352D01*
X002223Y022357D01*
X002185Y022366D01*
X002149Y022378D01*
X002113Y022394D01*
X002079Y022413D01*
X002048Y022436D01*
X002019Y022462D01*
X001992Y022490D01*
X001969Y022521D01*
X001948Y022554D01*
X001932Y022590D01*
X001918Y022626D01*
X001909Y022664D01*
X001903Y022702D01*
X001901Y022741D01*
X001891Y022341D02*
X002691Y023141D01*
X003481Y030271D02*
X003483Y030310D01*
X003489Y030348D01*
X003498Y030386D01*
X003512Y030422D01*
X003528Y030458D01*
X003549Y030491D01*
X003572Y030522D01*
X003599Y030550D01*
X003628Y030576D01*
X003659Y030599D01*
X003693Y030618D01*
X003729Y030634D01*
X003765Y030646D01*
X003803Y030655D01*
X003842Y030660D01*
X003881Y030661D01*
X003919Y030658D01*
X003958Y030651D01*
X003995Y030641D01*
X004031Y030626D01*
X004066Y030609D01*
X004099Y030588D01*
X004129Y030563D01*
X004157Y030536D01*
X004182Y030506D01*
X004204Y030474D01*
X004222Y030440D01*
X004237Y030404D01*
X004249Y030367D01*
X004257Y030329D01*
X004261Y030290D01*
X004261Y030252D01*
X004257Y030213D01*
X004249Y030175D01*
X004237Y030138D01*
X004222Y030102D01*
X004204Y030068D01*
X004182Y030036D01*
X004157Y030006D01*
X004129Y029979D01*
X004099Y029954D01*
X004066Y029933D01*
X004031Y029916D01*
X003995Y029901D01*
X003958Y029891D01*
X003919Y029884D01*
X003881Y029881D01*
X003842Y029882D01*
X003803Y029887D01*
X003765Y029896D01*
X003729Y029908D01*
X003693Y029924D01*
X003659Y029943D01*
X003628Y029966D01*
X003599Y029992D01*
X003572Y030020D01*
X003549Y030051D01*
X003528Y030084D01*
X003512Y030120D01*
X003498Y030156D01*
X003489Y030194D01*
X003483Y030232D01*
X003481Y030271D01*
X003471Y029871D02*
X004271Y030671D01*
X004341Y030281D02*
X004343Y030320D01*
X004349Y030358D01*
X004358Y030396D01*
X004372Y030432D01*
X004388Y030468D01*
X004409Y030501D01*
X004432Y030532D01*
X004459Y030560D01*
X004488Y030586D01*
X004519Y030609D01*
X004553Y030628D01*
X004589Y030644D01*
X004625Y030656D01*
X004663Y030665D01*
X004702Y030670D01*
X004741Y030671D01*
X004779Y030668D01*
X004818Y030661D01*
X004855Y030651D01*
X004891Y030636D01*
X004926Y030619D01*
X004959Y030598D01*
X004989Y030573D01*
X005017Y030546D01*
X005042Y030516D01*
X005064Y030484D01*
X005082Y030450D01*
X005097Y030414D01*
X005109Y030377D01*
X005117Y030339D01*
X005121Y030300D01*
X005121Y030262D01*
X005117Y030223D01*
X005109Y030185D01*
X005097Y030148D01*
X005082Y030112D01*
X005064Y030078D01*
X005042Y030046D01*
X005017Y030016D01*
X004989Y029989D01*
X004959Y029964D01*
X004926Y029943D01*
X004891Y029926D01*
X004855Y029911D01*
X004818Y029901D01*
X004779Y029894D01*
X004741Y029891D01*
X004702Y029892D01*
X004663Y029897D01*
X004625Y029906D01*
X004589Y029918D01*
X004553Y029934D01*
X004519Y029953D01*
X004488Y029976D01*
X004459Y030002D01*
X004432Y030030D01*
X004409Y030061D01*
X004388Y030094D01*
X004372Y030130D01*
X004358Y030166D01*
X004349Y030204D01*
X004343Y030242D01*
X004341Y030281D01*
X004331Y029881D02*
X005131Y030681D01*
X006171Y035801D02*
X006173Y035840D01*
X006179Y035878D01*
X006188Y035916D01*
X006202Y035952D01*
X006218Y035988D01*
X006239Y036021D01*
X006262Y036052D01*
X006289Y036080D01*
X006318Y036106D01*
X006349Y036129D01*
X006383Y036148D01*
X006419Y036164D01*
X006455Y036176D01*
X006493Y036185D01*
X006532Y036190D01*
X006571Y036191D01*
X006609Y036188D01*
X006648Y036181D01*
X006685Y036171D01*
X006721Y036156D01*
X006756Y036139D01*
X006789Y036118D01*
X006819Y036093D01*
X006847Y036066D01*
X006872Y036036D01*
X006894Y036004D01*
X006912Y035970D01*
X006927Y035934D01*
X006939Y035897D01*
X006947Y035859D01*
X006951Y035820D01*
X006951Y035782D01*
X006947Y035743D01*
X006939Y035705D01*
X006927Y035668D01*
X006912Y035632D01*
X006894Y035598D01*
X006872Y035566D01*
X006847Y035536D01*
X006819Y035509D01*
X006789Y035484D01*
X006756Y035463D01*
X006721Y035446D01*
X006685Y035431D01*
X006648Y035421D01*
X006609Y035414D01*
X006571Y035411D01*
X006532Y035412D01*
X006493Y035417D01*
X006455Y035426D01*
X006419Y035438D01*
X006383Y035454D01*
X006349Y035473D01*
X006318Y035496D01*
X006289Y035522D01*
X006262Y035550D01*
X006239Y035581D01*
X006218Y035614D01*
X006202Y035650D01*
X006188Y035686D01*
X006179Y035724D01*
X006173Y035762D01*
X006171Y035801D01*
X006161Y035401D02*
X006961Y036201D01*
X007171Y035801D02*
X007173Y035840D01*
X007179Y035878D01*
X007188Y035916D01*
X007202Y035952D01*
X007218Y035988D01*
X007239Y036021D01*
X007262Y036052D01*
X007289Y036080D01*
X007318Y036106D01*
X007349Y036129D01*
X007383Y036148D01*
X007419Y036164D01*
X007455Y036176D01*
X007493Y036185D01*
X007532Y036190D01*
X007571Y036191D01*
X007609Y036188D01*
X007648Y036181D01*
X007685Y036171D01*
X007721Y036156D01*
X007756Y036139D01*
X007789Y036118D01*
X007819Y036093D01*
X007847Y036066D01*
X007872Y036036D01*
X007894Y036004D01*
X007912Y035970D01*
X007927Y035934D01*
X007939Y035897D01*
X007947Y035859D01*
X007951Y035820D01*
X007951Y035782D01*
X007947Y035743D01*
X007939Y035705D01*
X007927Y035668D01*
X007912Y035632D01*
X007894Y035598D01*
X007872Y035566D01*
X007847Y035536D01*
X007819Y035509D01*
X007789Y035484D01*
X007756Y035463D01*
X007721Y035446D01*
X007685Y035431D01*
X007648Y035421D01*
X007609Y035414D01*
X007571Y035411D01*
X007532Y035412D01*
X007493Y035417D01*
X007455Y035426D01*
X007419Y035438D01*
X007383Y035454D01*
X007349Y035473D01*
X007318Y035496D01*
X007289Y035522D01*
X007262Y035550D01*
X007239Y035581D01*
X007218Y035614D01*
X007202Y035650D01*
X007188Y035686D01*
X007179Y035724D01*
X007173Y035762D01*
X007171Y035801D01*
X007161Y035401D02*
X007961Y036201D01*
X001801Y035781D02*
X001803Y035820D01*
X001809Y035858D01*
X001818Y035896D01*
X001832Y035932D01*
X001848Y035968D01*
X001869Y036001D01*
X001892Y036032D01*
X001919Y036060D01*
X001948Y036086D01*
X001979Y036109D01*
X002013Y036128D01*
X002049Y036144D01*
X002085Y036156D01*
X002123Y036165D01*
X002162Y036170D01*
X002201Y036171D01*
X002239Y036168D01*
X002278Y036161D01*
X002315Y036151D01*
X002351Y036136D01*
X002386Y036119D01*
X002419Y036098D01*
X002449Y036073D01*
X002477Y036046D01*
X002502Y036016D01*
X002524Y035984D01*
X002542Y035950D01*
X002557Y035914D01*
X002569Y035877D01*
X002577Y035839D01*
X002581Y035800D01*
X002581Y035762D01*
X002577Y035723D01*
X002569Y035685D01*
X002557Y035648D01*
X002542Y035612D01*
X002524Y035578D01*
X002502Y035546D01*
X002477Y035516D01*
X002449Y035489D01*
X002419Y035464D01*
X002386Y035443D01*
X002351Y035426D01*
X002315Y035411D01*
X002278Y035401D01*
X002239Y035394D01*
X002201Y035391D01*
X002162Y035392D01*
X002123Y035397D01*
X002085Y035406D01*
X002049Y035418D01*
X002013Y035434D01*
X001979Y035453D01*
X001948Y035476D01*
X001919Y035502D01*
X001892Y035530D01*
X001869Y035561D01*
X001848Y035594D01*
X001832Y035630D01*
X001818Y035666D01*
X001809Y035704D01*
X001803Y035742D01*
X001801Y035781D01*
X001791Y035381D02*
X002591Y036181D01*
X019121Y025731D02*
X019123Y025770D01*
X019129Y025808D01*
X019138Y025846D01*
X019152Y025882D01*
X019168Y025918D01*
X019189Y025951D01*
X019212Y025982D01*
X019239Y026010D01*
X019268Y026036D01*
X019299Y026059D01*
X019333Y026078D01*
X019369Y026094D01*
X019405Y026106D01*
X019443Y026115D01*
X019482Y026120D01*
X019521Y026121D01*
X019559Y026118D01*
X019598Y026111D01*
X019635Y026101D01*
X019671Y026086D01*
X019706Y026069D01*
X019739Y026048D01*
X019769Y026023D01*
X019797Y025996D01*
X019822Y025966D01*
X019844Y025934D01*
X019862Y025900D01*
X019877Y025864D01*
X019889Y025827D01*
X019897Y025789D01*
X019901Y025750D01*
X019901Y025712D01*
X019897Y025673D01*
X019889Y025635D01*
X019877Y025598D01*
X019862Y025562D01*
X019844Y025528D01*
X019822Y025496D01*
X019797Y025466D01*
X019769Y025439D01*
X019739Y025414D01*
X019706Y025393D01*
X019671Y025376D01*
X019635Y025361D01*
X019598Y025351D01*
X019559Y025344D01*
X019521Y025341D01*
X019482Y025342D01*
X019443Y025347D01*
X019405Y025356D01*
X019369Y025368D01*
X019333Y025384D01*
X019299Y025403D01*
X019268Y025426D01*
X019239Y025452D01*
X019212Y025480D01*
X019189Y025511D01*
X019168Y025544D01*
X019152Y025580D01*
X019138Y025616D01*
X019129Y025654D01*
X019123Y025692D01*
X019121Y025731D01*
X019111Y025331D02*
X019911Y026131D01*
X020161Y026041D02*
X020163Y026080D01*
X020169Y026118D01*
X020178Y026156D01*
X020192Y026192D01*
X020208Y026228D01*
X020229Y026261D01*
X020252Y026292D01*
X020279Y026320D01*
X020308Y026346D01*
X020339Y026369D01*
X020373Y026388D01*
X020409Y026404D01*
X020445Y026416D01*
X020483Y026425D01*
X020522Y026430D01*
X020561Y026431D01*
X020599Y026428D01*
X020638Y026421D01*
X020675Y026411D01*
X020711Y026396D01*
X020746Y026379D01*
X020779Y026358D01*
X020809Y026333D01*
X020837Y026306D01*
X020862Y026276D01*
X020884Y026244D01*
X020902Y026210D01*
X020917Y026174D01*
X020929Y026137D01*
X020937Y026099D01*
X020941Y026060D01*
X020941Y026022D01*
X020937Y025983D01*
X020929Y025945D01*
X020917Y025908D01*
X020902Y025872D01*
X020884Y025838D01*
X020862Y025806D01*
X020837Y025776D01*
X020809Y025749D01*
X020779Y025724D01*
X020746Y025703D01*
X020711Y025686D01*
X020675Y025671D01*
X020638Y025661D01*
X020599Y025654D01*
X020561Y025651D01*
X020522Y025652D01*
X020483Y025657D01*
X020445Y025666D01*
X020409Y025678D01*
X020373Y025694D01*
X020339Y025713D01*
X020308Y025736D01*
X020279Y025762D01*
X020252Y025790D01*
X020229Y025821D01*
X020208Y025854D01*
X020192Y025890D01*
X020178Y025926D01*
X020169Y025964D01*
X020163Y026002D01*
X020161Y026041D01*
X020151Y025641D02*
X020951Y026441D01*
X020281Y026911D02*
X020283Y026950D01*
X020289Y026988D01*
X020298Y027026D01*
X020312Y027062D01*
X020328Y027098D01*
X020349Y027131D01*
X020372Y027162D01*
X020399Y027190D01*
X020428Y027216D01*
X020459Y027239D01*
X020493Y027258D01*
X020529Y027274D01*
X020565Y027286D01*
X020603Y027295D01*
X020642Y027300D01*
X020681Y027301D01*
X020719Y027298D01*
X020758Y027291D01*
X020795Y027281D01*
X020831Y027266D01*
X020866Y027249D01*
X020899Y027228D01*
X020929Y027203D01*
X020957Y027176D01*
X020982Y027146D01*
X021004Y027114D01*
X021022Y027080D01*
X021037Y027044D01*
X021049Y027007D01*
X021057Y026969D01*
X021061Y026930D01*
X021061Y026892D01*
X021057Y026853D01*
X021049Y026815D01*
X021037Y026778D01*
X021022Y026742D01*
X021004Y026708D01*
X020982Y026676D01*
X020957Y026646D01*
X020929Y026619D01*
X020899Y026594D01*
X020866Y026573D01*
X020831Y026556D01*
X020795Y026541D01*
X020758Y026531D01*
X020719Y026524D01*
X020681Y026521D01*
X020642Y026522D01*
X020603Y026527D01*
X020565Y026536D01*
X020529Y026548D01*
X020493Y026564D01*
X020459Y026583D01*
X020428Y026606D01*
X020399Y026632D01*
X020372Y026660D01*
X020349Y026691D01*
X020328Y026724D01*
X020312Y026760D01*
X020298Y026796D01*
X020289Y026834D01*
X020283Y026872D01*
X020281Y026911D01*
X020271Y026511D02*
X021071Y027311D01*
X020181Y024501D02*
X020183Y024540D01*
X020189Y024578D01*
X020198Y024616D01*
X020212Y024652D01*
X020228Y024688D01*
X020249Y024721D01*
X020272Y024752D01*
X020299Y024780D01*
X020328Y024806D01*
X020359Y024829D01*
X020393Y024848D01*
X020429Y024864D01*
X020465Y024876D01*
X020503Y024885D01*
X020542Y024890D01*
X020581Y024891D01*
X020619Y024888D01*
X020658Y024881D01*
X020695Y024871D01*
X020731Y024856D01*
X020766Y024839D01*
X020799Y024818D01*
X020829Y024793D01*
X020857Y024766D01*
X020882Y024736D01*
X020904Y024704D01*
X020922Y024670D01*
X020937Y024634D01*
X020949Y024597D01*
X020957Y024559D01*
X020961Y024520D01*
X020961Y024482D01*
X020957Y024443D01*
X020949Y024405D01*
X020937Y024368D01*
X020922Y024332D01*
X020904Y024298D01*
X020882Y024266D01*
X020857Y024236D01*
X020829Y024209D01*
X020799Y024184D01*
X020766Y024163D01*
X020731Y024146D01*
X020695Y024131D01*
X020658Y024121D01*
X020619Y024114D01*
X020581Y024111D01*
X020542Y024112D01*
X020503Y024117D01*
X020465Y024126D01*
X020429Y024138D01*
X020393Y024154D01*
X020359Y024173D01*
X020328Y024196D01*
X020299Y024222D01*
X020272Y024250D01*
X020249Y024281D01*
X020228Y024314D01*
X020212Y024350D01*
X020198Y024386D01*
X020189Y024424D01*
X020183Y024462D01*
X020181Y024501D01*
X020171Y024101D02*
X020971Y024901D01*
X042201Y011581D02*
X042203Y011620D01*
X042209Y011658D01*
X042218Y011696D01*
X042232Y011732D01*
X042248Y011768D01*
X042269Y011801D01*
X042292Y011832D01*
X042319Y011860D01*
X042348Y011886D01*
X042379Y011909D01*
X042413Y011928D01*
X042449Y011944D01*
X042485Y011956D01*
X042523Y011965D01*
X042562Y011970D01*
X042601Y011971D01*
X042639Y011968D01*
X042678Y011961D01*
X042715Y011951D01*
X042751Y011936D01*
X042786Y011919D01*
X042819Y011898D01*
X042849Y011873D01*
X042877Y011846D01*
X042902Y011816D01*
X042924Y011784D01*
X042942Y011750D01*
X042957Y011714D01*
X042969Y011677D01*
X042977Y011639D01*
X042981Y011600D01*
X042981Y011562D01*
X042977Y011523D01*
X042969Y011485D01*
X042957Y011448D01*
X042942Y011412D01*
X042924Y011378D01*
X042902Y011346D01*
X042877Y011316D01*
X042849Y011289D01*
X042819Y011264D01*
X042786Y011243D01*
X042751Y011226D01*
X042715Y011211D01*
X042678Y011201D01*
X042639Y011194D01*
X042601Y011191D01*
X042562Y011192D01*
X042523Y011197D01*
X042485Y011206D01*
X042449Y011218D01*
X042413Y011234D01*
X042379Y011253D01*
X042348Y011276D01*
X042319Y011302D01*
X042292Y011330D01*
X042269Y011361D01*
X042248Y011394D01*
X042232Y011430D01*
X042218Y011466D01*
X042209Y011504D01*
X042203Y011542D01*
X042201Y011581D01*
X042191Y011181D02*
X042991Y011981D01*
X042201Y009481D02*
X042203Y009520D01*
X042209Y009558D01*
X042218Y009596D01*
X042232Y009632D01*
X042248Y009668D01*
X042269Y009701D01*
X042292Y009732D01*
X042319Y009760D01*
X042348Y009786D01*
X042379Y009809D01*
X042413Y009828D01*
X042449Y009844D01*
X042485Y009856D01*
X042523Y009865D01*
X042562Y009870D01*
X042601Y009871D01*
X042639Y009868D01*
X042678Y009861D01*
X042715Y009851D01*
X042751Y009836D01*
X042786Y009819D01*
X042819Y009798D01*
X042849Y009773D01*
X042877Y009746D01*
X042902Y009716D01*
X042924Y009684D01*
X042942Y009650D01*
X042957Y009614D01*
X042969Y009577D01*
X042977Y009539D01*
X042981Y009500D01*
X042981Y009462D01*
X042977Y009423D01*
X042969Y009385D01*
X042957Y009348D01*
X042942Y009312D01*
X042924Y009278D01*
X042902Y009246D01*
X042877Y009216D01*
X042849Y009189D01*
X042819Y009164D01*
X042786Y009143D01*
X042751Y009126D01*
X042715Y009111D01*
X042678Y009101D01*
X042639Y009094D01*
X042601Y009091D01*
X042562Y009092D01*
X042523Y009097D01*
X042485Y009106D01*
X042449Y009118D01*
X042413Y009134D01*
X042379Y009153D01*
X042348Y009176D01*
X042319Y009202D01*
X042292Y009230D01*
X042269Y009261D01*
X042248Y009294D01*
X042232Y009330D01*
X042218Y009366D01*
X042209Y009404D01*
X042203Y009442D01*
X042201Y009481D01*
X042191Y009081D02*
X042991Y009881D01*
X037211Y010591D02*
X037213Y010630D01*
X037219Y010668D01*
X037228Y010706D01*
X037242Y010742D01*
X037258Y010778D01*
X037279Y010811D01*
X037302Y010842D01*
X037329Y010870D01*
X037358Y010896D01*
X037389Y010919D01*
X037423Y010938D01*
X037459Y010954D01*
X037495Y010966D01*
X037533Y010975D01*
X037572Y010980D01*
X037611Y010981D01*
X037649Y010978D01*
X037688Y010971D01*
X037725Y010961D01*
X037761Y010946D01*
X037796Y010929D01*
X037829Y010908D01*
X037859Y010883D01*
X037887Y010856D01*
X037912Y010826D01*
X037934Y010794D01*
X037952Y010760D01*
X037967Y010724D01*
X037979Y010687D01*
X037987Y010649D01*
X037991Y010610D01*
X037991Y010572D01*
X037987Y010533D01*
X037979Y010495D01*
X037967Y010458D01*
X037952Y010422D01*
X037934Y010388D01*
X037912Y010356D01*
X037887Y010326D01*
X037859Y010299D01*
X037829Y010274D01*
X037796Y010253D01*
X037761Y010236D01*
X037725Y010221D01*
X037688Y010211D01*
X037649Y010204D01*
X037611Y010201D01*
X037572Y010202D01*
X037533Y010207D01*
X037495Y010216D01*
X037459Y010228D01*
X037423Y010244D01*
X037389Y010263D01*
X037358Y010286D01*
X037329Y010312D01*
X037302Y010340D01*
X037279Y010371D01*
X037258Y010404D01*
X037242Y010440D01*
X037228Y010476D01*
X037219Y010514D01*
X037213Y010552D01*
X037211Y010591D01*
X037201Y010191D02*
X038001Y010991D01*
X036591Y009191D02*
X036593Y009230D01*
X036599Y009268D01*
X036608Y009306D01*
X036622Y009342D01*
X036638Y009378D01*
X036659Y009411D01*
X036682Y009442D01*
X036709Y009470D01*
X036738Y009496D01*
X036769Y009519D01*
X036803Y009538D01*
X036839Y009554D01*
X036875Y009566D01*
X036913Y009575D01*
X036952Y009580D01*
X036991Y009581D01*
X037029Y009578D01*
X037068Y009571D01*
X037105Y009561D01*
X037141Y009546D01*
X037176Y009529D01*
X037209Y009508D01*
X037239Y009483D01*
X037267Y009456D01*
X037292Y009426D01*
X037314Y009394D01*
X037332Y009360D01*
X037347Y009324D01*
X037359Y009287D01*
X037367Y009249D01*
X037371Y009210D01*
X037371Y009172D01*
X037367Y009133D01*
X037359Y009095D01*
X037347Y009058D01*
X037332Y009022D01*
X037314Y008988D01*
X037292Y008956D01*
X037267Y008926D01*
X037239Y008899D01*
X037209Y008874D01*
X037176Y008853D01*
X037141Y008836D01*
X037105Y008821D01*
X037068Y008811D01*
X037029Y008804D01*
X036991Y008801D01*
X036952Y008802D01*
X036913Y008807D01*
X036875Y008816D01*
X036839Y008828D01*
X036803Y008844D01*
X036769Y008863D01*
X036738Y008886D01*
X036709Y008912D01*
X036682Y008940D01*
X036659Y008971D01*
X036638Y009004D01*
X036622Y009040D01*
X036608Y009076D01*
X036599Y009114D01*
X036593Y009152D01*
X036591Y009191D01*
X036581Y008791D02*
X037381Y009591D01*
X035771Y008691D02*
X035773Y008730D01*
X035779Y008768D01*
X035788Y008806D01*
X035802Y008842D01*
X035818Y008878D01*
X035839Y008911D01*
X035862Y008942D01*
X035889Y008970D01*
X035918Y008996D01*
X035949Y009019D01*
X035983Y009038D01*
X036019Y009054D01*
X036055Y009066D01*
X036093Y009075D01*
X036132Y009080D01*
X036171Y009081D01*
X036209Y009078D01*
X036248Y009071D01*
X036285Y009061D01*
X036321Y009046D01*
X036356Y009029D01*
X036389Y009008D01*
X036419Y008983D01*
X036447Y008956D01*
X036472Y008926D01*
X036494Y008894D01*
X036512Y008860D01*
X036527Y008824D01*
X036539Y008787D01*
X036547Y008749D01*
X036551Y008710D01*
X036551Y008672D01*
X036547Y008633D01*
X036539Y008595D01*
X036527Y008558D01*
X036512Y008522D01*
X036494Y008488D01*
X036472Y008456D01*
X036447Y008426D01*
X036419Y008399D01*
X036389Y008374D01*
X036356Y008353D01*
X036321Y008336D01*
X036285Y008321D01*
X036248Y008311D01*
X036209Y008304D01*
X036171Y008301D01*
X036132Y008302D01*
X036093Y008307D01*
X036055Y008316D01*
X036019Y008328D01*
X035983Y008344D01*
X035949Y008363D01*
X035918Y008386D01*
X035889Y008412D01*
X035862Y008440D01*
X035839Y008471D01*
X035818Y008504D01*
X035802Y008540D01*
X035788Y008576D01*
X035779Y008614D01*
X035773Y008652D01*
X035771Y008691D01*
X035761Y008291D02*
X036561Y009091D01*
X035171Y008191D02*
X035173Y008230D01*
X035179Y008268D01*
X035188Y008306D01*
X035202Y008342D01*
X035218Y008378D01*
X035239Y008411D01*
X035262Y008442D01*
X035289Y008470D01*
X035318Y008496D01*
X035349Y008519D01*
X035383Y008538D01*
X035419Y008554D01*
X035455Y008566D01*
X035493Y008575D01*
X035532Y008580D01*
X035571Y008581D01*
X035609Y008578D01*
X035648Y008571D01*
X035685Y008561D01*
X035721Y008546D01*
X035756Y008529D01*
X035789Y008508D01*
X035819Y008483D01*
X035847Y008456D01*
X035872Y008426D01*
X035894Y008394D01*
X035912Y008360D01*
X035927Y008324D01*
X035939Y008287D01*
X035947Y008249D01*
X035951Y008210D01*
X035951Y008172D01*
X035947Y008133D01*
X035939Y008095D01*
X035927Y008058D01*
X035912Y008022D01*
X035894Y007988D01*
X035872Y007956D01*
X035847Y007926D01*
X035819Y007899D01*
X035789Y007874D01*
X035756Y007853D01*
X035721Y007836D01*
X035685Y007821D01*
X035648Y007811D01*
X035609Y007804D01*
X035571Y007801D01*
X035532Y007802D01*
X035493Y007807D01*
X035455Y007816D01*
X035419Y007828D01*
X035383Y007844D01*
X035349Y007863D01*
X035318Y007886D01*
X035289Y007912D01*
X035262Y007940D01*
X035239Y007971D01*
X035218Y008004D01*
X035202Y008040D01*
X035188Y008076D01*
X035179Y008114D01*
X035173Y008152D01*
X035171Y008191D01*
X035161Y007791D02*
X035961Y008591D01*
X035881Y007351D02*
X035883Y007390D01*
X035889Y007428D01*
X035898Y007466D01*
X035912Y007502D01*
X035928Y007538D01*
X035949Y007571D01*
X035972Y007602D01*
X035999Y007630D01*
X036028Y007656D01*
X036059Y007679D01*
X036093Y007698D01*
X036129Y007714D01*
X036165Y007726D01*
X036203Y007735D01*
X036242Y007740D01*
X036281Y007741D01*
X036319Y007738D01*
X036358Y007731D01*
X036395Y007721D01*
X036431Y007706D01*
X036466Y007689D01*
X036499Y007668D01*
X036529Y007643D01*
X036557Y007616D01*
X036582Y007586D01*
X036604Y007554D01*
X036622Y007520D01*
X036637Y007484D01*
X036649Y007447D01*
X036657Y007409D01*
X036661Y007370D01*
X036661Y007332D01*
X036657Y007293D01*
X036649Y007255D01*
X036637Y007218D01*
X036622Y007182D01*
X036604Y007148D01*
X036582Y007116D01*
X036557Y007086D01*
X036529Y007059D01*
X036499Y007034D01*
X036466Y007013D01*
X036431Y006996D01*
X036395Y006981D01*
X036358Y006971D01*
X036319Y006964D01*
X036281Y006961D01*
X036242Y006962D01*
X036203Y006967D01*
X036165Y006976D01*
X036129Y006988D01*
X036093Y007004D01*
X036059Y007023D01*
X036028Y007046D01*
X035999Y007072D01*
X035972Y007100D01*
X035949Y007131D01*
X035928Y007164D01*
X035912Y007200D01*
X035898Y007236D01*
X035889Y007274D01*
X035883Y007312D01*
X035881Y007351D01*
X035871Y006951D02*
X036671Y007751D01*
X026381Y001806D02*
X026383Y001845D01*
X026389Y001883D01*
X026398Y001921D01*
X026412Y001957D01*
X026428Y001993D01*
X026449Y002026D01*
X026472Y002057D01*
X026499Y002085D01*
X026528Y002111D01*
X026559Y002134D01*
X026593Y002153D01*
X026629Y002169D01*
X026665Y002181D01*
X026703Y002190D01*
X026742Y002195D01*
X026781Y002196D01*
X026819Y002193D01*
X026858Y002186D01*
X026895Y002176D01*
X026931Y002161D01*
X026966Y002144D01*
X026999Y002123D01*
X027029Y002098D01*
X027057Y002071D01*
X027082Y002041D01*
X027104Y002009D01*
X027122Y001975D01*
X027137Y001939D01*
X027149Y001902D01*
X027157Y001864D01*
X027161Y001825D01*
X027161Y001787D01*
X027157Y001748D01*
X027149Y001710D01*
X027137Y001673D01*
X027122Y001637D01*
X027104Y001603D01*
X027082Y001571D01*
X027057Y001541D01*
X027029Y001514D01*
X026999Y001489D01*
X026966Y001468D01*
X026931Y001451D01*
X026895Y001436D01*
X026858Y001426D01*
X026819Y001419D01*
X026781Y001416D01*
X026742Y001417D01*
X026703Y001422D01*
X026665Y001431D01*
X026629Y001443D01*
X026593Y001459D01*
X026559Y001478D01*
X026528Y001501D01*
X026499Y001527D01*
X026472Y001555D01*
X026449Y001586D01*
X026428Y001619D01*
X026412Y001655D01*
X026398Y001691D01*
X026389Y001729D01*
X026383Y001767D01*
X026381Y001806D01*
X026371Y001406D02*
X027171Y002206D01*
X025381Y001806D02*
X025383Y001845D01*
X025389Y001883D01*
X025398Y001921D01*
X025412Y001957D01*
X025428Y001993D01*
X025449Y002026D01*
X025472Y002057D01*
X025499Y002085D01*
X025528Y002111D01*
X025559Y002134D01*
X025593Y002153D01*
X025629Y002169D01*
X025665Y002181D01*
X025703Y002190D01*
X025742Y002195D01*
X025781Y002196D01*
X025819Y002193D01*
X025858Y002186D01*
X025895Y002176D01*
X025931Y002161D01*
X025966Y002144D01*
X025999Y002123D01*
X026029Y002098D01*
X026057Y002071D01*
X026082Y002041D01*
X026104Y002009D01*
X026122Y001975D01*
X026137Y001939D01*
X026149Y001902D01*
X026157Y001864D01*
X026161Y001825D01*
X026161Y001787D01*
X026157Y001748D01*
X026149Y001710D01*
X026137Y001673D01*
X026122Y001637D01*
X026104Y001603D01*
X026082Y001571D01*
X026057Y001541D01*
X026029Y001514D01*
X025999Y001489D01*
X025966Y001468D01*
X025931Y001451D01*
X025895Y001436D01*
X025858Y001426D01*
X025819Y001419D01*
X025781Y001416D01*
X025742Y001417D01*
X025703Y001422D01*
X025665Y001431D01*
X025629Y001443D01*
X025593Y001459D01*
X025559Y001478D01*
X025528Y001501D01*
X025499Y001527D01*
X025472Y001555D01*
X025449Y001586D01*
X025428Y001619D01*
X025412Y001655D01*
X025398Y001691D01*
X025389Y001729D01*
X025383Y001767D01*
X025381Y001806D01*
X025371Y001406D02*
X026171Y002206D01*
X022181Y002681D02*
X021381Y002681D01*
X021781Y002281D02*
X021781Y003081D01*
X021391Y002681D02*
X021393Y002720D01*
X021399Y002758D01*
X021408Y002796D01*
X021422Y002832D01*
X021438Y002868D01*
X021459Y002901D01*
X021482Y002932D01*
X021509Y002960D01*
X021538Y002986D01*
X021569Y003009D01*
X021603Y003028D01*
X021639Y003044D01*
X021675Y003056D01*
X021713Y003065D01*
X021752Y003070D01*
X021791Y003071D01*
X021829Y003068D01*
X021868Y003061D01*
X021905Y003051D01*
X021941Y003036D01*
X021976Y003019D01*
X022009Y002998D01*
X022039Y002973D01*
X022067Y002946D01*
X022092Y002916D01*
X022114Y002884D01*
X022132Y002850D01*
X022147Y002814D01*
X022159Y002777D01*
X022167Y002739D01*
X022171Y002700D01*
X022171Y002662D01*
X022167Y002623D01*
X022159Y002585D01*
X022147Y002548D01*
X022132Y002512D01*
X022114Y002478D01*
X022092Y002446D01*
X022067Y002416D01*
X022039Y002389D01*
X022009Y002364D01*
X021976Y002343D01*
X021941Y002326D01*
X021905Y002311D01*
X021868Y002301D01*
X021829Y002294D01*
X021791Y002291D01*
X021752Y002292D01*
X021713Y002297D01*
X021675Y002306D01*
X021639Y002318D01*
X021603Y002334D01*
X021569Y002353D01*
X021538Y002376D01*
X021509Y002402D01*
X021482Y002430D01*
X021459Y002461D01*
X021438Y002494D01*
X021422Y002530D01*
X021408Y002566D01*
X021399Y002604D01*
X021393Y002642D01*
X021391Y002681D01*
X021811Y005121D02*
X021813Y005160D01*
X021819Y005198D01*
X021828Y005236D01*
X021842Y005272D01*
X021858Y005308D01*
X021879Y005341D01*
X021902Y005372D01*
X021929Y005400D01*
X021958Y005426D01*
X021989Y005449D01*
X022023Y005468D01*
X022059Y005484D01*
X022095Y005496D01*
X022133Y005505D01*
X022172Y005510D01*
X022211Y005511D01*
X022249Y005508D01*
X022288Y005501D01*
X022325Y005491D01*
X022361Y005476D01*
X022396Y005459D01*
X022429Y005438D01*
X022459Y005413D01*
X022487Y005386D01*
X022512Y005356D01*
X022534Y005324D01*
X022552Y005290D01*
X022567Y005254D01*
X022579Y005217D01*
X022587Y005179D01*
X022591Y005140D01*
X022591Y005102D01*
X022587Y005063D01*
X022579Y005025D01*
X022567Y004988D01*
X022552Y004952D01*
X022534Y004918D01*
X022512Y004886D01*
X022487Y004856D01*
X022459Y004829D01*
X022429Y004804D01*
X022396Y004783D01*
X022361Y004766D01*
X022325Y004751D01*
X022288Y004741D01*
X022249Y004734D01*
X022211Y004731D01*
X022172Y004732D01*
X022133Y004737D01*
X022095Y004746D01*
X022059Y004758D01*
X022023Y004774D01*
X021989Y004793D01*
X021958Y004816D01*
X021929Y004842D01*
X021902Y004870D01*
X021879Y004901D01*
X021858Y004934D01*
X021842Y004970D01*
X021828Y005006D01*
X021819Y005044D01*
X021813Y005082D01*
X021811Y005121D01*
X021801Y004721D02*
X022601Y005521D01*
X043701Y015381D02*
X043703Y015420D01*
X043709Y015458D01*
X043718Y015496D01*
X043732Y015532D01*
X043748Y015568D01*
X043769Y015601D01*
X043792Y015632D01*
X043819Y015660D01*
X043848Y015686D01*
X043879Y015709D01*
X043913Y015728D01*
X043949Y015744D01*
X043985Y015756D01*
X044023Y015765D01*
X044062Y015770D01*
X044101Y015771D01*
X044139Y015768D01*
X044178Y015761D01*
X044215Y015751D01*
X044251Y015736D01*
X044286Y015719D01*
X044319Y015698D01*
X044349Y015673D01*
X044377Y015646D01*
X044402Y015616D01*
X044424Y015584D01*
X044442Y015550D01*
X044457Y015514D01*
X044469Y015477D01*
X044477Y015439D01*
X044481Y015400D01*
X044481Y015362D01*
X044477Y015323D01*
X044469Y015285D01*
X044457Y015248D01*
X044442Y015212D01*
X044424Y015178D01*
X044402Y015146D01*
X044377Y015116D01*
X044349Y015089D01*
X044319Y015064D01*
X044286Y015043D01*
X044251Y015026D01*
X044215Y015011D01*
X044178Y015001D01*
X044139Y014994D01*
X044101Y014991D01*
X044062Y014992D01*
X044023Y014997D01*
X043985Y015006D01*
X043949Y015018D01*
X043913Y015034D01*
X043879Y015053D01*
X043848Y015076D01*
X043819Y015102D01*
X043792Y015130D01*
X043769Y015161D01*
X043748Y015194D01*
X043732Y015230D01*
X043718Y015266D01*
X043709Y015304D01*
X043703Y015342D01*
X043701Y015381D01*
X043691Y014981D02*
X044491Y015781D01*
X050521Y017521D02*
X050523Y017560D01*
X050529Y017598D01*
X050538Y017636D01*
X050552Y017672D01*
X050568Y017708D01*
X050589Y017741D01*
X050612Y017772D01*
X050639Y017800D01*
X050668Y017826D01*
X050699Y017849D01*
X050733Y017868D01*
X050769Y017884D01*
X050805Y017896D01*
X050843Y017905D01*
X050882Y017910D01*
X050921Y017911D01*
X050959Y017908D01*
X050998Y017901D01*
X051035Y017891D01*
X051071Y017876D01*
X051106Y017859D01*
X051139Y017838D01*
X051169Y017813D01*
X051197Y017786D01*
X051222Y017756D01*
X051244Y017724D01*
X051262Y017690D01*
X051277Y017654D01*
X051289Y017617D01*
X051297Y017579D01*
X051301Y017540D01*
X051301Y017502D01*
X051297Y017463D01*
X051289Y017425D01*
X051277Y017388D01*
X051262Y017352D01*
X051244Y017318D01*
X051222Y017286D01*
X051197Y017256D01*
X051169Y017229D01*
X051139Y017204D01*
X051106Y017183D01*
X051071Y017166D01*
X051035Y017151D01*
X050998Y017141D01*
X050959Y017134D01*
X050921Y017131D01*
X050882Y017132D01*
X050843Y017137D01*
X050805Y017146D01*
X050769Y017158D01*
X050733Y017174D01*
X050699Y017193D01*
X050668Y017216D01*
X050639Y017242D01*
X050612Y017270D01*
X050589Y017301D01*
X050568Y017334D01*
X050552Y017370D01*
X050538Y017406D01*
X050529Y017444D01*
X050523Y017482D01*
X050521Y017521D01*
X050511Y017121D02*
X051311Y017921D01*
X052251Y017886D02*
X052253Y017925D01*
X052259Y017963D01*
X052268Y018001D01*
X052282Y018037D01*
X052298Y018073D01*
X052319Y018106D01*
X052342Y018137D01*
X052369Y018165D01*
X052398Y018191D01*
X052429Y018214D01*
X052463Y018233D01*
X052499Y018249D01*
X052535Y018261D01*
X052573Y018270D01*
X052612Y018275D01*
X052651Y018276D01*
X052689Y018273D01*
X052728Y018266D01*
X052765Y018256D01*
X052801Y018241D01*
X052836Y018224D01*
X052869Y018203D01*
X052899Y018178D01*
X052927Y018151D01*
X052952Y018121D01*
X052974Y018089D01*
X052992Y018055D01*
X053007Y018019D01*
X053019Y017982D01*
X053027Y017944D01*
X053031Y017905D01*
X053031Y017867D01*
X053027Y017828D01*
X053019Y017790D01*
X053007Y017753D01*
X052992Y017717D01*
X052974Y017683D01*
X052952Y017651D01*
X052927Y017621D01*
X052899Y017594D01*
X052869Y017569D01*
X052836Y017548D01*
X052801Y017531D01*
X052765Y017516D01*
X052728Y017506D01*
X052689Y017499D01*
X052651Y017496D01*
X052612Y017497D01*
X052573Y017502D01*
X052535Y017511D01*
X052499Y017523D01*
X052463Y017539D01*
X052429Y017558D01*
X052398Y017581D01*
X052369Y017607D01*
X052342Y017635D01*
X052319Y017666D01*
X052298Y017699D01*
X052282Y017735D01*
X052268Y017771D01*
X052259Y017809D01*
X052253Y017847D01*
X052251Y017886D01*
X052241Y017486D02*
X053041Y018286D01*
X053251Y018436D02*
X053253Y018475D01*
X053259Y018513D01*
X053268Y018551D01*
X053282Y018587D01*
X053298Y018623D01*
X053319Y018656D01*
X053342Y018687D01*
X053369Y018715D01*
X053398Y018741D01*
X053429Y018764D01*
X053463Y018783D01*
X053499Y018799D01*
X053535Y018811D01*
X053573Y018820D01*
X053612Y018825D01*
X053651Y018826D01*
X053689Y018823D01*
X053728Y018816D01*
X053765Y018806D01*
X053801Y018791D01*
X053836Y018774D01*
X053869Y018753D01*
X053899Y018728D01*
X053927Y018701D01*
X053952Y018671D01*
X053974Y018639D01*
X053992Y018605D01*
X054007Y018569D01*
X054019Y018532D01*
X054027Y018494D01*
X054031Y018455D01*
X054031Y018417D01*
X054027Y018378D01*
X054019Y018340D01*
X054007Y018303D01*
X053992Y018267D01*
X053974Y018233D01*
X053952Y018201D01*
X053927Y018171D01*
X053899Y018144D01*
X053869Y018119D01*
X053836Y018098D01*
X053801Y018081D01*
X053765Y018066D01*
X053728Y018056D01*
X053689Y018049D01*
X053651Y018046D01*
X053612Y018047D01*
X053573Y018052D01*
X053535Y018061D01*
X053499Y018073D01*
X053463Y018089D01*
X053429Y018108D01*
X053398Y018131D01*
X053369Y018157D01*
X053342Y018185D01*
X053319Y018216D01*
X053298Y018249D01*
X053282Y018285D01*
X053268Y018321D01*
X053259Y018359D01*
X053253Y018397D01*
X053251Y018436D01*
X053241Y018036D02*
X054041Y018836D01*
X053251Y019516D02*
X053253Y019555D01*
X053259Y019593D01*
X053268Y019631D01*
X053282Y019667D01*
X053298Y019703D01*
X053319Y019736D01*
X053342Y019767D01*
X053369Y019795D01*
X053398Y019821D01*
X053429Y019844D01*
X053463Y019863D01*
X053499Y019879D01*
X053535Y019891D01*
X053573Y019900D01*
X053612Y019905D01*
X053651Y019906D01*
X053689Y019903D01*
X053728Y019896D01*
X053765Y019886D01*
X053801Y019871D01*
X053836Y019854D01*
X053869Y019833D01*
X053899Y019808D01*
X053927Y019781D01*
X053952Y019751D01*
X053974Y019719D01*
X053992Y019685D01*
X054007Y019649D01*
X054019Y019612D01*
X054027Y019574D01*
X054031Y019535D01*
X054031Y019497D01*
X054027Y019458D01*
X054019Y019420D01*
X054007Y019383D01*
X053992Y019347D01*
X053974Y019313D01*
X053952Y019281D01*
X053927Y019251D01*
X053899Y019224D01*
X053869Y019199D01*
X053836Y019178D01*
X053801Y019161D01*
X053765Y019146D01*
X053728Y019136D01*
X053689Y019129D01*
X053651Y019126D01*
X053612Y019127D01*
X053573Y019132D01*
X053535Y019141D01*
X053499Y019153D01*
X053463Y019169D01*
X053429Y019188D01*
X053398Y019211D01*
X053369Y019237D01*
X053342Y019265D01*
X053319Y019296D01*
X053298Y019329D01*
X053282Y019365D01*
X053268Y019401D01*
X053259Y019439D01*
X053253Y019477D01*
X053251Y019516D01*
X053241Y019116D02*
X054041Y019916D01*
X053251Y020606D02*
X053253Y020645D01*
X053259Y020683D01*
X053268Y020721D01*
X053282Y020757D01*
X053298Y020793D01*
X053319Y020826D01*
X053342Y020857D01*
X053369Y020885D01*
X053398Y020911D01*
X053429Y020934D01*
X053463Y020953D01*
X053499Y020969D01*
X053535Y020981D01*
X053573Y020990D01*
X053612Y020995D01*
X053651Y020996D01*
X053689Y020993D01*
X053728Y020986D01*
X053765Y020976D01*
X053801Y020961D01*
X053836Y020944D01*
X053869Y020923D01*
X053899Y020898D01*
X053927Y020871D01*
X053952Y020841D01*
X053974Y020809D01*
X053992Y020775D01*
X054007Y020739D01*
X054019Y020702D01*
X054027Y020664D01*
X054031Y020625D01*
X054031Y020587D01*
X054027Y020548D01*
X054019Y020510D01*
X054007Y020473D01*
X053992Y020437D01*
X053974Y020403D01*
X053952Y020371D01*
X053927Y020341D01*
X053899Y020314D01*
X053869Y020289D01*
X053836Y020268D01*
X053801Y020251D01*
X053765Y020236D01*
X053728Y020226D01*
X053689Y020219D01*
X053651Y020216D01*
X053612Y020217D01*
X053573Y020222D01*
X053535Y020231D01*
X053499Y020243D01*
X053463Y020259D01*
X053429Y020278D01*
X053398Y020301D01*
X053369Y020327D01*
X053342Y020355D01*
X053319Y020386D01*
X053298Y020419D01*
X053282Y020455D01*
X053268Y020491D01*
X053259Y020529D01*
X053253Y020567D01*
X053251Y020606D01*
X053241Y020206D02*
X054041Y021006D01*
X053251Y021696D02*
X053253Y021735D01*
X053259Y021773D01*
X053268Y021811D01*
X053282Y021847D01*
X053298Y021883D01*
X053319Y021916D01*
X053342Y021947D01*
X053369Y021975D01*
X053398Y022001D01*
X053429Y022024D01*
X053463Y022043D01*
X053499Y022059D01*
X053535Y022071D01*
X053573Y022080D01*
X053612Y022085D01*
X053651Y022086D01*
X053689Y022083D01*
X053728Y022076D01*
X053765Y022066D01*
X053801Y022051D01*
X053836Y022034D01*
X053869Y022013D01*
X053899Y021988D01*
X053927Y021961D01*
X053952Y021931D01*
X053974Y021899D01*
X053992Y021865D01*
X054007Y021829D01*
X054019Y021792D01*
X054027Y021754D01*
X054031Y021715D01*
X054031Y021677D01*
X054027Y021638D01*
X054019Y021600D01*
X054007Y021563D01*
X053992Y021527D01*
X053974Y021493D01*
X053952Y021461D01*
X053927Y021431D01*
X053899Y021404D01*
X053869Y021379D01*
X053836Y021358D01*
X053801Y021341D01*
X053765Y021326D01*
X053728Y021316D01*
X053689Y021309D01*
X053651Y021306D01*
X053612Y021307D01*
X053573Y021312D01*
X053535Y021321D01*
X053499Y021333D01*
X053463Y021349D01*
X053429Y021368D01*
X053398Y021391D01*
X053369Y021417D01*
X053342Y021445D01*
X053319Y021476D01*
X053298Y021509D01*
X053282Y021545D01*
X053268Y021581D01*
X053259Y021619D01*
X053253Y021657D01*
X053251Y021696D01*
X053241Y021296D02*
X054041Y022096D01*
X053251Y022776D02*
X053253Y022815D01*
X053259Y022853D01*
X053268Y022891D01*
X053282Y022927D01*
X053298Y022963D01*
X053319Y022996D01*
X053342Y023027D01*
X053369Y023055D01*
X053398Y023081D01*
X053429Y023104D01*
X053463Y023123D01*
X053499Y023139D01*
X053535Y023151D01*
X053573Y023160D01*
X053612Y023165D01*
X053651Y023166D01*
X053689Y023163D01*
X053728Y023156D01*
X053765Y023146D01*
X053801Y023131D01*
X053836Y023114D01*
X053869Y023093D01*
X053899Y023068D01*
X053927Y023041D01*
X053952Y023011D01*
X053974Y022979D01*
X053992Y022945D01*
X054007Y022909D01*
X054019Y022872D01*
X054027Y022834D01*
X054031Y022795D01*
X054031Y022757D01*
X054027Y022718D01*
X054019Y022680D01*
X054007Y022643D01*
X053992Y022607D01*
X053974Y022573D01*
X053952Y022541D01*
X053927Y022511D01*
X053899Y022484D01*
X053869Y022459D01*
X053836Y022438D01*
X053801Y022421D01*
X053765Y022406D01*
X053728Y022396D01*
X053689Y022389D01*
X053651Y022386D01*
X053612Y022387D01*
X053573Y022392D01*
X053535Y022401D01*
X053499Y022413D01*
X053463Y022429D01*
X053429Y022448D01*
X053398Y022471D01*
X053369Y022497D01*
X053342Y022525D01*
X053319Y022556D01*
X053298Y022589D01*
X053282Y022625D01*
X053268Y022661D01*
X053259Y022699D01*
X053253Y022737D01*
X053251Y022776D01*
X053241Y022376D02*
X054041Y023176D01*
X053251Y023866D02*
X053253Y023905D01*
X053259Y023943D01*
X053268Y023981D01*
X053282Y024017D01*
X053298Y024053D01*
X053319Y024086D01*
X053342Y024117D01*
X053369Y024145D01*
X053398Y024171D01*
X053429Y024194D01*
X053463Y024213D01*
X053499Y024229D01*
X053535Y024241D01*
X053573Y024250D01*
X053612Y024255D01*
X053651Y024256D01*
X053689Y024253D01*
X053728Y024246D01*
X053765Y024236D01*
X053801Y024221D01*
X053836Y024204D01*
X053869Y024183D01*
X053899Y024158D01*
X053927Y024131D01*
X053952Y024101D01*
X053974Y024069D01*
X053992Y024035D01*
X054007Y023999D01*
X054019Y023962D01*
X054027Y023924D01*
X054031Y023885D01*
X054031Y023847D01*
X054027Y023808D01*
X054019Y023770D01*
X054007Y023733D01*
X053992Y023697D01*
X053974Y023663D01*
X053952Y023631D01*
X053927Y023601D01*
X053899Y023574D01*
X053869Y023549D01*
X053836Y023528D01*
X053801Y023511D01*
X053765Y023496D01*
X053728Y023486D01*
X053689Y023479D01*
X053651Y023476D01*
X053612Y023477D01*
X053573Y023482D01*
X053535Y023491D01*
X053499Y023503D01*
X053463Y023519D01*
X053429Y023538D01*
X053398Y023561D01*
X053369Y023587D01*
X053342Y023615D01*
X053319Y023646D01*
X053298Y023679D01*
X053282Y023715D01*
X053268Y023751D01*
X053259Y023789D01*
X053253Y023827D01*
X053251Y023866D01*
X053241Y023466D02*
X054041Y024266D01*
X053251Y024956D02*
X053253Y024995D01*
X053259Y025033D01*
X053268Y025071D01*
X053282Y025107D01*
X053298Y025143D01*
X053319Y025176D01*
X053342Y025207D01*
X053369Y025235D01*
X053398Y025261D01*
X053429Y025284D01*
X053463Y025303D01*
X053499Y025319D01*
X053535Y025331D01*
X053573Y025340D01*
X053612Y025345D01*
X053651Y025346D01*
X053689Y025343D01*
X053728Y025336D01*
X053765Y025326D01*
X053801Y025311D01*
X053836Y025294D01*
X053869Y025273D01*
X053899Y025248D01*
X053927Y025221D01*
X053952Y025191D01*
X053974Y025159D01*
X053992Y025125D01*
X054007Y025089D01*
X054019Y025052D01*
X054027Y025014D01*
X054031Y024975D01*
X054031Y024937D01*
X054027Y024898D01*
X054019Y024860D01*
X054007Y024823D01*
X053992Y024787D01*
X053974Y024753D01*
X053952Y024721D01*
X053927Y024691D01*
X053899Y024664D01*
X053869Y024639D01*
X053836Y024618D01*
X053801Y024601D01*
X053765Y024586D01*
X053728Y024576D01*
X053689Y024569D01*
X053651Y024566D01*
X053612Y024567D01*
X053573Y024572D01*
X053535Y024581D01*
X053499Y024593D01*
X053463Y024609D01*
X053429Y024628D01*
X053398Y024651D01*
X053369Y024677D01*
X053342Y024705D01*
X053319Y024736D01*
X053298Y024769D01*
X053282Y024805D01*
X053268Y024841D01*
X053259Y024879D01*
X053253Y024917D01*
X053251Y024956D01*
X053241Y024556D02*
X054041Y025356D01*
X052251Y025496D02*
X052253Y025535D01*
X052259Y025573D01*
X052268Y025611D01*
X052282Y025647D01*
X052298Y025683D01*
X052319Y025716D01*
X052342Y025747D01*
X052369Y025775D01*
X052398Y025801D01*
X052429Y025824D01*
X052463Y025843D01*
X052499Y025859D01*
X052535Y025871D01*
X052573Y025880D01*
X052612Y025885D01*
X052651Y025886D01*
X052689Y025883D01*
X052728Y025876D01*
X052765Y025866D01*
X052801Y025851D01*
X052836Y025834D01*
X052869Y025813D01*
X052899Y025788D01*
X052927Y025761D01*
X052952Y025731D01*
X052974Y025699D01*
X052992Y025665D01*
X053007Y025629D01*
X053019Y025592D01*
X053027Y025554D01*
X053031Y025515D01*
X053031Y025477D01*
X053027Y025438D01*
X053019Y025400D01*
X053007Y025363D01*
X052992Y025327D01*
X052974Y025293D01*
X052952Y025261D01*
X052927Y025231D01*
X052899Y025204D01*
X052869Y025179D01*
X052836Y025158D01*
X052801Y025141D01*
X052765Y025126D01*
X052728Y025116D01*
X052689Y025109D01*
X052651Y025106D01*
X052612Y025107D01*
X052573Y025112D01*
X052535Y025121D01*
X052499Y025133D01*
X052463Y025149D01*
X052429Y025168D01*
X052398Y025191D01*
X052369Y025217D01*
X052342Y025245D01*
X052319Y025276D01*
X052298Y025309D01*
X052282Y025345D01*
X052268Y025381D01*
X052259Y025419D01*
X052253Y025457D01*
X052251Y025496D01*
X052241Y025096D02*
X053041Y025896D01*
X052251Y024406D02*
X052253Y024445D01*
X052259Y024483D01*
X052268Y024521D01*
X052282Y024557D01*
X052298Y024593D01*
X052319Y024626D01*
X052342Y024657D01*
X052369Y024685D01*
X052398Y024711D01*
X052429Y024734D01*
X052463Y024753D01*
X052499Y024769D01*
X052535Y024781D01*
X052573Y024790D01*
X052612Y024795D01*
X052651Y024796D01*
X052689Y024793D01*
X052728Y024786D01*
X052765Y024776D01*
X052801Y024761D01*
X052836Y024744D01*
X052869Y024723D01*
X052899Y024698D01*
X052927Y024671D01*
X052952Y024641D01*
X052974Y024609D01*
X052992Y024575D01*
X053007Y024539D01*
X053019Y024502D01*
X053027Y024464D01*
X053031Y024425D01*
X053031Y024387D01*
X053027Y024348D01*
X053019Y024310D01*
X053007Y024273D01*
X052992Y024237D01*
X052974Y024203D01*
X052952Y024171D01*
X052927Y024141D01*
X052899Y024114D01*
X052869Y024089D01*
X052836Y024068D01*
X052801Y024051D01*
X052765Y024036D01*
X052728Y024026D01*
X052689Y024019D01*
X052651Y024016D01*
X052612Y024017D01*
X052573Y024022D01*
X052535Y024031D01*
X052499Y024043D01*
X052463Y024059D01*
X052429Y024078D01*
X052398Y024101D01*
X052369Y024127D01*
X052342Y024155D01*
X052319Y024186D01*
X052298Y024219D01*
X052282Y024255D01*
X052268Y024291D01*
X052259Y024329D01*
X052253Y024367D01*
X052251Y024406D01*
X052241Y024006D02*
X053041Y024806D01*
X052251Y023326D02*
X052253Y023365D01*
X052259Y023403D01*
X052268Y023441D01*
X052282Y023477D01*
X052298Y023513D01*
X052319Y023546D01*
X052342Y023577D01*
X052369Y023605D01*
X052398Y023631D01*
X052429Y023654D01*
X052463Y023673D01*
X052499Y023689D01*
X052535Y023701D01*
X052573Y023710D01*
X052612Y023715D01*
X052651Y023716D01*
X052689Y023713D01*
X052728Y023706D01*
X052765Y023696D01*
X052801Y023681D01*
X052836Y023664D01*
X052869Y023643D01*
X052899Y023618D01*
X052927Y023591D01*
X052952Y023561D01*
X052974Y023529D01*
X052992Y023495D01*
X053007Y023459D01*
X053019Y023422D01*
X053027Y023384D01*
X053031Y023345D01*
X053031Y023307D01*
X053027Y023268D01*
X053019Y023230D01*
X053007Y023193D01*
X052992Y023157D01*
X052974Y023123D01*
X052952Y023091D01*
X052927Y023061D01*
X052899Y023034D01*
X052869Y023009D01*
X052836Y022988D01*
X052801Y022971D01*
X052765Y022956D01*
X052728Y022946D01*
X052689Y022939D01*
X052651Y022936D01*
X052612Y022937D01*
X052573Y022942D01*
X052535Y022951D01*
X052499Y022963D01*
X052463Y022979D01*
X052429Y022998D01*
X052398Y023021D01*
X052369Y023047D01*
X052342Y023075D01*
X052319Y023106D01*
X052298Y023139D01*
X052282Y023175D01*
X052268Y023211D01*
X052259Y023249D01*
X052253Y023287D01*
X052251Y023326D01*
X052241Y022926D02*
X053041Y023726D01*
X052251Y022236D02*
X052253Y022275D01*
X052259Y022313D01*
X052268Y022351D01*
X052282Y022387D01*
X052298Y022423D01*
X052319Y022456D01*
X052342Y022487D01*
X052369Y022515D01*
X052398Y022541D01*
X052429Y022564D01*
X052463Y022583D01*
X052499Y022599D01*
X052535Y022611D01*
X052573Y022620D01*
X052612Y022625D01*
X052651Y022626D01*
X052689Y022623D01*
X052728Y022616D01*
X052765Y022606D01*
X052801Y022591D01*
X052836Y022574D01*
X052869Y022553D01*
X052899Y022528D01*
X052927Y022501D01*
X052952Y022471D01*
X052974Y022439D01*
X052992Y022405D01*
X053007Y022369D01*
X053019Y022332D01*
X053027Y022294D01*
X053031Y022255D01*
X053031Y022217D01*
X053027Y022178D01*
X053019Y022140D01*
X053007Y022103D01*
X052992Y022067D01*
X052974Y022033D01*
X052952Y022001D01*
X052927Y021971D01*
X052899Y021944D01*
X052869Y021919D01*
X052836Y021898D01*
X052801Y021881D01*
X052765Y021866D01*
X052728Y021856D01*
X052689Y021849D01*
X052651Y021846D01*
X052612Y021847D01*
X052573Y021852D01*
X052535Y021861D01*
X052499Y021873D01*
X052463Y021889D01*
X052429Y021908D01*
X052398Y021931D01*
X052369Y021957D01*
X052342Y021985D01*
X052319Y022016D01*
X052298Y022049D01*
X052282Y022085D01*
X052268Y022121D01*
X052259Y022159D01*
X052253Y022197D01*
X052251Y022236D01*
X052241Y021836D02*
X053041Y022636D01*
X052251Y021146D02*
X052253Y021185D01*
X052259Y021223D01*
X052268Y021261D01*
X052282Y021297D01*
X052298Y021333D01*
X052319Y021366D01*
X052342Y021397D01*
X052369Y021425D01*
X052398Y021451D01*
X052429Y021474D01*
X052463Y021493D01*
X052499Y021509D01*
X052535Y021521D01*
X052573Y021530D01*
X052612Y021535D01*
X052651Y021536D01*
X052689Y021533D01*
X052728Y021526D01*
X052765Y021516D01*
X052801Y021501D01*
X052836Y021484D01*
X052869Y021463D01*
X052899Y021438D01*
X052927Y021411D01*
X052952Y021381D01*
X052974Y021349D01*
X052992Y021315D01*
X053007Y021279D01*
X053019Y021242D01*
X053027Y021204D01*
X053031Y021165D01*
X053031Y021127D01*
X053027Y021088D01*
X053019Y021050D01*
X053007Y021013D01*
X052992Y020977D01*
X052974Y020943D01*
X052952Y020911D01*
X052927Y020881D01*
X052899Y020854D01*
X052869Y020829D01*
X052836Y020808D01*
X052801Y020791D01*
X052765Y020776D01*
X052728Y020766D01*
X052689Y020759D01*
X052651Y020756D01*
X052612Y020757D01*
X052573Y020762D01*
X052535Y020771D01*
X052499Y020783D01*
X052463Y020799D01*
X052429Y020818D01*
X052398Y020841D01*
X052369Y020867D01*
X052342Y020895D01*
X052319Y020926D01*
X052298Y020959D01*
X052282Y020995D01*
X052268Y021031D01*
X052259Y021069D01*
X052253Y021107D01*
X052251Y021146D01*
X052241Y020746D02*
X053041Y021546D01*
X052251Y020066D02*
X052253Y020105D01*
X052259Y020143D01*
X052268Y020181D01*
X052282Y020217D01*
X052298Y020253D01*
X052319Y020286D01*
X052342Y020317D01*
X052369Y020345D01*
X052398Y020371D01*
X052429Y020394D01*
X052463Y020413D01*
X052499Y020429D01*
X052535Y020441D01*
X052573Y020450D01*
X052612Y020455D01*
X052651Y020456D01*
X052689Y020453D01*
X052728Y020446D01*
X052765Y020436D01*
X052801Y020421D01*
X052836Y020404D01*
X052869Y020383D01*
X052899Y020358D01*
X052927Y020331D01*
X052952Y020301D01*
X052974Y020269D01*
X052992Y020235D01*
X053007Y020199D01*
X053019Y020162D01*
X053027Y020124D01*
X053031Y020085D01*
X053031Y020047D01*
X053027Y020008D01*
X053019Y019970D01*
X053007Y019933D01*
X052992Y019897D01*
X052974Y019863D01*
X052952Y019831D01*
X052927Y019801D01*
X052899Y019774D01*
X052869Y019749D01*
X052836Y019728D01*
X052801Y019711D01*
X052765Y019696D01*
X052728Y019686D01*
X052689Y019679D01*
X052651Y019676D01*
X052612Y019677D01*
X052573Y019682D01*
X052535Y019691D01*
X052499Y019703D01*
X052463Y019719D01*
X052429Y019738D01*
X052398Y019761D01*
X052369Y019787D01*
X052342Y019815D01*
X052319Y019846D01*
X052298Y019879D01*
X052282Y019915D01*
X052268Y019951D01*
X052259Y019989D01*
X052253Y020027D01*
X052251Y020066D01*
X052241Y019666D02*
X053041Y020466D01*
X052251Y018976D02*
X052253Y019015D01*
X052259Y019053D01*
X052268Y019091D01*
X052282Y019127D01*
X052298Y019163D01*
X052319Y019196D01*
X052342Y019227D01*
X052369Y019255D01*
X052398Y019281D01*
X052429Y019304D01*
X052463Y019323D01*
X052499Y019339D01*
X052535Y019351D01*
X052573Y019360D01*
X052612Y019365D01*
X052651Y019366D01*
X052689Y019363D01*
X052728Y019356D01*
X052765Y019346D01*
X052801Y019331D01*
X052836Y019314D01*
X052869Y019293D01*
X052899Y019268D01*
X052927Y019241D01*
X052952Y019211D01*
X052974Y019179D01*
X052992Y019145D01*
X053007Y019109D01*
X053019Y019072D01*
X053027Y019034D01*
X053031Y018995D01*
X053031Y018957D01*
X053027Y018918D01*
X053019Y018880D01*
X053007Y018843D01*
X052992Y018807D01*
X052974Y018773D01*
X052952Y018741D01*
X052927Y018711D01*
X052899Y018684D01*
X052869Y018659D01*
X052836Y018638D01*
X052801Y018621D01*
X052765Y018606D01*
X052728Y018596D01*
X052689Y018589D01*
X052651Y018586D01*
X052612Y018587D01*
X052573Y018592D01*
X052535Y018601D01*
X052499Y018613D01*
X052463Y018629D01*
X052429Y018648D01*
X052398Y018671D01*
X052369Y018697D01*
X052342Y018725D01*
X052319Y018756D01*
X052298Y018789D01*
X052282Y018825D01*
X052268Y018861D01*
X052259Y018899D01*
X052253Y018937D01*
X052251Y018976D01*
X052241Y018576D02*
X053041Y019376D01*
X053251Y017346D02*
X053253Y017385D01*
X053259Y017423D01*
X053268Y017461D01*
X053282Y017497D01*
X053298Y017533D01*
X053319Y017566D01*
X053342Y017597D01*
X053369Y017625D01*
X053398Y017651D01*
X053429Y017674D01*
X053463Y017693D01*
X053499Y017709D01*
X053535Y017721D01*
X053573Y017730D01*
X053612Y017735D01*
X053651Y017736D01*
X053689Y017733D01*
X053728Y017726D01*
X053765Y017716D01*
X053801Y017701D01*
X053836Y017684D01*
X053869Y017663D01*
X053899Y017638D01*
X053927Y017611D01*
X053952Y017581D01*
X053974Y017549D01*
X053992Y017515D01*
X054007Y017479D01*
X054019Y017442D01*
X054027Y017404D01*
X054031Y017365D01*
X054031Y017327D01*
X054027Y017288D01*
X054019Y017250D01*
X054007Y017213D01*
X053992Y017177D01*
X053974Y017143D01*
X053952Y017111D01*
X053927Y017081D01*
X053899Y017054D01*
X053869Y017029D01*
X053836Y017008D01*
X053801Y016991D01*
X053765Y016976D01*
X053728Y016966D01*
X053689Y016959D01*
X053651Y016956D01*
X053612Y016957D01*
X053573Y016962D01*
X053535Y016971D01*
X053499Y016983D01*
X053463Y016999D01*
X053429Y017018D01*
X053398Y017041D01*
X053369Y017067D01*
X053342Y017095D01*
X053319Y017126D01*
X053298Y017159D01*
X053282Y017195D01*
X053268Y017231D01*
X053259Y017269D01*
X053253Y017307D01*
X053251Y017346D01*
X053241Y016946D02*
X054041Y017746D01*
X052251Y016806D02*
X052253Y016845D01*
X052259Y016883D01*
X052268Y016921D01*
X052282Y016957D01*
X052298Y016993D01*
X052319Y017026D01*
X052342Y017057D01*
X052369Y017085D01*
X052398Y017111D01*
X052429Y017134D01*
X052463Y017153D01*
X052499Y017169D01*
X052535Y017181D01*
X052573Y017190D01*
X052612Y017195D01*
X052651Y017196D01*
X052689Y017193D01*
X052728Y017186D01*
X052765Y017176D01*
X052801Y017161D01*
X052836Y017144D01*
X052869Y017123D01*
X052899Y017098D01*
X052927Y017071D01*
X052952Y017041D01*
X052974Y017009D01*
X052992Y016975D01*
X053007Y016939D01*
X053019Y016902D01*
X053027Y016864D01*
X053031Y016825D01*
X053031Y016787D01*
X053027Y016748D01*
X053019Y016710D01*
X053007Y016673D01*
X052992Y016637D01*
X052974Y016603D01*
X052952Y016571D01*
X052927Y016541D01*
X052899Y016514D01*
X052869Y016489D01*
X052836Y016468D01*
X052801Y016451D01*
X052765Y016436D01*
X052728Y016426D01*
X052689Y016419D01*
X052651Y016416D01*
X052612Y016417D01*
X052573Y016422D01*
X052535Y016431D01*
X052499Y016443D01*
X052463Y016459D01*
X052429Y016478D01*
X052398Y016501D01*
X052369Y016527D01*
X052342Y016555D01*
X052319Y016586D01*
X052298Y016619D01*
X052282Y016655D01*
X052268Y016691D01*
X052259Y016729D01*
X052253Y016767D01*
X052251Y016806D01*
X052241Y016406D02*
X053041Y017206D01*
X053251Y016256D02*
X053253Y016295D01*
X053259Y016333D01*
X053268Y016371D01*
X053282Y016407D01*
X053298Y016443D01*
X053319Y016476D01*
X053342Y016507D01*
X053369Y016535D01*
X053398Y016561D01*
X053429Y016584D01*
X053463Y016603D01*
X053499Y016619D01*
X053535Y016631D01*
X053573Y016640D01*
X053612Y016645D01*
X053651Y016646D01*
X053689Y016643D01*
X053728Y016636D01*
X053765Y016626D01*
X053801Y016611D01*
X053836Y016594D01*
X053869Y016573D01*
X053899Y016548D01*
X053927Y016521D01*
X053952Y016491D01*
X053974Y016459D01*
X053992Y016425D01*
X054007Y016389D01*
X054019Y016352D01*
X054027Y016314D01*
X054031Y016275D01*
X054031Y016237D01*
X054027Y016198D01*
X054019Y016160D01*
X054007Y016123D01*
X053992Y016087D01*
X053974Y016053D01*
X053952Y016021D01*
X053927Y015991D01*
X053899Y015964D01*
X053869Y015939D01*
X053836Y015918D01*
X053801Y015901D01*
X053765Y015886D01*
X053728Y015876D01*
X053689Y015869D01*
X053651Y015866D01*
X053612Y015867D01*
X053573Y015872D01*
X053535Y015881D01*
X053499Y015893D01*
X053463Y015909D01*
X053429Y015928D01*
X053398Y015951D01*
X053369Y015977D01*
X053342Y016005D01*
X053319Y016036D01*
X053298Y016069D01*
X053282Y016105D01*
X053268Y016141D01*
X053259Y016179D01*
X053253Y016217D01*
X053251Y016256D01*
X053241Y015856D02*
X054041Y016656D01*
X052251Y015716D02*
X052253Y015755D01*
X052259Y015793D01*
X052268Y015831D01*
X052282Y015867D01*
X052298Y015903D01*
X052319Y015936D01*
X052342Y015967D01*
X052369Y015995D01*
X052398Y016021D01*
X052429Y016044D01*
X052463Y016063D01*
X052499Y016079D01*
X052535Y016091D01*
X052573Y016100D01*
X052612Y016105D01*
X052651Y016106D01*
X052689Y016103D01*
X052728Y016096D01*
X052765Y016086D01*
X052801Y016071D01*
X052836Y016054D01*
X052869Y016033D01*
X052899Y016008D01*
X052927Y015981D01*
X052952Y015951D01*
X052974Y015919D01*
X052992Y015885D01*
X053007Y015849D01*
X053019Y015812D01*
X053027Y015774D01*
X053031Y015735D01*
X053031Y015697D01*
X053027Y015658D01*
X053019Y015620D01*
X053007Y015583D01*
X052992Y015547D01*
X052974Y015513D01*
X052952Y015481D01*
X052927Y015451D01*
X052899Y015424D01*
X052869Y015399D01*
X052836Y015378D01*
X052801Y015361D01*
X052765Y015346D01*
X052728Y015336D01*
X052689Y015329D01*
X052651Y015326D01*
X052612Y015327D01*
X052573Y015332D01*
X052535Y015341D01*
X052499Y015353D01*
X052463Y015369D01*
X052429Y015388D01*
X052398Y015411D01*
X052369Y015437D01*
X052342Y015465D01*
X052319Y015496D01*
X052298Y015529D01*
X052282Y015565D01*
X052268Y015601D01*
X052259Y015639D01*
X052253Y015677D01*
X052251Y015716D01*
X052241Y015316D02*
X053041Y016116D01*
X053251Y015176D02*
X053253Y015215D01*
X053259Y015253D01*
X053268Y015291D01*
X053282Y015327D01*
X053298Y015363D01*
X053319Y015396D01*
X053342Y015427D01*
X053369Y015455D01*
X053398Y015481D01*
X053429Y015504D01*
X053463Y015523D01*
X053499Y015539D01*
X053535Y015551D01*
X053573Y015560D01*
X053612Y015565D01*
X053651Y015566D01*
X053689Y015563D01*
X053728Y015556D01*
X053765Y015546D01*
X053801Y015531D01*
X053836Y015514D01*
X053869Y015493D01*
X053899Y015468D01*
X053927Y015441D01*
X053952Y015411D01*
X053974Y015379D01*
X053992Y015345D01*
X054007Y015309D01*
X054019Y015272D01*
X054027Y015234D01*
X054031Y015195D01*
X054031Y015157D01*
X054027Y015118D01*
X054019Y015080D01*
X054007Y015043D01*
X053992Y015007D01*
X053974Y014973D01*
X053952Y014941D01*
X053927Y014911D01*
X053899Y014884D01*
X053869Y014859D01*
X053836Y014838D01*
X053801Y014821D01*
X053765Y014806D01*
X053728Y014796D01*
X053689Y014789D01*
X053651Y014786D01*
X053612Y014787D01*
X053573Y014792D01*
X053535Y014801D01*
X053499Y014813D01*
X053463Y014829D01*
X053429Y014848D01*
X053398Y014871D01*
X053369Y014897D01*
X053342Y014925D01*
X053319Y014956D01*
X053298Y014989D01*
X053282Y015025D01*
X053268Y015061D01*
X053259Y015099D01*
X053253Y015137D01*
X053251Y015176D01*
X053241Y014776D02*
X054041Y015576D01*
X052251Y014626D02*
X052253Y014665D01*
X052259Y014703D01*
X052268Y014741D01*
X052282Y014777D01*
X052298Y014813D01*
X052319Y014846D01*
X052342Y014877D01*
X052369Y014905D01*
X052398Y014931D01*
X052429Y014954D01*
X052463Y014973D01*
X052499Y014989D01*
X052535Y015001D01*
X052573Y015010D01*
X052612Y015015D01*
X052651Y015016D01*
X052689Y015013D01*
X052728Y015006D01*
X052765Y014996D01*
X052801Y014981D01*
X052836Y014964D01*
X052869Y014943D01*
X052899Y014918D01*
X052927Y014891D01*
X052952Y014861D01*
X052974Y014829D01*
X052992Y014795D01*
X053007Y014759D01*
X053019Y014722D01*
X053027Y014684D01*
X053031Y014645D01*
X053031Y014607D01*
X053027Y014568D01*
X053019Y014530D01*
X053007Y014493D01*
X052992Y014457D01*
X052974Y014423D01*
X052952Y014391D01*
X052927Y014361D01*
X052899Y014334D01*
X052869Y014309D01*
X052836Y014288D01*
X052801Y014271D01*
X052765Y014256D01*
X052728Y014246D01*
X052689Y014239D01*
X052651Y014236D01*
X052612Y014237D01*
X052573Y014242D01*
X052535Y014251D01*
X052499Y014263D01*
X052463Y014279D01*
X052429Y014298D01*
X052398Y014321D01*
X052369Y014347D01*
X052342Y014375D01*
X052319Y014406D01*
X052298Y014439D01*
X052282Y014475D01*
X052268Y014511D01*
X052259Y014549D01*
X052253Y014587D01*
X052251Y014626D01*
X052241Y014226D02*
X053041Y015026D01*
X053251Y014086D02*
X053253Y014125D01*
X053259Y014163D01*
X053268Y014201D01*
X053282Y014237D01*
X053298Y014273D01*
X053319Y014306D01*
X053342Y014337D01*
X053369Y014365D01*
X053398Y014391D01*
X053429Y014414D01*
X053463Y014433D01*
X053499Y014449D01*
X053535Y014461D01*
X053573Y014470D01*
X053612Y014475D01*
X053651Y014476D01*
X053689Y014473D01*
X053728Y014466D01*
X053765Y014456D01*
X053801Y014441D01*
X053836Y014424D01*
X053869Y014403D01*
X053899Y014378D01*
X053927Y014351D01*
X053952Y014321D01*
X053974Y014289D01*
X053992Y014255D01*
X054007Y014219D01*
X054019Y014182D01*
X054027Y014144D01*
X054031Y014105D01*
X054031Y014067D01*
X054027Y014028D01*
X054019Y013990D01*
X054007Y013953D01*
X053992Y013917D01*
X053974Y013883D01*
X053952Y013851D01*
X053927Y013821D01*
X053899Y013794D01*
X053869Y013769D01*
X053836Y013748D01*
X053801Y013731D01*
X053765Y013716D01*
X053728Y013706D01*
X053689Y013699D01*
X053651Y013696D01*
X053612Y013697D01*
X053573Y013702D01*
X053535Y013711D01*
X053499Y013723D01*
X053463Y013739D01*
X053429Y013758D01*
X053398Y013781D01*
X053369Y013807D01*
X053342Y013835D01*
X053319Y013866D01*
X053298Y013899D01*
X053282Y013935D01*
X053268Y013971D01*
X053259Y014009D01*
X053253Y014047D01*
X053251Y014086D01*
X053241Y013686D02*
X054041Y014486D01*
X052251Y013546D02*
X052253Y013585D01*
X052259Y013623D01*
X052268Y013661D01*
X052282Y013697D01*
X052298Y013733D01*
X052319Y013766D01*
X052342Y013797D01*
X052369Y013825D01*
X052398Y013851D01*
X052429Y013874D01*
X052463Y013893D01*
X052499Y013909D01*
X052535Y013921D01*
X052573Y013930D01*
X052612Y013935D01*
X052651Y013936D01*
X052689Y013933D01*
X052728Y013926D01*
X052765Y013916D01*
X052801Y013901D01*
X052836Y013884D01*
X052869Y013863D01*
X052899Y013838D01*
X052927Y013811D01*
X052952Y013781D01*
X052974Y013749D01*
X052992Y013715D01*
X053007Y013679D01*
X053019Y013642D01*
X053027Y013604D01*
X053031Y013565D01*
X053031Y013527D01*
X053027Y013488D01*
X053019Y013450D01*
X053007Y013413D01*
X052992Y013377D01*
X052974Y013343D01*
X052952Y013311D01*
X052927Y013281D01*
X052899Y013254D01*
X052869Y013229D01*
X052836Y013208D01*
X052801Y013191D01*
X052765Y013176D01*
X052728Y013166D01*
X052689Y013159D01*
X052651Y013156D01*
X052612Y013157D01*
X052573Y013162D01*
X052535Y013171D01*
X052499Y013183D01*
X052463Y013199D01*
X052429Y013218D01*
X052398Y013241D01*
X052369Y013267D01*
X052342Y013295D01*
X052319Y013326D01*
X052298Y013359D01*
X052282Y013395D01*
X052268Y013431D01*
X052259Y013469D01*
X052253Y013507D01*
X052251Y013546D01*
X052241Y013146D02*
X053041Y013946D01*
X053251Y012996D02*
X053253Y013035D01*
X053259Y013073D01*
X053268Y013111D01*
X053282Y013147D01*
X053298Y013183D01*
X053319Y013216D01*
X053342Y013247D01*
X053369Y013275D01*
X053398Y013301D01*
X053429Y013324D01*
X053463Y013343D01*
X053499Y013359D01*
X053535Y013371D01*
X053573Y013380D01*
X053612Y013385D01*
X053651Y013386D01*
X053689Y013383D01*
X053728Y013376D01*
X053765Y013366D01*
X053801Y013351D01*
X053836Y013334D01*
X053869Y013313D01*
X053899Y013288D01*
X053927Y013261D01*
X053952Y013231D01*
X053974Y013199D01*
X053992Y013165D01*
X054007Y013129D01*
X054019Y013092D01*
X054027Y013054D01*
X054031Y013015D01*
X054031Y012977D01*
X054027Y012938D01*
X054019Y012900D01*
X054007Y012863D01*
X053992Y012827D01*
X053974Y012793D01*
X053952Y012761D01*
X053927Y012731D01*
X053899Y012704D01*
X053869Y012679D01*
X053836Y012658D01*
X053801Y012641D01*
X053765Y012626D01*
X053728Y012616D01*
X053689Y012609D01*
X053651Y012606D01*
X053612Y012607D01*
X053573Y012612D01*
X053535Y012621D01*
X053499Y012633D01*
X053463Y012649D01*
X053429Y012668D01*
X053398Y012691D01*
X053369Y012717D01*
X053342Y012745D01*
X053319Y012776D01*
X053298Y012809D01*
X053282Y012845D01*
X053268Y012881D01*
X053259Y012919D01*
X053253Y012957D01*
X053251Y012996D01*
X053241Y012596D02*
X054041Y013396D01*
X052251Y012456D02*
X052253Y012495D01*
X052259Y012533D01*
X052268Y012571D01*
X052282Y012607D01*
X052298Y012643D01*
X052319Y012676D01*
X052342Y012707D01*
X052369Y012735D01*
X052398Y012761D01*
X052429Y012784D01*
X052463Y012803D01*
X052499Y012819D01*
X052535Y012831D01*
X052573Y012840D01*
X052612Y012845D01*
X052651Y012846D01*
X052689Y012843D01*
X052728Y012836D01*
X052765Y012826D01*
X052801Y012811D01*
X052836Y012794D01*
X052869Y012773D01*
X052899Y012748D01*
X052927Y012721D01*
X052952Y012691D01*
X052974Y012659D01*
X052992Y012625D01*
X053007Y012589D01*
X053019Y012552D01*
X053027Y012514D01*
X053031Y012475D01*
X053031Y012437D01*
X053027Y012398D01*
X053019Y012360D01*
X053007Y012323D01*
X052992Y012287D01*
X052974Y012253D01*
X052952Y012221D01*
X052927Y012191D01*
X052899Y012164D01*
X052869Y012139D01*
X052836Y012118D01*
X052801Y012101D01*
X052765Y012086D01*
X052728Y012076D01*
X052689Y012069D01*
X052651Y012066D01*
X052612Y012067D01*
X052573Y012072D01*
X052535Y012081D01*
X052499Y012093D01*
X052463Y012109D01*
X052429Y012128D01*
X052398Y012151D01*
X052369Y012177D01*
X052342Y012205D01*
X052319Y012236D01*
X052298Y012269D01*
X052282Y012305D01*
X052268Y012341D01*
X052259Y012379D01*
X052253Y012417D01*
X052251Y012456D01*
X052241Y012056D02*
X053041Y012856D01*
X052751Y009716D02*
X052753Y009755D01*
X052759Y009793D01*
X052768Y009831D01*
X052782Y009867D01*
X052798Y009903D01*
X052819Y009936D01*
X052842Y009967D01*
X052869Y009995D01*
X052898Y010021D01*
X052929Y010044D01*
X052963Y010063D01*
X052999Y010079D01*
X053035Y010091D01*
X053073Y010100D01*
X053112Y010105D01*
X053151Y010106D01*
X053189Y010103D01*
X053228Y010096D01*
X053265Y010086D01*
X053301Y010071D01*
X053336Y010054D01*
X053369Y010033D01*
X053399Y010008D01*
X053427Y009981D01*
X053452Y009951D01*
X053474Y009919D01*
X053492Y009885D01*
X053507Y009849D01*
X053519Y009812D01*
X053527Y009774D01*
X053531Y009735D01*
X053531Y009697D01*
X053527Y009658D01*
X053519Y009620D01*
X053507Y009583D01*
X053492Y009547D01*
X053474Y009513D01*
X053452Y009481D01*
X053427Y009451D01*
X053399Y009424D01*
X053369Y009399D01*
X053336Y009378D01*
X053301Y009361D01*
X053265Y009346D01*
X053228Y009336D01*
X053189Y009329D01*
X053151Y009326D01*
X053112Y009327D01*
X053073Y009332D01*
X053035Y009341D01*
X052999Y009353D01*
X052963Y009369D01*
X052929Y009388D01*
X052898Y009411D01*
X052869Y009437D01*
X052842Y009465D01*
X052819Y009496D01*
X052798Y009529D01*
X052782Y009565D01*
X052768Y009601D01*
X052759Y009639D01*
X052753Y009677D01*
X052751Y009716D01*
X052741Y009316D02*
X053541Y010116D01*
X049221Y008541D02*
X049223Y008580D01*
X049229Y008618D01*
X049238Y008656D01*
X049252Y008692D01*
X049268Y008728D01*
X049289Y008761D01*
X049312Y008792D01*
X049339Y008820D01*
X049368Y008846D01*
X049399Y008869D01*
X049433Y008888D01*
X049469Y008904D01*
X049505Y008916D01*
X049543Y008925D01*
X049582Y008930D01*
X049621Y008931D01*
X049659Y008928D01*
X049698Y008921D01*
X049735Y008911D01*
X049771Y008896D01*
X049806Y008879D01*
X049839Y008858D01*
X049869Y008833D01*
X049897Y008806D01*
X049922Y008776D01*
X049944Y008744D01*
X049962Y008710D01*
X049977Y008674D01*
X049989Y008637D01*
X049997Y008599D01*
X050001Y008560D01*
X050001Y008522D01*
X049997Y008483D01*
X049989Y008445D01*
X049977Y008408D01*
X049962Y008372D01*
X049944Y008338D01*
X049922Y008306D01*
X049897Y008276D01*
X049869Y008249D01*
X049839Y008224D01*
X049806Y008203D01*
X049771Y008186D01*
X049735Y008171D01*
X049698Y008161D01*
X049659Y008154D01*
X049621Y008151D01*
X049582Y008152D01*
X049543Y008157D01*
X049505Y008166D01*
X049469Y008178D01*
X049433Y008194D01*
X049399Y008213D01*
X049368Y008236D01*
X049339Y008262D01*
X049312Y008290D01*
X049289Y008321D01*
X049268Y008354D01*
X049252Y008390D01*
X049238Y008426D01*
X049229Y008464D01*
X049223Y008502D01*
X049221Y008541D01*
X049211Y008141D02*
X050011Y008941D01*
X053901Y002181D02*
X053903Y002220D01*
X053909Y002258D01*
X053918Y002296D01*
X053932Y002332D01*
X053948Y002368D01*
X053969Y002401D01*
X053992Y002432D01*
X054019Y002460D01*
X054048Y002486D01*
X054079Y002509D01*
X054113Y002528D01*
X054149Y002544D01*
X054185Y002556D01*
X054223Y002565D01*
X054262Y002570D01*
X054301Y002571D01*
X054339Y002568D01*
X054378Y002561D01*
X054415Y002551D01*
X054451Y002536D01*
X054486Y002519D01*
X054519Y002498D01*
X054549Y002473D01*
X054577Y002446D01*
X054602Y002416D01*
X054624Y002384D01*
X054642Y002350D01*
X054657Y002314D01*
X054669Y002277D01*
X054677Y002239D01*
X054681Y002200D01*
X054681Y002162D01*
X054677Y002123D01*
X054669Y002085D01*
X054657Y002048D01*
X054642Y002012D01*
X054624Y001978D01*
X054602Y001946D01*
X054577Y001916D01*
X054549Y001889D01*
X054519Y001864D01*
X054486Y001843D01*
X054451Y001826D01*
X054415Y001811D01*
X054378Y001801D01*
X054339Y001794D01*
X054301Y001791D01*
X054262Y001792D01*
X054223Y001797D01*
X054185Y001806D01*
X054149Y001818D01*
X054113Y001834D01*
X054079Y001853D01*
X054048Y001876D01*
X054019Y001902D01*
X053992Y001930D01*
X053969Y001961D01*
X053948Y001994D01*
X053932Y002030D01*
X053918Y002066D01*
X053909Y002104D01*
X053903Y002142D01*
X053901Y002181D01*
X053891Y001781D02*
X054691Y002581D01*
X052751Y028236D02*
X052753Y028275D01*
X052759Y028313D01*
X052768Y028351D01*
X052782Y028387D01*
X052798Y028423D01*
X052819Y028456D01*
X052842Y028487D01*
X052869Y028515D01*
X052898Y028541D01*
X052929Y028564D01*
X052963Y028583D01*
X052999Y028599D01*
X053035Y028611D01*
X053073Y028620D01*
X053112Y028625D01*
X053151Y028626D01*
X053189Y028623D01*
X053228Y028616D01*
X053265Y028606D01*
X053301Y028591D01*
X053336Y028574D01*
X053369Y028553D01*
X053399Y028528D01*
X053427Y028501D01*
X053452Y028471D01*
X053474Y028439D01*
X053492Y028405D01*
X053507Y028369D01*
X053519Y028332D01*
X053527Y028294D01*
X053531Y028255D01*
X053531Y028217D01*
X053527Y028178D01*
X053519Y028140D01*
X053507Y028103D01*
X053492Y028067D01*
X053474Y028033D01*
X053452Y028001D01*
X053427Y027971D01*
X053399Y027944D01*
X053369Y027919D01*
X053336Y027898D01*
X053301Y027881D01*
X053265Y027866D01*
X053228Y027856D01*
X053189Y027849D01*
X053151Y027846D01*
X053112Y027847D01*
X053073Y027852D01*
X053035Y027861D01*
X052999Y027873D01*
X052963Y027889D01*
X052929Y027908D01*
X052898Y027931D01*
X052869Y027957D01*
X052842Y027985D01*
X052819Y028016D01*
X052798Y028049D01*
X052782Y028085D01*
X052768Y028121D01*
X052759Y028159D01*
X052753Y028197D01*
X052751Y028236D01*
X052741Y027836D02*
X053541Y028636D01*
X052201Y032031D02*
X052203Y032070D01*
X052209Y032108D01*
X052218Y032146D01*
X052232Y032182D01*
X052248Y032218D01*
X052269Y032251D01*
X052292Y032282D01*
X052319Y032310D01*
X052348Y032336D01*
X052379Y032359D01*
X052413Y032378D01*
X052449Y032394D01*
X052485Y032406D01*
X052523Y032415D01*
X052562Y032420D01*
X052601Y032421D01*
X052639Y032418D01*
X052678Y032411D01*
X052715Y032401D01*
X052751Y032386D01*
X052786Y032369D01*
X052819Y032348D01*
X052849Y032323D01*
X052877Y032296D01*
X052902Y032266D01*
X052924Y032234D01*
X052942Y032200D01*
X052957Y032164D01*
X052969Y032127D01*
X052977Y032089D01*
X052981Y032050D01*
X052981Y032012D01*
X052977Y031973D01*
X052969Y031935D01*
X052957Y031898D01*
X052942Y031862D01*
X052924Y031828D01*
X052902Y031796D01*
X052877Y031766D01*
X052849Y031739D01*
X052819Y031714D01*
X052786Y031693D01*
X052751Y031676D01*
X052715Y031661D01*
X052678Y031651D01*
X052639Y031644D01*
X052601Y031641D01*
X052562Y031642D01*
X052523Y031647D01*
X052485Y031656D01*
X052449Y031668D01*
X052413Y031684D01*
X052379Y031703D01*
X052348Y031726D01*
X052319Y031752D01*
X052292Y031780D01*
X052269Y031811D01*
X052248Y031844D01*
X052232Y031880D01*
X052218Y031916D01*
X052209Y031954D01*
X052203Y031992D01*
X052201Y032031D01*
X052191Y031631D02*
X052991Y032431D01*
X053901Y035781D02*
X053903Y035820D01*
X053909Y035858D01*
X053918Y035896D01*
X053932Y035932D01*
X053948Y035968D01*
X053969Y036001D01*
X053992Y036032D01*
X054019Y036060D01*
X054048Y036086D01*
X054079Y036109D01*
X054113Y036128D01*
X054149Y036144D01*
X054185Y036156D01*
X054223Y036165D01*
X054262Y036170D01*
X054301Y036171D01*
X054339Y036168D01*
X054378Y036161D01*
X054415Y036151D01*
X054451Y036136D01*
X054486Y036119D01*
X054519Y036098D01*
X054549Y036073D01*
X054577Y036046D01*
X054602Y036016D01*
X054624Y035984D01*
X054642Y035950D01*
X054657Y035914D01*
X054669Y035877D01*
X054677Y035839D01*
X054681Y035800D01*
X054681Y035762D01*
X054677Y035723D01*
X054669Y035685D01*
X054657Y035648D01*
X054642Y035612D01*
X054624Y035578D01*
X054602Y035546D01*
X054577Y035516D01*
X054549Y035489D01*
X054519Y035464D01*
X054486Y035443D01*
X054451Y035426D01*
X054415Y035411D01*
X054378Y035401D01*
X054339Y035394D01*
X054301Y035391D01*
X054262Y035392D01*
X054223Y035397D01*
X054185Y035406D01*
X054149Y035418D01*
X054113Y035434D01*
X054079Y035453D01*
X054048Y035476D01*
X054019Y035502D01*
X053992Y035530D01*
X053969Y035561D01*
X053948Y035594D01*
X053932Y035630D01*
X053918Y035666D01*
X053909Y035704D01*
X053903Y035742D01*
X053901Y035781D01*
X053891Y035381D02*
X054691Y036181D01*
X046886Y035251D02*
X046888Y035290D01*
X046894Y035328D01*
X046903Y035366D01*
X046917Y035402D01*
X046933Y035438D01*
X046954Y035471D01*
X046977Y035502D01*
X047004Y035530D01*
X047033Y035556D01*
X047064Y035579D01*
X047098Y035598D01*
X047134Y035614D01*
X047170Y035626D01*
X047208Y035635D01*
X047247Y035640D01*
X047286Y035641D01*
X047324Y035638D01*
X047363Y035631D01*
X047400Y035621D01*
X047436Y035606D01*
X047471Y035589D01*
X047504Y035568D01*
X047534Y035543D01*
X047562Y035516D01*
X047587Y035486D01*
X047609Y035454D01*
X047627Y035420D01*
X047642Y035384D01*
X047654Y035347D01*
X047662Y035309D01*
X047666Y035270D01*
X047666Y035232D01*
X047662Y035193D01*
X047654Y035155D01*
X047642Y035118D01*
X047627Y035082D01*
X047609Y035048D01*
X047587Y035016D01*
X047562Y034986D01*
X047534Y034959D01*
X047504Y034934D01*
X047471Y034913D01*
X047436Y034896D01*
X047400Y034881D01*
X047363Y034871D01*
X047324Y034864D01*
X047286Y034861D01*
X047247Y034862D01*
X047208Y034867D01*
X047170Y034876D01*
X047134Y034888D01*
X047098Y034904D01*
X047064Y034923D01*
X047033Y034946D01*
X047004Y034972D01*
X046977Y035000D01*
X046954Y035031D01*
X046933Y035064D01*
X046917Y035100D01*
X046903Y035136D01*
X046894Y035174D01*
X046888Y035212D01*
X046886Y035251D01*
X046876Y034851D02*
X047676Y035651D01*
X044917Y035251D02*
X044919Y035290D01*
X044925Y035328D01*
X044934Y035366D01*
X044948Y035402D01*
X044964Y035438D01*
X044985Y035471D01*
X045008Y035502D01*
X045035Y035530D01*
X045064Y035556D01*
X045095Y035579D01*
X045129Y035598D01*
X045165Y035614D01*
X045201Y035626D01*
X045239Y035635D01*
X045278Y035640D01*
X045317Y035641D01*
X045355Y035638D01*
X045394Y035631D01*
X045431Y035621D01*
X045467Y035606D01*
X045502Y035589D01*
X045535Y035568D01*
X045565Y035543D01*
X045593Y035516D01*
X045618Y035486D01*
X045640Y035454D01*
X045658Y035420D01*
X045673Y035384D01*
X045685Y035347D01*
X045693Y035309D01*
X045697Y035270D01*
X045697Y035232D01*
X045693Y035193D01*
X045685Y035155D01*
X045673Y035118D01*
X045658Y035082D01*
X045640Y035048D01*
X045618Y035016D01*
X045593Y034986D01*
X045565Y034959D01*
X045535Y034934D01*
X045502Y034913D01*
X045467Y034896D01*
X045431Y034881D01*
X045394Y034871D01*
X045355Y034864D01*
X045317Y034861D01*
X045278Y034862D01*
X045239Y034867D01*
X045201Y034876D01*
X045165Y034888D01*
X045129Y034904D01*
X045095Y034923D01*
X045064Y034946D01*
X045035Y034972D01*
X045008Y035000D01*
X044985Y035031D01*
X044964Y035064D01*
X044948Y035100D01*
X044934Y035136D01*
X044925Y035174D01*
X044919Y035212D01*
X044917Y035251D01*
X044907Y034851D02*
X045707Y035651D01*
M02*
