%
M48
M72
T01C0.0120
T02C0.0276
T03C0.0360
T04C0.0394
T05C0.0400
T06C0.0470
T07C0.0866
T08C0.1102
T09C0.1300
T10C0.1450
%
T01
X20991Y8901
X26131Y11251
X26791Y11251
X27421Y11251
X28061Y11241
X27971Y10161
X32501Y13711
X34351Y16561
X37591Y15471
X42591Y16981
X44091Y15381
X42591Y11581
X42591Y9481
X37601Y10591
X36981Y9191
X36161Y8691
X35561Y8191
X36271Y7351
X49611Y8541
X50911Y17521
X42591Y19281
X37581Y20841
X33731Y20421
X32491Y23051
X31251Y24231
X27651Y27871
X29861Y30071
X22041Y31101
X20991Y29741
X19351Y29721
X16561Y31091
X18991Y32221
X22041Y32301
X29991Y35555
X20671Y26911
X20551Y26041
X19511Y25731
X20571Y24501
X21621Y20901
X19561Y20211
X18651Y21231
X14461Y19581
X12601Y19811
X11981Y21831
X12771Y22551
X12771Y23461
X10851Y25171
X12281Y25741
X11661Y27211
X7891Y24071
X9061Y23691
X9471Y22491
X9461Y18051
X16011Y17941
X4731Y30281
X3871Y30271
X41291Y24381
X42591Y23081
X44681Y23801
X52591Y32031
X22201Y5121
T02
X33391Y33601
X36391Y33601
X38391Y33601
X39391Y33601
X39391Y36601
X33391Y36601
T03
X3291Y26741
X2291Y26741
X2291Y25741
X2291Y24741
X3291Y24741
X3291Y25741
X3291Y23741
X2291Y23741
X2291Y22741
X3291Y22741
T04
X10770Y16834
X13970Y16834
X18193Y16849
X21393Y16849
X21370Y11834
X18170Y11834
X13970Y11834
X10770Y11834
T05
X7461Y9811
X6461Y9811
X5461Y9811
X4461Y9811
X25771Y1806
X26771Y1806
X52641Y12456
X53641Y12996
X52641Y13546
X53641Y14086
X52641Y14626
X53641Y15176
X52641Y15716
X53641Y16256
X52641Y16806
X53641Y17346
X52641Y17886
X53641Y18436
X52641Y18976
X53641Y19516
X52641Y20066
X53641Y20606
X52641Y21146
X53641Y21696
X52641Y22236
X53641Y22776
X52641Y23326
X53641Y23866
X52641Y24406
X53641Y24956
X52641Y25496
X7561Y35801
X6561Y35801
T06
X45307Y35251
X47276Y35251
T07
X7721Y5481
X4951Y5481
T08
X9841Y2661
X21781Y2681
X21791Y18681
T09
X53141Y9716
X53141Y28236
T10
X2191Y2181
X54291Y2181
X54291Y35781
X2191Y35781
M30
