G75*
G70*
%OFA0B0*%
%FSLAX24Y24*%
%IPPOS*%
%LPD*%
%AMOC8*
5,1,8,0,0,1.08239X$1,22.5*
%
%ADD10C,0.0946*%
%ADD11C,0.0780*%
%ADD12C,0.2080*%
%ADD13C,0.0680*%
%ADD14R,0.0926X0.0789*%
%ADD15R,0.0474X0.0513*%
%ADD16R,0.0880X0.0340*%
%ADD17R,0.0631X0.1576*%
%ADD18R,0.0513X0.0474*%
%ADD19R,0.0340X0.0880*%
%ADD20R,0.1576X0.0631*%
%ADD21R,0.0316X0.0946*%
%ADD22R,0.0946X0.0316*%
%ADD23R,0.0730X0.0380*%
%ADD24R,0.0297X0.0552*%
%ADD25R,0.0680X0.2080*%
%ADD26R,0.0237X0.0671*%
%ADD27C,0.1182*%
%ADD28C,0.0940*%
%ADD29C,0.0680*%
%ADD30C,0.0785*%
%ADD31R,0.0740X0.0740*%
%ADD32C,0.0740*%
%ADD33C,0.0360*%
%ADD34C,0.2880*%
D10*
X004951Y005481D03*
X007721Y005481D03*
D11*
X052641Y012456D03*
X053641Y012996D03*
X052641Y013546D03*
X053641Y014086D03*
X052641Y014626D03*
X053641Y015176D03*
X052641Y015716D03*
X053641Y016256D03*
X052641Y016806D03*
X053641Y017346D03*
X052641Y017886D03*
X053641Y018436D03*
X052641Y018976D03*
X053641Y019516D03*
X052641Y020066D03*
X053641Y020606D03*
X052641Y021146D03*
X053641Y021696D03*
X052641Y022236D03*
X053641Y022776D03*
X052641Y023326D03*
X053641Y023866D03*
X052641Y024406D03*
X053641Y024956D03*
X052641Y025496D03*
D12*
X053141Y028236D03*
X053141Y009716D03*
D13*
X039391Y033601D03*
X038391Y033601D03*
X036391Y033601D03*
X033391Y033601D03*
X033391Y036601D03*
X039391Y036601D03*
D14*
X030852Y033641D03*
X029691Y033641D03*
X012032Y032251D03*
X010871Y032251D03*
X007467Y011616D03*
X006306Y011616D03*
D15*
X003595Y015479D03*
X003595Y016149D03*
X010026Y024507D03*
X010026Y025176D03*
X010016Y026367D03*
X010016Y027036D03*
X014661Y030117D03*
X014661Y030786D03*
X015017Y032251D03*
X015686Y032251D03*
X021627Y027021D03*
X022296Y027021D03*
X022296Y026261D03*
X021627Y026261D03*
X021627Y025521D03*
X022296Y025521D03*
X022296Y024761D03*
X021627Y024761D03*
X021627Y024051D03*
X022296Y024051D03*
X022296Y023331D03*
X021627Y023331D03*
X021627Y022601D03*
X022296Y022601D03*
X022296Y021881D03*
X021627Y021881D03*
X018621Y022477D03*
X018621Y023146D03*
X030591Y020056D03*
X030591Y019387D03*
X030591Y016196D03*
X030591Y015527D03*
X021714Y007787D03*
X021714Y007118D03*
X020984Y005870D03*
X020314Y005870D03*
X045261Y030987D03*
X045261Y031656D03*
X032431Y033667D03*
X032431Y034336D03*
D16*
X046501Y030991D03*
X046501Y030491D03*
X046501Y029991D03*
X046501Y029491D03*
X048921Y029491D03*
X048921Y029991D03*
X048921Y030491D03*
X048921Y030991D03*
D17*
X050551Y033500D03*
X050551Y035863D03*
X042101Y035863D03*
X042101Y033500D03*
X042101Y030943D03*
X042101Y028580D03*
X016070Y015415D03*
X016070Y013053D03*
X016070Y004155D03*
X016070Y001793D03*
D18*
X016066Y006544D03*
X016735Y006544D03*
X016735Y011084D03*
X016066Y011084D03*
X006401Y013723D03*
X005732Y013723D03*
X007764Y018468D03*
X007764Y019137D03*
X006744Y019008D03*
X006744Y019677D03*
X006939Y022256D03*
X006939Y022925D03*
X007999Y023165D03*
X007999Y022496D03*
X012821Y028237D03*
X012821Y028906D03*
X009326Y029311D03*
X008657Y029311D03*
X007866Y029311D03*
X007197Y029311D03*
X006376Y029311D03*
X005707Y029311D03*
X007581Y032407D03*
X007581Y033076D03*
X013551Y032916D03*
X013551Y032247D03*
X025801Y028906D03*
X025801Y028237D03*
X019571Y022476D03*
X019571Y021807D03*
X030537Y011101D03*
X031206Y011101D03*
X034397Y011101D03*
X035066Y011101D03*
X050547Y030991D03*
X051216Y030991D03*
D19*
X016070Y009994D03*
X015570Y009994D03*
X015070Y009994D03*
X014570Y009994D03*
X014570Y007574D03*
X015070Y007574D03*
X015570Y007574D03*
X016070Y007574D03*
D20*
X013801Y005624D03*
X011439Y005624D03*
D21*
X026131Y015990D03*
X026631Y015990D03*
X027131Y015990D03*
X027631Y015990D03*
X028131Y015990D03*
X028631Y015990D03*
X029131Y015990D03*
X029631Y015990D03*
X029631Y019612D03*
X029131Y019612D03*
X028631Y019612D03*
X028131Y019612D03*
X027631Y019612D03*
X027131Y019612D03*
X026631Y019612D03*
X026131Y019612D03*
X009311Y025178D03*
X008811Y025178D03*
X008311Y025178D03*
X007811Y025178D03*
X007311Y025178D03*
X006811Y025178D03*
X006311Y025178D03*
X005811Y025178D03*
X005811Y027225D03*
X006311Y027225D03*
X006811Y027225D03*
X007311Y027225D03*
X007811Y027225D03*
X008311Y027225D03*
X008811Y027225D03*
X009311Y027225D03*
D22*
X030990Y010191D03*
X030990Y009691D03*
X030990Y009191D03*
X030990Y008691D03*
X030990Y008191D03*
X030990Y007691D03*
X030990Y007191D03*
X030990Y006691D03*
X034613Y006691D03*
X034613Y007191D03*
X034613Y007691D03*
X034613Y008191D03*
X034613Y008691D03*
X034613Y009191D03*
X034613Y009691D03*
X034613Y010191D03*
D23*
X017653Y020741D03*
X017653Y021241D03*
X017653Y021741D03*
X017653Y022241D03*
X017653Y022741D03*
X017653Y023241D03*
X017653Y023741D03*
X017653Y024241D03*
X017653Y024741D03*
X017653Y025241D03*
X017653Y025741D03*
X017653Y026241D03*
X017653Y026741D03*
X017653Y027241D03*
X013750Y027241D03*
X013750Y026741D03*
X013750Y026241D03*
X013750Y025741D03*
X013750Y025241D03*
X013750Y024741D03*
X013750Y024241D03*
X013750Y023741D03*
X013750Y023241D03*
X013750Y022741D03*
X013750Y022241D03*
X013750Y021741D03*
X013750Y021241D03*
X013750Y020741D03*
D24*
X013566Y030110D03*
X012817Y030110D03*
X012817Y031133D03*
X013191Y031133D03*
X013566Y031133D03*
X020250Y008124D03*
X020624Y008124D03*
X020998Y008124D03*
X020998Y007101D03*
X020250Y007101D03*
D25*
X019991Y035111D03*
X020991Y035111D03*
X021991Y035111D03*
X018991Y035111D03*
X017991Y035111D03*
X016991Y035111D03*
X011981Y035151D03*
X010981Y035151D03*
D26*
X007764Y017653D03*
X007508Y017653D03*
X007252Y017653D03*
X006996Y017653D03*
X006740Y017653D03*
X006484Y017653D03*
X006228Y017653D03*
X005972Y017653D03*
X005717Y017653D03*
X005461Y017653D03*
X005205Y017653D03*
X004949Y017653D03*
X004693Y017653D03*
X004437Y017653D03*
X004437Y014799D03*
X004693Y014799D03*
X004949Y014799D03*
X005205Y014799D03*
X005461Y014799D03*
X005717Y014799D03*
X005972Y014799D03*
X006228Y014799D03*
X006484Y014799D03*
X006740Y014799D03*
X006996Y014799D03*
X007252Y014799D03*
X007508Y014799D03*
X007764Y014799D03*
D27*
X021791Y018681D03*
X021781Y002681D03*
X009841Y002661D03*
D28*
X010770Y011834D03*
X013970Y011834D03*
X018170Y011834D03*
X021370Y011834D03*
X021393Y016849D03*
X018193Y016849D03*
X013970Y016834D03*
X010770Y016834D03*
D29*
X007461Y010111D02*
X007461Y009511D01*
X006461Y009511D02*
X006461Y010111D01*
X005461Y010111D02*
X005461Y009511D01*
X004461Y009511D02*
X004461Y010111D01*
X025771Y002106D02*
X025771Y001506D01*
X026771Y001506D02*
X026771Y002106D01*
X007561Y035501D02*
X007561Y036101D01*
X006561Y036101D02*
X006561Y035501D01*
D30*
X045307Y035604D02*
X045307Y034899D01*
X047276Y034899D02*
X047276Y035604D01*
D31*
X003291Y022741D03*
D32*
X002291Y022741D03*
X002291Y023741D03*
X003291Y023741D03*
X003291Y024741D03*
X002291Y024741D03*
X002291Y025741D03*
X003291Y025741D03*
X003291Y026741D03*
X002291Y026741D03*
D33*
X003871Y030271D03*
X004731Y030281D03*
X011661Y027211D03*
X012281Y025741D03*
X010851Y025171D03*
X009061Y023691D03*
X007891Y024071D03*
X009471Y022491D03*
X011981Y021831D03*
X012771Y022551D03*
X012771Y023461D03*
X012601Y019811D03*
X014461Y019581D03*
X016011Y017941D03*
X019561Y020211D03*
X018651Y021231D03*
X021621Y020901D03*
X020571Y024501D03*
X019511Y025731D03*
X020551Y026041D03*
X020671Y026911D03*
X020991Y029741D03*
X019351Y029721D03*
X022041Y031101D03*
X022041Y032301D03*
X018991Y032221D03*
X016561Y031091D03*
X027651Y027871D03*
X029861Y030071D03*
X029991Y035555D03*
X041291Y024381D03*
X042591Y023081D03*
X044681Y023801D03*
X042591Y019281D03*
X042591Y016981D03*
X044091Y015381D03*
X042591Y011581D03*
X042591Y009481D03*
X037601Y010591D03*
X036981Y009191D03*
X036161Y008691D03*
X035561Y008191D03*
X036271Y007351D03*
X027971Y010161D03*
X028061Y011241D03*
X027421Y011251D03*
X026791Y011251D03*
X026131Y011251D03*
X020991Y008901D03*
X022201Y005121D03*
X032501Y013711D03*
X034351Y016561D03*
X037591Y015471D03*
X033731Y020421D03*
X032491Y023051D03*
X031251Y024231D03*
X037581Y020841D03*
X050911Y017521D03*
X049611Y008541D03*
X052591Y032031D03*
X009461Y018051D03*
D34*
X002191Y002181D03*
X054291Y002181D03*
X054291Y035781D03*
X002191Y035781D03*
M02*
