G75*
G70*
%OFA0B0*%
%FSLAX24Y24*%
%IPPOS*%
%LPD*%
%AMOC8*
5,1,8,0,0,1.08239X$1,22.5*
%
%ADD10C,0.1230*%
%ADD11OC8,0.0680*%
%ADD12C,0.2080*%
%ADD13R,0.0340X0.0880*%
%ADD14R,0.0474X0.0513*%
%ADD15R,0.0513X0.0474*%
%ADD16R,0.0470X0.0200*%
%ADD17R,0.0356X0.0434*%
%ADD18R,0.0434X0.0356*%
%ADD19R,0.0780X0.2080*%
%ADD20R,0.0316X0.0474*%
%ADD21R,0.0474X0.0474*%
%ADD22R,0.0297X0.0552*%
%ADD23R,0.0552X0.0297*%
%ADD24R,0.0474X0.0316*%
%ADD25C,0.0640*%
%ADD26R,0.0640X0.0640*%
%ADD27C,0.0940*%
%ADD28C,0.0680*%
%ADD29R,0.2980X0.0880*%
%ADD30R,0.0880X0.2180*%
%ADD31R,0.0789X0.0926*%
%ADD32R,0.0789X0.0946*%
%ADD33C,0.0580*%
%ADD34C,0.2880*%
D10*
X047341Y022263D03*
X024501Y041558D03*
D11*
X007686Y029068D03*
X007686Y027978D03*
X006686Y027438D03*
X006686Y028528D03*
X007686Y026898D03*
X007686Y025808D03*
X006686Y025268D03*
X006686Y026348D03*
X007686Y024718D03*
X007686Y023638D03*
X006686Y024178D03*
X006686Y023088D03*
X007686Y022548D03*
X007686Y021458D03*
X007686Y020378D03*
X006686Y020918D03*
X006686Y022008D03*
X006686Y019828D03*
X006686Y018748D03*
X007686Y019288D03*
X007686Y018198D03*
X006686Y017658D03*
X006686Y016568D03*
X007686Y016028D03*
X007686Y017118D03*
D12*
X007186Y013288D03*
X007186Y031808D03*
D13*
X022706Y022688D03*
X023206Y022688D03*
X023706Y022688D03*
X024206Y022688D03*
X026936Y022688D03*
X027436Y022688D03*
X027936Y022688D03*
X028436Y022688D03*
X028436Y020268D03*
X027936Y020268D03*
X027436Y020268D03*
X026936Y020268D03*
X024206Y020268D03*
X023706Y020268D03*
X023206Y020268D03*
X022706Y020268D03*
X026936Y017398D03*
X027436Y017398D03*
X027936Y017398D03*
X028436Y017398D03*
X028436Y014978D03*
X027936Y014978D03*
X027436Y014978D03*
X026936Y014978D03*
D14*
X026286Y014973D03*
X026286Y015643D03*
X029086Y015643D03*
X029086Y014973D03*
X029086Y016733D03*
X029086Y017403D03*
X029251Y019098D03*
X028582Y019098D03*
X029086Y020263D03*
X029086Y020933D03*
X029086Y022023D03*
X029086Y022693D03*
X027176Y028893D03*
X027176Y029563D03*
X020596Y022043D03*
X020596Y021373D03*
X018496Y021373D03*
X018496Y022043D03*
X013486Y020253D03*
X013486Y019583D03*
X011486Y019583D03*
X011486Y020253D03*
X011486Y025683D03*
X011486Y026353D03*
X013486Y026353D03*
X013486Y025683D03*
X018596Y016793D03*
X018596Y016123D03*
X020591Y016123D03*
X020591Y016793D03*
X035512Y013168D03*
X036181Y013168D03*
X036181Y007268D03*
X035512Y007268D03*
D15*
X026286Y016733D03*
X026286Y017403D03*
X026942Y019098D03*
X027611Y019098D03*
X019871Y017778D03*
X019202Y017778D03*
X019202Y023108D03*
X019871Y023108D03*
X012821Y021218D03*
X012152Y021218D03*
X012152Y027318D03*
X012821Y027318D03*
X022746Y029443D03*
X022746Y030113D03*
X023516Y030113D03*
X024286Y030113D03*
X025046Y030113D03*
X025046Y029443D03*
X024286Y029443D03*
X023516Y029443D03*
X027247Y028178D03*
X027916Y028178D03*
X028917Y028178D03*
X029586Y028178D03*
X037736Y039013D03*
X037736Y039683D03*
D16*
X025045Y028556D03*
X025045Y028300D03*
X025045Y028044D03*
X025045Y027788D03*
X025045Y027532D03*
X025045Y027276D03*
X025045Y027020D03*
X025045Y026764D03*
X025045Y026508D03*
X025045Y026252D03*
X025045Y025997D03*
X025045Y025741D03*
X022748Y025741D03*
X022748Y025997D03*
X022748Y026252D03*
X022748Y026508D03*
X022748Y026764D03*
X022748Y027020D03*
X022748Y027276D03*
X022748Y027532D03*
X022748Y027788D03*
X022748Y028044D03*
X022748Y028300D03*
X022748Y028556D03*
D17*
X022762Y025298D03*
X022250Y025298D03*
X022250Y024598D03*
X022762Y024598D03*
X023560Y024798D03*
X024072Y024798D03*
X024080Y025298D03*
X024592Y025298D03*
X025436Y025283D03*
X025947Y025283D03*
X026590Y026128D03*
X027102Y026128D03*
X024072Y024108D03*
X023560Y024108D03*
X023712Y019238D03*
X023200Y019238D03*
D18*
X022126Y021222D03*
X022126Y021734D03*
X021666Y025142D03*
X021666Y025654D03*
X020926Y025932D03*
X020926Y026444D03*
X021666Y026442D03*
X021666Y026954D03*
X020146Y026962D03*
X020146Y027474D03*
X020146Y028362D03*
X020146Y028874D03*
X025936Y028384D03*
X025936Y027872D03*
X026556Y027284D03*
X026556Y026772D03*
X027156Y026772D03*
X027156Y027284D03*
X025936Y026634D03*
X025936Y026122D03*
D19*
X018726Y026018D03*
X018726Y029818D03*
D20*
X012486Y024333D03*
X012486Y023703D03*
X012486Y018233D03*
X012486Y017603D03*
X019536Y019723D03*
X019536Y020353D03*
X023116Y018333D03*
X023116Y017703D03*
X019536Y015083D03*
X019536Y014453D03*
D21*
X018906Y014768D03*
X020166Y014768D03*
X022486Y018018D03*
X023746Y018018D03*
X020166Y020038D03*
X018906Y020038D03*
X013116Y017918D03*
X011856Y017918D03*
X011856Y024018D03*
X013116Y024018D03*
X028786Y026188D03*
X028786Y027448D03*
D22*
X019936Y022259D03*
X019188Y022259D03*
X019188Y021236D03*
X019562Y021236D03*
X019936Y021236D03*
X019936Y017009D03*
X019188Y017009D03*
X019188Y015986D03*
X019562Y015986D03*
X019936Y015986D03*
X012886Y019446D03*
X012512Y019446D03*
X012138Y019446D03*
X012138Y020469D03*
X012886Y020469D03*
X012886Y025546D03*
X012512Y025546D03*
X012138Y025546D03*
X012138Y026569D03*
X012886Y026569D03*
D23*
X027905Y028870D03*
X027905Y029618D03*
X028929Y029618D03*
X028929Y029244D03*
X028929Y028870D03*
D24*
X029101Y026818D03*
X028471Y026818D03*
D25*
X028236Y041058D03*
X027236Y041058D03*
X027236Y042058D03*
X026236Y042058D03*
X028236Y042058D03*
X029236Y042058D03*
X030236Y042058D03*
X031236Y042058D03*
X032236Y042058D03*
X033236Y042058D03*
X034236Y042058D03*
X035236Y042058D03*
X036236Y042058D03*
X037236Y042058D03*
X038236Y042058D03*
X039236Y042058D03*
X040236Y042058D03*
X041236Y042058D03*
X042236Y042058D03*
X043236Y042058D03*
X044236Y042058D03*
X045236Y042058D03*
X045236Y041058D03*
X044236Y041058D03*
X043236Y041058D03*
X042236Y041058D03*
X041236Y041058D03*
X040236Y041058D03*
X039236Y041058D03*
X038236Y041058D03*
X037236Y041058D03*
X036236Y041058D03*
X035236Y041058D03*
X034236Y041058D03*
X033236Y041058D03*
X032236Y041058D03*
X031236Y041058D03*
X030236Y041058D03*
X029236Y041058D03*
D26*
X026236Y041058D03*
D27*
X034246Y014548D03*
X037446Y014548D03*
X039746Y014548D03*
X042946Y014548D03*
X042946Y008648D03*
X039746Y008648D03*
X037446Y008648D03*
X034246Y008648D03*
D28*
X033286Y003848D02*
X033286Y003248D01*
X032286Y003248D02*
X032286Y003848D01*
X031286Y003848D02*
X031286Y003248D01*
X024846Y003248D02*
X024846Y003848D01*
X023846Y003848D02*
X023846Y003248D01*
X047046Y009208D02*
X047646Y009208D01*
X047646Y010208D02*
X047046Y010208D01*
D29*
X030446Y012578D03*
X017546Y012578D03*
X017446Y032578D03*
X030346Y032578D03*
D30*
X031396Y031128D03*
X016396Y031128D03*
X016496Y014028D03*
X031496Y014028D03*
D31*
X017546Y041307D03*
X017546Y042469D03*
D32*
X034842Y015718D03*
X036850Y015718D03*
X040352Y015718D03*
X042360Y015718D03*
X042360Y009808D03*
X040352Y009808D03*
X036850Y009808D03*
X034842Y009808D03*
D33*
X037466Y010928D03*
X042956Y010928D03*
X042956Y012368D03*
X044446Y007548D03*
X044446Y004798D03*
X047106Y016588D03*
X043066Y019498D03*
X041376Y017128D03*
X037436Y017118D03*
X029096Y018158D03*
X029086Y019668D03*
X027436Y021518D03*
X025636Y022808D03*
X025036Y021518D03*
X024836Y019448D03*
X026286Y018008D03*
X028306Y016278D03*
X021266Y018278D03*
X021266Y019768D03*
X018476Y018448D03*
X014316Y019358D03*
X011066Y017408D03*
X012926Y015098D03*
X013946Y011348D03*
X020346Y009048D03*
X027446Y024188D03*
X028766Y024208D03*
X025036Y024368D03*
X023916Y027788D03*
X024386Y030898D03*
X025266Y030908D03*
X023406Y030908D03*
X022556Y030918D03*
X027646Y033748D03*
X027246Y037148D03*
X029706Y037168D03*
X034286Y037188D03*
X037071Y033588D03*
X037711Y032958D03*
X038351Y032318D03*
X038951Y031688D03*
X039641Y031018D03*
X040241Y030428D03*
X039246Y027048D03*
X034536Y029988D03*
X034556Y031838D03*
X036286Y031988D03*
X042256Y038058D03*
X025526Y039148D03*
X023986Y039148D03*
X022776Y039788D03*
X023366Y040528D03*
X015496Y042648D03*
X014096Y031398D03*
X009067Y028157D03*
X014316Y025708D03*
D34*
X005165Y003548D03*
X047346Y003548D03*
X047346Y041548D03*
X005165Y041548D03*
M02*
