%
M48
M72
T01C0.0236
T02C0.0360
T03C0.0394
T04C0.0400
T05C0.1150
T06C0.1300
T07C0.1450
%
T01
X13946Y11348
X12926Y15098
X11066Y17408
X14316Y19358
X18476Y18448
X21266Y18278
X21266Y19768
X24836Y19448
X26286Y18008
X28306Y16278
X29096Y18158
X29086Y19668
X27436Y21518
X25636Y22808
X25036Y21518
X27446Y24188
X28766Y24208
X25036Y24368
X23916Y27788
X24386Y30898
X25266Y30908
X23406Y30908
X22556Y30918
X27646Y33748
X27246Y37148
X29706Y37168
X34286Y37188
X37071Y33588
X37711Y32958
X38351Y32318
X38951Y31688
X39641Y31018
X40241Y30428
X39246Y27048
X34536Y29988
X34556Y31838
X36286Y31988
X42256Y38058
X25526Y39148
X23986Y39148
X22776Y39788
X23366Y40528
X15496Y42648
X14096Y31398
X9067Y28157
X14316Y25708
X20346Y9048
X37466Y10928
X42956Y10928
X42956Y12368
X44446Y7548
X44446Y4798
X47106Y16588
X43066Y19498
X41376Y17128
X37436Y17118
T02
X37236Y41058
X38236Y41058
X39236Y41058
X40236Y41058
X41236Y41058
X42236Y41058
X43236Y41058
X44236Y41058
X45236Y41058
X45236Y42058
X44236Y42058
X43236Y42058
X42236Y42058
X41236Y42058
X40236Y42058
X39236Y42058
X38236Y42058
X37236Y42058
X36236Y42058
X35236Y42058
X34236Y42058
X33236Y42058
X32236Y42058
X31236Y42058
X30236Y42058
X29236Y42058
X28236Y42058
X27236Y42058
X26236Y42058
X26236Y41058
X27236Y41058
X28236Y41058
X29236Y41058
X30236Y41058
X31236Y41058
X32236Y41058
X33236Y41058
X34236Y41058
X35236Y41058
X36236Y41058
T03
X37446Y14548
X39746Y14548
X42946Y14548
X42946Y8648
X39746Y8648
X37446Y8648
X34246Y8648
X34246Y14548
T04
X33286Y3548
X32286Y3548
X31286Y3548
X24846Y3548
X23846Y3548
X7686Y16028
X7686Y17118
X6686Y17658
X6686Y16568
X7686Y18198
X7686Y19288
X6686Y18748
X6686Y19828
X7686Y20378
X7686Y21458
X7686Y22548
X6686Y22008
X6686Y20918
X6686Y23088
X6686Y24178
X7686Y23638
X7686Y24718
X6686Y25268
X6686Y26348
X7686Y25808
X7686Y26898
X6686Y27438
X6686Y28528
X7686Y29068
X7686Y27978
X47346Y10208
X47346Y9208
T05
X47341Y22263
X24501Y41558
T06
X7186Y31808
X7186Y13288
T07
X5165Y3548
X47346Y3548
X47346Y41548
X5165Y41548
M30
