G75*
G70*
%OFA0B0*%
%FSLAX24Y24*%
%IPPOS*%
%LPD*%
%AMOC8*
5,1,8,0,0,1.08239X$1,22.5*
%
%ADD10C,0.0160*%
%ADD11C,0.0000*%
%ADD12R,0.0270X0.0030*%
%ADD13R,0.0690X0.0030*%
%ADD14R,0.0090X0.0030*%
%ADD15R,0.0780X0.0030*%
%ADD16R,0.0150X0.0030*%
%ADD17R,0.0180X0.0030*%
%ADD18R,0.0390X0.0030*%
%ADD19R,0.0240X0.0030*%
%ADD20R,0.0450X0.0030*%
%ADD21R,0.0300X0.0030*%
%ADD22R,0.0510X0.0030*%
%ADD23R,0.0360X0.0030*%
%ADD24R,0.0570X0.0030*%
%ADD25R,0.0420X0.0030*%
%ADD26R,0.0660X0.0030*%
%ADD27R,0.0480X0.0030*%
%ADD28R,0.0720X0.0030*%
%ADD29R,0.0540X0.0030*%
%ADD30R,0.0810X0.0030*%
%ADD31R,0.0750X0.0030*%
%ADD32R,0.0600X0.0030*%
%ADD33R,0.0840X0.0030*%
%ADD34R,0.0870X0.0030*%
%ADD35R,0.0060X0.0030*%
%ADD36R,0.0900X0.0030*%
%ADD37R,0.0930X0.0030*%
%ADD38R,0.0330X0.0030*%
%ADD39R,0.0960X0.0030*%
%ADD40R,0.0990X0.0030*%
%ADD41R,0.1020X0.0030*%
%ADD42R,0.1200X0.0030*%
%ADD43R,0.1320X0.0030*%
%ADD44R,0.0630X0.0030*%
%ADD45R,0.1440X0.0030*%
%ADD46R,0.1560X0.0030*%
%ADD47R,0.1680X0.0030*%
%ADD48R,0.1740X0.0030*%
%ADD49R,0.1860X0.0030*%
%ADD50R,0.1920X0.0030*%
%ADD51R,0.1980X0.0030*%
%ADD52R,0.2040X0.0030*%
%ADD53R,0.2100X0.0030*%
%ADD54R,0.2160X0.0030*%
%ADD55R,0.2220X0.0030*%
%ADD56R,0.2250X0.0030*%
%ADD57R,0.2310X0.0030*%
%ADD58R,0.1050X0.0030*%
%ADD59R,0.2370X0.0030*%
%ADD60R,0.2430X0.0030*%
%ADD61R,0.1080X0.0030*%
%ADD62R,0.1110X0.0030*%
%ADD63R,0.1170X0.0030*%
%ADD64R,0.1230X0.0030*%
%ADD65R,0.1260X0.0030*%
%ADD66R,0.1290X0.0030*%
%ADD67R,0.1380X0.0030*%
%ADD68R,0.1410X0.0030*%
%ADD69R,0.1500X0.0030*%
%ADD70R,0.1350X0.0030*%
%ADD71R,0.1620X0.0030*%
%ADD72R,0.1830X0.0030*%
%ADD73R,0.1800X0.0030*%
%ADD74R,0.1770X0.0030*%
%ADD75R,0.1470X0.0030*%
%ADD76R,0.1650X0.0030*%
%ADD77R,0.1530X0.0030*%
%ADD78R,0.1590X0.0030*%
%ADD79R,0.1890X0.0030*%
%ADD80R,0.1140X0.0030*%
%ADD81R,0.1950X0.0030*%
%ADD82R,0.2010X0.0030*%
%ADD83R,0.1710X0.0030*%
%ADD84R,0.2070X0.0030*%
%ADD85R,0.2190X0.0030*%
%ADD86R,0.2400X0.0030*%
%ADD87R,0.2340X0.0030*%
%ADD88R,0.0210X0.0030*%
%ADD89R,0.0030X0.0030*%
%ADD90R,0.0120X0.0030*%
%ADD91R,0.0220X0.0022*%
%ADD92R,0.0330X0.0022*%
%ADD93R,0.0418X0.0022*%
%ADD94R,0.0484X0.0022*%
%ADD95R,0.0550X0.0022*%
%ADD96R,0.0616X0.0022*%
%ADD97R,0.0660X0.0022*%
%ADD98R,0.0704X0.0022*%
%ADD99R,0.0748X0.0022*%
%ADD100R,0.0770X0.0022*%
%ADD101R,0.0792X0.0022*%
%ADD102R,0.0814X0.0022*%
%ADD103R,0.0836X0.0022*%
%ADD104R,0.0858X0.0022*%
%ADD105R,0.0880X0.0022*%
%ADD106R,0.0902X0.0022*%
%ADD107R,0.0462X0.0022*%
%ADD108R,0.0418X0.0022*%
%ADD109R,0.0440X0.0022*%
%ADD110R,0.0418X0.0022*%
%ADD111R,0.0462X0.0022*%
%ADD112R,0.0440X0.0022*%
%ADD113R,0.0396X0.0022*%
%ADD114R,0.0374X0.0022*%
%ADD115R,0.0462X0.0022*%
%ADD116R,0.0352X0.0022*%
%ADD117R,0.0572X0.0022*%
%ADD118R,0.0484X0.0022*%
%ADD119R,0.0704X0.0022*%
%ADD120R,0.0330X0.0022*%
%ADD121R,0.0814X0.0022*%
%ADD122R,0.0176X0.0022*%
%ADD123R,0.0198X0.0022*%
%ADD124R,0.0308X0.0022*%
%ADD125R,0.0176X0.0022*%
%ADD126R,0.0264X0.0022*%
%ADD127R,0.0198X0.0022*%
%ADD128R,0.0242X0.0022*%
%ADD129R,0.0286X0.0022*%
%ADD130R,0.0968X0.0022*%
%ADD131R,0.0264X0.0022*%
%ADD132R,0.0924X0.0022*%
%ADD133R,0.0286X0.0022*%
%ADD134R,0.0396X0.0022*%
%ADD135R,0.1012X0.0022*%
%ADD136R,0.0528X0.0022*%
%ADD137R,0.1034X0.0022*%
%ADD138R,0.0242X0.0022*%
%ADD139R,0.0484X0.0022*%
%ADD140R,0.1056X0.0022*%
%ADD141R,0.0594X0.0022*%
%ADD142R,0.0374X0.0022*%
%ADD143R,0.1144X0.0022*%
%ADD144R,0.0374X0.0022*%
%ADD145R,0.0528X0.0022*%
%ADD146R,0.0506X0.0022*%
%ADD147R,0.1078X0.0022*%
%ADD148R,0.0660X0.0022*%
%ADD149R,0.1210X0.0022*%
%ADD150R,0.0594X0.0022*%
%ADD151R,0.0594X0.0022*%
%ADD152R,0.1100X0.0022*%
%ADD153R,0.0726X0.0022*%
%ADD154R,0.1276X0.0022*%
%ADD155R,0.0616X0.0022*%
%ADD156R,0.0154X0.0022*%
%ADD157R,0.0638X0.0022*%
%ADD158R,0.1122X0.0022*%
%ADD159R,0.1320X0.0022*%
%ADD160R,0.0836X0.0022*%
%ADD161R,0.1342X0.0022*%
%ADD162R,0.1144X0.0022*%
%ADD163R,0.0858X0.0022*%
%ADD164R,0.1386X0.0022*%
%ADD165R,0.0726X0.0022*%
%ADD166R,0.0506X0.0022*%
%ADD167R,0.1144X0.0022*%
%ADD168R,0.0924X0.0022*%
%ADD169R,0.0946X0.0022*%
%ADD170R,0.0990X0.0022*%
%ADD171R,0.1034X0.0022*%
%ADD172R,0.0616X0.0022*%
%ADD173R,0.0528X0.0022*%
%ADD174R,0.0506X0.0022*%
%ADD175R,0.0858X0.0022*%
%ADD176R,0.0506X0.0022*%
%ADD177R,0.0726X0.0022*%
%ADD178R,0.1100X0.0022*%
%ADD179R,0.1056X0.0022*%
%ADD180R,0.0528X0.0022*%
%ADD181R,0.1078X0.0022*%
%ADD182R,0.1430X0.0022*%
%ADD183R,0.1056X0.0022*%
%ADD184R,0.1452X0.0022*%
%ADD185R,0.0682X0.0022*%
%ADD186R,0.0352X0.0022*%
%ADD187R,0.0638X0.0022*%
%ADD188R,0.1452X0.0022*%
%ADD189R,0.0572X0.0022*%
%ADD190R,0.0550X0.0022*%
%ADD191R,0.0220X0.0022*%
%ADD192R,0.0726X0.0022*%
%ADD193R,0.0352X0.0022*%
%ADD194R,0.0154X0.0022*%
%ADD195R,0.0814X0.0022*%
%ADD196R,0.0638X0.0022*%
%ADD197R,0.0242X0.0022*%
%ADD198R,0.0638X0.0022*%
%ADD199R,0.0880X0.0022*%
%ADD200R,0.0704X0.0022*%
%ADD201R,0.0308X0.0022*%
%ADD202R,0.0616X0.0022*%
%ADD203R,0.0110X0.0022*%
%ADD204R,0.0572X0.0022*%
%ADD205R,0.0484X0.0022*%
%ADD206R,0.0572X0.0022*%
%ADD207R,0.0462X0.0022*%
%ADD208R,0.0396X0.0022*%
%ADD209R,0.0748X0.0022*%
%ADD210R,0.0748X0.0022*%
%ADD211R,0.1056X0.0022*%
%ADD212R,0.0682X0.0022*%
%ADD213R,0.0594X0.0022*%
%ADD214R,0.0902X0.0022*%
%ADD215R,0.0418X0.0022*%
%ADD216R,0.1078X0.0022*%
%ADD217R,0.0792X0.0022*%
%ADD218R,0.0682X0.0022*%
%ADD219R,0.0308X0.0022*%
%ADD220R,0.0308X0.0022*%
%ADD221R,0.0836X0.0022*%
%ADD222R,0.1034X0.0022*%
%ADD223R,0.0946X0.0022*%
%ADD224R,0.0968X0.0022*%
%ADD225R,0.0176X0.0022*%
%ADD226R,0.0176X0.0022*%
%ADD227R,0.1034X0.0022*%
%ADD228R,0.0682X0.0022*%
%ADD229R,0.1782X0.0022*%
%ADD230R,0.1012X0.0022*%
%ADD231R,0.1782X0.0022*%
%ADD232R,0.1738X0.0022*%
%ADD233R,0.1694X0.0022*%
%ADD234R,0.1672X0.0022*%
%ADD235R,0.1628X0.0022*%
%ADD236R,0.1584X0.0022*%
%ADD237R,0.1562X0.0022*%
%ADD238R,0.1518X0.0022*%
%ADD239R,0.1474X0.0022*%
%ADD240R,0.1408X0.0022*%
%ADD241R,0.1342X0.0022*%
%ADD242R,0.1232X0.0022*%
%ADD243R,0.0946X0.0022*%
%ADD244R,0.0770X0.0022*%
%ADD245R,0.0286X0.0022*%
%ADD246R,0.0264X0.0022*%
%ADD247R,0.0374X0.0022*%
%ADD248R,0.0396X0.0022*%
%ADD249R,0.0990X0.0022*%
%ADD250R,0.0968X0.0022*%
%ADD251R,0.0198X0.0022*%
%ADD252R,0.0814X0.0022*%
%ADD253R,0.0792X0.0022*%
%ADD254R,0.1518X0.0022*%
%ADD255R,0.1298X0.0022*%
%ADD256R,0.1276X0.0022*%
%ADD257R,0.1276X0.0022*%
%ADD258R,0.1254X0.0022*%
%ADD259R,0.0704X0.0022*%
%ADD260R,0.1254X0.0022*%
%ADD261R,0.0352X0.0022*%
%ADD262R,0.1210X0.0022*%
%ADD263R,0.0748X0.0022*%
%ADD264R,0.1012X0.0022*%
%ADD265R,0.0858X0.0022*%
%ADD266C,0.0060*%
%ADD267C,0.0050*%
%ADD268R,0.0300X1.6000*%
%ADD269R,0.0200X2.0900*%
%ADD270R,0.2850X0.0320*%
%ADD271R,0.1850X0.0320*%
%ADD272C,0.0070*%
%ADD273C,0.0040*%
%ADD274C,0.0080*%
%ADD275C,0.0100*%
%ADD276R,0.0350X0.3000*%
%ADD277C,0.0020*%
%ADD278R,0.0128X0.0167*%
%ADD279R,0.0138X0.0138*%
D10*
X002771Y001048D02*
X049740Y001048D01*
X049740Y044048D01*
X002771Y044048D01*
X002771Y001048D01*
X021886Y009708D02*
X021888Y009728D01*
X021894Y009746D01*
X021903Y009764D01*
X021915Y009779D01*
X021930Y009791D01*
X021948Y009800D01*
X021966Y009806D01*
X021986Y009808D01*
X022006Y009806D01*
X022024Y009800D01*
X022042Y009791D01*
X022057Y009779D01*
X022069Y009764D01*
X022078Y009746D01*
X022084Y009728D01*
X022086Y009708D01*
X022084Y009688D01*
X022078Y009670D01*
X022069Y009652D01*
X022057Y009637D01*
X022042Y009625D01*
X022024Y009616D01*
X022006Y009610D01*
X021986Y009608D01*
X021966Y009610D01*
X021948Y009616D01*
X021930Y009625D01*
X021915Y009637D01*
X021903Y009652D01*
X021894Y009670D01*
X021888Y009688D01*
X021886Y009708D01*
X025246Y035388D02*
X025248Y035408D01*
X025254Y035426D01*
X025263Y035444D01*
X025275Y035459D01*
X025290Y035471D01*
X025308Y035480D01*
X025326Y035486D01*
X025346Y035488D01*
X025366Y035486D01*
X025384Y035480D01*
X025402Y035471D01*
X025417Y035459D01*
X025429Y035444D01*
X025438Y035426D01*
X025444Y035408D01*
X025446Y035388D01*
X025444Y035368D01*
X025438Y035350D01*
X025429Y035332D01*
X025417Y035317D01*
X025402Y035305D01*
X025384Y035296D01*
X025366Y035290D01*
X025346Y035288D01*
X025326Y035290D01*
X025308Y035296D01*
X025290Y035305D01*
X025275Y035317D01*
X025263Y035332D01*
X025254Y035350D01*
X025248Y035368D01*
X025246Y035388D01*
D11*
X023926Y041558D02*
X023928Y041605D01*
X023934Y041653D01*
X023944Y041699D01*
X023957Y041745D01*
X023974Y041789D01*
X023995Y041832D01*
X024020Y041872D01*
X024047Y041911D01*
X024078Y041947D01*
X024112Y041981D01*
X024148Y042012D01*
X024187Y042039D01*
X024227Y042064D01*
X024270Y042085D01*
X024314Y042102D01*
X024360Y042115D01*
X024406Y042125D01*
X024454Y042131D01*
X024501Y042133D01*
X024548Y042131D01*
X024596Y042125D01*
X024642Y042115D01*
X024688Y042102D01*
X024732Y042085D01*
X024775Y042064D01*
X024815Y042039D01*
X024854Y042012D01*
X024890Y041981D01*
X024924Y041947D01*
X024955Y041911D01*
X024982Y041872D01*
X025007Y041832D01*
X025028Y041789D01*
X025045Y041745D01*
X025058Y041699D01*
X025068Y041653D01*
X025074Y041605D01*
X025076Y041558D01*
X025074Y041511D01*
X025068Y041463D01*
X025058Y041417D01*
X025045Y041371D01*
X025028Y041327D01*
X025007Y041284D01*
X024982Y041244D01*
X024955Y041205D01*
X024924Y041169D01*
X024890Y041135D01*
X024854Y041104D01*
X024815Y041077D01*
X024775Y041052D01*
X024732Y041031D01*
X024688Y041014D01*
X024642Y041001D01*
X024596Y040991D01*
X024548Y040985D01*
X024501Y040983D01*
X024454Y040985D01*
X024406Y040991D01*
X024360Y041001D01*
X024314Y041014D01*
X024270Y041031D01*
X024227Y041052D01*
X024187Y041077D01*
X024148Y041104D01*
X024112Y041135D01*
X024078Y041169D01*
X024047Y041205D01*
X024020Y041244D01*
X023995Y041284D01*
X023974Y041327D01*
X023957Y041371D01*
X023944Y041417D01*
X023934Y041463D01*
X023928Y041511D01*
X023926Y041558D01*
X046766Y022263D02*
X046768Y022310D01*
X046774Y022358D01*
X046784Y022404D01*
X046797Y022450D01*
X046814Y022494D01*
X046835Y022537D01*
X046860Y022577D01*
X046887Y022616D01*
X046918Y022652D01*
X046952Y022686D01*
X046988Y022717D01*
X047027Y022744D01*
X047067Y022769D01*
X047110Y022790D01*
X047154Y022807D01*
X047200Y022820D01*
X047246Y022830D01*
X047294Y022836D01*
X047341Y022838D01*
X047388Y022836D01*
X047436Y022830D01*
X047482Y022820D01*
X047528Y022807D01*
X047572Y022790D01*
X047615Y022769D01*
X047655Y022744D01*
X047694Y022717D01*
X047730Y022686D01*
X047764Y022652D01*
X047795Y022616D01*
X047822Y022577D01*
X047847Y022537D01*
X047868Y022494D01*
X047885Y022450D01*
X047898Y022404D01*
X047908Y022358D01*
X047914Y022310D01*
X047916Y022263D01*
X047914Y022216D01*
X047908Y022168D01*
X047898Y022122D01*
X047885Y022076D01*
X047868Y022032D01*
X047847Y021989D01*
X047822Y021949D01*
X047795Y021910D01*
X047764Y021874D01*
X047730Y021840D01*
X047694Y021809D01*
X047655Y021782D01*
X047615Y021757D01*
X047572Y021736D01*
X047528Y021719D01*
X047482Y021706D01*
X047436Y021696D01*
X047388Y021690D01*
X047341Y021688D01*
X047294Y021690D01*
X047246Y021696D01*
X047200Y021706D01*
X047154Y021719D01*
X047110Y021736D01*
X047067Y021757D01*
X047027Y021782D01*
X046988Y021809D01*
X046952Y021840D01*
X046918Y021874D01*
X046887Y021910D01*
X046860Y021949D01*
X046835Y021989D01*
X046814Y022032D01*
X046797Y022076D01*
X046784Y022122D01*
X046774Y022168D01*
X046768Y022216D01*
X046766Y022263D01*
D12*
X012911Y005758D03*
X012401Y003118D03*
X011531Y002578D03*
X010931Y002488D03*
X008831Y004168D03*
D13*
X009101Y003988D03*
X009941Y002908D03*
X010901Y002518D03*
X012521Y003508D03*
X012521Y003538D03*
X010751Y005728D03*
X009641Y006448D03*
X011501Y006928D03*
X012341Y006298D03*
X012371Y006268D03*
X017321Y005458D03*
D14*
X012971Y005818D03*
X012131Y006748D03*
X010001Y006898D03*
X009011Y006058D03*
X008741Y004198D03*
X010301Y002578D03*
X011411Y002518D03*
X012341Y002998D03*
X012101Y003898D03*
X013031Y003898D03*
D15*
X012536Y003628D03*
X012536Y003598D03*
X012566Y004978D03*
X011456Y006358D03*
X011456Y006388D03*
X011456Y006418D03*
X011456Y006448D03*
X011456Y006478D03*
X011456Y006508D03*
X011516Y006898D03*
X010646Y007018D03*
X010526Y006538D03*
X010526Y006508D03*
X010526Y006478D03*
X010526Y006448D03*
X010526Y006418D03*
X010526Y006388D03*
X010526Y006358D03*
X010526Y006328D03*
X010526Y006298D03*
X010556Y006088D03*
X010646Y005818D03*
X010676Y005788D03*
X009596Y006358D03*
X009266Y005908D03*
X009026Y005008D03*
X009866Y002998D03*
X010826Y002908D03*
X010826Y002878D03*
X010856Y002758D03*
X010856Y002728D03*
X010856Y002698D03*
X010856Y002668D03*
X010856Y002638D03*
X010856Y002608D03*
X010856Y002578D03*
X010856Y002548D03*
X015446Y004378D03*
X015446Y004408D03*
X015446Y004438D03*
X015416Y004528D03*
X015476Y004348D03*
X015476Y004318D03*
X015506Y004258D03*
X015416Y005008D03*
X015416Y005038D03*
X015446Y005128D03*
X015446Y005158D03*
X015446Y005188D03*
X015476Y005248D03*
X017486Y004378D03*
X017486Y004348D03*
X017486Y004318D03*
X017486Y004288D03*
X017456Y004258D03*
X017456Y004228D03*
X017456Y004198D03*
X017426Y004168D03*
X017396Y004108D03*
X020006Y005038D03*
X020006Y005068D03*
X020006Y005458D03*
D16*
X017171Y005278D03*
X013181Y004888D03*
X012941Y005788D03*
X012161Y006718D03*
X009971Y006868D03*
X009971Y005968D03*
X012371Y003028D03*
X011471Y002548D03*
D17*
X012386Y003058D03*
X010256Y002608D03*
X009926Y006838D03*
D18*
X009821Y006718D03*
X009821Y006058D03*
X011081Y005428D03*
X011501Y005038D03*
X012851Y005728D03*
X012221Y006568D03*
X008891Y004138D03*
X011591Y002608D03*
X012461Y003238D03*
D19*
X012386Y003088D03*
X013136Y004858D03*
X012176Y006658D03*
X009896Y006808D03*
X009056Y006028D03*
X010196Y002638D03*
X017186Y005308D03*
D20*
X012551Y005908D03*
X012221Y006538D03*
X010961Y005518D03*
X011591Y004978D03*
X012461Y003298D03*
X012461Y003268D03*
X011621Y002638D03*
X008951Y004108D03*
D21*
X010166Y002668D03*
X012416Y003148D03*
X012566Y005878D03*
X011336Y007048D03*
X009866Y006778D03*
X009866Y006028D03*
D22*
X009761Y006088D03*
X009761Y006628D03*
X009161Y005968D03*
X010901Y005578D03*
X011681Y004918D03*
X012551Y004948D03*
X012251Y006508D03*
X012491Y003358D03*
X011651Y002668D03*
X017261Y005398D03*
D23*
X013076Y004828D03*
X012236Y003868D03*
X012446Y003208D03*
X011456Y005068D03*
X011426Y005098D03*
X011396Y005128D03*
X011186Y005308D03*
X011156Y005338D03*
X011126Y005368D03*
X011096Y005398D03*
X012206Y006598D03*
X009116Y005998D03*
X008816Y005098D03*
X010136Y002698D03*
D24*
X011681Y002698D03*
X012491Y003388D03*
X011711Y004888D03*
X010841Y005638D03*
X010811Y005668D03*
X012281Y006448D03*
X012551Y005938D03*
D25*
X011546Y005008D03*
X011036Y005458D03*
X011006Y005488D03*
X011396Y007018D03*
X009806Y006688D03*
X010106Y002728D03*
X017246Y005368D03*
D26*
X012566Y005968D03*
X012326Y006328D03*
X012326Y006358D03*
X010706Y007048D03*
X009656Y006478D03*
X009686Y006118D03*
X009206Y005938D03*
X008966Y005038D03*
X009956Y002878D03*
X011696Y002728D03*
D27*
X012476Y003328D03*
X011636Y004948D03*
X010946Y005548D03*
X009776Y006658D03*
X010076Y002758D03*
X016496Y003328D03*
X016526Y006268D03*
D28*
X014306Y006178D03*
X014306Y006148D03*
X014306Y006118D03*
X014306Y006088D03*
X014306Y006058D03*
X014306Y006028D03*
X014306Y005998D03*
X014306Y005968D03*
X014306Y005938D03*
X014306Y005908D03*
X014306Y005878D03*
X014306Y005848D03*
X014306Y005818D03*
X014306Y005788D03*
X014306Y005758D03*
X014306Y005728D03*
X014306Y005698D03*
X014306Y005668D03*
X014306Y005638D03*
X014306Y005608D03*
X014306Y005578D03*
X014306Y005548D03*
X014306Y005518D03*
X014306Y005488D03*
X014306Y005458D03*
X014306Y005428D03*
X014306Y005398D03*
X014306Y005368D03*
X014306Y005338D03*
X014306Y005308D03*
X014306Y005278D03*
X014306Y005248D03*
X014306Y005218D03*
X014306Y005188D03*
X014306Y005158D03*
X014306Y005128D03*
X014306Y005098D03*
X014306Y005068D03*
X014306Y005038D03*
X014306Y005008D03*
X014306Y004978D03*
X014306Y004948D03*
X014306Y004918D03*
X014306Y004888D03*
X014306Y004858D03*
X014306Y004828D03*
X014306Y004798D03*
X014306Y004768D03*
X014306Y004738D03*
X014306Y004708D03*
X014306Y004678D03*
X014306Y004648D03*
X014306Y004618D03*
X014306Y004588D03*
X014306Y004558D03*
X014306Y004528D03*
X014306Y004498D03*
X014306Y004468D03*
X014306Y004438D03*
X014306Y004408D03*
X014306Y004378D03*
X014306Y004348D03*
X014306Y004318D03*
X014306Y004288D03*
X014306Y004258D03*
X014306Y004228D03*
X014306Y004198D03*
X014306Y004168D03*
X014306Y004138D03*
X014306Y004108D03*
X014306Y004078D03*
X014306Y004048D03*
X014306Y004018D03*
X014306Y003988D03*
X014306Y003958D03*
X014306Y003928D03*
X014306Y003898D03*
X014306Y003868D03*
X014306Y003838D03*
X014306Y003808D03*
X014306Y003778D03*
X014306Y003748D03*
X014306Y003718D03*
X014306Y003688D03*
X014306Y003658D03*
X014306Y003628D03*
X014306Y003598D03*
X014306Y003568D03*
X014306Y003538D03*
X014306Y003508D03*
X014306Y003478D03*
X014306Y003448D03*
X014306Y003418D03*
X012536Y003568D03*
X011726Y002758D03*
X011846Y004828D03*
X012506Y006058D03*
X012386Y006238D03*
X010706Y005758D03*
X009626Y006418D03*
X018656Y005608D03*
X018656Y005578D03*
X018656Y005548D03*
X018656Y005518D03*
X018656Y005488D03*
X018656Y005458D03*
X018656Y005428D03*
X018656Y005398D03*
X018656Y005368D03*
X018656Y005338D03*
X018656Y005308D03*
X018656Y005278D03*
X018656Y005248D03*
X018656Y005218D03*
X018656Y005188D03*
X018656Y005158D03*
X018656Y005128D03*
X018656Y005098D03*
X018656Y005068D03*
X018656Y005038D03*
X018656Y005008D03*
X018656Y004978D03*
X018656Y004948D03*
X018656Y004918D03*
X018656Y004318D03*
X018656Y004288D03*
X018656Y004258D03*
X018656Y004228D03*
X018656Y004198D03*
X018656Y004168D03*
X018656Y004138D03*
X018656Y004108D03*
X018656Y004078D03*
X018656Y004048D03*
X018656Y004018D03*
X018656Y003988D03*
X018656Y003958D03*
X018656Y003928D03*
X018656Y003898D03*
X018656Y003868D03*
X018656Y003838D03*
X018656Y003808D03*
X018656Y003778D03*
X018656Y003748D03*
X018656Y003718D03*
X018656Y003688D03*
X018656Y003658D03*
X018656Y003628D03*
X018656Y003598D03*
X018656Y003568D03*
X018656Y003538D03*
X018656Y003508D03*
X018656Y003478D03*
X018656Y003448D03*
X018656Y003418D03*
D29*
X012986Y004798D03*
X012266Y006478D03*
X011426Y006988D03*
X010796Y007078D03*
X009746Y006598D03*
X009716Y006568D03*
X010886Y005608D03*
X008906Y005068D03*
X008996Y004078D03*
X010046Y002788D03*
D30*
X010811Y002938D03*
X010811Y002968D03*
X010811Y002998D03*
X010811Y003028D03*
X010781Y003058D03*
X010781Y003088D03*
X010751Y003178D03*
X010841Y002848D03*
X010841Y002818D03*
X010841Y002788D03*
X012551Y003658D03*
X011501Y006148D03*
X011471Y006208D03*
X011471Y006238D03*
X011471Y006268D03*
X011471Y006298D03*
X011471Y006328D03*
X011471Y006538D03*
X011471Y006568D03*
X011471Y006598D03*
X011471Y006628D03*
X011501Y006688D03*
X010601Y006928D03*
X010601Y006958D03*
X010571Y006868D03*
X010571Y006838D03*
X010571Y006808D03*
X010571Y006778D03*
X010541Y006748D03*
X010541Y006718D03*
X010541Y006688D03*
X010541Y006658D03*
X010541Y006628D03*
X010541Y006598D03*
X010541Y006568D03*
X010541Y006268D03*
X010541Y006238D03*
X010541Y006208D03*
X010541Y006178D03*
X010541Y006148D03*
X010541Y006118D03*
X010571Y006058D03*
X010571Y006028D03*
X010571Y005998D03*
X010601Y005908D03*
X010601Y005878D03*
X009611Y006148D03*
X009581Y006328D03*
X009191Y003898D03*
X009221Y003868D03*
X015491Y004288D03*
X015521Y004228D03*
X015551Y004168D03*
X015461Y005218D03*
X015491Y005278D03*
X015491Y005308D03*
X015521Y005338D03*
X015521Y005368D03*
X016511Y006238D03*
X017351Y005488D03*
X017411Y004138D03*
X017381Y004078D03*
X016511Y003358D03*
X019961Y004978D03*
X019991Y005008D03*
X019991Y005488D03*
X019991Y005518D03*
D31*
X020021Y005428D03*
X020021Y005398D03*
X020021Y005368D03*
X020021Y005338D03*
X020021Y005308D03*
X020021Y005278D03*
X020021Y005248D03*
X020021Y005218D03*
X020021Y005188D03*
X020021Y005158D03*
X020021Y005128D03*
X020021Y005098D03*
X015431Y005098D03*
X015431Y005068D03*
X015401Y004978D03*
X015401Y004948D03*
X015401Y004918D03*
X015401Y004888D03*
X015401Y004858D03*
X015401Y004828D03*
X015401Y004798D03*
X015401Y004768D03*
X015401Y004738D03*
X015401Y004708D03*
X015401Y004678D03*
X015401Y004648D03*
X015401Y004618D03*
X015401Y004588D03*
X015401Y004558D03*
X015431Y004498D03*
X015431Y004468D03*
X012551Y005998D03*
X012521Y006028D03*
X012491Y006088D03*
X012461Y006118D03*
X012431Y006148D03*
X012431Y006178D03*
X012401Y006208D03*
X009611Y006388D03*
X009131Y003958D03*
X009161Y003928D03*
X009881Y002968D03*
X009911Y002938D03*
X011741Y002788D03*
D32*
X012506Y003418D03*
X012506Y003448D03*
X010016Y002818D03*
X009986Y002848D03*
X009026Y004048D03*
X009686Y006538D03*
X011456Y006958D03*
X012296Y006418D03*
X017306Y005428D03*
D33*
X017366Y004048D03*
X017336Y004018D03*
X015596Y004108D03*
X015566Y004138D03*
X015536Y004198D03*
X015536Y005398D03*
X015566Y005428D03*
X012536Y003688D03*
X011666Y003418D03*
X011666Y003388D03*
X011636Y003478D03*
X011696Y003298D03*
X011756Y002998D03*
X011786Y002878D03*
X011786Y002848D03*
X011786Y002818D03*
X010766Y003118D03*
X010766Y003148D03*
X010736Y003208D03*
X010736Y003238D03*
X010706Y003298D03*
X009836Y003028D03*
X009806Y003058D03*
X009056Y004978D03*
X009566Y006268D03*
X009566Y006298D03*
X010586Y005968D03*
X010586Y005938D03*
X010616Y005848D03*
X011486Y006178D03*
X011516Y006118D03*
X011516Y006088D03*
X011486Y006658D03*
X011516Y006718D03*
X011516Y006748D03*
X011546Y006868D03*
X010616Y006988D03*
X010586Y006898D03*
X019946Y005548D03*
D34*
X019931Y004948D03*
X017351Y005518D03*
X017291Y003988D03*
X015611Y004078D03*
X015581Y005458D03*
X015611Y005488D03*
X012551Y003748D03*
X012551Y003718D03*
X011651Y003448D03*
X011621Y003508D03*
X011621Y003538D03*
X011591Y003568D03*
X011591Y003598D03*
X011561Y003658D03*
X011531Y003718D03*
X011681Y003358D03*
X011681Y003328D03*
X011711Y003268D03*
X011711Y003238D03*
X011711Y003208D03*
X011741Y003118D03*
X011741Y003088D03*
X011741Y003058D03*
X011741Y003028D03*
X011771Y002968D03*
X011771Y002938D03*
X011771Y002908D03*
X010721Y003268D03*
X010691Y003328D03*
X010691Y003358D03*
X010661Y003388D03*
X010661Y003418D03*
X010631Y003448D03*
X009791Y003088D03*
X009251Y003838D03*
X011531Y006028D03*
X011531Y006058D03*
X011561Y005998D03*
X011531Y006778D03*
X011531Y006808D03*
X011561Y006838D03*
D35*
X012986Y005848D03*
X013226Y004918D03*
X012326Y002968D03*
X010016Y005938D03*
X017126Y005248D03*
D36*
X015656Y005548D03*
X015626Y005518D03*
X015626Y004048D03*
X011966Y004798D03*
X011426Y003928D03*
X011456Y003868D03*
X011486Y003808D03*
X011516Y003778D03*
X011516Y003748D03*
X011546Y003688D03*
X011576Y003628D03*
X011726Y003178D03*
X011726Y003148D03*
X010616Y003478D03*
X010616Y003508D03*
X010586Y003538D03*
X010586Y003568D03*
X010556Y003598D03*
X009776Y003118D03*
X009746Y003148D03*
X009326Y003748D03*
X009296Y003778D03*
X009266Y003808D03*
X011576Y005968D03*
X011606Y005938D03*
X009566Y006238D03*
X019916Y005578D03*
D37*
X017321Y005548D03*
X017291Y005578D03*
X015701Y003988D03*
X015671Y004018D03*
X017261Y003958D03*
X012551Y003808D03*
X012551Y003778D03*
X011471Y003838D03*
X011441Y003898D03*
X011411Y003958D03*
X011381Y003988D03*
X011381Y004018D03*
X011351Y004048D03*
X011351Y004078D03*
X011321Y004108D03*
X011291Y004168D03*
X010541Y003628D03*
X010511Y003658D03*
X009731Y003178D03*
X009701Y003208D03*
X009371Y003688D03*
X009341Y003718D03*
X009311Y005878D03*
X009551Y006208D03*
X011621Y005908D03*
D38*
X012191Y006628D03*
X010901Y007108D03*
X009851Y006748D03*
X011231Y005278D03*
X011261Y005248D03*
X011291Y005218D03*
X011321Y005188D03*
X011351Y005158D03*
X012881Y003868D03*
X012431Y003178D03*
X017231Y005338D03*
D39*
X017246Y005608D03*
X015686Y005578D03*
X017216Y003928D03*
X012566Y003838D03*
X011306Y004138D03*
X011276Y004198D03*
X011246Y004228D03*
X010496Y003688D03*
X010466Y003718D03*
X010436Y003778D03*
X009686Y003238D03*
X009656Y003268D03*
X009626Y003328D03*
X009476Y003538D03*
X009416Y003628D03*
X009386Y003658D03*
X009086Y004948D03*
X009536Y006178D03*
X011636Y005878D03*
X011666Y005848D03*
X012566Y005008D03*
D40*
X012551Y004048D03*
X011231Y004258D03*
X011201Y004288D03*
X010421Y003808D03*
X010391Y003838D03*
X010451Y003748D03*
X009611Y003358D03*
X009581Y003388D03*
X009551Y003418D03*
X009551Y003448D03*
X009521Y003478D03*
X009491Y003508D03*
X009461Y003568D03*
X009431Y003598D03*
X009641Y003298D03*
X015731Y003958D03*
X015731Y005608D03*
X019871Y004918D03*
D41*
X019856Y005608D03*
X017216Y005638D03*
X016526Y006208D03*
X016496Y003388D03*
X011696Y005818D03*
X011156Y004348D03*
X011186Y004318D03*
D42*
X010826Y004738D03*
X010796Y004768D03*
X010106Y004108D03*
X016496Y003418D03*
X016526Y006178D03*
D43*
X018956Y006178D03*
X016496Y003448D03*
X012536Y004258D03*
X010616Y004918D03*
X009446Y005758D03*
D44*
X009671Y006508D03*
X010781Y005698D03*
X011771Y004858D03*
X012551Y004018D03*
X012521Y003478D03*
X009071Y004018D03*
X012311Y006388D03*
D45*
X012506Y004408D03*
X009326Y004708D03*
X009476Y005728D03*
X016496Y003478D03*
X017216Y004588D03*
X017216Y004618D03*
X017216Y004648D03*
X017216Y004678D03*
X017216Y004708D03*
X017216Y004738D03*
X017216Y004768D03*
X017216Y004798D03*
X017216Y004828D03*
X017216Y004858D03*
X017216Y004888D03*
X017216Y004918D03*
X017216Y004948D03*
D46*
X016496Y006088D03*
X019076Y006118D03*
X016496Y003508D03*
X012446Y004588D03*
X012446Y005218D03*
X012416Y005248D03*
X009536Y005668D03*
D47*
X009566Y005608D03*
X010226Y005128D03*
X009476Y004498D03*
X012416Y004708D03*
X012416Y004738D03*
X012356Y005338D03*
X012326Y005368D03*
X016496Y003538D03*
X019136Y004438D03*
D48*
X019166Y004468D03*
X016496Y003568D03*
X016496Y006028D03*
X012296Y005458D03*
X012296Y005428D03*
X012266Y005488D03*
X009596Y005578D03*
X009506Y004468D03*
D49*
X009626Y005518D03*
X016496Y003598D03*
X019226Y004558D03*
X019226Y005938D03*
D50*
X019256Y005878D03*
X019256Y004618D03*
X016496Y003628D03*
X016496Y005968D03*
D51*
X016496Y005938D03*
X016496Y003658D03*
X019286Y004708D03*
X019286Y005788D03*
X019286Y005818D03*
D52*
X019316Y005698D03*
X019316Y005668D03*
X019316Y004858D03*
X019316Y004828D03*
X016496Y005908D03*
X016496Y003688D03*
X009926Y005218D03*
X009686Y005398D03*
D53*
X009716Y005368D03*
X016496Y005878D03*
X016496Y003718D03*
D54*
X016496Y003748D03*
X016496Y005848D03*
X009716Y005338D03*
D55*
X009746Y005278D03*
X016496Y005818D03*
X016496Y003778D03*
D56*
X016481Y003808D03*
X016481Y005788D03*
D57*
X016481Y005758D03*
X016481Y003838D03*
D58*
X015791Y003928D03*
X011141Y004378D03*
X011111Y004408D03*
X011081Y004438D03*
X010361Y003868D03*
X010331Y003898D03*
X010301Y003928D03*
X010271Y003958D03*
X009131Y004918D03*
X009341Y005848D03*
D59*
X016481Y003868D03*
D60*
X016481Y003898D03*
X016481Y005668D03*
D61*
X015776Y005638D03*
X011726Y005788D03*
X011036Y004498D03*
X011066Y004468D03*
X010256Y003988D03*
D62*
X010211Y004018D03*
X010181Y004048D03*
X010961Y004588D03*
X010961Y004618D03*
X010991Y004558D03*
X011021Y004528D03*
X011771Y005758D03*
X009161Y004888D03*
D63*
X009191Y004858D03*
X010151Y004078D03*
X010841Y004708D03*
X012551Y004108D03*
X012551Y004078D03*
D64*
X012551Y004138D03*
X012551Y004168D03*
X011831Y005728D03*
X010751Y004798D03*
X010061Y004138D03*
X009221Y004828D03*
D65*
X010016Y004168D03*
X010676Y004858D03*
X010706Y004828D03*
X009416Y005788D03*
X012536Y004228D03*
X012536Y004198D03*
D66*
X012551Y005068D03*
X010631Y004888D03*
X009971Y004198D03*
X009251Y004798D03*
D67*
X009296Y004738D03*
X009926Y004228D03*
X010526Y004978D03*
X012536Y005098D03*
X012506Y004348D03*
X018986Y004348D03*
D68*
X017201Y004408D03*
X017201Y004438D03*
X017201Y004468D03*
X017201Y004498D03*
X017201Y004528D03*
X017201Y004558D03*
X012521Y004378D03*
X012521Y005128D03*
X010481Y005008D03*
X009881Y004258D03*
D69*
X009806Y004288D03*
X009506Y005698D03*
X012476Y005188D03*
X012476Y004528D03*
X012476Y004498D03*
X019046Y004378D03*
D70*
X016511Y006148D03*
X012521Y004318D03*
X012521Y004288D03*
X010571Y004948D03*
X009281Y004768D03*
D71*
X009446Y004558D03*
X009716Y004318D03*
X009536Y005638D03*
X012446Y004648D03*
X012446Y004618D03*
X019106Y004408D03*
D72*
X019211Y004528D03*
X019211Y005968D03*
X016511Y005998D03*
X012191Y005638D03*
X012161Y005698D03*
X009581Y004348D03*
D73*
X009566Y004378D03*
X009536Y004408D03*
X010136Y005158D03*
X009596Y005548D03*
X012176Y005668D03*
X012206Y005608D03*
X012206Y005578D03*
X012236Y005548D03*
X019196Y005998D03*
D74*
X019181Y006028D03*
X019181Y004498D03*
X012251Y005518D03*
X009521Y004438D03*
D75*
X009341Y004678D03*
X010421Y005038D03*
X012491Y005158D03*
X012491Y004468D03*
X012491Y004438D03*
X016511Y006118D03*
X019031Y006148D03*
D76*
X019121Y006088D03*
X016511Y006058D03*
X012371Y005308D03*
X012431Y004678D03*
X009461Y004528D03*
D77*
X009401Y004618D03*
X009371Y004648D03*
X010361Y005068D03*
X012461Y004558D03*
D78*
X012401Y005278D03*
X010301Y005098D03*
X009431Y004588D03*
D79*
X010031Y005188D03*
X009641Y005488D03*
X019241Y005908D03*
X019241Y004588D03*
D80*
X012566Y005038D03*
X010916Y004648D03*
X010886Y004678D03*
X009386Y005818D03*
D81*
X009671Y005458D03*
X019271Y005848D03*
X019271Y004678D03*
X019271Y004648D03*
D82*
X019301Y004738D03*
X019301Y004768D03*
X019301Y004798D03*
X019301Y005728D03*
X019301Y005758D03*
X009671Y005428D03*
D83*
X012311Y005398D03*
X012401Y004768D03*
X019151Y006058D03*
D84*
X019331Y005638D03*
X019331Y004888D03*
D85*
X009821Y005248D03*
X009731Y005308D03*
D86*
X016496Y005698D03*
D87*
X016496Y005728D03*
D88*
X012161Y006688D03*
X009911Y005998D03*
D89*
X010031Y006928D03*
D90*
X011276Y007078D03*
D91*
X028089Y024476D03*
X028265Y025180D03*
X027231Y026412D03*
X027296Y027006D03*
X027076Y028304D03*
X028265Y028282D03*
X029673Y027006D03*
X029606Y026412D03*
X031389Y026412D03*
X031939Y026060D03*
X031455Y027006D03*
X030949Y027666D03*
X031125Y028370D03*
X036031Y027534D03*
D92*
X037406Y027468D03*
X032566Y029558D03*
X031004Y028238D03*
X030960Y027688D03*
X031201Y025158D03*
X029420Y025158D03*
X028144Y025048D03*
X028100Y024498D03*
X027044Y025158D03*
X027066Y028348D03*
D93*
X026251Y029096D03*
X026229Y029074D03*
X026229Y029052D03*
X026207Y029030D03*
X026164Y028920D03*
X026274Y029140D03*
X026274Y029162D03*
X026317Y029250D03*
X026339Y029294D03*
X025834Y028392D03*
X025811Y028370D03*
X027264Y026786D03*
X027241Y026742D03*
X027241Y026720D03*
X027219Y026280D03*
X028539Y024872D03*
X028121Y024520D03*
X029617Y026720D03*
X029617Y026742D03*
X029639Y026786D03*
X030981Y027710D03*
X031399Y028062D03*
X031421Y026786D03*
X031399Y026742D03*
X031399Y026720D03*
X031377Y026280D03*
X032587Y026104D03*
X032609Y026126D03*
X033467Y026170D03*
X033489Y026192D03*
X033819Y026434D03*
X033929Y026060D03*
X033929Y026016D03*
X033907Y025972D03*
X033907Y025950D03*
X033864Y025840D03*
X033379Y025114D03*
X035777Y026830D03*
X035799Y026852D03*
X035799Y026874D03*
X035821Y026896D03*
X036437Y027424D03*
X036064Y027754D03*
X036064Y027776D03*
X037581Y026874D03*
X037581Y026852D03*
X037559Y026830D03*
X037604Y026896D03*
X037647Y026940D03*
X037691Y027006D03*
X034457Y029074D03*
X034457Y029096D03*
X034479Y029140D03*
X034479Y029162D03*
X034501Y029206D03*
X034501Y029250D03*
X034391Y029624D03*
X034061Y029382D03*
X034039Y029360D03*
X033181Y029382D03*
X032544Y029470D03*
X032544Y029492D03*
X033951Y028304D03*
X029991Y028304D03*
D94*
X030003Y028326D03*
X029211Y029162D03*
X030883Y029162D03*
X030949Y029250D03*
X030971Y029272D03*
X031609Y029272D03*
X031609Y029294D03*
X031631Y029382D03*
X031631Y029404D03*
X032511Y029382D03*
X032511Y029360D03*
X032291Y028436D03*
X031543Y028436D03*
X031521Y028392D03*
X031499Y028326D03*
X031499Y028304D03*
X031499Y028282D03*
X030993Y027732D03*
X030443Y026522D03*
X030443Y026500D03*
X030311Y026082D03*
X030289Y025994D03*
X029409Y025334D03*
X028683Y025246D03*
X028661Y025202D03*
X028639Y025136D03*
X028639Y025114D03*
X028639Y025092D03*
X028133Y024542D03*
X027033Y025334D03*
X027209Y026170D03*
X027209Y026192D03*
X028023Y025972D03*
X028089Y026060D03*
X028111Y026082D03*
X028749Y026082D03*
X028749Y026104D03*
X028771Y026192D03*
X028771Y026214D03*
X031191Y025334D03*
X032313Y025730D03*
X032401Y025840D03*
X033281Y025774D03*
X033303Y025840D03*
X033369Y025994D03*
X033809Y026412D03*
X034491Y025246D03*
X037901Y027336D03*
X037923Y027380D03*
X035349Y029690D03*
X035349Y029712D03*
X034381Y029602D03*
X033941Y029184D03*
X033919Y029140D03*
X033853Y028964D03*
X026703Y030174D03*
D95*
X026691Y030152D03*
X028034Y030086D03*
X029068Y028832D03*
X029068Y028810D03*
X029991Y028920D03*
X029991Y028524D03*
X030014Y028370D03*
X030740Y028876D03*
X030761Y028942D03*
X030784Y028986D03*
X031620Y028942D03*
X032301Y028502D03*
X032301Y028480D03*
X032324Y028524D03*
X033116Y028590D03*
X033116Y028612D03*
X033116Y028634D03*
X033116Y028656D03*
X033116Y028700D03*
X033138Y028524D03*
X033138Y028502D03*
X033138Y028480D03*
X033160Y028436D03*
X033138Y029294D03*
X034370Y029580D03*
X035140Y028876D03*
X035140Y028854D03*
X035140Y028832D03*
X035140Y028810D03*
X036658Y027842D03*
X036658Y027820D03*
X036658Y027776D03*
X036658Y027754D03*
X036658Y027732D03*
X036658Y027710D03*
X036658Y026962D03*
X036658Y026940D03*
X036636Y026896D03*
X036636Y026874D03*
X036614Y026830D03*
X036350Y026522D03*
X035976Y026280D03*
X034810Y026412D03*
X033798Y026390D03*
X032148Y025510D03*
X032104Y025466D03*
X032104Y025444D03*
X031246Y025576D03*
X031224Y025554D03*
X031224Y025532D03*
X031224Y025510D03*
X031246Y025620D03*
X031246Y025642D03*
X031268Y025730D03*
X031268Y025752D03*
X031290Y025840D03*
X031290Y025862D03*
X031311Y025906D03*
X031311Y025950D03*
X031311Y025972D03*
X030234Y025686D03*
X030234Y025664D03*
X030234Y025642D03*
X030234Y025620D03*
X029530Y025906D03*
X029530Y025950D03*
X029530Y025972D03*
X029508Y025862D03*
X029508Y025840D03*
X029486Y025752D03*
X029486Y025730D03*
X029464Y025642D03*
X029464Y025620D03*
X029464Y025576D03*
X029441Y025554D03*
X029441Y025532D03*
X029441Y025510D03*
X028760Y025752D03*
X027924Y025796D03*
X027901Y025752D03*
X027880Y025686D03*
X027154Y025906D03*
X027154Y025950D03*
X027154Y025972D03*
X027131Y025862D03*
X027131Y025840D03*
X027110Y025752D03*
X027110Y025730D03*
X027088Y025642D03*
X027088Y025620D03*
X027088Y025576D03*
X027066Y025554D03*
X027066Y025532D03*
X027066Y025510D03*
X026384Y025994D03*
X026384Y026016D03*
X026384Y026060D03*
X025988Y025356D03*
X028144Y024564D03*
X031004Y027754D03*
X028254Y028370D03*
X027066Y028524D03*
X027066Y028546D03*
X038000Y027666D03*
X038000Y027644D03*
X038000Y027622D03*
X038000Y027600D03*
D96*
X037966Y027820D03*
X036646Y027160D03*
X033104Y029206D03*
X032356Y028612D03*
X031586Y029074D03*
X030706Y028700D03*
X031014Y027776D03*
X028726Y025884D03*
X027846Y025510D03*
X028154Y024586D03*
X030244Y025422D03*
X026394Y026302D03*
X026394Y026324D03*
X026394Y026346D03*
X025426Y026412D03*
X025426Y026434D03*
X025404Y026346D03*
X025404Y026324D03*
X025316Y026016D03*
X025294Y025972D03*
X025294Y025950D03*
X025206Y025642D03*
X025096Y025312D03*
X027076Y028612D03*
X028044Y029052D03*
X028044Y029074D03*
X028044Y029096D03*
D97*
X028066Y028898D03*
X026769Y029888D03*
X031015Y027798D03*
X031565Y029008D03*
X028705Y025818D03*
X028155Y024608D03*
D98*
X028176Y024630D03*
X028594Y026346D03*
X026306Y026610D03*
X025844Y025312D03*
X027076Y028722D03*
X027076Y028744D03*
X027956Y029822D03*
X027956Y029844D03*
X029166Y028392D03*
X029914Y028766D03*
X031036Y027820D03*
X031454Y029536D03*
X034336Y029514D03*
X033764Y026324D03*
X034754Y026214D03*
X034754Y026192D03*
X034754Y026170D03*
X034644Y025774D03*
X035986Y026324D03*
D99*
X036492Y027292D03*
X034732Y026082D03*
X034689Y025906D03*
X034689Y025884D03*
X033764Y026302D03*
X031036Y027842D03*
X029892Y028744D03*
X029166Y028414D03*
X028176Y028634D03*
X028154Y028656D03*
X027076Y028766D03*
X027934Y029734D03*
X027934Y029756D03*
X031499Y028766D03*
X034336Y029492D03*
X030464Y026434D03*
X028639Y025576D03*
X028176Y024652D03*
X026262Y026654D03*
X025382Y025114D03*
D100*
X026251Y026676D03*
X027924Y025312D03*
X028628Y025554D03*
X028584Y026324D03*
X030344Y025312D03*
X028188Y024674D03*
X031048Y027864D03*
X030784Y028502D03*
X031488Y028744D03*
X031444Y029514D03*
X029881Y028722D03*
X029178Y028436D03*
X028254Y028502D03*
X028231Y028546D03*
X028210Y028590D03*
X028188Y028612D03*
X027088Y028810D03*
X026758Y029734D03*
X026758Y029756D03*
X027924Y029712D03*
X027924Y029690D03*
X033754Y026280D03*
X033358Y025510D03*
X033424Y025224D03*
X035998Y026346D03*
X036504Y027270D03*
X037780Y028040D03*
X035250Y028502D03*
X033996Y028414D03*
X033930Y028700D03*
X034326Y029470D03*
D101*
X036449Y028040D03*
X031059Y027886D03*
X030794Y028524D03*
X030464Y026412D03*
X030354Y025356D03*
X030354Y025334D03*
X028199Y024696D03*
X027934Y025334D03*
X028242Y028524D03*
X027076Y028832D03*
X026746Y029690D03*
X026746Y029712D03*
X027912Y029646D03*
D102*
X029859Y028678D03*
X031069Y027908D03*
X028209Y024718D03*
X037779Y028018D03*
D103*
X035283Y029382D03*
X033963Y028744D03*
X031433Y029492D03*
X031081Y027930D03*
X029189Y028480D03*
X027891Y029536D03*
X027891Y029580D03*
X027099Y028920D03*
X028573Y026302D03*
X028221Y024740D03*
X033391Y025554D03*
D104*
X033401Y025576D03*
X033731Y026214D03*
X031091Y027952D03*
X031421Y029470D03*
X029749Y029492D03*
X029199Y028502D03*
X027879Y029492D03*
X027879Y029514D03*
X028561Y026280D03*
X030387Y026236D03*
X030387Y026214D03*
X030409Y026280D03*
X030431Y026324D03*
X030431Y026346D03*
X028231Y024762D03*
X033974Y028766D03*
X034304Y029404D03*
X035294Y029404D03*
X035294Y029426D03*
X035337Y029514D03*
X035337Y029536D03*
X036437Y027996D03*
X037779Y027996D03*
D105*
X037593Y026390D03*
X036009Y026390D03*
X032379Y026434D03*
X032246Y025092D03*
X030421Y026302D03*
X031103Y027974D03*
X030839Y028590D03*
X029211Y028524D03*
X027869Y029470D03*
X027099Y028964D03*
X027099Y028942D03*
X026725Y029580D03*
X027979Y025400D03*
X028243Y024784D03*
X035326Y029492D03*
D106*
X036437Y027974D03*
X037779Y027974D03*
X031114Y027996D03*
X029221Y028546D03*
X027857Y029404D03*
X027857Y029426D03*
X027109Y028986D03*
X026714Y029514D03*
X026714Y029536D03*
X028254Y024806D03*
D107*
X028056Y024828D03*
X027836Y025158D03*
X028166Y026148D03*
X027066Y028458D03*
X025966Y028568D03*
X030696Y028348D03*
X030916Y028018D03*
X031026Y029338D03*
X033336Y025928D03*
D108*
X032609Y026148D03*
X032544Y026038D03*
X031377Y026258D03*
X031399Y026698D03*
X031421Y026808D03*
X030607Y026918D03*
X029639Y026808D03*
X029617Y026698D03*
X030937Y028128D03*
X031377Y028018D03*
X032257Y028348D03*
X034479Y029118D03*
X034501Y029228D03*
X035514Y030108D03*
X035777Y026808D03*
X037537Y026808D03*
X033929Y026038D03*
X033907Y025928D03*
X028517Y024828D03*
X028077Y024938D03*
X027219Y026258D03*
X027241Y026698D03*
X027264Y026808D03*
X026207Y029008D03*
X026251Y029118D03*
X026361Y029338D03*
D109*
X026196Y028986D03*
X026175Y028942D03*
X026131Y028876D03*
X026131Y028854D03*
X026109Y028832D03*
X026109Y028810D03*
X026086Y028766D03*
X026065Y028744D03*
X026065Y028722D03*
X026043Y028700D03*
X026021Y028656D03*
X025976Y028590D03*
X025933Y028524D03*
X025866Y028436D03*
X025845Y028414D03*
X028265Y028326D03*
X029145Y028282D03*
X029299Y029294D03*
X029321Y029316D03*
X029365Y029360D03*
X029386Y029382D03*
X028089Y030174D03*
X031059Y029360D03*
X031081Y029382D03*
X031103Y029404D03*
X030926Y028106D03*
X030905Y028062D03*
X030905Y028040D03*
X031389Y028040D03*
X031411Y028084D03*
X032269Y028370D03*
X033985Y029272D03*
X034006Y029316D03*
X034491Y029184D03*
X034513Y029272D03*
X034513Y029294D03*
X034513Y029316D03*
X034513Y029360D03*
X034513Y029382D03*
X035436Y029954D03*
X035481Y030042D03*
X035481Y030064D03*
X035503Y030086D03*
X036096Y027820D03*
X036471Y027446D03*
X035766Y026786D03*
X035766Y026764D03*
X035745Y026720D03*
X033941Y026192D03*
X033941Y026170D03*
X033941Y026126D03*
X033941Y026104D03*
X033941Y026082D03*
X033919Y025994D03*
X033435Y026126D03*
X033413Y026082D03*
X032533Y026016D03*
X032511Y025994D03*
X032489Y025972D03*
X032489Y025950D03*
X032445Y025906D03*
X032665Y025444D03*
X031191Y025246D03*
X031366Y026236D03*
X030531Y026764D03*
X030575Y026852D03*
X030575Y026874D03*
X030596Y026896D03*
X029585Y026236D03*
X029409Y025246D03*
X028551Y024894D03*
X028529Y024850D03*
X028066Y024916D03*
X028045Y024872D03*
X028045Y024850D03*
X027033Y025246D03*
X027209Y026236D03*
X028199Y026170D03*
X028221Y026192D03*
X028243Y026214D03*
X034469Y025202D03*
X037659Y026962D03*
X037681Y026984D03*
X037725Y027050D03*
X037746Y027072D03*
X037746Y027094D03*
X037769Y027116D03*
X037813Y027182D03*
D110*
X037516Y026786D03*
X034436Y029030D03*
X031136Y029426D03*
X030916Y028084D03*
X029596Y026280D03*
X028276Y026236D03*
X028056Y024894D03*
X027066Y028414D03*
X026296Y029184D03*
X026296Y029206D03*
X026186Y028964D03*
X032566Y026082D03*
X032566Y026060D03*
X033886Y025906D03*
X033886Y025884D03*
D111*
X033424Y026104D03*
X033401Y026060D03*
X033379Y026016D03*
X033357Y025972D03*
X032434Y025884D03*
X032411Y025862D03*
X032367Y025796D03*
X031377Y026214D03*
X031201Y025312D03*
X031201Y025290D03*
X030454Y026544D03*
X030454Y026566D03*
X030497Y026654D03*
X030497Y026676D03*
X030519Y026720D03*
X030519Y026742D03*
X030541Y026786D03*
X030564Y026830D03*
X031421Y028106D03*
X031444Y028150D03*
X031444Y028172D03*
X031487Y028260D03*
X032279Y028392D03*
X032279Y028414D03*
X032521Y029404D03*
X032521Y029426D03*
X033159Y029360D03*
X033929Y029162D03*
X033951Y029206D03*
X033974Y029250D03*
X035359Y029734D03*
X035359Y029756D03*
X035381Y029800D03*
X035381Y029822D03*
X035404Y029844D03*
X035404Y029866D03*
X035447Y029976D03*
X035469Y030020D03*
X036107Y027842D03*
X035734Y026676D03*
X035734Y026654D03*
X035734Y026632D03*
X035734Y026610D03*
X034479Y025224D03*
X037801Y027160D03*
X037824Y027204D03*
X037867Y027270D03*
X037889Y027292D03*
X037889Y027314D03*
X031004Y029316D03*
X030981Y029294D03*
X029287Y029272D03*
X029244Y029206D03*
X029221Y029184D03*
X029199Y029140D03*
X028144Y026126D03*
X028121Y026104D03*
X027219Y026214D03*
X027044Y025312D03*
X027044Y025290D03*
X028561Y024916D03*
X028584Y024960D03*
X028584Y024982D03*
X028627Y025070D03*
X029419Y025290D03*
X029419Y025312D03*
X025394Y025092D03*
X025899Y028480D03*
X025921Y028502D03*
X025944Y028546D03*
X025987Y028612D03*
X026009Y028634D03*
D112*
X026086Y028788D03*
X026153Y028898D03*
X025889Y028458D03*
X029255Y029228D03*
X029343Y029338D03*
X031433Y028128D03*
X030553Y026808D03*
X031191Y025268D03*
X030311Y025158D03*
X029409Y025268D03*
X028573Y024938D03*
X027033Y025268D03*
X032466Y025928D03*
X033456Y026148D03*
X033941Y026148D03*
X035745Y026698D03*
X035965Y026258D03*
X036493Y027468D03*
X036075Y027798D03*
X035216Y028348D03*
X034513Y029338D03*
X034029Y029338D03*
X033171Y028348D03*
X032533Y029448D03*
X035459Y029998D03*
X037856Y027248D03*
X037791Y027138D03*
X037703Y027028D03*
D113*
X036053Y027732D03*
X034403Y028964D03*
X033171Y028326D03*
X030949Y028150D03*
X029981Y028282D03*
X029651Y026874D03*
X029651Y026852D03*
X029651Y026830D03*
X029629Y026764D03*
X029409Y025224D03*
X029409Y025202D03*
X028089Y024960D03*
X027033Y025202D03*
X027033Y025224D03*
X027231Y026302D03*
X027231Y026654D03*
X027231Y026676D03*
X027253Y026764D03*
X026329Y029272D03*
X026351Y029316D03*
X031433Y026874D03*
X031433Y026852D03*
X031433Y026830D03*
X031411Y026764D03*
X031389Y026676D03*
X031389Y026654D03*
X031389Y026302D03*
X031191Y025224D03*
X031191Y025202D03*
X033831Y025774D03*
X034469Y025180D03*
D114*
X033819Y025752D03*
X033841Y025796D03*
X032301Y025004D03*
X031201Y025180D03*
X030299Y025136D03*
X029419Y025180D03*
X028121Y025004D03*
X028099Y024982D03*
X027219Y026324D03*
X027219Y026610D03*
X027219Y026632D03*
X029661Y026896D03*
X030959Y028172D03*
X030981Y028194D03*
X033181Y029404D03*
X034391Y028942D03*
X034479Y028634D03*
X036041Y027710D03*
X037801Y028150D03*
X031971Y026082D03*
D115*
X032016Y026104D03*
X030476Y026610D03*
X030476Y026632D03*
X029596Y026214D03*
X028606Y025026D03*
X028606Y025004D03*
X031466Y028194D03*
X031466Y028216D03*
X029266Y029250D03*
X027066Y028436D03*
X033996Y029294D03*
X035426Y029910D03*
X035426Y029932D03*
X036526Y027490D03*
X035756Y026742D03*
X035756Y026522D03*
X037846Y027226D03*
D116*
X037394Y027490D03*
X037394Y027512D03*
X037394Y027534D03*
X034512Y028656D03*
X035524Y030152D03*
X032554Y029536D03*
X032269Y028304D03*
X030992Y028216D03*
X030619Y026962D03*
X029584Y026566D03*
X029606Y026346D03*
X031366Y026566D03*
X031389Y026346D03*
X033809Y025730D03*
X028132Y025026D03*
X027209Y026566D03*
X028264Y028304D03*
X027472Y029162D03*
X027472Y029184D03*
X027494Y029206D03*
X027516Y029250D03*
X027076Y028370D03*
X025756Y028326D03*
X026702Y030196D03*
D117*
X026702Y030130D03*
X026746Y030064D03*
X026769Y030042D03*
X026769Y030020D03*
X028022Y030064D03*
X029056Y028766D03*
X029056Y028744D03*
X029144Y028326D03*
X030002Y028436D03*
X030002Y028480D03*
X030002Y028502D03*
X030024Y028392D03*
X030706Y028766D03*
X030729Y028832D03*
X030729Y028854D03*
X029936Y029360D03*
X029936Y029382D03*
X032334Y028546D03*
X033126Y029272D03*
X035129Y028766D03*
X035129Y028744D03*
X035129Y028722D03*
X035129Y028700D03*
X036669Y027072D03*
X036669Y027050D03*
X036669Y027006D03*
X036669Y026984D03*
X036316Y026500D03*
X034799Y026390D03*
X033259Y025444D03*
X033259Y025422D03*
X032269Y025026D03*
X031256Y025664D03*
X031256Y025686D03*
X031279Y025774D03*
X031279Y025796D03*
X030222Y025576D03*
X030222Y025554D03*
X030222Y025532D03*
X030222Y025510D03*
X029474Y025664D03*
X029474Y025686D03*
X029496Y025774D03*
X029496Y025796D03*
X029519Y025884D03*
X027869Y025664D03*
X027869Y025642D03*
X027846Y025576D03*
X027099Y025664D03*
X027099Y025686D03*
X027142Y025884D03*
X026394Y026082D03*
X026394Y026104D03*
X026394Y026126D03*
X026394Y026170D03*
X026394Y026192D03*
X025492Y026632D03*
D118*
X028066Y026038D03*
X028726Y026038D03*
X028616Y025048D03*
X030464Y026588D03*
X031476Y028238D03*
X031586Y029228D03*
X030926Y029228D03*
X028264Y028348D03*
D119*
X030751Y028458D03*
X030333Y025268D03*
X032269Y025048D03*
X027891Y025268D03*
X035239Y028458D03*
D120*
X034348Y028876D03*
X034326Y028854D03*
X034304Y028832D03*
X033160Y028304D03*
X032258Y028282D03*
X031026Y028260D03*
X030674Y028304D03*
X031444Y026940D03*
X031356Y026544D03*
X029661Y026940D03*
X029574Y026544D03*
X028166Y025070D03*
X027814Y025114D03*
X027198Y026544D03*
X027286Y026940D03*
X024998Y026654D03*
X027461Y029140D03*
X033181Y029426D03*
X035976Y027050D03*
X037406Y027446D03*
X037428Y027402D03*
X034458Y025136D03*
X033776Y025686D03*
X033754Y025664D03*
X033731Y025642D03*
D121*
X032258Y025070D03*
X030366Y026170D03*
X030454Y026390D03*
X028606Y025532D03*
X028584Y025510D03*
X027946Y025356D03*
X030806Y028546D03*
X031444Y028700D03*
X031466Y028722D03*
X034304Y029426D03*
X027088Y028876D03*
X027088Y028854D03*
X026736Y029646D03*
D122*
X027054Y025092D03*
X034006Y025576D03*
X038186Y026764D03*
D123*
X037494Y027314D03*
X036041Y027512D03*
X034964Y026434D03*
X034677Y026456D03*
X033159Y028282D03*
X031157Y028392D03*
X030674Y028282D03*
X028297Y025202D03*
X027814Y025092D03*
X025724Y028282D03*
D124*
X027296Y026962D03*
X028176Y025092D03*
X029672Y026962D03*
X031454Y026962D03*
X031036Y028282D03*
X034292Y028810D03*
X034556Y028700D03*
X034402Y029646D03*
X035546Y030174D03*
X037416Y027424D03*
X037439Y027380D03*
X033984Y025510D03*
D125*
X034909Y025752D03*
X036053Y027490D03*
X034579Y028766D03*
X031213Y025092D03*
X029431Y025092D03*
X024921Y026610D03*
D126*
X027231Y026390D03*
X028221Y025136D03*
X029673Y026984D03*
X031389Y026390D03*
X032269Y028260D03*
X031081Y028326D03*
X033941Y028282D03*
X036031Y027556D03*
X033369Y025092D03*
D127*
X034436Y025092D03*
D128*
X034677Y026434D03*
X036019Y027094D03*
X037471Y027336D03*
X034567Y028744D03*
X035557Y030196D03*
X030651Y027006D03*
X029574Y026500D03*
X029419Y025114D03*
X030299Y025114D03*
X031201Y025114D03*
X027044Y025114D03*
X027197Y026500D03*
D129*
X028209Y025114D03*
X029419Y025136D03*
X031201Y025136D03*
X032719Y025466D03*
X031069Y028304D03*
D130*
X029716Y029426D03*
X027846Y029316D03*
X027846Y029294D03*
X026702Y029426D03*
X025316Y026676D03*
X032246Y025114D03*
X036426Y027930D03*
X037769Y027930D03*
X037592Y026434D03*
D131*
X034446Y025114D03*
X031454Y026984D03*
X029606Y026390D03*
X027296Y026984D03*
X024964Y026632D03*
D132*
X025383Y025136D03*
X027121Y029030D03*
X029739Y029470D03*
X034029Y028480D03*
X036031Y026412D03*
X037593Y026412D03*
X037769Y027952D03*
D133*
X035998Y027072D03*
X035954Y026236D03*
X033996Y025532D03*
X031356Y026522D03*
X029574Y026522D03*
X027198Y026522D03*
X027044Y025136D03*
X025746Y028304D03*
X027066Y028326D03*
X032566Y029580D03*
X034568Y028722D03*
D134*
X034446Y028612D03*
X034446Y029052D03*
X032554Y029514D03*
X030684Y028326D03*
X029606Y026676D03*
X029606Y026654D03*
X029606Y026302D03*
X027824Y025136D03*
X027274Y026830D03*
X027274Y026852D03*
X027274Y026874D03*
X033874Y025862D03*
X033874Y025422D03*
X035854Y026940D03*
X036404Y027402D03*
X037394Y027710D03*
X037394Y027732D03*
X037416Y027776D03*
X037504Y026764D03*
D135*
X037769Y026720D03*
X037769Y027886D03*
X036052Y026456D03*
X032246Y025136D03*
X029716Y029404D03*
D136*
X031631Y028964D03*
X033171Y028414D03*
X033171Y028392D03*
X033831Y028832D03*
X033831Y028854D03*
X033831Y028876D03*
X035151Y028920D03*
X035151Y028942D03*
X035151Y028964D03*
X035151Y028986D03*
X036581Y026786D03*
X036581Y026764D03*
X036471Y026632D03*
X033391Y025136D03*
X032181Y025554D03*
X030311Y025180D03*
X029431Y025444D03*
X029431Y025466D03*
X029541Y025994D03*
X029541Y026016D03*
X028771Y025774D03*
X026351Y025862D03*
X026351Y025884D03*
X026351Y025906D03*
D137*
X025394Y025158D03*
X037604Y026478D03*
D138*
X031114Y028348D03*
X029134Y028238D03*
X028254Y025158D03*
D139*
X028661Y025158D03*
X028683Y025268D03*
X030443Y026478D03*
X031521Y028348D03*
X031543Y028458D03*
X033149Y029338D03*
X035349Y029668D03*
X035371Y029778D03*
X036471Y028128D03*
X037791Y028128D03*
X037923Y027358D03*
X034491Y025268D03*
X029123Y029008D03*
X029189Y029118D03*
D140*
X032246Y025158D03*
D141*
X033401Y025158D03*
X036459Y027358D03*
X026911Y029228D03*
X026911Y029338D03*
X026779Y029998D03*
X025481Y026588D03*
D142*
X034458Y025158D03*
X037384Y027578D03*
X037384Y027688D03*
D143*
X025404Y025180D03*
D144*
X027044Y025180D03*
X028628Y026412D03*
X029596Y026324D03*
X029596Y026610D03*
X029596Y026632D03*
X030608Y026940D03*
X031378Y026632D03*
X031378Y026610D03*
X031378Y026324D03*
X031444Y026896D03*
X032258Y028326D03*
X031488Y029602D03*
X029794Y029624D03*
X029134Y028260D03*
X027066Y028392D03*
X027286Y026896D03*
X033908Y025444D03*
X035866Y026962D03*
X035888Y026984D03*
X035206Y028326D03*
X034414Y028986D03*
X035514Y030130D03*
X037428Y027820D03*
X037406Y027754D03*
X037384Y027666D03*
X037384Y027644D03*
X037384Y027622D03*
X037384Y027600D03*
X037384Y027556D03*
X038088Y026742D03*
X037604Y026302D03*
D145*
X036624Y026852D03*
X036559Y026742D03*
X036536Y026720D03*
X036514Y026676D03*
X036492Y026654D03*
X036449Y026610D03*
X036404Y026566D03*
X036382Y026544D03*
X036624Y027622D03*
X036624Y027644D03*
X036646Y027666D03*
X037966Y027490D03*
X037989Y027534D03*
X037989Y027556D03*
X035216Y028370D03*
X035172Y029052D03*
X035172Y029074D03*
X033962Y028326D03*
X033126Y028546D03*
X033104Y028722D03*
X033104Y028744D03*
X032466Y029184D03*
X032466Y029206D03*
X031476Y029580D03*
X030839Y029096D03*
X030816Y029052D03*
X030794Y029030D03*
X030772Y028964D03*
X030706Y028370D03*
X031564Y028546D03*
X031564Y028590D03*
X030002Y028942D03*
X029914Y029206D03*
X029936Y029272D03*
X029936Y029294D03*
X029936Y029316D03*
X029782Y029602D03*
X029079Y028876D03*
X029079Y028854D03*
X029144Y028304D03*
X028616Y026390D03*
X027979Y025906D03*
X027956Y025862D03*
X027934Y025840D03*
X027912Y025774D03*
X028704Y025400D03*
X028704Y025356D03*
X027846Y025180D03*
X027054Y025444D03*
X027054Y025466D03*
X027164Y025994D03*
X027164Y026016D03*
X027186Y026082D03*
X027186Y026104D03*
X026372Y025972D03*
X026372Y025950D03*
X026329Y025796D03*
X026306Y025752D03*
X026042Y025400D03*
X029562Y026082D03*
X029562Y026104D03*
X030266Y025884D03*
X030266Y025862D03*
X030244Y025796D03*
X030244Y025774D03*
X030244Y025752D03*
X030244Y025730D03*
X031212Y025466D03*
X031212Y025444D03*
X031322Y025994D03*
X031322Y026016D03*
X031344Y026082D03*
X031344Y026104D03*
X032049Y026126D03*
X032202Y025576D03*
X032159Y025532D03*
X033259Y025642D03*
X033259Y025664D03*
X033259Y025686D03*
X034512Y025576D03*
X034512Y025554D03*
X034512Y025532D03*
X034512Y025510D03*
X034512Y025466D03*
X034512Y025444D03*
X034512Y025422D03*
X034512Y025400D03*
X034534Y025620D03*
X034534Y025642D03*
X034534Y025664D03*
X034534Y025686D03*
D146*
X034501Y025356D03*
X034501Y025334D03*
X034501Y025312D03*
X034501Y025290D03*
X033269Y025730D03*
X033269Y025752D03*
X033291Y025796D03*
X032279Y025686D03*
X031201Y025422D03*
X031201Y025400D03*
X031201Y025356D03*
X030299Y026016D03*
X030299Y026060D03*
X030321Y026104D03*
X029551Y026060D03*
X029419Y025422D03*
X029419Y025400D03*
X029419Y025356D03*
X028671Y025224D03*
X028649Y025180D03*
X028011Y025950D03*
X028759Y026126D03*
X028759Y026170D03*
X028759Y026236D03*
X026339Y025840D03*
X026251Y025642D03*
X026229Y025620D03*
X026119Y025466D03*
X029089Y028920D03*
X029089Y028942D03*
X029111Y028964D03*
X029111Y028986D03*
X030871Y029140D03*
X031619Y029316D03*
X031619Y029360D03*
X031619Y029426D03*
X032499Y029316D03*
X032499Y029294D03*
X033181Y028370D03*
X033819Y028810D03*
X033841Y028920D03*
X033841Y028942D03*
X035161Y029030D03*
X036591Y027556D03*
X036569Y027534D03*
X031531Y028414D03*
X031509Y028370D03*
D147*
X032346Y026280D03*
X032236Y025180D03*
D148*
X033413Y025180D03*
X033786Y026346D03*
X034776Y026302D03*
X034776Y026280D03*
X036471Y027336D03*
X036603Y027204D03*
X036449Y028084D03*
X035239Y028436D03*
X035173Y028590D03*
X035239Y029316D03*
X035371Y029646D03*
X034359Y029536D03*
X033985Y028370D03*
X032379Y028656D03*
X031565Y028854D03*
X031565Y028986D03*
X031565Y029030D03*
X030751Y028436D03*
X029936Y028810D03*
X029936Y029074D03*
X029936Y029096D03*
X029166Y028370D03*
X028066Y028920D03*
X028066Y028942D03*
X027979Y029910D03*
X027979Y029932D03*
X026769Y029910D03*
X026769Y029866D03*
X026351Y026522D03*
X026351Y026500D03*
X026373Y026456D03*
X027891Y025246D03*
X028705Y025664D03*
X028705Y025796D03*
X028705Y025840D03*
X030266Y025400D03*
X030333Y025246D03*
X030333Y026126D03*
X030465Y026456D03*
X037791Y028084D03*
D149*
X032786Y029140D03*
X025416Y025202D03*
D150*
X025108Y025334D03*
X025944Y025334D03*
X026406Y026214D03*
X026406Y026236D03*
X026406Y026280D03*
X025504Y026654D03*
X025438Y026456D03*
X025416Y026390D03*
X025394Y026302D03*
X027836Y025554D03*
X027836Y025532D03*
X027858Y025620D03*
X027858Y025202D03*
X028738Y025730D03*
X028716Y025906D03*
X030234Y025466D03*
X030234Y025444D03*
X030014Y028414D03*
X029948Y029184D03*
X029068Y028722D03*
X029068Y028700D03*
X028254Y028392D03*
X027066Y028590D03*
X026934Y029140D03*
X026934Y029162D03*
X026934Y029184D03*
X026934Y029206D03*
X026736Y030086D03*
X030696Y028744D03*
X030696Y028722D03*
X030718Y028810D03*
X030718Y028392D03*
X031598Y028920D03*
X031576Y029096D03*
X032346Y028590D03*
X033116Y029250D03*
X035228Y028392D03*
X036658Y027116D03*
X036658Y027094D03*
X037604Y026324D03*
D151*
X037999Y027732D03*
X037999Y027754D03*
X037999Y027776D03*
X036459Y028106D03*
X035139Y028634D03*
X035139Y028656D03*
X030321Y025202D03*
X029969Y028876D03*
X029771Y029580D03*
X028011Y030020D03*
X028011Y030042D03*
X026911Y029316D03*
X026911Y029294D03*
X026911Y029272D03*
X026911Y029250D03*
X026779Y029976D03*
X025481Y026610D03*
X025459Y026544D03*
X025459Y026522D03*
D152*
X032246Y025202D03*
D153*
X033424Y025202D03*
X034656Y025796D03*
X034678Y025840D03*
X034678Y025862D03*
X034744Y026104D03*
X034744Y026126D03*
X033996Y028392D03*
X030344Y025290D03*
X028254Y028480D03*
X028144Y028700D03*
X027946Y029800D03*
X026758Y029800D03*
X026296Y026632D03*
D154*
X025426Y025224D03*
D155*
X025119Y025356D03*
X025251Y025796D03*
X025273Y025862D03*
X025273Y025884D03*
X025339Y026082D03*
X025339Y026104D03*
X025339Y026126D03*
X025361Y026170D03*
X025361Y026192D03*
X025361Y026214D03*
X025383Y026236D03*
X025383Y026280D03*
X025449Y026500D03*
X025471Y026566D03*
X027869Y025224D03*
X030729Y028414D03*
X029959Y028854D03*
X029959Y029162D03*
X028023Y029162D03*
X028023Y029184D03*
X028023Y029206D03*
X028023Y029250D03*
X028001Y029976D03*
X026769Y029954D03*
X035151Y028612D03*
D156*
X031179Y028414D03*
X028319Y025224D03*
D157*
X026384Y026390D03*
X026384Y026412D03*
X026384Y026434D03*
X025327Y026060D03*
X025284Y025906D03*
X025261Y025840D03*
X025239Y025774D03*
X025239Y025752D03*
X025239Y025730D03*
X025217Y025686D03*
X025217Y025664D03*
X025174Y025532D03*
X025174Y025510D03*
X025151Y025466D03*
X025151Y025444D03*
X025151Y025422D03*
X025129Y025400D03*
X028254Y028414D03*
X028034Y029140D03*
X027989Y029954D03*
X026779Y029932D03*
X029947Y029140D03*
X029947Y028832D03*
X032367Y028634D03*
X033094Y029184D03*
X035227Y028414D03*
X036614Y027182D03*
X034787Y026346D03*
X034787Y026324D03*
X030321Y025224D03*
D158*
X032257Y025224D03*
X032257Y025246D03*
X032301Y025356D03*
X025724Y027006D03*
D159*
X025449Y025246D03*
D160*
X030376Y026192D03*
X033434Y025246D03*
X034006Y028436D03*
D161*
X025459Y025268D03*
D162*
X032269Y025268D03*
D163*
X033446Y025268D03*
D164*
X025481Y025290D03*
D165*
X027901Y025290D03*
X030761Y028480D03*
X034721Y026060D03*
X034721Y026016D03*
X034699Y025950D03*
X036481Y027314D03*
X036569Y027226D03*
X036459Y028062D03*
X035249Y028480D03*
X037779Y028062D03*
D166*
X037978Y027512D03*
X037956Y027446D03*
X037934Y027402D03*
X037538Y026742D03*
X036614Y027600D03*
X036438Y027380D03*
X034546Y025752D03*
X034546Y025730D03*
X033314Y025862D03*
X033248Y025620D03*
X032258Y025642D03*
X032258Y025664D03*
X032236Y025620D03*
X031334Y026060D03*
X031356Y026126D03*
X030278Y025972D03*
X030278Y025950D03*
X030278Y025906D03*
X030256Y025840D03*
X029574Y026126D03*
X028738Y026060D03*
X028716Y025994D03*
X028694Y025950D03*
X028694Y025334D03*
X028694Y025312D03*
X028694Y025290D03*
X027968Y025884D03*
X028056Y026016D03*
X027198Y026126D03*
X027176Y026060D03*
X027044Y025422D03*
X027044Y025400D03*
X027044Y025356D03*
X026274Y025664D03*
X026274Y025686D03*
X026296Y025730D03*
X026318Y025774D03*
X026208Y025576D03*
X026186Y025554D03*
X026186Y025532D03*
X026164Y025510D03*
X026098Y025444D03*
X026076Y025422D03*
X027066Y028480D03*
X027066Y028502D03*
X028056Y030130D03*
X029134Y029030D03*
X029926Y029250D03*
X030014Y028964D03*
X030828Y029074D03*
X030916Y029206D03*
X031554Y029140D03*
X031576Y029184D03*
X031598Y029250D03*
X031554Y028524D03*
X031554Y028502D03*
X031554Y028480D03*
X032478Y029250D03*
X032478Y029272D03*
X033138Y029316D03*
X033886Y029052D03*
X033864Y028986D03*
X035184Y029096D03*
X035184Y029140D03*
X035184Y029162D03*
X035206Y029206D03*
X035206Y029250D03*
X035228Y029294D03*
D167*
X032291Y025334D03*
X032291Y025312D03*
X032269Y025290D03*
D168*
X033456Y025290D03*
X036426Y027952D03*
X027846Y029360D03*
X027846Y029382D03*
D169*
X026714Y029470D03*
X026714Y029492D03*
X033468Y025312D03*
D170*
X033468Y025334D03*
X032390Y026390D03*
X034040Y028524D03*
X037604Y026456D03*
X027836Y029272D03*
X026691Y029404D03*
D171*
X033489Y025356D03*
X034061Y028546D03*
X037691Y026610D03*
D172*
X037989Y027798D03*
X034359Y029558D03*
X032071Y026148D03*
X029079Y028678D03*
X028023Y029228D03*
X028001Y029998D03*
X025449Y026478D03*
X025383Y026258D03*
X025229Y025708D03*
X025119Y025378D03*
D173*
X026021Y025378D03*
X029431Y025488D03*
X029541Y026038D03*
X032291Y028458D03*
X035151Y028898D03*
D174*
X035184Y029118D03*
X035206Y029228D03*
X033864Y029008D03*
X031576Y028568D03*
X029926Y029228D03*
X029574Y026148D03*
X030278Y025928D03*
X030256Y025818D03*
X031356Y026148D03*
X032214Y025598D03*
X028716Y025378D03*
X027044Y025378D03*
X026296Y025708D03*
X027198Y026148D03*
X037956Y027468D03*
D175*
X034017Y028458D03*
X030827Y028568D03*
X027967Y025378D03*
D176*
X027989Y025928D03*
X028759Y026148D03*
X029419Y025378D03*
X030299Y026038D03*
X031201Y025378D03*
X032301Y025708D03*
X033269Y025708D03*
X033291Y025818D03*
X033841Y028898D03*
X032499Y029338D03*
X031619Y029338D03*
X030849Y029118D03*
X029089Y028898D03*
X026229Y025598D03*
X026141Y025488D03*
X035161Y029008D03*
D177*
X034721Y026038D03*
X034699Y025928D03*
X031509Y028788D03*
X030299Y025378D03*
X028649Y025598D03*
D178*
X032313Y025378D03*
D179*
X033501Y025378D03*
X036053Y026478D03*
X037681Y026588D03*
X034073Y028568D03*
D180*
X032466Y029228D03*
X030794Y029008D03*
X030002Y028348D03*
X028044Y030108D03*
X027164Y026038D03*
X027054Y025488D03*
X026329Y025818D03*
X026372Y025928D03*
X027934Y025818D03*
X030244Y025708D03*
X031212Y025488D03*
X031322Y026038D03*
X034534Y025708D03*
X034534Y025598D03*
X034512Y025488D03*
X034512Y025378D03*
X036426Y026588D03*
X036514Y026698D03*
X036602Y026808D03*
X036646Y026918D03*
X036602Y027578D03*
X036646Y027688D03*
X037989Y027578D03*
D181*
X034084Y028590D03*
X032367Y026324D03*
X032367Y026302D03*
X032324Y026236D03*
X032324Y026214D03*
X032324Y025400D03*
X033511Y025400D03*
D182*
X031114Y028612D03*
X028254Y025422D03*
D183*
X032334Y025422D03*
X037636Y026522D03*
D184*
X031124Y028634D03*
X031124Y028656D03*
X028264Y025466D03*
X028264Y025444D03*
D185*
X026339Y026544D03*
X025767Y027050D03*
X028254Y028436D03*
X028099Y028810D03*
X028099Y028832D03*
X028077Y028854D03*
X028077Y028876D03*
X027967Y029866D03*
X032411Y028700D03*
X032324Y026456D03*
X033314Y025466D03*
D186*
X033941Y025466D03*
X035921Y027006D03*
X036031Y027644D03*
X036031Y027666D03*
X036471Y028150D03*
X034381Y028920D03*
X028111Y030196D03*
X027231Y026346D03*
D187*
X026361Y026478D03*
X025349Y026148D03*
X025261Y025818D03*
X025174Y025488D03*
X029947Y029118D03*
D188*
X031124Y028678D03*
X028264Y025488D03*
D189*
X027846Y025598D03*
X027099Y025708D03*
X026394Y026148D03*
X029474Y025708D03*
X029496Y025818D03*
X030222Y025488D03*
X031256Y025708D03*
X031279Y025818D03*
X030002Y028458D03*
X030706Y028788D03*
X035129Y028678D03*
X036669Y027028D03*
D190*
X036658Y027798D03*
X038000Y027688D03*
X035140Y028788D03*
X033160Y028458D03*
X033116Y028568D03*
X033116Y028678D03*
X031576Y029118D03*
X030740Y028898D03*
X029948Y029338D03*
X029068Y028788D03*
X028716Y025928D03*
X029464Y025598D03*
X029530Y025928D03*
X030234Y025598D03*
X031246Y025598D03*
X031311Y025928D03*
X032126Y025488D03*
X027880Y025708D03*
X027154Y025928D03*
X027088Y025598D03*
X026384Y026038D03*
D191*
X032753Y025488D03*
D192*
X033336Y025488D03*
X034656Y025818D03*
X034744Y026148D03*
X035206Y028568D03*
X033908Y028678D03*
X028254Y028458D03*
X028144Y028678D03*
X027946Y029778D03*
X026758Y029778D03*
D193*
X027494Y029228D03*
X027296Y026918D03*
X027209Y026588D03*
X029584Y026588D03*
X029672Y026918D03*
X031366Y026588D03*
X031454Y026918D03*
X033786Y025708D03*
X033962Y025488D03*
X035942Y027028D03*
X034534Y028678D03*
X034359Y028898D03*
D194*
X034964Y026456D03*
X034898Y025730D03*
X032786Y025510D03*
X037516Y027292D03*
X027066Y028282D03*
D195*
X027901Y029602D03*
X027901Y029624D03*
X029749Y029514D03*
X033731Y026236D03*
X033379Y025532D03*
X033951Y028722D03*
X035271Y029360D03*
X035359Y029580D03*
D196*
X035976Y026302D03*
X031576Y028876D03*
X031576Y029052D03*
X028056Y029030D03*
X028056Y028986D03*
X028056Y028964D03*
X027066Y028656D03*
X027066Y028634D03*
X025306Y025994D03*
X025196Y025620D03*
X025196Y025576D03*
X025196Y025554D03*
X028716Y025686D03*
X028716Y025862D03*
D197*
X031356Y026500D03*
X033996Y025554D03*
X035206Y028304D03*
X032566Y029602D03*
D198*
X031466Y029558D03*
X029156Y028348D03*
X028056Y029008D03*
X028606Y026368D03*
X025196Y025598D03*
D199*
X026725Y029558D03*
X027869Y029448D03*
X030399Y026258D03*
X033413Y025598D03*
X033985Y028788D03*
X035305Y029448D03*
D200*
X032423Y028744D03*
X032423Y028722D03*
X031543Y028832D03*
X031521Y028810D03*
X028133Y028722D03*
X028111Y028744D03*
X028111Y028766D03*
X026769Y029822D03*
X026769Y029844D03*
X026329Y026566D03*
X028661Y025620D03*
X028683Y025642D03*
X037593Y026346D03*
D201*
X036031Y027600D03*
X036031Y027622D03*
X033831Y026456D03*
X033721Y025620D03*
X030641Y026984D03*
X029981Y028260D03*
D202*
X031586Y028898D03*
X033104Y029228D03*
X033786Y026368D03*
X036646Y027138D03*
X028726Y025708D03*
X026394Y026368D03*
X025404Y026368D03*
X025316Y026038D03*
X025294Y025928D03*
X026944Y029118D03*
X028044Y029118D03*
D203*
X034898Y025708D03*
X036064Y027468D03*
D204*
X037791Y028106D03*
X038011Y027710D03*
X033831Y028612D03*
X033831Y028634D03*
X030751Y028920D03*
X029981Y028546D03*
X031301Y025884D03*
X027891Y025730D03*
X027121Y025774D03*
X027121Y025796D03*
D205*
X028044Y025994D03*
X028704Y025972D03*
X028726Y026016D03*
X029584Y026170D03*
X029584Y026192D03*
X031366Y026192D03*
X031366Y026170D03*
X032334Y025752D03*
X032356Y025774D03*
X033324Y025884D03*
X033324Y025906D03*
X033346Y025950D03*
X035744Y026544D03*
X035744Y026566D03*
X035766Y026500D03*
X036536Y027512D03*
X037944Y027424D03*
X035194Y029184D03*
X035216Y029272D03*
X033896Y029096D03*
X033896Y029074D03*
X033874Y029030D03*
X031586Y029206D03*
X031564Y029162D03*
X030904Y029184D03*
X029166Y029096D03*
X029166Y029074D03*
X029144Y029052D03*
X028066Y030152D03*
D206*
X029981Y028898D03*
X027121Y025818D03*
D207*
X026031Y028678D03*
X030497Y026698D03*
X032389Y025818D03*
X033379Y026038D03*
X035734Y026588D03*
X033907Y029118D03*
X033951Y029228D03*
X035404Y029888D03*
D208*
X035833Y026918D03*
X033853Y025818D03*
X025779Y028348D03*
D209*
X029761Y029536D03*
X034711Y025994D03*
X034711Y025972D03*
X035371Y029624D03*
D210*
X030354Y026148D03*
X027076Y028788D03*
D211*
X032379Y026346D03*
X032313Y026192D03*
X032313Y026170D03*
X037659Y026566D03*
X037703Y026632D03*
D212*
X034766Y026236D03*
X033886Y028656D03*
X029926Y028986D03*
X029926Y029030D03*
X029926Y029052D03*
X027066Y028700D03*
D213*
X027066Y028568D03*
X026714Y030108D03*
X026406Y026258D03*
X032346Y028568D03*
X033974Y028348D03*
X034788Y026368D03*
D214*
X031399Y029448D03*
X028539Y026258D03*
X027109Y029008D03*
D215*
X029596Y026258D03*
X037626Y026918D03*
D216*
X032346Y026258D03*
D217*
X033742Y026258D03*
X034314Y029448D03*
X037592Y026368D03*
X027912Y029668D03*
D218*
X027066Y028678D03*
X029926Y028788D03*
X034766Y026258D03*
D219*
X027231Y026368D03*
D220*
X029606Y026368D03*
X031389Y026368D03*
D221*
X030443Y026368D03*
X027099Y028898D03*
X027891Y029558D03*
X035349Y029558D03*
X036449Y028018D03*
X036009Y026368D03*
D222*
X032389Y026368D03*
D223*
X032389Y026412D03*
X034039Y028502D03*
X027109Y029052D03*
D224*
X027121Y029074D03*
X027121Y029096D03*
X036031Y026434D03*
D225*
X031344Y026478D03*
X027186Y026478D03*
D226*
X029563Y026478D03*
X032269Y028238D03*
D227*
X036416Y027886D03*
X036416Y027864D03*
X037714Y026654D03*
X037736Y026676D03*
X037648Y026544D03*
X037626Y026500D03*
X037758Y027842D03*
X037758Y027864D03*
D228*
X032389Y028678D03*
X029771Y029558D03*
X027967Y029888D03*
X028099Y028788D03*
X026317Y026588D03*
D229*
X025724Y026698D03*
D230*
X037746Y026698D03*
D231*
X025724Y026720D03*
D232*
X025724Y026742D03*
X025724Y026764D03*
D233*
X025724Y026786D03*
D234*
X025712Y026808D03*
D235*
X025712Y026830D03*
D236*
X025713Y026852D03*
D237*
X025701Y026874D03*
D238*
X025701Y026896D03*
X029507Y028590D03*
X029507Y028612D03*
X029507Y028634D03*
X029507Y028656D03*
D239*
X025701Y026918D03*
D240*
X025712Y026940D03*
D241*
X025701Y026962D03*
D242*
X025712Y026984D03*
X032774Y029052D03*
X032774Y029074D03*
X032774Y029096D03*
X032796Y029162D03*
D243*
X029728Y029448D03*
X027836Y029338D03*
X025746Y027028D03*
D244*
X028210Y028568D03*
X036526Y027248D03*
D245*
X037449Y027358D03*
D246*
X036031Y027578D03*
X033193Y029448D03*
D247*
X036041Y027688D03*
D248*
X037416Y027798D03*
X034424Y029008D03*
X026306Y029228D03*
D249*
X036416Y027908D03*
D250*
X037769Y027908D03*
X026702Y029448D03*
D251*
X029969Y028238D03*
D252*
X029178Y028458D03*
X026736Y029668D03*
D253*
X029871Y028700D03*
X035261Y028546D03*
X035261Y028524D03*
X035371Y029602D03*
D254*
X029507Y028568D03*
D255*
X032719Y028766D03*
D256*
X032731Y028788D03*
X032753Y028898D03*
D257*
X032753Y028920D03*
X032753Y028942D03*
X032731Y028876D03*
X032731Y028854D03*
X032731Y028832D03*
X032731Y028810D03*
D258*
X032764Y028964D03*
X032764Y028986D03*
X032764Y029030D03*
D259*
X029914Y029008D03*
D260*
X032764Y029008D03*
D261*
X027451Y029118D03*
D262*
X032786Y029118D03*
D263*
X035261Y029338D03*
D264*
X026681Y029360D03*
X026681Y029382D03*
D265*
X026736Y029602D03*
X026736Y029624D03*
X035316Y029470D03*
D266*
X041086Y027188D02*
X041086Y026768D01*
X041086Y026368D01*
X041086Y025948D01*
X041088Y025925D01*
X041093Y025902D01*
X041102Y025880D01*
X041115Y025860D01*
X041130Y025842D01*
X041148Y025827D01*
X041168Y025814D01*
X041190Y025805D01*
X041213Y025800D01*
X041236Y025798D01*
X044936Y025798D01*
X044959Y025800D01*
X044982Y025805D01*
X045004Y025814D01*
X045024Y025827D01*
X045042Y025842D01*
X045057Y025860D01*
X045070Y025880D01*
X045079Y025902D01*
X045084Y025925D01*
X045086Y025948D01*
X045086Y027188D01*
X045084Y027211D01*
X045079Y027234D01*
X045070Y027256D01*
X045057Y027276D01*
X045042Y027294D01*
X045024Y027309D01*
X045004Y027322D01*
X044982Y027331D01*
X044959Y027336D01*
X044936Y027338D01*
X041236Y027338D01*
X041213Y027336D01*
X041190Y027331D01*
X041168Y027322D01*
X041148Y027309D01*
X041130Y027294D01*
X041115Y027276D01*
X041102Y027256D01*
X041093Y027234D01*
X041088Y027211D01*
X041086Y027188D01*
X041086Y026768D02*
X041113Y026766D01*
X041140Y026761D01*
X041166Y026751D01*
X041190Y026739D01*
X041212Y026723D01*
X041232Y026705D01*
X041249Y026683D01*
X041264Y026660D01*
X041274Y026635D01*
X041282Y026609D01*
X041286Y026582D01*
X041286Y026554D01*
X041282Y026527D01*
X041274Y026501D01*
X041264Y026476D01*
X041249Y026453D01*
X041232Y026431D01*
X041212Y026413D01*
X041190Y026397D01*
X041166Y026385D01*
X041140Y026375D01*
X041113Y026370D01*
X041086Y026368D01*
X046252Y014298D02*
X046269Y014298D01*
X046252Y014298D02*
X046252Y013719D01*
X046269Y013719D01*
X046586Y013719D02*
X046997Y013719D01*
X047315Y013719D02*
X047332Y013719D01*
X047332Y014298D01*
X047315Y014298D01*
X046997Y014298D02*
X046960Y014298D01*
X046623Y014298D02*
X046586Y014298D01*
X047096Y010708D02*
X047596Y010708D01*
X047846Y010458D01*
X047846Y009958D01*
X047596Y009708D01*
X047846Y009458D01*
X047846Y008958D01*
X047596Y008708D01*
X047096Y008708D01*
X046846Y008958D01*
X046846Y009458D01*
X047096Y009708D01*
X046846Y009958D01*
X046846Y010458D01*
X047096Y010708D01*
X047096Y009708D02*
X047596Y009708D01*
X047056Y008103D02*
X046478Y008103D01*
X046478Y008085D01*
X046478Y007768D02*
X046478Y007357D01*
X046478Y007040D02*
X046478Y007022D01*
X047056Y007022D01*
X047056Y007040D01*
X047056Y007357D02*
X047056Y007394D01*
X047056Y007731D02*
X047056Y007768D01*
X047056Y008085D02*
X047056Y008103D01*
X033786Y003798D02*
X033786Y003298D01*
X033536Y003048D01*
X033036Y003048D01*
X032786Y003298D01*
X032536Y003048D01*
X032036Y003048D01*
X031786Y003298D01*
X031536Y003048D01*
X031036Y003048D01*
X030786Y003298D01*
X030786Y003798D01*
X031036Y004048D01*
X031536Y004048D01*
X031786Y003798D01*
X032036Y004048D01*
X032536Y004048D01*
X032786Y003798D01*
X033036Y004048D01*
X033536Y004048D01*
X033786Y003798D01*
X032786Y003798D02*
X032786Y003298D01*
X031786Y003298D02*
X031786Y003798D01*
X025346Y003798D02*
X025346Y003298D01*
X025096Y003048D01*
X024596Y003048D01*
X024346Y003298D01*
X024096Y003048D01*
X023596Y003048D01*
X023346Y003298D01*
X023346Y003798D01*
X023596Y004048D01*
X024096Y004048D01*
X024346Y003798D01*
X024596Y004048D01*
X025096Y004048D01*
X025346Y003798D01*
X024346Y003798D02*
X024346Y003298D01*
X008436Y012348D02*
X008436Y014248D01*
X008236Y014448D01*
X004186Y014448D01*
X004186Y014548D01*
X004186Y030548D01*
X004186Y030648D01*
X008236Y030648D01*
X008436Y030848D01*
X008436Y032798D01*
X008236Y032998D01*
X004236Y032998D01*
X004186Y032998D01*
X004186Y030998D01*
X004186Y030648D01*
X004186Y030548D02*
X004486Y030548D01*
X004486Y014548D01*
X004186Y014548D01*
X004186Y014448D02*
X004186Y014098D01*
X004186Y012098D01*
X004236Y012098D01*
X008186Y012098D01*
X008436Y012348D01*
X006536Y013288D02*
X006538Y013338D01*
X006544Y013388D01*
X006554Y013438D01*
X006567Y013486D01*
X006584Y013534D01*
X006605Y013580D01*
X006629Y013624D01*
X006657Y013666D01*
X006688Y013706D01*
X006722Y013743D01*
X006759Y013778D01*
X006798Y013809D01*
X006839Y013838D01*
X006883Y013863D01*
X006929Y013885D01*
X006976Y013903D01*
X007024Y013917D01*
X007073Y013928D01*
X007123Y013935D01*
X007173Y013938D01*
X007224Y013937D01*
X007274Y013932D01*
X007324Y013923D01*
X007372Y013911D01*
X007420Y013894D01*
X007466Y013874D01*
X007511Y013851D01*
X007554Y013824D01*
X007594Y013794D01*
X007632Y013761D01*
X007667Y013725D01*
X007700Y013686D01*
X007729Y013645D01*
X007755Y013602D01*
X007778Y013557D01*
X007797Y013510D01*
X007812Y013462D01*
X007824Y013413D01*
X007832Y013363D01*
X007836Y013313D01*
X007836Y013263D01*
X007832Y013213D01*
X007824Y013163D01*
X007812Y013114D01*
X007797Y013066D01*
X007778Y013019D01*
X007755Y012974D01*
X007729Y012931D01*
X007700Y012890D01*
X007667Y012851D01*
X007632Y012815D01*
X007594Y012782D01*
X007554Y012752D01*
X007511Y012725D01*
X007466Y012702D01*
X007420Y012682D01*
X007372Y012665D01*
X007324Y012653D01*
X007274Y012644D01*
X007224Y012639D01*
X007173Y012638D01*
X007123Y012641D01*
X007073Y012648D01*
X007024Y012659D01*
X006976Y012673D01*
X006929Y012691D01*
X006883Y012713D01*
X006839Y012738D01*
X006798Y012767D01*
X006759Y012798D01*
X006722Y012833D01*
X006688Y012870D01*
X006657Y012910D01*
X006629Y012952D01*
X006605Y012996D01*
X006584Y013042D01*
X006567Y013090D01*
X006554Y013138D01*
X006544Y013188D01*
X006538Y013238D01*
X006536Y013288D01*
X004186Y012098D02*
X002986Y012098D01*
X002786Y012098D01*
X002786Y013098D01*
X002786Y014098D01*
X002786Y030998D01*
X002986Y030998D01*
X002986Y030948D01*
X003936Y030948D01*
X003966Y030946D01*
X003996Y030941D01*
X004025Y030932D01*
X004052Y030919D01*
X004078Y030904D01*
X004102Y030885D01*
X004123Y030864D01*
X004142Y030840D01*
X004157Y030814D01*
X004170Y030787D01*
X004179Y030758D01*
X004184Y030728D01*
X004186Y030698D01*
X002786Y030998D02*
X002786Y031998D01*
X002786Y032998D01*
X002986Y032998D01*
X004186Y032998D01*
X002786Y032998D02*
X002586Y032998D01*
X002586Y029948D01*
X002586Y015148D01*
X002586Y012098D01*
X002786Y012098D01*
X002786Y014098D02*
X002986Y014098D01*
X002986Y014148D01*
X003936Y014148D01*
X003966Y014150D01*
X003996Y014155D01*
X004025Y014164D01*
X004052Y014177D01*
X004078Y014192D01*
X004102Y014211D01*
X004123Y014232D01*
X004142Y014256D01*
X004157Y014282D01*
X004170Y014309D01*
X004179Y014338D01*
X004184Y014368D01*
X004186Y014398D01*
X002586Y014748D02*
X002584Y014778D01*
X002579Y014808D01*
X002570Y014837D01*
X002557Y014864D01*
X002542Y014890D01*
X002523Y014914D01*
X002502Y014935D01*
X002478Y014954D01*
X002452Y014969D01*
X002425Y014982D01*
X002396Y014991D01*
X002366Y014996D01*
X002336Y014998D01*
X000336Y014998D01*
X000310Y015000D01*
X000284Y015005D01*
X000259Y015013D01*
X000236Y015025D01*
X000214Y015039D01*
X000195Y015057D01*
X000177Y015076D01*
X000163Y015098D01*
X000151Y015121D01*
X000143Y015146D01*
X000138Y015172D01*
X000136Y015198D01*
X000136Y015298D01*
X000136Y029798D01*
X000136Y029898D01*
X000138Y029924D01*
X000143Y029950D01*
X000151Y029975D01*
X000163Y029998D01*
X000177Y030020D01*
X000195Y030039D01*
X000214Y030057D01*
X000236Y030071D01*
X000259Y030083D01*
X000284Y030091D01*
X000310Y030096D01*
X000336Y030098D01*
X002336Y030098D01*
X002366Y030100D01*
X002396Y030105D01*
X002425Y030114D01*
X002452Y030127D01*
X002478Y030142D01*
X002502Y030161D01*
X002523Y030182D01*
X002542Y030206D01*
X002557Y030232D01*
X002570Y030259D01*
X002579Y030288D01*
X002584Y030318D01*
X002586Y030348D01*
X006536Y031808D02*
X006538Y031858D01*
X006544Y031908D01*
X006554Y031958D01*
X006567Y032006D01*
X006584Y032054D01*
X006605Y032100D01*
X006629Y032144D01*
X006657Y032186D01*
X006688Y032226D01*
X006722Y032263D01*
X006759Y032298D01*
X006798Y032329D01*
X006839Y032358D01*
X006883Y032383D01*
X006929Y032405D01*
X006976Y032423D01*
X007024Y032437D01*
X007073Y032448D01*
X007123Y032455D01*
X007173Y032458D01*
X007224Y032457D01*
X007274Y032452D01*
X007324Y032443D01*
X007372Y032431D01*
X007420Y032414D01*
X007466Y032394D01*
X007511Y032371D01*
X007554Y032344D01*
X007594Y032314D01*
X007632Y032281D01*
X007667Y032245D01*
X007700Y032206D01*
X007729Y032165D01*
X007755Y032122D01*
X007778Y032077D01*
X007797Y032030D01*
X007812Y031982D01*
X007824Y031933D01*
X007832Y031883D01*
X007836Y031833D01*
X007836Y031783D01*
X007832Y031733D01*
X007824Y031683D01*
X007812Y031634D01*
X007797Y031586D01*
X007778Y031539D01*
X007755Y031494D01*
X007729Y031451D01*
X007700Y031410D01*
X007667Y031371D01*
X007632Y031335D01*
X007594Y031302D01*
X007554Y031272D01*
X007511Y031245D01*
X007466Y031222D01*
X007420Y031202D01*
X007372Y031185D01*
X007324Y031173D01*
X007274Y031164D01*
X007224Y031159D01*
X007173Y031158D01*
X007123Y031161D01*
X007073Y031168D01*
X007024Y031179D01*
X006976Y031193D01*
X006929Y031211D01*
X006883Y031233D01*
X006839Y031258D01*
X006798Y031287D01*
X006759Y031318D01*
X006722Y031353D01*
X006688Y031390D01*
X006657Y031430D01*
X006629Y031472D01*
X006605Y031516D01*
X006584Y031562D01*
X006567Y031610D01*
X006554Y031658D01*
X006544Y031708D01*
X006538Y031758D01*
X006536Y031808D01*
X025736Y040608D02*
X025736Y042508D01*
X025738Y042538D01*
X025743Y042568D01*
X025752Y042597D01*
X025765Y042624D01*
X025780Y042650D01*
X025799Y042674D01*
X025820Y042695D01*
X025844Y042714D01*
X025870Y042729D01*
X025897Y042742D01*
X025926Y042751D01*
X025956Y042756D01*
X025986Y042758D01*
X045486Y042758D01*
X045516Y042756D01*
X045546Y042751D01*
X045575Y042742D01*
X045602Y042729D01*
X045628Y042714D01*
X045652Y042695D01*
X045673Y042674D01*
X045692Y042650D01*
X045707Y042624D01*
X045720Y042597D01*
X045729Y042568D01*
X045734Y042538D01*
X045736Y042508D01*
X045736Y040608D01*
X045734Y040578D01*
X045729Y040548D01*
X045720Y040519D01*
X045707Y040492D01*
X045692Y040466D01*
X045673Y040442D01*
X045652Y040421D01*
X045628Y040402D01*
X045602Y040387D01*
X045575Y040374D01*
X045546Y040365D01*
X045516Y040360D01*
X045486Y040358D01*
X025986Y040358D01*
X025956Y040360D01*
X025926Y040365D01*
X025897Y040374D01*
X025870Y040387D01*
X025844Y040402D01*
X025820Y040421D01*
X025799Y040442D01*
X025780Y040466D01*
X025765Y040492D01*
X025752Y040519D01*
X025743Y040548D01*
X025738Y040578D01*
X025736Y040608D01*
D267*
X007911Y030259D02*
X007911Y030109D01*
X007836Y030033D01*
X007911Y029873D02*
X007911Y029573D01*
X007911Y029723D02*
X007461Y029723D01*
X007611Y029573D01*
X007536Y030033D02*
X007461Y030109D01*
X007461Y030259D01*
X007536Y030334D01*
X007611Y030334D01*
X007686Y030259D01*
X007761Y030334D01*
X007836Y030334D01*
X007911Y030259D01*
X007686Y030259D02*
X007686Y030184D01*
X006911Y030259D02*
X006911Y030109D01*
X006836Y030033D01*
X006686Y030033D02*
X006611Y030184D01*
X006611Y030259D01*
X006686Y030334D01*
X006836Y030334D01*
X006911Y030259D01*
X006686Y030033D02*
X006461Y030033D01*
X006461Y030334D01*
X006536Y029873D02*
X006461Y029798D01*
X006461Y029648D01*
X006536Y029573D01*
X006536Y029873D02*
X006611Y029873D01*
X006911Y029573D01*
X006911Y029873D01*
X004984Y032173D02*
X005134Y032323D01*
X005059Y032323D01*
X005059Y032398D01*
X005134Y032398D01*
X005134Y032323D01*
X005290Y032398D02*
X005366Y032323D01*
X005516Y032323D01*
X005591Y032398D01*
X005591Y032548D01*
X005516Y032623D01*
X005441Y032623D01*
X005290Y032548D01*
X005290Y032773D01*
X005591Y032773D01*
X005751Y032548D02*
X005976Y032773D01*
X005976Y032323D01*
X006051Y032548D02*
X005751Y032548D01*
X004823Y032623D02*
X004823Y032698D01*
X004748Y032773D01*
X004598Y032773D01*
X004523Y032698D01*
X004823Y032623D02*
X004523Y032323D01*
X004823Y032323D01*
X003736Y016444D02*
X003811Y016369D01*
X003811Y016219D01*
X003736Y016144D01*
X003586Y016144D02*
X003511Y016294D01*
X003511Y016369D01*
X003586Y016444D01*
X003736Y016444D01*
X003586Y016144D02*
X003361Y016144D01*
X003361Y016444D01*
X003436Y015984D02*
X003361Y015909D01*
X003361Y015759D01*
X003436Y015683D01*
X003361Y015523D02*
X003361Y015223D01*
X003811Y015223D01*
X003586Y015223D02*
X003586Y015373D01*
X003811Y015683D02*
X003511Y015984D01*
X003436Y015984D01*
X003811Y015984D02*
X003811Y015683D01*
X006461Y015559D02*
X006686Y015333D01*
X006686Y015634D01*
X006911Y015559D02*
X006461Y015559D01*
X006911Y015173D02*
X006911Y014873D01*
X006911Y015023D02*
X006461Y015023D01*
X006611Y014873D01*
X007461Y015373D02*
X007911Y015373D01*
X007911Y015223D02*
X007911Y015523D01*
X007611Y015223D02*
X007461Y015373D01*
X023681Y002223D02*
X023681Y001773D01*
X023982Y001773D01*
X024142Y001848D02*
X024217Y001773D01*
X024367Y001773D01*
X024442Y001848D01*
X024442Y002148D01*
X024367Y002223D01*
X024217Y002223D01*
X024142Y002148D01*
X024142Y001848D01*
X024602Y001848D02*
X024677Y001773D01*
X024827Y001773D01*
X024902Y001848D01*
X024902Y001998D01*
X024752Y001998D01*
X024602Y002148D02*
X024602Y001848D01*
X024602Y002148D02*
X024677Y002223D01*
X024827Y002223D01*
X024902Y002148D01*
X031411Y002168D02*
X031411Y001868D01*
X031486Y001793D01*
X031636Y001793D01*
X031712Y001868D01*
X031872Y001868D02*
X031947Y001793D01*
X032097Y001793D01*
X032172Y001868D01*
X032172Y002168D01*
X032097Y002243D01*
X031947Y002243D01*
X031872Y002168D01*
X031872Y001868D01*
X031712Y002168D02*
X031636Y002243D01*
X031486Y002243D01*
X031411Y002168D01*
X032332Y002243D02*
X032482Y002093D01*
X032632Y002243D01*
X032632Y001793D01*
X032792Y001793D02*
X033093Y001793D01*
X032942Y001793D02*
X032942Y002243D01*
X032792Y002093D01*
X032332Y002243D02*
X032332Y001793D01*
X048311Y008953D02*
X048461Y008803D01*
X048311Y008953D02*
X048761Y008953D01*
X048761Y008803D02*
X048761Y009103D01*
X048761Y009263D02*
X048311Y009263D01*
X048311Y009489D01*
X048386Y009564D01*
X048536Y009564D01*
X048611Y009489D01*
X048611Y009263D01*
X048611Y009724D02*
X048611Y009949D01*
X048536Y010024D01*
X048386Y010024D01*
X048311Y009949D01*
X048311Y009724D01*
X048761Y009724D01*
X048686Y010184D02*
X048761Y010259D01*
X048761Y010409D01*
X048686Y010484D01*
X048611Y010484D01*
X048536Y010409D01*
X048536Y010259D01*
X048461Y010184D01*
X048386Y010184D01*
X048311Y010259D01*
X048311Y010409D01*
X048386Y010484D01*
X045881Y025843D02*
X045881Y025993D01*
X045881Y025918D02*
X045431Y025918D01*
X045431Y025843D02*
X045431Y025993D01*
X045506Y026150D02*
X045806Y026150D01*
X045881Y026225D01*
X045881Y026375D01*
X045806Y026450D01*
X045881Y026610D02*
X045881Y026911D01*
X045881Y026760D02*
X045431Y026760D01*
X045581Y026610D01*
X045506Y026450D02*
X045431Y026375D01*
X045431Y026225D01*
X045506Y026150D01*
X045656Y027071D02*
X045656Y027296D01*
X045731Y027371D01*
X045806Y027371D01*
X045881Y027296D01*
X045881Y027146D01*
X045806Y027071D01*
X045656Y027071D01*
X045506Y027221D01*
X045431Y027371D01*
D268*
X004336Y022548D03*
D269*
X002686Y022548D03*
D270*
X005911Y022548D03*
X005911Y021468D03*
X005911Y020378D03*
X005911Y019288D03*
X005911Y018198D03*
X005911Y017118D03*
X005911Y016028D03*
X005911Y023638D03*
X005911Y024718D03*
X005911Y025808D03*
X005911Y026898D03*
X005911Y027978D03*
X005911Y029068D03*
D271*
X005411Y028518D03*
X005411Y027428D03*
X005411Y026348D03*
X005411Y025268D03*
X005411Y024178D03*
X005411Y023088D03*
X005411Y022008D03*
X005411Y020918D03*
X005411Y019828D03*
X005411Y018748D03*
X005411Y017658D03*
X005411Y016568D03*
D272*
X008241Y019013D02*
X008451Y019223D01*
X008871Y019223D01*
X008871Y019448D02*
X008241Y019448D01*
X008871Y019868D01*
X008241Y019868D01*
X008451Y020092D02*
X008241Y020302D01*
X008451Y020513D01*
X008871Y020513D01*
X008871Y020737D02*
X008871Y021157D01*
X008766Y021381D02*
X008346Y021381D01*
X008241Y021486D01*
X008241Y021696D01*
X008346Y021802D01*
X008766Y021802D01*
X008871Y021696D01*
X008871Y021486D01*
X008766Y021381D01*
X008766Y022026D02*
X008346Y022026D01*
X008241Y022131D01*
X008241Y022341D01*
X008346Y022446D01*
X008556Y022446D02*
X008556Y022236D01*
X008556Y022446D02*
X008766Y022446D01*
X008871Y022341D01*
X008871Y022131D01*
X008766Y022026D01*
X008976Y022670D02*
X008976Y023091D01*
X008871Y023315D02*
X008871Y023525D01*
X008871Y023420D02*
X008241Y023420D01*
X008241Y023315D02*
X008241Y023525D01*
X008241Y023744D02*
X008871Y024165D01*
X008241Y024165D01*
X008241Y024389D02*
X008241Y024704D01*
X008346Y024809D01*
X008556Y024809D01*
X008661Y024704D01*
X008661Y024389D01*
X008871Y024389D02*
X008241Y024389D01*
X008241Y025034D02*
X008766Y025034D01*
X008871Y025139D01*
X008871Y025349D01*
X008766Y025454D01*
X008241Y025454D01*
X008241Y025678D02*
X008241Y026098D01*
X008241Y025888D02*
X008871Y025888D01*
X008871Y023744D02*
X008241Y023744D01*
X008241Y020737D02*
X008871Y020737D01*
X008556Y020513D02*
X008556Y020092D01*
X008451Y020092D02*
X008871Y020092D01*
X008556Y019223D02*
X008556Y018803D01*
X008451Y018803D02*
X008241Y019013D01*
X008451Y018803D02*
X008871Y018803D01*
D273*
X009846Y018662D02*
X010076Y018662D01*
X010153Y018738D01*
X010153Y018892D01*
X010076Y018968D01*
X009846Y018968D01*
X009846Y018508D01*
X010000Y018662D02*
X010153Y018508D01*
X010307Y018508D02*
X010614Y018815D01*
X010614Y018892D01*
X010537Y018968D01*
X010383Y018968D01*
X010307Y018892D01*
X010307Y018508D02*
X010614Y018508D01*
X011006Y018388D02*
X011006Y017928D01*
X011006Y018082D02*
X011236Y018082D01*
X011313Y018158D01*
X011313Y018312D01*
X011236Y018388D01*
X011006Y018388D01*
X011160Y018082D02*
X011313Y017928D01*
X011467Y017928D02*
X011774Y017928D01*
X011620Y017928D02*
X011620Y018388D01*
X011467Y018235D01*
X010637Y016938D02*
X010714Y016862D01*
X010407Y016555D01*
X010484Y016478D01*
X010637Y016478D01*
X010714Y016555D01*
X010714Y016862D01*
X010637Y016938D02*
X010484Y016938D01*
X010407Y016862D01*
X010407Y016555D01*
X010254Y016478D02*
X009947Y016478D01*
X010100Y016478D02*
X010100Y016938D01*
X009947Y016785D01*
X009793Y016862D02*
X009793Y016708D01*
X009716Y016632D01*
X009486Y016632D01*
X009640Y016632D02*
X009793Y016478D01*
X009486Y016478D02*
X009486Y016938D01*
X009716Y016938D01*
X009793Y016862D01*
X009773Y019718D02*
X009620Y019872D01*
X009696Y019872D02*
X009466Y019872D01*
X009466Y019718D02*
X009466Y020178D01*
X009696Y020178D01*
X009773Y020102D01*
X009773Y019948D01*
X009696Y019872D01*
X009927Y020025D02*
X010080Y020178D01*
X010080Y019718D01*
X009927Y019718D02*
X010234Y019718D01*
X010387Y019718D02*
X010694Y020025D01*
X010694Y020102D01*
X010617Y020178D01*
X010464Y020178D01*
X010387Y020102D01*
X010387Y019718D02*
X010694Y019718D01*
X010686Y020388D02*
X010686Y020848D01*
X010916Y020848D01*
X010993Y020772D01*
X010993Y020618D01*
X010916Y020542D01*
X010686Y020542D01*
X010840Y020542D02*
X010993Y020388D01*
X011147Y020388D02*
X011454Y020388D01*
X011607Y020388D02*
X011914Y020388D01*
X011760Y020388D02*
X011760Y020848D01*
X011607Y020695D01*
X011300Y020848D02*
X011300Y020388D01*
X011147Y020695D02*
X011300Y020848D01*
X011233Y021098D02*
X011080Y021252D01*
X011156Y021252D02*
X010926Y021252D01*
X010926Y021098D02*
X010926Y021558D01*
X011156Y021558D01*
X011233Y021482D01*
X011233Y021328D01*
X011156Y021252D01*
X011387Y021175D02*
X011463Y021098D01*
X011617Y021098D01*
X011694Y021175D01*
X011694Y021252D01*
X011617Y021328D01*
X011540Y021328D01*
X011617Y021328D02*
X011694Y021405D01*
X011694Y021482D01*
X011617Y021558D01*
X011463Y021558D01*
X011387Y021482D01*
X010577Y021728D02*
X010577Y022188D01*
X010347Y021958D01*
X010654Y021958D01*
X010193Y021958D02*
X010116Y021882D01*
X009886Y021882D01*
X010040Y021882D02*
X010193Y021728D01*
X010193Y021958D02*
X010193Y022112D01*
X010116Y022188D01*
X009886Y022188D01*
X009886Y021728D01*
X009853Y022938D02*
X009700Y023092D01*
X009776Y023092D02*
X009546Y023092D01*
X009546Y022938D02*
X009546Y023398D01*
X009776Y023398D01*
X009853Y023322D01*
X009853Y023168D01*
X009776Y023092D01*
X010007Y023245D02*
X010160Y023398D01*
X010160Y022938D01*
X010007Y022938D02*
X010314Y022938D01*
X010467Y023168D02*
X010774Y023168D01*
X010697Y022938D02*
X010697Y023398D01*
X010467Y023168D01*
X010606Y023568D02*
X010606Y024028D01*
X010836Y024028D01*
X010913Y023952D01*
X010913Y023798D01*
X010836Y023722D01*
X010606Y023722D01*
X010760Y023722D02*
X010913Y023568D01*
X011067Y023568D02*
X011374Y023568D01*
X011220Y023568D02*
X011220Y024028D01*
X011067Y023875D01*
X010946Y024318D02*
X010946Y024778D01*
X011176Y024778D01*
X011253Y024702D01*
X011253Y024548D01*
X011176Y024472D01*
X010946Y024472D01*
X011100Y024472D02*
X011253Y024318D01*
X011407Y024395D02*
X011483Y024318D01*
X011637Y024318D01*
X011714Y024395D01*
X011714Y024548D01*
X011637Y024625D01*
X011560Y024625D01*
X011407Y024548D01*
X011407Y024778D01*
X011714Y024778D01*
X011757Y024028D02*
X011834Y023952D01*
X011834Y023875D01*
X011757Y023798D01*
X011834Y023722D01*
X011834Y023645D01*
X011757Y023568D01*
X011604Y023568D01*
X011527Y023645D01*
X011680Y023798D02*
X011757Y023798D01*
X011757Y024028D02*
X011604Y024028D01*
X011527Y023952D01*
X010567Y024918D02*
X010644Y024995D01*
X010644Y025072D01*
X010567Y025148D01*
X010337Y025148D01*
X010337Y024995D01*
X010413Y024918D01*
X010567Y024918D01*
X010337Y025148D02*
X010490Y025302D01*
X010644Y025378D01*
X010183Y025302D02*
X010183Y025148D01*
X010106Y025072D01*
X009876Y025072D01*
X010030Y025072D02*
X010183Y024918D01*
X009876Y024918D02*
X009876Y025378D01*
X010106Y025378D01*
X010183Y025302D01*
X010224Y026108D02*
X009917Y026108D01*
X010070Y026108D02*
X010070Y026568D01*
X009917Y026415D01*
X009763Y026492D02*
X009686Y026568D01*
X009456Y026568D01*
X009456Y026108D01*
X009456Y026262D02*
X009686Y026262D01*
X009763Y026338D01*
X009763Y026492D01*
X009610Y026262D02*
X009763Y026108D01*
X010377Y026185D02*
X010454Y026108D01*
X010607Y026108D01*
X010684Y026185D01*
X010684Y026262D01*
X010607Y026338D01*
X010377Y026338D01*
X010377Y026185D01*
X010377Y026338D02*
X010530Y026492D01*
X010684Y026568D01*
X010546Y026758D02*
X010546Y027218D01*
X010776Y027218D01*
X010853Y027142D01*
X010853Y026988D01*
X010776Y026912D01*
X010546Y026912D01*
X010700Y026912D02*
X010853Y026758D01*
X011007Y026758D02*
X011314Y026758D01*
X011160Y026758D02*
X011160Y027218D01*
X011007Y027065D01*
X010946Y027488D02*
X010946Y027948D01*
X011176Y027948D01*
X011253Y027872D01*
X011253Y027718D01*
X011176Y027642D01*
X010946Y027642D01*
X011100Y027642D02*
X011253Y027488D01*
X011407Y027488D02*
X011407Y027565D01*
X011714Y027872D01*
X011714Y027948D01*
X011407Y027948D01*
X010614Y028165D02*
X010537Y028088D01*
X010383Y028088D01*
X010307Y028165D01*
X010307Y028242D01*
X010383Y028318D01*
X010537Y028318D01*
X010614Y028242D01*
X010614Y028165D01*
X010537Y028318D02*
X010614Y028395D01*
X010614Y028472D01*
X010537Y028548D01*
X010383Y028548D01*
X010307Y028472D01*
X010307Y028395D01*
X010383Y028318D01*
X010153Y028318D02*
X010076Y028242D01*
X009846Y028242D01*
X010000Y028242D02*
X010153Y028088D01*
X010153Y028318D02*
X010153Y028472D01*
X010076Y028548D01*
X009846Y028548D01*
X009846Y028088D01*
X011467Y027218D02*
X011467Y026988D01*
X011620Y027065D01*
X011697Y027065D01*
X011774Y026988D01*
X011774Y026835D01*
X011697Y026758D01*
X011544Y026758D01*
X011467Y026835D01*
X011467Y027218D02*
X011774Y027218D01*
X013206Y027122D02*
X013206Y026815D01*
X013283Y026738D01*
X013436Y026738D01*
X013513Y026815D01*
X013667Y026815D02*
X013667Y026892D01*
X013743Y026968D01*
X013897Y026968D01*
X013974Y026892D01*
X013974Y026815D01*
X013897Y026738D01*
X013743Y026738D01*
X013667Y026815D01*
X013743Y026968D02*
X013667Y027045D01*
X013667Y027122D01*
X013743Y027198D01*
X013897Y027198D01*
X013974Y027122D01*
X013974Y027045D01*
X013897Y026968D01*
X013513Y027122D02*
X013436Y027198D01*
X013283Y027198D01*
X013206Y027122D01*
X013173Y025938D02*
X013096Y025862D01*
X013096Y025555D01*
X013173Y025478D01*
X013326Y025478D01*
X013403Y025555D01*
X013557Y025555D02*
X013633Y025478D01*
X013787Y025478D01*
X013864Y025555D01*
X013864Y025632D01*
X013787Y025708D01*
X013710Y025708D01*
X013787Y025708D02*
X013864Y025785D01*
X013864Y025862D01*
X013787Y025938D01*
X013633Y025938D01*
X013557Y025862D01*
X013403Y025862D02*
X013326Y025938D01*
X013173Y025938D01*
X013253Y024008D02*
X013176Y023932D01*
X013176Y023625D01*
X013253Y023548D01*
X013406Y023548D01*
X013483Y023625D01*
X013637Y023625D02*
X013637Y023548D01*
X013637Y023625D02*
X013944Y023932D01*
X013944Y024008D01*
X013637Y024008D01*
X013483Y023932D02*
X013406Y024008D01*
X013253Y024008D01*
X013223Y022778D02*
X013146Y022702D01*
X013146Y022395D01*
X013223Y022318D01*
X013376Y022318D01*
X013453Y022395D01*
X013607Y022318D02*
X013914Y022625D01*
X013914Y022702D01*
X013837Y022778D01*
X013683Y022778D01*
X013607Y022702D01*
X013453Y022702D02*
X013376Y022778D01*
X013223Y022778D01*
X013607Y022318D02*
X013914Y022318D01*
X013864Y020778D02*
X013710Y020702D01*
X013557Y020548D01*
X013787Y020548D01*
X013864Y020472D01*
X013864Y020395D01*
X013787Y020318D01*
X013633Y020318D01*
X013557Y020395D01*
X013557Y020548D01*
X013403Y020395D02*
X013326Y020318D01*
X013173Y020318D01*
X013096Y020395D01*
X013096Y020702D01*
X013173Y020778D01*
X013326Y020778D01*
X013403Y020702D01*
X013326Y019558D02*
X013173Y019558D01*
X013096Y019482D01*
X013096Y019175D01*
X013173Y019098D01*
X013326Y019098D01*
X013403Y019175D01*
X013557Y019098D02*
X013864Y019098D01*
X013710Y019098D02*
X013710Y019558D01*
X013557Y019405D01*
X013403Y019482D02*
X013326Y019558D01*
X013356Y017578D02*
X013433Y017502D01*
X013433Y017348D01*
X013356Y017272D01*
X013126Y017272D01*
X013280Y017272D02*
X013433Y017118D01*
X013587Y017195D02*
X013663Y017118D01*
X013817Y017118D01*
X013894Y017195D01*
X013894Y017502D01*
X013817Y017578D01*
X013663Y017578D01*
X013587Y017502D01*
X013587Y017425D01*
X013663Y017348D01*
X013894Y017348D01*
X013356Y017578D02*
X013126Y017578D01*
X013126Y017118D01*
X013283Y016368D02*
X013206Y016292D01*
X013206Y015985D01*
X013283Y015908D01*
X013436Y015908D01*
X013513Y015985D01*
X013667Y015985D02*
X013743Y015908D01*
X013897Y015908D01*
X013974Y015985D01*
X013974Y016138D01*
X013897Y016215D01*
X013820Y016215D01*
X013667Y016138D01*
X013667Y016368D01*
X013974Y016368D01*
X013513Y016292D02*
X013436Y016368D01*
X013283Y016368D01*
X018151Y019884D02*
X018304Y019884D01*
X018228Y019884D02*
X018228Y020344D01*
X018304Y020344D02*
X018151Y020344D01*
X018458Y020268D02*
X018458Y019961D01*
X018534Y019884D01*
X018688Y019884D01*
X018765Y019961D01*
X018918Y019884D02*
X019225Y019884D01*
X019072Y019884D02*
X019072Y020344D01*
X018918Y020191D01*
X018765Y020268D02*
X018688Y020344D01*
X018534Y020344D01*
X018458Y020268D01*
X022406Y021228D02*
X022406Y021688D01*
X022636Y021688D01*
X022713Y021612D01*
X022713Y021458D01*
X022636Y021382D01*
X022406Y021382D01*
X022560Y021382D02*
X022713Y021228D01*
X022867Y021228D02*
X023174Y021228D01*
X023020Y021228D02*
X023020Y021688D01*
X022867Y021535D01*
X022877Y021888D02*
X023184Y021888D01*
X023337Y021888D02*
X023337Y021965D01*
X023644Y022272D01*
X023644Y022348D01*
X023337Y022348D01*
X023414Y022578D02*
X023337Y022655D01*
X023644Y022962D01*
X023644Y022655D01*
X023567Y022578D01*
X023414Y022578D01*
X023337Y022655D02*
X023337Y022962D01*
X023414Y023038D01*
X023567Y023038D01*
X023644Y022962D01*
X023184Y022962D02*
X023107Y023038D01*
X022953Y023038D01*
X022877Y022962D01*
X022723Y022962D02*
X022723Y022808D01*
X022646Y022732D01*
X022416Y022732D01*
X022570Y022732D02*
X022723Y022578D01*
X022877Y022578D02*
X023184Y022885D01*
X023184Y022962D01*
X023184Y022578D02*
X022877Y022578D01*
X023030Y022348D02*
X022877Y022195D01*
X022723Y022118D02*
X022646Y022042D01*
X022416Y022042D01*
X022570Y022042D02*
X022723Y021888D01*
X022723Y022118D02*
X022723Y022272D01*
X022646Y022348D01*
X022416Y022348D01*
X022416Y021888D01*
X023030Y021888D02*
X023030Y022348D01*
X022723Y022962D02*
X022646Y023038D01*
X022416Y023038D01*
X022416Y022578D01*
X023327Y021612D02*
X023404Y021688D01*
X023557Y021688D01*
X023634Y021612D01*
X023634Y021535D01*
X023557Y021458D01*
X023404Y021458D01*
X023327Y021535D01*
X023327Y021612D01*
X023404Y021458D02*
X023327Y021382D01*
X023327Y021305D01*
X023404Y021228D01*
X023557Y021228D01*
X023634Y021305D01*
X023634Y021382D01*
X023557Y021458D01*
X023577Y020988D02*
X023424Y020988D01*
X023347Y020912D01*
X023347Y020835D01*
X023424Y020758D01*
X023654Y020758D01*
X023654Y020605D02*
X023654Y020912D01*
X023577Y020988D01*
X023654Y020605D02*
X023577Y020528D01*
X023424Y020528D01*
X023347Y020605D01*
X023194Y020528D02*
X022887Y020528D01*
X023040Y020528D02*
X023040Y020988D01*
X022887Y020835D01*
X022733Y020912D02*
X022733Y020758D01*
X022656Y020682D01*
X022426Y020682D01*
X022580Y020682D02*
X022733Y020528D01*
X022426Y020528D02*
X022426Y020988D01*
X022656Y020988D01*
X022733Y020912D01*
X017994Y024825D02*
X017918Y024748D01*
X017764Y024748D01*
X017687Y024825D01*
X017994Y025132D01*
X017994Y024825D01*
X017687Y024825D02*
X017687Y025132D01*
X017764Y025208D01*
X017918Y025208D01*
X017994Y025132D01*
X017534Y024748D02*
X017227Y024748D01*
X017380Y024748D02*
X017380Y025208D01*
X017227Y025055D01*
X017074Y025132D02*
X016997Y025208D01*
X016843Y025208D01*
X016767Y025132D01*
X016767Y024825D01*
X016843Y024748D01*
X016997Y024748D01*
X017074Y024825D01*
X019206Y025995D02*
X019282Y025918D01*
X019436Y025918D01*
X019512Y025995D01*
X019666Y025995D02*
X019743Y025918D01*
X019896Y025918D01*
X019973Y025995D01*
X019973Y026302D01*
X019896Y026378D01*
X019743Y026378D01*
X019666Y026302D01*
X019666Y026225D01*
X019743Y026148D01*
X019973Y026148D01*
X019512Y026302D02*
X019436Y026378D01*
X019282Y026378D01*
X019206Y026302D01*
X019206Y025995D01*
X020096Y027728D02*
X020096Y027958D01*
X020173Y028035D01*
X020480Y028035D01*
X020556Y027958D01*
X020556Y027728D01*
X020096Y027728D01*
X020249Y028188D02*
X020096Y028342D01*
X020556Y028342D01*
X020556Y028495D02*
X020556Y028188D01*
X016846Y028108D02*
X016539Y028415D01*
X016463Y028415D01*
X016386Y028339D01*
X016386Y028185D01*
X016463Y028108D01*
X016463Y027955D02*
X016386Y027878D01*
X016386Y027648D01*
X016846Y027648D01*
X016846Y027878D01*
X016770Y027955D01*
X016463Y027955D01*
X016846Y028108D02*
X016846Y028415D01*
X013964Y028938D02*
X013657Y028938D01*
X013887Y029168D01*
X013887Y028708D01*
X013503Y028785D02*
X013426Y028708D01*
X013273Y028708D01*
X013196Y028785D01*
X013196Y029092D01*
X013273Y029168D01*
X013426Y029168D01*
X013503Y029092D01*
X012066Y030346D02*
X011989Y030270D01*
X011835Y030270D01*
X011759Y030346D01*
X011605Y030346D02*
X011529Y030270D01*
X011375Y030270D01*
X011298Y030346D01*
X011145Y030346D02*
X011068Y030270D01*
X010915Y030270D01*
X010838Y030346D01*
X010838Y030653D01*
X010915Y030730D01*
X011068Y030730D01*
X011145Y030653D01*
X011298Y030730D02*
X011298Y030500D01*
X011452Y030576D01*
X011529Y030576D01*
X011605Y030500D01*
X011605Y030346D01*
X011835Y030500D02*
X012066Y030500D01*
X012066Y030653D02*
X012066Y030346D01*
X011835Y030500D02*
X011759Y030576D01*
X011759Y030653D01*
X011835Y030730D01*
X011989Y030730D01*
X012066Y030653D01*
X011605Y030730D02*
X011298Y030730D01*
X013416Y032205D02*
X013416Y032512D01*
X013493Y032588D01*
X013646Y032588D01*
X013723Y032512D01*
X013877Y032358D02*
X014107Y032358D01*
X014184Y032282D01*
X014184Y032205D01*
X014107Y032128D01*
X013953Y032128D01*
X013877Y032205D01*
X013877Y032358D01*
X014030Y032512D01*
X014184Y032588D01*
X014337Y032512D02*
X014337Y032205D01*
X014644Y032512D01*
X014644Y032205D01*
X014567Y032128D01*
X014414Y032128D01*
X014337Y032205D01*
X014337Y032512D02*
X014414Y032588D01*
X014567Y032588D01*
X014644Y032512D01*
X013723Y032205D02*
X013646Y032128D01*
X013493Y032128D01*
X013416Y032205D01*
X009111Y036148D02*
X009111Y036302D01*
X009111Y036225D02*
X008651Y036225D01*
X008651Y036148D02*
X008651Y036302D01*
X008728Y036455D02*
X009035Y036455D01*
X009111Y036532D01*
X009111Y036685D01*
X009035Y036762D01*
X009111Y036915D02*
X009111Y037222D01*
X009111Y037069D02*
X008651Y037069D01*
X008805Y036915D01*
X008728Y036762D02*
X008651Y036685D01*
X008651Y036532D01*
X008728Y036455D01*
X008881Y037376D02*
X008881Y037683D01*
X009111Y037606D02*
X008651Y037606D01*
X008881Y037376D01*
X008161Y039805D02*
X008238Y039882D01*
X008238Y040035D01*
X008161Y040112D01*
X008161Y040266D02*
X008238Y040342D01*
X008238Y040496D01*
X008161Y040572D01*
X008008Y040572D01*
X007931Y040496D01*
X007931Y040419D01*
X008008Y040266D01*
X007777Y040266D01*
X007777Y040572D01*
X007777Y040726D02*
X007777Y041033D01*
X007854Y041033D01*
X008161Y040726D01*
X008238Y040726D01*
X007854Y040112D02*
X007777Y040035D01*
X007777Y039882D01*
X007854Y039805D01*
X008161Y039805D01*
X009957Y041565D02*
X010033Y041488D01*
X010187Y041488D01*
X010264Y041565D01*
X010417Y041565D02*
X010494Y041488D01*
X010647Y041488D01*
X010724Y041565D01*
X010724Y041718D01*
X010647Y041795D01*
X010570Y041795D01*
X010417Y041718D01*
X010417Y041948D01*
X010724Y041948D01*
X010877Y041872D02*
X010877Y041795D01*
X010954Y041718D01*
X011108Y041718D01*
X011184Y041642D01*
X011184Y041565D01*
X011108Y041488D01*
X010954Y041488D01*
X010877Y041565D01*
X010877Y041642D01*
X010954Y041718D01*
X011108Y041718D02*
X011184Y041795D01*
X011184Y041872D01*
X011108Y041948D01*
X010954Y041948D01*
X010877Y041872D01*
X010264Y041872D02*
X010187Y041948D01*
X010033Y041948D01*
X009957Y041872D01*
X009957Y041565D01*
X014916Y041392D02*
X014916Y041085D01*
X014993Y041008D01*
X015146Y041008D01*
X015223Y041085D01*
X015377Y041085D02*
X015453Y041008D01*
X015607Y041008D01*
X015684Y041085D01*
X015684Y041238D01*
X015607Y041315D01*
X015530Y041315D01*
X015377Y041238D01*
X015377Y041468D01*
X015684Y041468D01*
X015837Y041238D02*
X016067Y041238D01*
X016144Y041162D01*
X016144Y041085D01*
X016067Y041008D01*
X015914Y041008D01*
X015837Y041085D01*
X015837Y041238D01*
X015990Y041392D01*
X016144Y041468D01*
X015223Y041392D02*
X015146Y041468D01*
X014993Y041468D01*
X014916Y041392D01*
X021976Y038738D02*
X022206Y038508D01*
X022206Y038815D01*
X022436Y038738D02*
X021976Y038738D01*
X022053Y038354D02*
X022129Y038354D01*
X022206Y038277D01*
X022283Y038354D01*
X022360Y038354D01*
X022436Y038277D01*
X022436Y038124D01*
X022360Y038047D01*
X022436Y037894D02*
X022283Y037740D01*
X022283Y037817D02*
X022283Y037587D01*
X022436Y037587D02*
X021976Y037587D01*
X021976Y037817D01*
X022053Y037894D01*
X022206Y037894D01*
X022283Y037817D01*
X022053Y038047D02*
X021976Y038124D01*
X021976Y038277D01*
X022053Y038354D01*
X022206Y038277D02*
X022206Y038201D01*
X023166Y038817D02*
X023166Y039047D01*
X023243Y039124D01*
X023396Y039124D01*
X023473Y039047D01*
X023473Y038817D01*
X023626Y038817D02*
X023166Y038817D01*
X023473Y038970D02*
X023626Y039124D01*
X023550Y039277D02*
X023626Y039354D01*
X023626Y039507D01*
X023550Y039584D01*
X023473Y039584D01*
X023396Y039507D01*
X023396Y039431D01*
X023396Y039507D02*
X023319Y039584D01*
X023243Y039584D01*
X023166Y039507D01*
X023166Y039354D01*
X023243Y039277D01*
X023243Y039738D02*
X023166Y039814D01*
X023166Y039968D01*
X023243Y040045D01*
X023319Y040045D01*
X023396Y039968D01*
X023473Y040045D01*
X023550Y040045D01*
X023626Y039968D01*
X023626Y039814D01*
X023550Y039738D01*
X023396Y039891D02*
X023396Y039968D01*
X023856Y039914D02*
X023856Y040067D01*
X023933Y040144D01*
X024009Y040144D01*
X024086Y040067D01*
X024163Y040144D01*
X024240Y040144D01*
X024316Y040067D01*
X024316Y039914D01*
X024240Y039837D01*
X024316Y039684D02*
X024163Y039530D01*
X024163Y039607D02*
X024163Y039377D01*
X024316Y039377D02*
X023856Y039377D01*
X023856Y039607D01*
X023933Y039684D01*
X024086Y039684D01*
X024163Y039607D01*
X023933Y039837D02*
X023856Y039914D01*
X024086Y039991D02*
X024086Y040067D01*
X023933Y040298D02*
X023856Y040374D01*
X023856Y040528D01*
X023933Y040605D01*
X024009Y040605D01*
X024316Y040298D01*
X024316Y040605D01*
X025066Y038541D02*
X025526Y038541D01*
X025526Y038388D02*
X025526Y038695D01*
X025219Y038388D02*
X025066Y038541D01*
X025143Y038234D02*
X025219Y038234D01*
X025296Y038157D01*
X025373Y038234D01*
X025450Y038234D01*
X025526Y038157D01*
X025526Y038004D01*
X025450Y037927D01*
X025526Y037774D02*
X025373Y037620D01*
X025373Y037697D02*
X025373Y037467D01*
X025526Y037467D02*
X025066Y037467D01*
X025066Y037697D01*
X025143Y037774D01*
X025296Y037774D01*
X025373Y037697D01*
X025143Y037927D02*
X025066Y038004D01*
X025066Y038157D01*
X025143Y038234D01*
X025296Y038157D02*
X025296Y038081D01*
X026816Y036098D02*
X027046Y035868D01*
X027046Y036175D01*
X027276Y036098D02*
X026816Y036098D01*
X026893Y035714D02*
X026969Y035714D01*
X027046Y035637D01*
X027123Y035714D01*
X027200Y035714D01*
X027276Y035637D01*
X027276Y035484D01*
X027200Y035407D01*
X027200Y035254D02*
X027276Y035177D01*
X027276Y035024D01*
X027200Y034947D01*
X026893Y034947D01*
X026816Y035024D01*
X026816Y035177D01*
X026893Y035254D01*
X026893Y035407D02*
X026816Y035484D01*
X026816Y035637D01*
X026893Y035714D01*
X027046Y035637D02*
X027046Y035561D01*
X027010Y033856D02*
X027086Y033779D01*
X027086Y033626D01*
X027010Y033549D01*
X027010Y033395D02*
X027086Y033319D01*
X027086Y033165D01*
X027010Y033088D01*
X027010Y032935D02*
X027086Y032858D01*
X027086Y032705D01*
X027010Y032628D01*
X026703Y032628D01*
X026626Y032705D01*
X026626Y032858D01*
X026703Y032935D01*
X026703Y033088D02*
X026626Y033165D01*
X026626Y033319D01*
X026703Y033395D01*
X026779Y033395D01*
X026856Y033319D01*
X026933Y033395D01*
X027010Y033395D01*
X026856Y033319D02*
X026856Y033242D01*
X026856Y033549D02*
X026779Y033702D01*
X026779Y033779D01*
X026856Y033856D01*
X027010Y033856D01*
X026856Y033549D02*
X026626Y033549D01*
X026626Y033856D01*
X021126Y034240D02*
X021126Y034394D01*
X021126Y034317D02*
X020666Y034317D01*
X020666Y034240D02*
X020666Y034394D01*
X020743Y034547D02*
X021050Y034547D01*
X021126Y034624D01*
X021126Y034777D01*
X021050Y034854D01*
X021050Y035008D02*
X020743Y035315D01*
X020666Y035315D01*
X020666Y035008D01*
X020743Y034854D02*
X020666Y034777D01*
X020666Y034624D01*
X020743Y034547D01*
X021050Y035008D02*
X021126Y035008D01*
X032116Y034868D02*
X032116Y035098D01*
X032193Y035175D01*
X032346Y035175D01*
X032423Y035098D01*
X032423Y034868D01*
X032576Y034868D02*
X032116Y034868D01*
X032423Y035022D02*
X032576Y035175D01*
X032346Y035328D02*
X032346Y035635D01*
X032269Y035789D02*
X032116Y035942D01*
X032576Y035942D01*
X032576Y035789D02*
X032576Y036096D01*
X032576Y035559D02*
X032116Y035559D01*
X032346Y035328D01*
X033136Y035549D02*
X033366Y035318D01*
X033366Y035625D01*
X033213Y035779D02*
X033136Y035856D01*
X033136Y036009D01*
X033213Y036086D01*
X033289Y036086D01*
X033596Y035779D01*
X033596Y036086D01*
X033596Y035549D02*
X033136Y035549D01*
X033213Y035165D02*
X033366Y035165D01*
X033443Y035088D01*
X033443Y034858D01*
X033596Y034858D02*
X033136Y034858D01*
X033136Y035088D01*
X033213Y035165D01*
X033443Y035012D02*
X033596Y035165D01*
X034826Y039638D02*
X034826Y040098D01*
X034980Y039945D01*
X035133Y040098D01*
X035133Y039638D01*
X035287Y039715D02*
X035363Y039638D01*
X035517Y039638D01*
X035594Y039715D01*
X035594Y040022D01*
X035517Y040098D01*
X035363Y040098D01*
X035287Y040022D01*
X035287Y039715D01*
X035747Y039638D02*
X035747Y040098D01*
X035977Y040098D01*
X036054Y040022D01*
X036054Y039715D01*
X035977Y039638D01*
X035747Y039638D01*
X036207Y039638D02*
X036514Y039638D01*
X036361Y039638D02*
X036361Y040098D01*
X036207Y039945D01*
X042596Y035999D02*
X042673Y036076D01*
X042749Y036076D01*
X042826Y035999D01*
X042903Y036076D01*
X042980Y036076D01*
X043056Y035999D01*
X043056Y035846D01*
X042980Y035769D01*
X042826Y035922D02*
X042826Y035999D01*
X042596Y035999D02*
X042596Y035846D01*
X042673Y035769D01*
X042826Y035615D02*
X042826Y035308D01*
X042596Y035539D01*
X043056Y035539D01*
X043056Y035155D02*
X042903Y035002D01*
X042903Y035078D02*
X042903Y034848D01*
X043056Y034848D02*
X042596Y034848D01*
X042596Y035078D01*
X042673Y035155D01*
X042826Y035155D01*
X042903Y035078D01*
X043606Y035068D02*
X043606Y034838D01*
X044066Y034838D01*
X043913Y034838D02*
X043913Y035068D01*
X043836Y035145D01*
X043683Y035145D01*
X043606Y035068D01*
X043913Y034992D02*
X044066Y035145D01*
X043836Y035298D02*
X043836Y035605D01*
X043836Y035759D02*
X043836Y036066D01*
X044066Y035989D02*
X043606Y035989D01*
X043836Y035759D01*
X044066Y035529D02*
X043606Y035529D01*
X043836Y035298D01*
X040750Y029346D02*
X040826Y029269D01*
X040826Y029116D01*
X040750Y029039D01*
X040673Y029039D01*
X040596Y029116D01*
X040596Y029269D01*
X040673Y029346D01*
X040750Y029346D01*
X040596Y029269D02*
X040519Y029346D01*
X040443Y029346D01*
X040366Y029269D01*
X040366Y029116D01*
X040443Y029039D01*
X040519Y029039D01*
X040596Y029116D01*
X040673Y028885D02*
X040596Y028809D01*
X040596Y028578D01*
X040750Y028578D01*
X040826Y028655D01*
X040826Y028809D01*
X040750Y028885D01*
X040673Y028885D01*
X040443Y028732D02*
X040596Y028578D01*
X040443Y028425D02*
X040366Y028348D01*
X040366Y028195D01*
X040443Y028118D01*
X040750Y028118D01*
X040826Y028195D01*
X040826Y028348D01*
X040750Y028425D01*
X040443Y028732D02*
X040366Y028885D01*
X040306Y024855D02*
X040383Y024701D01*
X040536Y024548D01*
X040536Y024778D01*
X040613Y024855D01*
X040690Y024855D01*
X040766Y024778D01*
X040766Y024624D01*
X040690Y024548D01*
X040536Y024548D01*
X040613Y024394D02*
X040536Y024317D01*
X040536Y024087D01*
X040690Y024087D01*
X040766Y024164D01*
X040766Y024317D01*
X040690Y024394D01*
X040613Y024394D01*
X040383Y024241D02*
X040536Y024087D01*
X040383Y023934D02*
X040306Y023857D01*
X040306Y023704D01*
X040383Y023627D01*
X040690Y023627D01*
X040766Y023704D01*
X040766Y023857D01*
X040690Y023934D01*
X040383Y024241D02*
X040306Y024394D01*
X040843Y023508D02*
X040766Y023432D01*
X040766Y023125D01*
X040843Y023048D01*
X040996Y023048D01*
X041073Y023125D01*
X041227Y023125D02*
X041303Y023048D01*
X041457Y023048D01*
X041534Y023125D01*
X041534Y023202D01*
X041457Y023278D01*
X041227Y023278D01*
X041227Y023125D01*
X041227Y023278D02*
X041380Y023432D01*
X041534Y023508D01*
X041687Y023278D02*
X041994Y023278D01*
X041917Y023048D02*
X041917Y023508D01*
X041687Y023278D01*
X041073Y023432D02*
X040996Y023508D01*
X040843Y023508D01*
X042396Y023432D02*
X042396Y023125D01*
X042473Y023048D01*
X042626Y023048D01*
X042703Y023125D01*
X042857Y023125D02*
X042933Y023048D01*
X043087Y023048D01*
X043164Y023125D01*
X043164Y023202D01*
X043087Y023278D01*
X042857Y023278D01*
X042857Y023125D01*
X042857Y023278D02*
X043010Y023432D01*
X043164Y023508D01*
X043317Y023508D02*
X043317Y023278D01*
X043470Y023355D01*
X043547Y023355D01*
X043624Y023278D01*
X043624Y023125D01*
X043547Y023048D01*
X043394Y023048D01*
X043317Y023125D01*
X043317Y023508D02*
X043624Y023508D01*
X042703Y023432D02*
X042626Y023508D01*
X042473Y023508D01*
X042396Y023432D01*
X044506Y023555D02*
X044506Y023248D01*
X044506Y023094D02*
X044583Y022941D01*
X044736Y022787D01*
X044736Y023017D01*
X044813Y023094D01*
X044890Y023094D01*
X044966Y023017D01*
X044966Y022864D01*
X044890Y022787D01*
X044736Y022787D01*
X044583Y022634D02*
X044506Y022557D01*
X044506Y022404D01*
X044583Y022327D01*
X044890Y022327D01*
X044966Y022404D01*
X044966Y022557D01*
X044890Y022634D01*
X044890Y023248D02*
X044966Y023248D01*
X044890Y023248D02*
X044583Y023555D01*
X044506Y023555D01*
X036538Y016808D02*
X036307Y016578D01*
X036614Y016578D01*
X036538Y016348D02*
X036538Y016808D01*
X036154Y016732D02*
X036154Y016578D01*
X036077Y016502D01*
X035847Y016502D01*
X035847Y016348D02*
X035847Y016808D01*
X036077Y016808D01*
X036154Y016732D01*
X035694Y016655D02*
X035694Y016348D01*
X035694Y016578D02*
X035387Y016578D01*
X035387Y016655D02*
X035540Y016808D01*
X035694Y016655D01*
X035387Y016655D02*
X035387Y016348D01*
X035233Y016425D02*
X035156Y016348D01*
X035003Y016348D01*
X034926Y016425D01*
X034926Y016732D01*
X035003Y016808D01*
X035156Y016808D01*
X035233Y016732D01*
X035233Y016578D02*
X035080Y016578D01*
X035233Y016578D02*
X035233Y016425D01*
X040466Y016355D02*
X040543Y016278D01*
X040696Y016278D01*
X040773Y016355D01*
X040773Y016508D01*
X040620Y016508D01*
X040466Y016662D02*
X040466Y016355D01*
X040466Y016662D02*
X040543Y016738D01*
X040696Y016738D01*
X040773Y016662D01*
X040927Y016585D02*
X041080Y016738D01*
X041234Y016585D01*
X041234Y016278D01*
X041387Y016278D02*
X041387Y016738D01*
X041617Y016738D01*
X041694Y016662D01*
X041694Y016508D01*
X041617Y016432D01*
X041387Y016432D01*
X041234Y016508D02*
X040927Y016508D01*
X040927Y016585D02*
X040927Y016278D01*
X041847Y016278D02*
X042154Y016278D01*
X042001Y016278D02*
X042001Y016738D01*
X041847Y016585D01*
X044726Y014479D02*
X044726Y014326D01*
X044803Y014249D01*
X044726Y014095D02*
X044726Y013788D01*
X044956Y013788D01*
X044879Y013942D01*
X044879Y014019D01*
X044956Y014095D01*
X045110Y014095D01*
X045186Y014019D01*
X045186Y013865D01*
X045110Y013788D01*
X045110Y013635D02*
X045186Y013558D01*
X045186Y013405D01*
X045110Y013328D01*
X044803Y013328D01*
X044726Y013405D01*
X044726Y013558D01*
X044803Y013635D01*
X045186Y014249D02*
X044879Y014556D01*
X044803Y014556D01*
X044726Y014479D01*
X045186Y014556D02*
X045186Y014249D01*
X046102Y015778D02*
X046255Y015778D01*
X046332Y015855D01*
X046486Y015855D02*
X046562Y015778D01*
X046716Y015778D01*
X046792Y015855D01*
X046792Y016008D01*
X046716Y016085D01*
X046639Y016085D01*
X046486Y016008D01*
X046486Y016238D01*
X046792Y016238D01*
X046946Y016085D02*
X047099Y016238D01*
X047099Y015778D01*
X046946Y015778D02*
X047253Y015778D01*
X046332Y016162D02*
X046255Y016238D01*
X046102Y016238D01*
X046025Y016162D01*
X046025Y015855D01*
X046102Y015778D01*
X047575Y014513D02*
X047575Y014360D01*
X047652Y014283D01*
X047575Y014513D02*
X047652Y014590D01*
X047729Y014590D01*
X048036Y014283D01*
X048036Y014590D01*
X048036Y014130D02*
X048036Y013823D01*
X048036Y013976D02*
X047575Y013976D01*
X047729Y013823D01*
X047652Y013669D02*
X047575Y013593D01*
X047575Y013439D01*
X047652Y013363D01*
X047959Y013363D01*
X048036Y013439D01*
X048036Y013593D01*
X047959Y013669D01*
X048036Y013209D02*
X048036Y013056D01*
X048036Y013132D02*
X047575Y013132D01*
X047575Y013056D02*
X047575Y013209D01*
X047086Y011938D02*
X046933Y011938D01*
X046856Y011862D01*
X046702Y011938D02*
X046396Y011938D01*
X046396Y011708D01*
X046549Y011785D01*
X046626Y011785D01*
X046702Y011708D01*
X046702Y011555D01*
X046626Y011478D01*
X046472Y011478D01*
X046396Y011555D01*
X046242Y011555D02*
X046165Y011478D01*
X046012Y011478D01*
X045935Y011555D01*
X045935Y011862D01*
X046012Y011938D01*
X046165Y011938D01*
X046242Y011862D01*
X046856Y011555D02*
X046933Y011478D01*
X047086Y011478D01*
X047163Y011555D01*
X047163Y011632D01*
X047086Y011708D01*
X047009Y011708D01*
X047086Y011708D02*
X047163Y011785D01*
X047163Y011862D01*
X047086Y011938D01*
X044883Y009506D02*
X044806Y009506D01*
X044806Y009199D01*
X044883Y009045D02*
X044806Y008969D01*
X044806Y008815D01*
X044883Y008738D01*
X044883Y008585D02*
X045036Y008585D01*
X045113Y008508D01*
X045113Y008278D01*
X045266Y008278D02*
X044806Y008278D01*
X044806Y008508D01*
X044883Y008585D01*
X045113Y008432D02*
X045266Y008585D01*
X045190Y008738D02*
X045266Y008815D01*
X045266Y008969D01*
X045190Y009045D01*
X045113Y009045D01*
X045036Y008969D01*
X045036Y008892D01*
X045036Y008969D02*
X044959Y009045D01*
X044883Y009045D01*
X045190Y009199D02*
X045266Y009199D01*
X045190Y009199D02*
X044883Y009506D01*
X047847Y008150D02*
X047923Y008227D01*
X048000Y008227D01*
X048077Y008150D01*
X048154Y008227D01*
X048230Y008227D01*
X048307Y008150D01*
X048307Y007997D01*
X048230Y007920D01*
X048307Y007767D02*
X048307Y007460D01*
X048307Y007613D02*
X047847Y007613D01*
X048000Y007460D01*
X047923Y007306D02*
X047847Y007230D01*
X047847Y007076D01*
X047923Y006999D01*
X048230Y006999D01*
X048307Y007076D01*
X048307Y007230D01*
X048230Y007306D01*
X048307Y006846D02*
X048307Y006693D01*
X048307Y006769D02*
X047847Y006769D01*
X047847Y006693D02*
X047847Y006846D01*
X047417Y006028D02*
X047187Y005798D01*
X047494Y005798D01*
X047417Y005568D02*
X047417Y006028D01*
X047034Y006028D02*
X046727Y006028D01*
X046727Y005798D01*
X046880Y005875D01*
X046957Y005875D01*
X047034Y005798D01*
X047034Y005645D01*
X046957Y005568D01*
X046803Y005568D01*
X046727Y005645D01*
X046573Y005645D02*
X046496Y005568D01*
X046343Y005568D01*
X046266Y005645D01*
X046266Y005952D01*
X046343Y006028D01*
X046496Y006028D01*
X046573Y005952D01*
X047923Y007920D02*
X047847Y007997D01*
X047847Y008150D01*
X048077Y008150D02*
X048077Y008074D01*
X042074Y010408D02*
X041767Y010408D01*
X042074Y010715D01*
X042074Y010792D01*
X041998Y010868D01*
X041844Y010868D01*
X041767Y010792D01*
X041614Y010792D02*
X041614Y010638D01*
X041537Y010562D01*
X041307Y010562D01*
X041307Y010408D02*
X041307Y010868D01*
X041537Y010868D01*
X041614Y010792D01*
X041154Y010715D02*
X041154Y010408D01*
X041154Y010638D02*
X040847Y010638D01*
X040847Y010715D02*
X041000Y010868D01*
X041154Y010715D01*
X040847Y010715D02*
X040847Y010408D01*
X040693Y010485D02*
X040693Y010638D01*
X040540Y010638D01*
X040693Y010485D02*
X040616Y010408D01*
X040463Y010408D01*
X040386Y010485D01*
X040386Y010792D01*
X040463Y010868D01*
X040616Y010868D01*
X040693Y010792D01*
X040565Y011508D02*
X040565Y011968D01*
X040795Y011968D01*
X040872Y011892D01*
X040872Y011738D01*
X040795Y011662D01*
X040565Y011662D01*
X040719Y011662D02*
X040872Y011508D01*
X041026Y011585D02*
X041102Y011508D01*
X041256Y011508D01*
X041332Y011585D01*
X041332Y011662D01*
X041256Y011738D01*
X041179Y011738D01*
X041256Y011738D02*
X041332Y011815D01*
X041332Y011892D01*
X041256Y011968D01*
X041102Y011968D01*
X041026Y011892D01*
X041486Y011968D02*
X041486Y011738D01*
X041639Y011815D01*
X041716Y011815D01*
X041793Y011738D01*
X041793Y011585D01*
X041716Y011508D01*
X041563Y011508D01*
X041486Y011585D01*
X041486Y011968D02*
X041793Y011968D01*
X036614Y010972D02*
X036614Y010895D01*
X036538Y010818D01*
X036614Y010742D01*
X036614Y010665D01*
X036538Y010588D01*
X036384Y010588D01*
X036307Y010665D01*
X036154Y010818D02*
X036077Y010742D01*
X035847Y010742D01*
X035847Y010588D02*
X035847Y011048D01*
X036077Y011048D01*
X036154Y010972D01*
X036154Y010818D01*
X036307Y010972D02*
X036384Y011048D01*
X036538Y011048D01*
X036614Y010972D01*
X036538Y010818D02*
X036461Y010818D01*
X035694Y010818D02*
X035387Y010818D01*
X035387Y010895D02*
X035540Y011048D01*
X035694Y010895D01*
X035694Y010588D01*
X035387Y010588D02*
X035387Y010895D01*
X035233Y010818D02*
X035080Y010818D01*
X035233Y010818D02*
X035233Y010665D01*
X035156Y010588D01*
X035003Y010588D01*
X034926Y010665D01*
X034926Y010972D01*
X035003Y011048D01*
X035156Y011048D01*
X035233Y010972D01*
X040615Y006048D02*
X040845Y006048D01*
X040922Y005972D01*
X040922Y005818D01*
X040845Y005742D01*
X040615Y005742D01*
X040769Y005742D02*
X040922Y005588D01*
X041076Y005665D02*
X041152Y005588D01*
X041306Y005588D01*
X041382Y005665D01*
X041382Y005742D01*
X041306Y005818D01*
X041229Y005818D01*
X041306Y005818D02*
X041382Y005895D01*
X041382Y005972D01*
X041306Y006048D01*
X041152Y006048D01*
X041076Y005972D01*
X040615Y006048D02*
X040615Y005588D01*
X041536Y005665D02*
X041536Y005818D01*
X041766Y005818D01*
X041843Y005742D01*
X041843Y005665D01*
X041766Y005588D01*
X041613Y005588D01*
X041536Y005665D01*
X041536Y005818D02*
X041689Y005972D01*
X041843Y006048D01*
X039214Y005002D02*
X039138Y005078D01*
X038984Y005078D01*
X038907Y005002D01*
X038907Y004925D01*
X038984Y004848D01*
X039138Y004848D01*
X039214Y004772D01*
X039214Y004695D01*
X039138Y004618D01*
X038984Y004618D01*
X038907Y004695D01*
X038754Y004848D02*
X038754Y005002D01*
X038677Y005078D01*
X038447Y005078D01*
X038447Y004618D01*
X038447Y004772D02*
X038677Y004772D01*
X038754Y004848D01*
X038294Y004848D02*
X038140Y004848D01*
X038294Y004848D02*
X038294Y004695D01*
X038217Y004618D01*
X038063Y004618D01*
X037987Y004695D01*
X037987Y005002D01*
X038063Y005078D01*
X038217Y005078D01*
X038294Y005002D01*
X029761Y005154D02*
X029685Y005078D01*
X029761Y005154D02*
X029761Y005308D01*
X029685Y005385D01*
X029531Y005385D01*
X029455Y005308D01*
X029455Y005231D01*
X029531Y005078D01*
X029301Y005078D01*
X029301Y005385D01*
X029531Y004924D02*
X029531Y004617D01*
X029301Y004847D01*
X029761Y004847D01*
X029761Y004464D02*
X029608Y004310D01*
X029608Y004387D02*
X029608Y004157D01*
X029761Y004157D02*
X029301Y004157D01*
X029301Y004387D01*
X029378Y004464D01*
X029531Y004464D01*
X029608Y004387D01*
X029837Y003772D02*
X029837Y003465D01*
X029837Y003619D02*
X029377Y003619D01*
X029530Y003465D01*
X029454Y003312D02*
X029761Y003312D01*
X029837Y003235D01*
X029837Y003005D01*
X029377Y003005D01*
X029377Y003235D01*
X029454Y003312D01*
X029377Y002852D02*
X029377Y002545D01*
X029837Y002545D01*
X029837Y002852D01*
X029607Y002698D02*
X029607Y002545D01*
X029837Y002391D02*
X029837Y002084D01*
X029377Y002084D01*
X026781Y001979D02*
X026781Y002286D01*
X026781Y002439D02*
X026781Y002746D01*
X026781Y002899D02*
X026781Y003130D01*
X026704Y003206D01*
X026397Y003206D01*
X026321Y003130D01*
X026321Y002899D01*
X026781Y002899D01*
X026551Y002593D02*
X026551Y002439D01*
X026321Y002439D02*
X026781Y002439D01*
X026781Y001979D02*
X026321Y001979D01*
X026321Y002439D02*
X026321Y002746D01*
X026397Y003360D02*
X026321Y003437D01*
X026321Y003590D01*
X026397Y003667D01*
X026474Y003667D01*
X026781Y003360D01*
X026781Y003667D01*
X026728Y004187D02*
X026728Y004417D01*
X026651Y004494D01*
X026498Y004494D01*
X026421Y004417D01*
X026421Y004187D01*
X026881Y004187D01*
X026728Y004340D02*
X026881Y004494D01*
X026651Y004647D02*
X026651Y004954D01*
X026651Y005108D02*
X026651Y005338D01*
X026728Y005415D01*
X026805Y005415D01*
X026881Y005338D01*
X026881Y005184D01*
X026805Y005108D01*
X026651Y005108D01*
X026498Y005261D01*
X026421Y005415D01*
X026421Y004877D02*
X026651Y004647D01*
X026881Y004877D02*
X026421Y004877D01*
X026518Y006983D02*
X026441Y007060D01*
X026748Y007367D01*
X026748Y007060D01*
X026671Y006983D01*
X026518Y006983D01*
X026441Y007060D02*
X026441Y007367D01*
X026518Y007443D01*
X026671Y007443D01*
X026748Y007367D01*
X026288Y007367D02*
X026288Y007290D01*
X026211Y007213D01*
X026288Y007136D01*
X026288Y007060D01*
X026211Y006983D01*
X026057Y006983D01*
X025981Y007060D01*
X025827Y006983D02*
X025674Y007136D01*
X025751Y007136D02*
X025520Y007136D01*
X025520Y006983D02*
X025520Y007443D01*
X025751Y007443D01*
X025827Y007367D01*
X025827Y007213D01*
X025751Y007136D01*
X025981Y007367D02*
X026057Y007443D01*
X026211Y007443D01*
X026288Y007367D01*
X026211Y007213D02*
X026134Y007213D01*
X024236Y006059D02*
X024160Y006136D01*
X023853Y006136D01*
X023776Y006059D01*
X023776Y005906D01*
X023853Y005829D01*
X023929Y005829D01*
X024006Y005906D01*
X024006Y006136D01*
X024236Y006059D02*
X024236Y005906D01*
X024160Y005829D01*
X024236Y005675D02*
X024236Y005368D01*
X023929Y005675D01*
X023853Y005675D01*
X023776Y005599D01*
X023776Y005445D01*
X023853Y005368D01*
X023853Y005215D02*
X024006Y005215D01*
X024083Y005138D01*
X024083Y004908D01*
X024236Y004908D02*
X023776Y004908D01*
X023776Y005138D01*
X023853Y005215D01*
X023596Y005205D02*
X023443Y005052D01*
X023443Y005128D02*
X023443Y004898D01*
X023596Y004898D02*
X023136Y004898D01*
X023136Y005128D01*
X023213Y005205D01*
X023366Y005205D01*
X023443Y005128D01*
X023596Y005358D02*
X023289Y005665D01*
X023213Y005665D01*
X023136Y005589D01*
X023136Y005435D01*
X023213Y005358D01*
X022976Y005358D02*
X022669Y005665D01*
X022593Y005665D01*
X022516Y005589D01*
X022516Y005435D01*
X022593Y005358D01*
X022593Y005205D02*
X022746Y005205D01*
X022823Y005128D01*
X022823Y004898D01*
X022976Y004898D02*
X022516Y004898D01*
X022516Y005128D01*
X022593Y005205D01*
X022823Y005052D02*
X022976Y005205D01*
X022976Y005358D02*
X022976Y005665D01*
X022976Y005819D02*
X022900Y005819D01*
X022593Y006126D01*
X022516Y006126D01*
X022516Y005819D01*
X023136Y005896D02*
X023136Y006049D01*
X023213Y006126D01*
X023289Y006126D01*
X023366Y006049D01*
X023366Y005896D01*
X023289Y005819D01*
X023213Y005819D01*
X023136Y005896D01*
X023366Y005896D02*
X023443Y005819D01*
X023520Y005819D01*
X023596Y005896D01*
X023596Y006049D01*
X023520Y006126D01*
X023443Y006126D01*
X023366Y006049D01*
X023596Y005665D02*
X023596Y005358D01*
X024083Y005062D02*
X024236Y005215D01*
X021237Y007225D02*
X021237Y007378D01*
X021160Y007455D01*
X021237Y007608D02*
X021237Y007915D01*
X021237Y007762D02*
X020776Y007762D01*
X020930Y007608D01*
X020853Y007455D02*
X020776Y007378D01*
X020776Y007225D01*
X020853Y007148D01*
X021160Y007148D01*
X021237Y007225D01*
X021237Y008069D02*
X021160Y008069D01*
X020853Y008376D01*
X020776Y008376D01*
X020776Y008069D01*
X020813Y012587D02*
X020736Y012664D01*
X020736Y012817D01*
X020813Y012894D01*
X020889Y013047D02*
X020736Y013201D01*
X021196Y013201D01*
X021196Y013354D02*
X021196Y013047D01*
X021120Y012894D02*
X021196Y012817D01*
X021196Y012664D01*
X021120Y012587D01*
X020813Y012587D01*
X020813Y013508D02*
X020736Y013584D01*
X020736Y013738D01*
X020813Y013815D01*
X020889Y013815D01*
X020966Y013738D01*
X020966Y013584D01*
X020889Y013508D01*
X020813Y013508D01*
X020966Y013584D02*
X021043Y013508D01*
X021120Y013508D01*
X021196Y013584D01*
X021196Y013738D01*
X021120Y013815D01*
X021043Y013815D01*
X020966Y013738D01*
X025926Y011016D02*
X026156Y010785D01*
X026156Y011092D01*
X026386Y011016D02*
X025926Y011016D01*
X026003Y010632D02*
X025926Y010555D01*
X025926Y010402D01*
X026003Y010325D01*
X026310Y010325D01*
X026386Y010402D01*
X026386Y010555D01*
X026310Y010632D01*
X026386Y010172D02*
X026386Y010018D01*
X026386Y010095D02*
X025926Y010095D01*
X025926Y010018D02*
X025926Y010172D01*
D274*
X019570Y020540D02*
X017523Y020540D01*
X017523Y024556D01*
X018273Y024556D01*
X018272Y024556D02*
X018276Y024524D01*
X018284Y024493D01*
X018294Y024463D01*
X018309Y024435D01*
X018326Y024408D01*
X018347Y024384D01*
X018370Y024362D01*
X018396Y024343D01*
X018423Y024327D01*
X018452Y024315D01*
X018483Y024305D01*
X018514Y024300D01*
X018546Y024298D01*
X018578Y024300D01*
X018609Y024305D01*
X018640Y024315D01*
X018669Y024327D01*
X018696Y024343D01*
X018722Y024362D01*
X018745Y024384D01*
X018766Y024408D01*
X018783Y024435D01*
X018798Y024463D01*
X018808Y024493D01*
X018816Y024524D01*
X018820Y024556D01*
X019570Y024556D01*
X019570Y020540D01*
X039152Y004375D02*
X039152Y002249D01*
X042970Y002249D01*
X043325Y002603D01*
X043325Y004375D01*
X043326Y004398D02*
X042806Y004398D01*
X039686Y004378D02*
X039156Y004378D01*
D275*
X040296Y007098D02*
X040296Y010198D01*
X042396Y010198D01*
X042396Y007098D01*
X040296Y007098D01*
X036896Y007098D02*
X034796Y007098D01*
X034796Y010198D01*
X036896Y010198D01*
X036896Y007098D01*
X036896Y012998D02*
X034796Y012998D01*
X034796Y016098D01*
X036896Y016098D01*
X036896Y012998D01*
X040296Y012998D02*
X040296Y016098D01*
X042396Y016098D01*
X042396Y012998D01*
X040296Y012998D01*
X025706Y011828D02*
X025706Y009268D01*
X021626Y009268D01*
X021626Y011828D01*
X022326Y011828D01*
X022426Y011828D01*
X025706Y011828D01*
X017741Y024228D02*
X017743Y024241D01*
X017748Y024252D01*
X017757Y024262D01*
X017767Y024269D01*
X017780Y024273D01*
X017792Y024273D01*
X017805Y024269D01*
X017815Y024262D01*
X017824Y024252D01*
X017829Y024241D01*
X017831Y024228D01*
X017829Y024215D01*
X017824Y024204D01*
X017815Y024194D01*
X017805Y024187D01*
X017792Y024183D01*
X017780Y024183D01*
X017767Y024187D01*
X017757Y024194D01*
X017748Y024204D01*
X017743Y024215D01*
X017741Y024228D01*
X017656Y027688D02*
X017896Y027688D01*
X018336Y027848D02*
X018336Y028208D01*
X018036Y028208D01*
X017516Y028208D02*
X017196Y028208D01*
X017196Y027848D01*
X018736Y027848D02*
X018736Y028208D01*
X019056Y028208D01*
X019576Y028208D02*
X019876Y028208D01*
X019876Y027848D01*
X019436Y027688D02*
X019196Y027688D01*
X021626Y033268D02*
X021626Y035828D01*
X025706Y035828D01*
X025706Y033268D01*
X025006Y033268D01*
X024906Y033268D01*
X021626Y033268D01*
X016731Y034148D02*
X016731Y039148D01*
X009731Y039148D01*
X009731Y034148D01*
X016731Y034148D01*
X016119Y038748D02*
X016121Y038769D01*
X016127Y038788D01*
X016136Y038807D01*
X016148Y038823D01*
X016164Y038837D01*
X016181Y038848D01*
X016200Y038856D01*
X016221Y038860D01*
X016241Y038860D01*
X016262Y038856D01*
X016281Y038848D01*
X016298Y038837D01*
X016314Y038823D01*
X016326Y038807D01*
X016335Y038788D01*
X016341Y038769D01*
X016343Y038748D01*
X016341Y038727D01*
X016335Y038708D01*
X016326Y038689D01*
X016314Y038673D01*
X016298Y038659D01*
X016281Y038648D01*
X016262Y038640D01*
X016241Y038636D01*
X016221Y038636D01*
X016200Y038640D01*
X016181Y038648D01*
X016164Y038659D01*
X016148Y038673D01*
X016136Y038689D01*
X016127Y038708D01*
X016121Y038727D01*
X016119Y038748D01*
X041283Y026088D02*
X041285Y026103D01*
X041290Y026117D01*
X041299Y026130D01*
X041310Y026140D01*
X041324Y026147D01*
X041338Y026151D01*
X041354Y026151D01*
X041368Y026147D01*
X041382Y026140D01*
X041393Y026130D01*
X041402Y026117D01*
X041407Y026103D01*
X041409Y026088D01*
X041407Y026073D01*
X041402Y026059D01*
X041393Y026046D01*
X041382Y026036D01*
X041368Y026029D01*
X041354Y026025D01*
X041338Y026025D01*
X041324Y026029D01*
X041310Y026036D01*
X041299Y026046D01*
X041290Y026059D01*
X041285Y026073D01*
X041283Y026088D01*
D276*
X040571Y014548D03*
X042121Y014548D03*
X036621Y014548D03*
X035071Y014548D03*
X035071Y008648D03*
X036621Y008648D03*
X040571Y008648D03*
X042121Y008648D03*
D277*
X041086Y025938D02*
X045086Y025938D01*
D278*
X029118Y002684D03*
X028577Y002684D03*
X027612Y002689D03*
X027070Y002689D03*
D279*
X027341Y002841D03*
X028847Y002837D03*
M02*
