G75*
G70*
%OFA0B0*%
%FSLAX24Y24*%
%IPPOS*%
%LPD*%
%AMOC8*
5,1,8,0,0,1.08239X$1,22.5*
%
%ADD10C,0.1230*%
%ADD11OC8,0.0680*%
%ADD12C,0.2080*%
%ADD13R,0.0474X0.0513*%
%ADD14R,0.0513X0.0474*%
%ADD15R,0.0671X0.0237*%
%ADD16R,0.0474X0.0631*%
%ADD17R,0.0316X0.0946*%
%ADD18C,0.0640*%
%ADD19R,0.0640X0.0640*%
%ADD20R,0.0297X0.0552*%
%ADD21R,0.0316X0.0867*%
%ADD22R,0.0671X0.0789*%
%ADD23C,0.0940*%
%ADD24R,0.0552X0.0297*%
%ADD25C,0.0680*%
%ADD26R,0.0789X0.0926*%
%ADD27R,0.0926X0.0789*%
%ADD28R,0.0340X0.0880*%
%ADD29R,0.0671X0.0671*%
%ADD30R,0.0480X0.0880*%
%ADD31C,0.0580*%
%ADD32C,0.2880*%
D10*
X047341Y022263D03*
X024501Y041558D03*
D11*
X007686Y029068D03*
X007686Y027978D03*
X006686Y027438D03*
X006686Y028528D03*
X007686Y026898D03*
X007686Y025808D03*
X006686Y025268D03*
X006686Y026348D03*
X007686Y024718D03*
X007686Y023638D03*
X006686Y024178D03*
X006686Y023088D03*
X007686Y022548D03*
X007686Y021458D03*
X007686Y020378D03*
X006686Y020918D03*
X006686Y022008D03*
X006686Y019828D03*
X006686Y018748D03*
X007686Y019288D03*
X007686Y018198D03*
X006686Y017658D03*
X006686Y016568D03*
X007686Y016028D03*
X007686Y017118D03*
D12*
X007186Y013288D03*
X007186Y031808D03*
D13*
X011062Y028348D03*
X011731Y028348D03*
X012162Y027748D03*
X012831Y027748D03*
X012831Y026948D03*
X012162Y026948D03*
X011731Y026348D03*
X011062Y026348D03*
X011062Y025148D03*
X011731Y025148D03*
X012162Y024548D03*
X012831Y024548D03*
X012831Y023748D03*
X012162Y023748D03*
X011731Y023148D03*
X011062Y023148D03*
X011062Y021948D03*
X011731Y021948D03*
X012162Y021348D03*
X012831Y021348D03*
X012831Y020548D03*
X012162Y020548D03*
X011731Y019948D03*
X011062Y019948D03*
X011062Y018748D03*
X011731Y018748D03*
X012162Y018148D03*
X012831Y018148D03*
X012831Y017348D03*
X012162Y017348D03*
X011731Y016748D03*
X011062Y016748D03*
X020976Y012133D03*
X020976Y011463D03*
X020977Y009623D03*
X020977Y008953D03*
X024587Y007183D03*
X025256Y007183D03*
X041012Y006568D03*
X041681Y006568D03*
X041681Y012468D03*
X041012Y012468D03*
X045576Y013713D03*
X045576Y014383D03*
X044066Y022723D03*
X044066Y023393D03*
X040566Y025423D03*
X040566Y026093D03*
X040566Y027043D03*
X040566Y027713D03*
X026276Y032953D03*
X026276Y033623D03*
X026276Y035473D03*
X026276Y036143D03*
X021991Y022798D03*
X021322Y022798D03*
X021332Y022108D03*
X022001Y022108D03*
X021991Y021438D03*
X021322Y021438D03*
X021322Y020768D03*
X021991Y020768D03*
D14*
X020051Y025548D03*
X019382Y025548D03*
X017711Y025548D03*
X017042Y025548D03*
X013931Y025148D03*
X013262Y025148D03*
X013262Y026348D03*
X013931Y026348D03*
X013931Y028348D03*
X013262Y028348D03*
X012901Y032348D03*
X012232Y032348D03*
X010901Y040948D03*
X010232Y040948D03*
X015232Y041888D03*
X015901Y041888D03*
X022766Y038603D03*
X023366Y038603D03*
X023966Y038603D03*
X024566Y038603D03*
X024566Y037933D03*
X023966Y037933D03*
X023366Y037933D03*
X022766Y037933D03*
X032346Y037183D03*
X033346Y037183D03*
X033346Y036513D03*
X032346Y036513D03*
X042846Y036513D03*
X042846Y037183D03*
X043846Y037183D03*
X043846Y036513D03*
X043451Y023928D03*
X042782Y023928D03*
X042191Y023928D03*
X041522Y023928D03*
X046432Y015438D03*
X047101Y015438D03*
X047101Y012428D03*
X046432Y012428D03*
X045756Y009193D03*
X045756Y008523D03*
X046452Y006458D03*
X047121Y006458D03*
X028851Y005233D03*
X028851Y004563D03*
X027351Y004563D03*
X027351Y005233D03*
X023966Y006503D03*
X023366Y006503D03*
X022766Y006503D03*
X022766Y007173D03*
X023366Y007173D03*
X023966Y007173D03*
X013931Y016748D03*
X013262Y016748D03*
X013262Y018748D03*
X013931Y018748D03*
X013931Y019948D03*
X013262Y019948D03*
X013262Y021948D03*
X013931Y021948D03*
X013931Y023148D03*
X013262Y023148D03*
D15*
X017119Y023188D03*
X017119Y023444D03*
X017119Y023700D03*
X017119Y023956D03*
X017119Y024211D03*
X017119Y022932D03*
X017119Y022676D03*
X017119Y022420D03*
X017119Y022164D03*
X017119Y021908D03*
X017119Y021652D03*
X017119Y021397D03*
X017119Y021141D03*
X017119Y020885D03*
X019973Y020885D03*
X019973Y021141D03*
X019973Y021397D03*
X019973Y021652D03*
X019973Y021908D03*
X019973Y022164D03*
X019973Y022420D03*
X019973Y022676D03*
X019973Y022932D03*
X019973Y023188D03*
X019973Y023444D03*
X019973Y023700D03*
X019973Y023956D03*
X019973Y024211D03*
D16*
X019690Y027515D03*
X018942Y027515D03*
X018150Y027515D03*
X017402Y027515D03*
X017776Y028381D03*
X019316Y028381D03*
D17*
X021916Y032737D03*
X022416Y032737D03*
X022916Y032737D03*
X023416Y032737D03*
X023916Y032737D03*
X024416Y032737D03*
X024916Y032737D03*
X025416Y032737D03*
X025416Y036359D03*
X024916Y036359D03*
X024416Y036359D03*
X023916Y036359D03*
X023416Y036359D03*
X022916Y036359D03*
X022416Y036359D03*
X021916Y036359D03*
X021916Y012359D03*
X022416Y012359D03*
X022916Y012359D03*
X023416Y012359D03*
X023916Y012359D03*
X024416Y012359D03*
X024916Y012359D03*
X025416Y012359D03*
X025416Y008737D03*
X024916Y008737D03*
X024416Y008737D03*
X023916Y008737D03*
X023416Y008737D03*
X022916Y008737D03*
X022416Y008737D03*
X021916Y008737D03*
D18*
X027236Y041058D03*
X028236Y041058D03*
X029236Y041058D03*
X030236Y041058D03*
X031236Y041058D03*
X032236Y041058D03*
X033236Y041058D03*
X034236Y041058D03*
X035236Y041058D03*
X036236Y041058D03*
X037236Y041058D03*
X038236Y041058D03*
X039236Y041058D03*
X040236Y041058D03*
X041236Y041058D03*
X042236Y041058D03*
X043236Y041058D03*
X044236Y041058D03*
X045236Y041058D03*
X045236Y042058D03*
X044236Y042058D03*
X043236Y042058D03*
X042236Y042058D03*
X041236Y042058D03*
X040236Y042058D03*
X039236Y042058D03*
X038236Y042058D03*
X037236Y042058D03*
X036236Y042058D03*
X035236Y042058D03*
X034236Y042058D03*
X033236Y042058D03*
X032236Y042058D03*
X031236Y042058D03*
X030236Y042058D03*
X029236Y042058D03*
X028236Y042058D03*
X027236Y042058D03*
X026236Y042058D03*
D19*
X026236Y041058D03*
D20*
X046418Y014521D03*
X046792Y014521D03*
X047166Y014521D03*
X047166Y013497D03*
X046418Y013497D03*
D21*
X042612Y004548D03*
X042219Y004548D03*
X041825Y004548D03*
X041431Y004548D03*
X041037Y004548D03*
X040644Y004548D03*
X040250Y004548D03*
X039856Y004548D03*
D22*
X039059Y002659D03*
X043400Y002658D03*
D23*
X042946Y008648D03*
X039746Y008648D03*
X037446Y008648D03*
X034246Y008648D03*
X034246Y014548D03*
X037446Y014548D03*
X039746Y014548D03*
X042946Y014548D03*
D24*
X046255Y007937D03*
X046255Y007189D03*
X047279Y007189D03*
X047279Y007563D03*
X047279Y007937D03*
D25*
X047046Y009208D02*
X047646Y009208D01*
X047646Y010208D02*
X047046Y010208D01*
X033286Y003848D02*
X033286Y003248D01*
X032286Y003248D02*
X032286Y003848D01*
X031286Y003848D02*
X031286Y003248D01*
X024846Y003248D02*
X024846Y003848D01*
X023846Y003848D02*
X023846Y003248D01*
D26*
X008861Y039782D03*
X008861Y040944D03*
D27*
X011071Y031393D03*
X012232Y031393D03*
D28*
X041336Y027778D03*
X041836Y027778D03*
X042336Y027778D03*
X042836Y027778D03*
X043336Y027778D03*
X043836Y027778D03*
X044336Y027778D03*
X044836Y027778D03*
X044836Y025358D03*
X044336Y025358D03*
X043836Y025358D03*
X043336Y025358D03*
X042836Y025358D03*
X042336Y025358D03*
X041836Y025358D03*
X041336Y025358D03*
D29*
X028847Y003595D03*
X027341Y003599D03*
X027341Y002221D03*
X028847Y002217D03*
D30*
X016231Y033398D03*
X015231Y033398D03*
X014231Y033398D03*
X012231Y033398D03*
X011231Y033398D03*
X010231Y033398D03*
X010231Y039898D03*
X011231Y039898D03*
X012231Y039898D03*
X014231Y039898D03*
X015231Y039898D03*
X016231Y039898D03*
D31*
X015496Y042648D03*
X022776Y039788D03*
X023366Y040528D03*
X023986Y039148D03*
X025526Y039148D03*
X027246Y037148D03*
X029706Y037168D03*
X027646Y033748D03*
X025266Y030908D03*
X024386Y030898D03*
X023406Y030908D03*
X022556Y030918D03*
X023916Y027788D03*
X025036Y024368D03*
X025636Y022808D03*
X025036Y021518D03*
X024836Y019448D03*
X026286Y018008D03*
X028306Y016278D03*
X029096Y018158D03*
X029086Y019668D03*
X027436Y021518D03*
X027446Y024188D03*
X028766Y024208D03*
X034536Y029988D03*
X034556Y031838D03*
X036286Y031988D03*
X037711Y032958D03*
X037071Y033588D03*
X038351Y032318D03*
X038951Y031688D03*
X039641Y031018D03*
X040241Y030428D03*
X039246Y027048D03*
X043066Y019498D03*
X041376Y017128D03*
X037436Y017118D03*
X042956Y012368D03*
X042956Y010928D03*
X044446Y007548D03*
X044446Y004798D03*
X037466Y010928D03*
X047106Y016588D03*
X034286Y037188D03*
X042256Y038058D03*
X021266Y019768D03*
X021266Y018278D03*
X018476Y018448D03*
X014316Y019358D03*
X011066Y017408D03*
X012926Y015098D03*
X013946Y011348D03*
X020346Y009048D03*
X014316Y025708D03*
X009067Y028157D03*
X014096Y031398D03*
D32*
X005165Y003548D03*
X047346Y003548D03*
X047346Y041548D03*
X005165Y041548D03*
M02*
