G75*
G70*
%OFA0B0*%
%FSLAX24Y24*%
%IPPOS*%
%LPD*%
%AMOC8*
5,1,8,0,0,1.08239X$1,22.5*
%
%ADD10C,0.0160*%
%ADD11C,0.0040*%
%ADD12C,0.0080*%
%ADD13C,0.0050*%
%ADD14C,0.0030*%
D10*
X000181Y000181D02*
X033181Y000181D01*
X033181Y012681D01*
X000181Y012681D01*
X000181Y000181D01*
D11*
X009687Y000551D02*
X009994Y000551D01*
X009687Y000858D01*
X009687Y000935D01*
X009764Y001012D01*
X009917Y001012D01*
X009994Y000935D01*
X010148Y000935D02*
X010224Y001012D01*
X010378Y001012D01*
X010455Y000935D01*
X010455Y000628D01*
X010378Y000551D01*
X010224Y000551D01*
X010148Y000628D01*
X010608Y000551D02*
X010761Y000551D01*
X010685Y000551D02*
X010685Y001012D01*
X010761Y001012D02*
X010608Y001012D01*
X012567Y001067D02*
X013827Y001067D01*
X014536Y001067D02*
X015796Y001067D01*
X015796Y003390D01*
X014890Y004296D01*
X014536Y004296D01*
X013827Y004296D02*
X013473Y004296D01*
X012567Y003390D01*
X012567Y001067D01*
X013827Y001165D02*
X013750Y001185D01*
X013675Y001208D01*
X013601Y001236D01*
X013529Y001267D01*
X013458Y001302D01*
X013389Y001340D01*
X013323Y001382D01*
X013258Y001427D01*
X013196Y001475D01*
X013136Y001527D01*
X013079Y001581D01*
X013025Y001638D01*
X012973Y001698D01*
X012925Y001760D01*
X012880Y001825D01*
X012839Y001892D01*
X012801Y001961D01*
X012766Y002032D01*
X012735Y002104D01*
X012707Y002178D01*
X012684Y002253D01*
X012664Y002329D01*
X012648Y002407D01*
X012636Y002485D01*
X012628Y002563D01*
X012624Y002642D01*
X012624Y002720D01*
X012628Y002799D01*
X012636Y002877D01*
X012648Y002955D01*
X012664Y003033D01*
X012684Y003109D01*
X012707Y003184D01*
X012735Y003258D01*
X012766Y003330D01*
X012801Y003401D01*
X012839Y003470D01*
X012880Y003537D01*
X012925Y003602D01*
X012973Y003664D01*
X013025Y003724D01*
X013079Y003781D01*
X013136Y003835D01*
X013196Y003887D01*
X013258Y003935D01*
X013323Y003980D01*
X013389Y004022D01*
X013458Y004060D01*
X013529Y004095D01*
X013601Y004126D01*
X013675Y004154D01*
X013750Y004177D01*
X013827Y004197D01*
X011361Y004678D02*
X011285Y004601D01*
X011131Y004601D01*
X011055Y004678D01*
X010901Y004678D02*
X010824Y004601D01*
X010671Y004601D01*
X010594Y004678D01*
X010594Y004832D01*
X010671Y004908D01*
X010748Y004908D01*
X010901Y004832D01*
X010901Y005062D01*
X010594Y005062D01*
X011055Y004985D02*
X011131Y005062D01*
X011285Y005062D01*
X011361Y004985D01*
X011361Y004678D01*
X009661Y004628D02*
X009585Y004551D01*
X009431Y004551D01*
X009355Y004628D01*
X009201Y004782D02*
X008894Y004782D01*
X008971Y005012D02*
X008971Y004551D01*
X009201Y004782D02*
X008971Y005012D01*
X009355Y004935D02*
X009431Y005012D01*
X009585Y005012D01*
X009661Y004935D01*
X009661Y004628D01*
X014535Y004197D02*
X014612Y004177D01*
X014687Y004154D01*
X014761Y004126D01*
X014833Y004095D01*
X014904Y004060D01*
X014973Y004022D01*
X015039Y003980D01*
X015104Y003935D01*
X015166Y003887D01*
X015226Y003835D01*
X015283Y003781D01*
X015337Y003724D01*
X015389Y003664D01*
X015437Y003602D01*
X015482Y003537D01*
X015523Y003470D01*
X015561Y003401D01*
X015596Y003330D01*
X015627Y003258D01*
X015655Y003184D01*
X015678Y003109D01*
X015698Y003033D01*
X015714Y002955D01*
X015726Y002877D01*
X015734Y002799D01*
X015738Y002720D01*
X015738Y002642D01*
X015734Y002563D01*
X015726Y002485D01*
X015714Y002407D01*
X015698Y002329D01*
X015678Y002253D01*
X015655Y002178D01*
X015627Y002104D01*
X015596Y002032D01*
X015561Y001961D01*
X015523Y001892D01*
X015482Y001825D01*
X015437Y001760D01*
X015389Y001698D01*
X015337Y001638D01*
X015283Y001581D01*
X015226Y001527D01*
X015166Y001475D01*
X015104Y001427D01*
X015039Y001382D01*
X014973Y001340D01*
X014904Y001302D01*
X014833Y001267D01*
X014761Y001236D01*
X014687Y001208D01*
X014612Y001185D01*
X014535Y001165D01*
X022115Y002251D02*
X022422Y002251D01*
X022115Y002558D01*
X022115Y002635D01*
X022192Y002712D01*
X022345Y002712D01*
X022422Y002635D01*
X022575Y002635D02*
X022575Y002482D01*
X022652Y002405D01*
X022882Y002405D01*
X022729Y002405D02*
X022575Y002251D01*
X022882Y002251D02*
X022882Y002712D01*
X022652Y002712D01*
X022575Y002635D01*
X023701Y002731D02*
X024162Y002731D01*
X024162Y002961D01*
X024085Y003038D01*
X023932Y003038D01*
X023855Y002961D01*
X023855Y002731D01*
X023855Y002884D02*
X023701Y003038D01*
X023778Y003191D02*
X023701Y003268D01*
X023701Y003421D01*
X023778Y003498D01*
X023932Y003498D01*
X024008Y003421D01*
X024008Y003344D01*
X023932Y003191D01*
X024162Y003191D01*
X024162Y003498D01*
X028551Y003558D02*
X028705Y003405D01*
X028705Y003482D02*
X028705Y003251D01*
X028551Y003251D02*
X029012Y003251D01*
X029012Y003482D01*
X028935Y003558D01*
X028782Y003558D01*
X028705Y003482D01*
X028628Y003712D02*
X028551Y003788D01*
X028551Y003942D01*
X028628Y004019D01*
X028705Y004019D01*
X028782Y003942D01*
X028782Y003865D01*
X028782Y003942D02*
X028858Y004019D01*
X028935Y004019D01*
X029012Y003942D01*
X029012Y003788D01*
X028935Y003712D01*
X031301Y003658D02*
X031455Y003505D01*
X031455Y003582D02*
X031455Y003351D01*
X031301Y003351D02*
X031762Y003351D01*
X031762Y003582D01*
X031685Y003658D01*
X031532Y003658D01*
X031455Y003582D01*
X031532Y003812D02*
X031532Y004119D01*
X031762Y004042D02*
X031301Y004042D01*
X031532Y003812D02*
X031762Y004042D01*
X028705Y009301D02*
X028552Y009301D01*
X028475Y009378D01*
X028322Y009301D02*
X028015Y009301D01*
X028168Y009301D02*
X028168Y009762D01*
X028322Y009608D01*
X028475Y009685D02*
X028552Y009762D01*
X028705Y009762D01*
X028782Y009685D01*
X028782Y009378D01*
X028705Y009301D01*
X018111Y005912D02*
X018111Y005451D01*
X018111Y005605D02*
X017881Y005605D01*
X017805Y005682D01*
X017805Y005835D01*
X017881Y005912D01*
X018111Y005912D01*
X017958Y005605D02*
X017805Y005451D01*
X017651Y005451D02*
X017344Y005451D01*
X017498Y005451D02*
X017498Y005912D01*
X017651Y005758D01*
X010796Y007973D02*
X010796Y010296D01*
X009536Y010296D01*
X008827Y010296D02*
X007567Y010296D01*
X007567Y007973D01*
X008473Y007067D01*
X008827Y007067D01*
X009536Y007067D02*
X009890Y007067D01*
X010796Y007973D01*
X009535Y007165D02*
X009612Y007185D01*
X009687Y007208D01*
X009761Y007236D01*
X009833Y007267D01*
X009904Y007302D01*
X009973Y007340D01*
X010039Y007382D01*
X010104Y007427D01*
X010166Y007475D01*
X010226Y007527D01*
X010283Y007581D01*
X010337Y007638D01*
X010389Y007698D01*
X010437Y007760D01*
X010482Y007825D01*
X010523Y007892D01*
X010561Y007961D01*
X010596Y008032D01*
X010627Y008104D01*
X010655Y008178D01*
X010678Y008253D01*
X010698Y008329D01*
X010714Y008407D01*
X010726Y008485D01*
X010734Y008563D01*
X010738Y008642D01*
X010738Y008720D01*
X010734Y008799D01*
X010726Y008877D01*
X010714Y008955D01*
X010698Y009033D01*
X010678Y009109D01*
X010655Y009184D01*
X010627Y009258D01*
X010596Y009330D01*
X010561Y009401D01*
X010523Y009470D01*
X010482Y009537D01*
X010437Y009602D01*
X010389Y009664D01*
X010337Y009724D01*
X010283Y009781D01*
X010226Y009835D01*
X010166Y009887D01*
X010104Y009935D01*
X010039Y009980D01*
X009973Y010022D01*
X009904Y010060D01*
X009833Y010095D01*
X009761Y010126D01*
X009687Y010154D01*
X009612Y010177D01*
X009535Y010197D01*
X008827Y010197D02*
X008750Y010177D01*
X008675Y010154D01*
X008601Y010126D01*
X008529Y010095D01*
X008458Y010060D01*
X008389Y010022D01*
X008323Y009980D01*
X008258Y009935D01*
X008196Y009887D01*
X008136Y009835D01*
X008079Y009781D01*
X008025Y009724D01*
X007973Y009664D01*
X007925Y009602D01*
X007880Y009537D01*
X007839Y009470D01*
X007801Y009401D01*
X007766Y009330D01*
X007735Y009258D01*
X007707Y009184D01*
X007684Y009109D01*
X007664Y009033D01*
X007648Y008955D01*
X007636Y008877D01*
X007628Y008799D01*
X007624Y008720D01*
X007624Y008642D01*
X007628Y008563D01*
X007636Y008485D01*
X007648Y008407D01*
X007664Y008329D01*
X007684Y008253D01*
X007707Y008178D01*
X007735Y008104D01*
X007766Y008032D01*
X007801Y007961D01*
X007839Y007892D01*
X007880Y007825D01*
X007925Y007760D01*
X007973Y007698D01*
X008025Y007638D01*
X008079Y007581D01*
X008136Y007527D01*
X008196Y007475D01*
X008258Y007427D01*
X008323Y007382D01*
X008389Y007340D01*
X008458Y007302D01*
X008529Y007267D01*
X008601Y007236D01*
X008675Y007208D01*
X008750Y007185D01*
X008827Y007165D01*
D12*
X009681Y003131D02*
X009681Y001221D01*
X010751Y001221D01*
X010751Y003131D01*
X009681Y003131D01*
D13*
X010461Y002926D02*
X010463Y002942D01*
X010468Y002956D01*
X010477Y002969D01*
X010489Y002979D01*
X010503Y002987D01*
X010518Y002991D01*
X010534Y002991D01*
X010549Y002987D01*
X010563Y002979D01*
X010575Y002969D01*
X010584Y002956D01*
X010589Y002942D01*
X010591Y002926D01*
X010589Y002910D01*
X010584Y002896D01*
X010575Y002883D01*
X010563Y002873D01*
X010549Y002865D01*
X010534Y002861D01*
X010518Y002861D01*
X010503Y002865D01*
X010489Y002873D01*
X010477Y002883D01*
X010468Y002896D01*
X010463Y002910D01*
X010461Y002926D01*
D14*
X015110Y004520D02*
X015172Y004458D01*
X015295Y004458D01*
X015357Y004520D01*
X015478Y004520D02*
X015540Y004458D01*
X015663Y004458D01*
X015725Y004520D01*
X015725Y004767D01*
X015663Y004829D01*
X015540Y004829D01*
X015478Y004767D01*
X015357Y004767D02*
X015295Y004829D01*
X015172Y004829D01*
X015110Y004767D01*
X015110Y004705D01*
X015172Y004643D01*
X015110Y004582D01*
X015110Y004520D01*
X015172Y004643D02*
X015233Y004643D01*
X007255Y008530D02*
X007193Y008468D01*
X006946Y008468D01*
X006885Y008530D01*
X006885Y008654D01*
X006946Y008715D01*
X006885Y008837D02*
X007131Y009084D01*
X007193Y009084D01*
X007255Y009022D01*
X007255Y008898D01*
X007193Y008837D01*
X007193Y008715D02*
X007255Y008654D01*
X007255Y008530D01*
X006885Y008837D02*
X006885Y009084D01*
M02*
