G75*
G70*
%OFA0B0*%
%FSLAX24Y24*%
%IPPOS*%
%LPD*%
%AMOC8*
5,1,8,0,0,1.08239X$1,22.5*
%
%ADD10C,0.0600*%
%ADD11R,0.0513X0.0474*%
%ADD12C,0.0785*%
%ADD13R,0.0946X0.0316*%
%ADD14R,0.0631X0.1576*%
%ADD15C,0.0680*%
%ADD16C,0.1080*%
%ADD17C,0.0740*%
%ADD18C,0.0780*%
%ADD19R,0.0780X0.0780*%
%ADD20R,0.0474X0.0513*%
%ADD21C,0.1880*%
D10*
X016861Y001781D02*
X017381Y001781D01*
X017381Y002781D02*
X016861Y002781D01*
X016861Y003781D02*
X017381Y003781D01*
X020381Y003781D02*
X020901Y003781D01*
X020901Y002781D02*
X020381Y002781D01*
X020381Y001781D02*
X020901Y001781D01*
X022681Y004921D02*
X022681Y005441D01*
X023681Y005441D02*
X023681Y004921D01*
X024681Y004921D02*
X024681Y005441D01*
X025681Y005441D02*
X025681Y004921D01*
X026681Y004921D02*
X026681Y005441D01*
X027681Y005441D02*
X027681Y004921D01*
X028681Y004921D02*
X028681Y005441D01*
X029681Y005441D02*
X029681Y004921D01*
X030681Y004921D02*
X030681Y005441D01*
X030681Y007921D02*
X030681Y008441D01*
X029681Y008441D02*
X029681Y007921D01*
X028681Y007921D02*
X028681Y008441D01*
X027681Y008441D02*
X027681Y007921D01*
X026681Y007921D02*
X026681Y008441D01*
X025681Y008441D02*
X025681Y007921D01*
X024681Y007921D02*
X024681Y008441D01*
X023681Y008441D02*
X023681Y007921D01*
X022681Y007921D02*
X022681Y008441D01*
D11*
X026647Y009481D03*
X027316Y009481D03*
X029681Y004016D03*
X030681Y004016D03*
X030681Y003347D03*
X029681Y003347D03*
X024681Y003516D03*
X024681Y002847D03*
X011216Y004081D03*
X010547Y004081D03*
X009816Y004081D03*
X009147Y004081D03*
D12*
X006666Y003034D02*
X006666Y002329D01*
X004697Y002329D02*
X004697Y003034D01*
X003034Y005697D02*
X002329Y005697D01*
X002329Y007666D02*
X003034Y007666D01*
D13*
X009188Y002921D03*
X009188Y002421D03*
X009188Y001921D03*
X009188Y001421D03*
X011235Y001421D03*
X011235Y001921D03*
X011235Y002421D03*
X011235Y002921D03*
D14*
X014181Y003863D03*
X014181Y001500D03*
X009181Y007500D03*
X009181Y009863D03*
D15*
X017681Y010881D02*
X017681Y011481D01*
X018681Y011481D02*
X018681Y010881D01*
X019681Y010881D02*
X019681Y011481D01*
X020681Y011481D02*
X020681Y010881D01*
X022681Y010881D02*
X022681Y011481D01*
X023681Y011481D02*
X023681Y010881D01*
X024681Y010881D02*
X024681Y011481D01*
X025681Y011481D02*
X025681Y010881D01*
X026681Y010881D02*
X026681Y011481D01*
X027681Y011481D02*
X027681Y010881D01*
X028681Y010881D02*
X028681Y011481D01*
X028681Y001981D02*
X028681Y001381D01*
X027681Y001381D02*
X027681Y001981D01*
X026681Y001981D02*
X026681Y001381D01*
X025681Y001381D02*
X025681Y001981D01*
X024681Y001981D02*
X024681Y001381D01*
X029681Y001381D02*
X029681Y001981D01*
D16*
X012370Y008839D03*
X011583Y011280D03*
X006780Y011280D03*
X006780Y006359D03*
X011583Y006359D03*
D17*
X015781Y006381D03*
X016781Y006381D03*
X016281Y007131D03*
X020681Y005481D03*
X020681Y009781D03*
D18*
X014181Y006381D03*
D19*
X014181Y009381D03*
D20*
X017347Y004981D03*
X018016Y004981D03*
X022047Y001781D03*
X022716Y001781D03*
D21*
X001381Y001481D03*
X001381Y011481D03*
X031981Y011481D03*
X031981Y001481D03*
M02*
