G75*
G70*
%OFA0B0*%
%FSLAX24Y24*%
%IPPOS*%
%LPD*%
%AMOC8*
5,1,8,0,0,1.08239X$1,22.5*
%
%ADD10C,0.0520*%
%ADD11R,0.0433X0.0394*%
%ADD12C,0.0705*%
%ADD13R,0.0866X0.0236*%
%ADD14R,0.0551X0.1496*%
%ADD15C,0.0600*%
%ADD16C,0.1000*%
%ADD17C,0.0660*%
%ADD18C,0.0700*%
%ADD19R,0.0700X0.0700*%
%ADD20R,0.0394X0.0433*%
%ADD21C,0.0120*%
%ADD22C,0.0240*%
%ADD23C,0.0160*%
%ADD24C,0.0400*%
%ADD25C,0.0320*%
%ADD26C,0.1800*%
D10*
X016861Y001781D02*
X017381Y001781D01*
X017381Y002781D02*
X016861Y002781D01*
X016861Y003781D02*
X017381Y003781D01*
X020381Y003781D02*
X020901Y003781D01*
X020901Y002781D02*
X020381Y002781D01*
X020381Y001781D02*
X020901Y001781D01*
X022681Y004921D02*
X022681Y005441D01*
X023681Y005441D02*
X023681Y004921D01*
X024681Y004921D02*
X024681Y005441D01*
X025681Y005441D02*
X025681Y004921D01*
X026681Y004921D02*
X026681Y005441D01*
X027681Y005441D02*
X027681Y004921D01*
X028681Y004921D02*
X028681Y005441D01*
X029681Y005441D02*
X029681Y004921D01*
X030681Y004921D02*
X030681Y005441D01*
X030681Y007921D02*
X030681Y008441D01*
X029681Y008441D02*
X029681Y007921D01*
X028681Y007921D02*
X028681Y008441D01*
X027681Y008441D02*
X027681Y007921D01*
X026681Y007921D02*
X026681Y008441D01*
X025681Y008441D02*
X025681Y007921D01*
X024681Y007921D02*
X024681Y008441D01*
X023681Y008441D02*
X023681Y007921D01*
X022681Y007921D02*
X022681Y008441D01*
D11*
X026647Y009481D03*
X027316Y009481D03*
X029681Y004016D03*
X030681Y004016D03*
X030681Y003347D03*
X029681Y003347D03*
X024681Y003516D03*
X024681Y002847D03*
X011216Y004081D03*
X010547Y004081D03*
X009816Y004081D03*
X009147Y004081D03*
D12*
X006666Y003034D02*
X006666Y002329D01*
X004697Y002329D02*
X004697Y003034D01*
X003034Y005697D02*
X002329Y005697D01*
X002329Y007666D02*
X003034Y007666D01*
D13*
X009188Y002921D03*
X009188Y002421D03*
X009188Y001921D03*
X009188Y001421D03*
X011235Y001421D03*
X011235Y001921D03*
X011235Y002421D03*
X011235Y002921D03*
D14*
X014181Y003863D03*
X014181Y001500D03*
X009181Y007500D03*
X009181Y009863D03*
D15*
X017681Y010881D02*
X017681Y011481D01*
X018681Y011481D02*
X018681Y010881D01*
X019681Y010881D02*
X019681Y011481D01*
X020681Y011481D02*
X020681Y010881D01*
X022681Y010881D02*
X022681Y011481D01*
X023681Y011481D02*
X023681Y010881D01*
X024681Y010881D02*
X024681Y011481D01*
X025681Y011481D02*
X025681Y010881D01*
X026681Y010881D02*
X026681Y011481D01*
X027681Y011481D02*
X027681Y010881D01*
X028681Y010881D02*
X028681Y011481D01*
X028681Y001981D02*
X028681Y001381D01*
X027681Y001381D02*
X027681Y001981D01*
X026681Y001981D02*
X026681Y001381D01*
X025681Y001381D02*
X025681Y001981D01*
X024681Y001981D02*
X024681Y001381D01*
X029681Y001381D02*
X029681Y001981D01*
D16*
X012370Y008839D03*
X011583Y011280D03*
X006780Y011280D03*
X006780Y006359D03*
X011583Y006359D03*
D17*
X015781Y006381D03*
X016781Y006381D03*
X016281Y007131D03*
X020681Y005481D03*
X020681Y009781D03*
D18*
X014181Y006381D03*
D19*
X014181Y009381D03*
D20*
X017347Y004981D03*
X018016Y004981D03*
X022047Y001781D03*
X022716Y001781D03*
D21*
X002262Y000806D02*
X002177Y000721D01*
X013748Y000721D01*
X013746Y000731D01*
X013746Y001440D01*
X014121Y001440D01*
X014121Y001560D01*
X013746Y001560D01*
X013746Y002269D01*
X013757Y002310D01*
X013778Y002347D01*
X013808Y002376D01*
X013844Y002397D01*
X013885Y002408D01*
X014121Y002408D01*
X014121Y001560D01*
X014241Y001560D01*
X014241Y002408D01*
X014478Y002408D01*
X014519Y002397D01*
X014555Y002376D01*
X014585Y002347D01*
X014606Y002310D01*
X014617Y002269D01*
X014617Y001560D01*
X014242Y001560D01*
X014242Y001440D01*
X014617Y001440D01*
X014617Y000731D01*
X014614Y000721D01*
X031186Y000721D01*
X031101Y000806D01*
X030956Y001057D01*
X030881Y001337D01*
X030881Y001626D01*
X030956Y001906D01*
X031101Y002157D01*
X031306Y002362D01*
X031557Y002506D01*
X031837Y002581D01*
X032126Y002581D01*
X032406Y002506D01*
X032641Y002370D01*
X032641Y010592D01*
X032406Y010456D01*
X032126Y010381D01*
X031837Y010381D01*
X031557Y010456D01*
X031306Y010601D01*
X031101Y010806D01*
X030956Y011057D01*
X030881Y011337D01*
X030881Y011626D01*
X030956Y011906D01*
X031092Y012141D01*
X026774Y012141D01*
X026863Y012053D01*
X026863Y012053D01*
X026953Y011963D01*
X026985Y011885D01*
X027105Y011765D01*
X027181Y011581D01*
X027181Y010782D01*
X027105Y010598D01*
X026967Y010460D01*
X026967Y009858D01*
X027012Y009812D01*
X027038Y009827D01*
X027078Y009838D01*
X027278Y009838D01*
X027278Y009520D01*
X027354Y009520D01*
X027354Y009838D01*
X027554Y009838D01*
X027594Y009827D01*
X027631Y009806D01*
X027661Y009776D01*
X027682Y009740D01*
X027693Y009699D01*
X027693Y009520D01*
X027355Y009520D01*
X027355Y009443D01*
X027693Y009443D01*
X027693Y009263D01*
X027682Y009223D01*
X027661Y009186D01*
X027631Y009157D01*
X027594Y009135D01*
X027554Y009125D01*
X027354Y009125D01*
X027354Y009443D01*
X027278Y009443D01*
X027278Y009125D01*
X027078Y009125D01*
X027038Y009135D01*
X027012Y009150D01*
X026967Y009105D01*
X026967Y008807D01*
X027071Y008702D01*
X027141Y008533D01*
X027141Y007830D01*
X027096Y007720D01*
X028363Y006453D01*
X028453Y006363D01*
X028501Y006245D01*
X028501Y005865D01*
X028590Y005901D01*
X028773Y005901D01*
X028942Y005831D01*
X029071Y005702D01*
X029141Y005533D01*
X029141Y004830D01*
X029071Y004661D01*
X029001Y004591D01*
X029001Y003445D01*
X029001Y003318D01*
X028953Y003200D01*
X028061Y002309D01*
X028105Y002265D01*
X028181Y002081D01*
X028181Y001282D01*
X028105Y001098D01*
X027965Y000958D01*
X027781Y000881D01*
X027582Y000881D01*
X027398Y000958D01*
X027258Y001098D01*
X027181Y001282D01*
X027181Y002081D01*
X027258Y002265D01*
X027361Y002369D01*
X027361Y002445D01*
X027410Y002563D01*
X028361Y003514D01*
X028361Y004009D01*
X028153Y003800D01*
X028063Y003710D01*
X027945Y003661D01*
X027414Y003661D01*
X026061Y002309D01*
X026105Y002265D01*
X026181Y002081D01*
X026181Y001282D01*
X026105Y001098D01*
X025965Y000958D01*
X025781Y000881D01*
X025582Y000881D01*
X025398Y000958D01*
X025258Y001098D01*
X025181Y001282D01*
X025181Y002081D01*
X025105Y002265D01*
X025001Y002369D01*
X025001Y002471D01*
X025098Y002567D01*
X025098Y003126D01*
X025043Y003181D01*
X025098Y003236D01*
X025098Y003796D01*
X025073Y003821D01*
X025453Y004200D01*
X025501Y004318D01*
X025501Y004445D01*
X025501Y004498D01*
X025590Y004461D01*
X025773Y004461D01*
X025942Y004531D01*
X026071Y004661D01*
X026141Y004830D01*
X026141Y005533D01*
X026071Y005702D01*
X025942Y005831D01*
X025773Y005901D01*
X025590Y005901D01*
X025501Y005865D01*
X025501Y006145D01*
X025453Y006263D01*
X025363Y006353D01*
X024654Y007061D01*
X024749Y007061D01*
X025410Y006400D01*
X025500Y006310D01*
X025618Y006261D01*
X026849Y006261D01*
X027350Y005760D01*
X027291Y005702D01*
X027221Y005533D01*
X027221Y004830D01*
X027291Y004661D01*
X027421Y004531D01*
X027590Y004461D01*
X027773Y004461D01*
X027861Y004498D01*
X027861Y004414D01*
X027749Y004301D01*
X027345Y004301D01*
X027218Y004301D01*
X027100Y004253D01*
X025500Y002653D01*
X025410Y002563D01*
X025361Y002445D01*
X025361Y002369D01*
X025258Y002265D01*
X025181Y002081D01*
X025181Y001282D01*
X025105Y001098D01*
X024965Y000958D01*
X024781Y000881D01*
X024582Y000881D01*
X024398Y000958D01*
X024258Y001098D01*
X024181Y001282D01*
X024181Y002081D01*
X024258Y002265D01*
X024361Y002369D01*
X024361Y002471D01*
X024265Y002567D01*
X024265Y003126D01*
X024320Y003181D01*
X024265Y003236D01*
X024265Y003796D01*
X024361Y003892D01*
X024361Y003945D01*
X024410Y004063D01*
X024500Y004153D01*
X024834Y004487D01*
X024773Y004461D01*
X024590Y004461D01*
X024421Y004531D01*
X024291Y004661D01*
X024221Y004830D01*
X024221Y005533D01*
X024291Y005702D01*
X024300Y005710D01*
X023799Y006211D01*
X023504Y006211D01*
X023843Y005872D01*
X023942Y005831D01*
X024071Y005702D01*
X024141Y005533D01*
X024141Y004830D01*
X024071Y004661D01*
X023942Y004531D01*
X023773Y004461D01*
X023590Y004461D01*
X023421Y004531D01*
X023291Y004661D01*
X023221Y004830D01*
X023221Y005533D01*
X023238Y005572D01*
X023049Y005761D01*
X023012Y005761D01*
X023071Y005702D01*
X023141Y005533D01*
X023141Y004830D01*
X023071Y004661D01*
X023001Y004591D01*
X023001Y002192D01*
X023113Y002081D01*
X023113Y001482D01*
X022996Y001365D01*
X022436Y001365D01*
X022381Y001420D01*
X022326Y001365D01*
X021767Y001365D01*
X021671Y001461D01*
X021232Y001461D01*
X021162Y001391D01*
X020993Y001321D01*
X020290Y001321D01*
X020121Y001391D01*
X019991Y001521D01*
X019921Y001690D01*
X019921Y001873D01*
X019991Y002042D01*
X020121Y002171D01*
X020290Y002241D01*
X020993Y002241D01*
X021162Y002171D01*
X021232Y002101D01*
X021671Y002101D01*
X021767Y002198D01*
X022326Y002198D01*
X022361Y002163D01*
X022361Y004591D01*
X022291Y004661D01*
X022221Y004830D01*
X022221Y005533D01*
X022291Y005702D01*
X022351Y005761D01*
X021718Y005761D01*
X021600Y005810D01*
X021510Y005900D01*
X017410Y010000D01*
X017361Y010118D01*
X017361Y010245D01*
X017361Y010494D01*
X017258Y010598D01*
X017181Y010782D01*
X017181Y011581D01*
X017256Y011761D01*
X016814Y011761D01*
X016501Y011449D01*
X016501Y010514D01*
X019653Y007363D01*
X019701Y007245D01*
X019701Y007118D01*
X019701Y002318D01*
X019653Y002200D01*
X019563Y002110D01*
X018263Y000810D01*
X018145Y000761D01*
X018018Y000761D01*
X016318Y000761D01*
X016200Y000810D01*
X016110Y000900D01*
X015610Y001400D01*
X015561Y001518D01*
X015561Y001645D01*
X015561Y003349D01*
X015149Y003761D01*
X014657Y003761D01*
X014657Y003032D01*
X014540Y002914D01*
X013823Y002914D01*
X013706Y003032D01*
X013706Y003761D01*
X011592Y003761D01*
X011555Y003724D01*
X011555Y003239D01*
X011751Y003239D01*
X011868Y003122D01*
X011868Y002720D01*
X011819Y002671D01*
X011868Y002622D01*
X011868Y002220D01*
X011791Y002143D01*
X011796Y002138D01*
X011817Y002101D01*
X011828Y002061D01*
X011828Y001922D01*
X011235Y001922D01*
X011235Y001921D01*
X010642Y001921D01*
X010642Y001782D01*
X010653Y001742D01*
X010674Y001705D01*
X010679Y001700D01*
X010602Y001622D01*
X010602Y001220D01*
X010719Y001103D01*
X011751Y001103D01*
X011868Y001220D01*
X011868Y001622D01*
X011791Y001700D01*
X011796Y001705D01*
X011817Y001742D01*
X011828Y001782D01*
X011828Y001921D01*
X011235Y001921D01*
X011235Y001922D01*
X010642Y001922D01*
X010642Y002061D01*
X010653Y002101D01*
X010674Y002138D01*
X010679Y002143D01*
X010602Y002220D01*
X010602Y002622D01*
X010651Y002671D01*
X010602Y002720D01*
X010602Y003122D01*
X010719Y003239D01*
X010915Y003239D01*
X010915Y003686D01*
X010851Y003750D01*
X010825Y003735D01*
X010784Y003725D01*
X010585Y003725D01*
X010585Y004043D01*
X010508Y004043D01*
X010170Y004043D01*
X009855Y004043D01*
X009855Y004120D01*
X010170Y004120D01*
X010508Y004120D01*
X010508Y004043D01*
X010508Y003725D01*
X010309Y003725D01*
X010268Y003735D01*
X010232Y003757D01*
X010202Y003786D01*
X010181Y003822D01*
X010161Y003786D01*
X010131Y003757D01*
X010094Y003735D01*
X010054Y003725D01*
X009854Y003725D01*
X009854Y004043D01*
X009778Y004043D01*
X009778Y003725D01*
X009578Y003725D01*
X009538Y003735D01*
X009512Y003750D01*
X009508Y003746D01*
X009508Y003239D01*
X009704Y003239D01*
X009821Y003122D01*
X009821Y002720D01*
X009772Y002671D01*
X010650Y002671D01*
X010602Y002789D02*
X009821Y002789D01*
X009821Y002908D02*
X010602Y002908D01*
X010602Y003026D02*
X009821Y003026D01*
X009798Y003145D02*
X010625Y003145D01*
X010915Y003264D02*
X009508Y003264D01*
X009508Y003382D02*
X010915Y003382D01*
X010915Y003501D02*
X009508Y003501D01*
X009508Y003619D02*
X010915Y003619D01*
X010864Y003738D02*
X010829Y003738D01*
X010585Y003738D02*
X010508Y003738D01*
X010508Y003856D02*
X010585Y003856D01*
X010585Y003975D02*
X010508Y003975D01*
X010508Y004093D02*
X009855Y004093D01*
X009854Y004120D02*
X009778Y004120D01*
X009778Y004438D01*
X009578Y004438D01*
X009538Y004427D01*
X009512Y004412D01*
X009467Y004458D01*
X009467Y004914D01*
X010363Y005810D01*
X010453Y005900D01*
X010501Y006018D01*
X010501Y007100D01*
X011111Y007100D01*
X011258Y007161D01*
X011371Y007274D01*
X012236Y008139D01*
X012510Y008139D01*
X012767Y008245D01*
X012964Y008442D01*
X013070Y008700D01*
X013070Y008973D01*
X013079Y008981D01*
X013631Y008981D01*
X013631Y008949D01*
X013749Y008831D01*
X014614Y008831D01*
X014731Y008949D01*
X014731Y009021D01*
X015632Y009021D01*
X017202Y007451D01*
X017168Y007451D01*
X016711Y007451D01*
X016582Y007581D01*
X016387Y007661D01*
X016176Y007661D01*
X015981Y007581D01*
X015832Y007432D01*
X015751Y007237D01*
X015751Y007026D01*
X015799Y006911D01*
X015676Y006911D01*
X015481Y006831D01*
X015392Y006741D01*
X014599Y006741D01*
X014493Y006848D01*
X014291Y006931D01*
X014072Y006931D01*
X013870Y006848D01*
X013804Y006781D01*
X012150Y006781D01*
X011979Y006952D01*
X011722Y007059D01*
X011444Y007059D01*
X011186Y006952D01*
X010990Y006755D01*
X010883Y006498D01*
X010883Y006219D01*
X010990Y005962D01*
X011186Y005765D01*
X011444Y005659D01*
X011722Y005659D01*
X011979Y005765D01*
X012176Y005962D01*
X012184Y005981D01*
X013804Y005981D01*
X013870Y005915D01*
X014072Y005831D01*
X014291Y005831D01*
X014493Y005915D01*
X014599Y006021D01*
X015392Y006021D01*
X015481Y005932D01*
X015676Y005851D01*
X015887Y005851D01*
X016082Y005932D01*
X016231Y006081D01*
X016305Y006261D01*
X016327Y006193D01*
X016362Y006125D01*
X016408Y006062D01*
X016462Y006008D01*
X016525Y005962D01*
X016593Y005927D01*
X016667Y005903D01*
X016743Y005891D01*
X016781Y005891D01*
X016781Y006381D01*
X016782Y006381D01*
X016782Y006382D01*
X017271Y006382D01*
X017271Y006420D01*
X017259Y006496D01*
X017235Y006569D01*
X017200Y006638D01*
X017155Y006701D01*
X017101Y006755D01*
X017038Y006800D01*
X017017Y006811D01*
X017099Y006811D01*
X017696Y006214D01*
X017696Y005358D01*
X017681Y005343D01*
X017626Y005398D01*
X017067Y005398D01*
X016950Y005281D01*
X016950Y004682D01*
X017061Y004571D01*
X017061Y004241D01*
X016770Y004241D01*
X016601Y004171D01*
X016471Y004042D01*
X016401Y003873D01*
X016401Y003690D01*
X016471Y003521D01*
X016601Y003391D01*
X016770Y003321D01*
X017473Y003321D01*
X017642Y003391D01*
X017771Y003521D01*
X017841Y003690D01*
X017841Y003873D01*
X017771Y004042D01*
X017701Y004112D01*
X017701Y004600D01*
X017736Y004565D01*
X018221Y004565D01*
X018221Y003631D01*
X017732Y003141D01*
X017672Y003141D01*
X017642Y003171D01*
X017473Y003241D01*
X016770Y003241D01*
X016601Y003171D01*
X016471Y003042D01*
X016401Y002873D01*
X016401Y002690D01*
X016471Y002521D01*
X016601Y002391D01*
X016770Y002321D01*
X017473Y002321D01*
X017642Y002391D01*
X017672Y002421D01*
X017953Y002421D01*
X018085Y002476D01*
X018187Y002577D01*
X018887Y003277D01*
X018941Y003410D01*
X018941Y003553D01*
X018941Y006653D01*
X018887Y006785D01*
X018785Y006887D01*
X015985Y009687D01*
X015853Y009741D01*
X015710Y009741D01*
X014731Y009741D01*
X014731Y009814D01*
X014614Y009931D01*
X013749Y009931D01*
X013631Y009814D01*
X013631Y009781D01*
X012833Y009781D01*
X012770Y009755D01*
X012770Y010572D01*
X012709Y010719D01*
X012597Y010831D01*
X012283Y011146D01*
X012283Y011419D01*
X012176Y011676D01*
X011979Y011873D01*
X011722Y011980D01*
X011444Y011980D01*
X011186Y011873D01*
X010990Y011676D01*
X010883Y011419D01*
X010883Y011141D01*
X010990Y010883D01*
X011186Y010686D01*
X011444Y010580D01*
X011717Y010580D01*
X011970Y010327D01*
X011970Y009429D01*
X011777Y009235D01*
X011670Y008978D01*
X011670Y008705D01*
X010866Y007900D01*
X010202Y007900D01*
X009657Y007900D01*
X009657Y008331D01*
X009540Y008448D01*
X008823Y008448D01*
X008706Y008331D01*
X008706Y006669D01*
X008781Y006594D01*
X008781Y006447D01*
X006327Y003992D01*
X006266Y003845D01*
X006266Y003686D01*
X006266Y003415D01*
X006197Y003347D01*
X006113Y003144D01*
X006113Y002219D01*
X006197Y002016D01*
X006353Y001860D01*
X006556Y001776D01*
X006776Y001776D01*
X006979Y001860D01*
X007134Y002016D01*
X007218Y002219D01*
X007218Y003144D01*
X007134Y003347D01*
X007066Y003415D01*
X007066Y003600D01*
X009408Y005942D01*
X009520Y006055D01*
X009581Y006202D01*
X009581Y006594D01*
X009657Y006669D01*
X009657Y007100D01*
X009861Y007100D01*
X009861Y006214D01*
X008875Y005228D01*
X008827Y005110D01*
X008827Y004983D01*
X008827Y004458D01*
X008730Y004361D01*
X008730Y003802D01*
X008847Y003685D01*
X008868Y003685D01*
X008868Y003239D01*
X008672Y003239D01*
X008555Y003122D01*
X008555Y002720D01*
X008604Y002671D01*
X008555Y002622D01*
X008555Y002220D01*
X008604Y002171D01*
X008555Y002122D01*
X008555Y001720D01*
X008604Y001671D01*
X008555Y001622D01*
X008555Y001220D01*
X008672Y001103D01*
X009704Y001103D01*
X009821Y001220D01*
X009821Y001622D01*
X009772Y001671D01*
X009821Y001720D01*
X009821Y002122D01*
X009772Y002171D01*
X009821Y002220D01*
X009821Y002622D01*
X009772Y002671D01*
X009821Y002552D02*
X010602Y002552D01*
X010602Y002434D02*
X009821Y002434D01*
X009821Y002315D02*
X010602Y002315D01*
X010626Y002197D02*
X009797Y002197D01*
X009821Y002078D02*
X010647Y002078D01*
X010642Y001960D02*
X009821Y001960D01*
X009821Y001841D02*
X010642Y001841D01*
X010664Y001722D02*
X009821Y001722D01*
X009821Y001604D02*
X010602Y001604D01*
X010602Y001485D02*
X009821Y001485D01*
X009821Y001367D02*
X010602Y001367D01*
X010602Y001248D02*
X009821Y001248D01*
X009730Y001130D02*
X010693Y001130D01*
X011777Y001130D02*
X013746Y001130D01*
X013746Y001248D02*
X011868Y001248D01*
X011868Y001367D02*
X013746Y001367D01*
X014121Y001485D02*
X011868Y001485D01*
X011868Y001604D02*
X013746Y001604D01*
X013746Y001722D02*
X011806Y001722D01*
X011828Y001841D02*
X013746Y001841D01*
X013746Y001960D02*
X011828Y001960D01*
X011823Y002078D02*
X013746Y002078D01*
X013746Y002197D02*
X011844Y002197D01*
X011868Y002315D02*
X013760Y002315D01*
X014121Y002315D02*
X014241Y002315D01*
X014241Y002197D02*
X014121Y002197D01*
X014121Y002078D02*
X014241Y002078D01*
X014241Y001960D02*
X014121Y001960D01*
X014121Y001841D02*
X014241Y001841D01*
X014241Y001722D02*
X014121Y001722D01*
X014121Y001604D02*
X014241Y001604D01*
X014242Y001485D02*
X015575Y001485D01*
X015561Y001604D02*
X014617Y001604D01*
X014617Y001722D02*
X015561Y001722D01*
X015561Y001841D02*
X014617Y001841D01*
X014617Y001960D02*
X015561Y001960D01*
X015561Y002078D02*
X014617Y002078D01*
X014617Y002197D02*
X015561Y002197D01*
X015561Y002315D02*
X014603Y002315D01*
X015561Y002434D02*
X011868Y002434D01*
X011868Y002552D02*
X015561Y002552D01*
X015561Y002671D02*
X011820Y002671D01*
X011868Y002789D02*
X015561Y002789D01*
X015561Y002908D02*
X011868Y002908D01*
X011868Y003026D02*
X013711Y003026D01*
X013706Y003145D02*
X011845Y003145D01*
X011555Y003264D02*
X013706Y003264D01*
X013706Y003382D02*
X011555Y003382D01*
X011555Y003501D02*
X013706Y003501D01*
X013706Y003619D02*
X011555Y003619D01*
X011569Y003738D02*
X013706Y003738D01*
X014657Y003738D02*
X015173Y003738D01*
X015291Y003619D02*
X014657Y003619D01*
X014657Y003501D02*
X015410Y003501D01*
X015528Y003382D02*
X014657Y003382D01*
X014657Y003264D02*
X015561Y003264D01*
X015561Y003145D02*
X014657Y003145D01*
X014652Y003026D02*
X015561Y003026D01*
X016201Y003026D02*
X016465Y003026D01*
X016416Y002908D02*
X016201Y002908D01*
X016201Y002789D02*
X016401Y002789D01*
X016409Y002671D02*
X016201Y002671D01*
X016201Y002552D02*
X016458Y002552D01*
X016559Y002434D02*
X016201Y002434D01*
X016201Y002315D02*
X018863Y002315D01*
X018981Y002434D02*
X017983Y002434D01*
X018161Y002552D02*
X019061Y002552D01*
X019061Y002514D02*
X017949Y001401D01*
X017652Y001401D01*
X017771Y001521D01*
X017841Y001690D01*
X017841Y001873D01*
X017771Y002042D01*
X017642Y002171D01*
X017473Y002241D01*
X016770Y002241D01*
X016601Y002171D01*
X016471Y002042D01*
X016401Y001873D01*
X016401Y001690D01*
X016471Y001521D01*
X016591Y001401D01*
X016514Y001401D01*
X016201Y001714D01*
X016201Y003545D01*
X016153Y003663D01*
X016063Y003753D01*
X015463Y004353D01*
X015345Y004401D01*
X015218Y004401D01*
X014657Y004401D01*
X014657Y004693D01*
X014540Y004811D01*
X013823Y004811D01*
X013706Y004693D01*
X013706Y004401D01*
X011592Y004401D01*
X011515Y004478D01*
X010917Y004478D01*
X010851Y004412D01*
X010825Y004427D01*
X010784Y004438D01*
X010585Y004438D01*
X010585Y004120D01*
X010508Y004120D01*
X010508Y004438D01*
X010309Y004438D01*
X010268Y004427D01*
X010232Y004406D01*
X010202Y004376D01*
X010181Y004340D01*
X010161Y004376D01*
X010131Y004406D01*
X010094Y004427D01*
X010054Y004438D01*
X009854Y004438D01*
X009854Y004120D01*
X009854Y004212D02*
X009778Y004212D01*
X009778Y004330D02*
X009854Y004330D01*
X009475Y004449D02*
X010887Y004449D01*
X010585Y004330D02*
X010508Y004330D01*
X010508Y004212D02*
X010585Y004212D01*
X009854Y003975D02*
X009778Y003975D01*
X009778Y003856D02*
X009854Y003856D01*
X009854Y003738D02*
X009778Y003738D01*
X009534Y003738D02*
X009508Y003738D01*
X010098Y003738D02*
X010265Y003738D01*
X008868Y003619D02*
X007085Y003619D01*
X007066Y003501D02*
X008868Y003501D01*
X008868Y003382D02*
X007099Y003382D01*
X007169Y003264D02*
X008868Y003264D01*
X008577Y003145D02*
X007218Y003145D01*
X007218Y003026D02*
X008555Y003026D01*
X008555Y002908D02*
X007218Y002908D01*
X007218Y002789D02*
X008555Y002789D01*
X008603Y002671D02*
X007218Y002671D01*
X007218Y002552D02*
X008555Y002552D01*
X008555Y002434D02*
X007218Y002434D01*
X007218Y002315D02*
X008555Y002315D01*
X008579Y002197D02*
X007209Y002197D01*
X007160Y002078D02*
X008555Y002078D01*
X008555Y001960D02*
X007078Y001960D01*
X006932Y001841D02*
X008555Y001841D01*
X008555Y001722D02*
X002456Y001722D01*
X002481Y001626D02*
X002406Y001906D01*
X002262Y002157D01*
X002057Y002362D01*
X001806Y002506D01*
X001526Y002581D01*
X001237Y002581D01*
X000957Y002506D01*
X000721Y002370D01*
X000721Y010592D01*
X000957Y010456D01*
X001237Y010381D01*
X001526Y010381D01*
X001806Y010456D01*
X002057Y010601D01*
X002262Y010806D01*
X002406Y011057D01*
X002481Y011337D01*
X002481Y011626D01*
X002406Y011906D01*
X002270Y012141D01*
X016289Y012141D01*
X015910Y011763D01*
X015861Y011645D01*
X015861Y011518D01*
X015861Y010318D01*
X015910Y010200D01*
X016000Y010110D01*
X019061Y007049D01*
X019061Y002514D01*
X019061Y002671D02*
X018280Y002671D01*
X018398Y002789D02*
X019061Y002789D01*
X019061Y002908D02*
X018517Y002908D01*
X018636Y003026D02*
X019061Y003026D01*
X019061Y003145D02*
X018754Y003145D01*
X018873Y003264D02*
X019061Y003264D01*
X019061Y003382D02*
X018930Y003382D01*
X018941Y003501D02*
X019061Y003501D01*
X019061Y003619D02*
X018941Y003619D01*
X018941Y003738D02*
X019061Y003738D01*
X019061Y003856D02*
X018941Y003856D01*
X018941Y003975D02*
X019061Y003975D01*
X019061Y004093D02*
X018941Y004093D01*
X018941Y004212D02*
X019061Y004212D01*
X019061Y004330D02*
X018941Y004330D01*
X018941Y004449D02*
X019061Y004449D01*
X019061Y004568D02*
X018941Y004568D01*
X018941Y004686D02*
X019061Y004686D01*
X019061Y004805D02*
X018941Y004805D01*
X018941Y004923D02*
X019061Y004923D01*
X019061Y005042D02*
X018941Y005042D01*
X018941Y005160D02*
X019061Y005160D01*
X019061Y005279D02*
X018941Y005279D01*
X018941Y005397D02*
X019061Y005397D01*
X019061Y005516D02*
X018941Y005516D01*
X018941Y005634D02*
X019061Y005634D01*
X019061Y005753D02*
X018941Y005753D01*
X018941Y005871D02*
X019061Y005871D01*
X019061Y005990D02*
X018941Y005990D01*
X018941Y006109D02*
X019061Y006109D01*
X019061Y006227D02*
X018941Y006227D01*
X018941Y006346D02*
X019061Y006346D01*
X019061Y006464D02*
X018941Y006464D01*
X018941Y006583D02*
X019061Y006583D01*
X019061Y006701D02*
X018921Y006701D01*
X018852Y006820D02*
X019061Y006820D01*
X019061Y006938D02*
X018734Y006938D01*
X018785Y006887D02*
X018785Y006887D01*
X018615Y007057D02*
X019053Y007057D01*
X018935Y007175D02*
X018496Y007175D01*
X018378Y007294D02*
X018816Y007294D01*
X018698Y007413D02*
X018259Y007413D01*
X018141Y007531D02*
X018579Y007531D01*
X018461Y007650D02*
X018022Y007650D01*
X017904Y007768D02*
X018342Y007768D01*
X018224Y007887D02*
X017785Y007887D01*
X017667Y008005D02*
X018105Y008005D01*
X017986Y008124D02*
X017548Y008124D01*
X017430Y008242D02*
X017868Y008242D01*
X017749Y008361D02*
X017311Y008361D01*
X017192Y008479D02*
X017631Y008479D01*
X017512Y008598D02*
X017074Y008598D01*
X016955Y008717D02*
X017394Y008717D01*
X017275Y008835D02*
X016837Y008835D01*
X016718Y008954D02*
X017157Y008954D01*
X017038Y009072D02*
X016600Y009072D01*
X016481Y009191D02*
X016920Y009191D01*
X016801Y009309D02*
X016363Y009309D01*
X016244Y009428D02*
X016682Y009428D01*
X016564Y009546D02*
X016126Y009546D01*
X016007Y009665D02*
X016445Y009665D01*
X016327Y009783D02*
X014731Y009783D01*
X014644Y009902D02*
X016208Y009902D01*
X016090Y010021D02*
X012770Y010021D01*
X012770Y010139D02*
X015971Y010139D01*
X015886Y010258D02*
X012770Y010258D01*
X012770Y010376D02*
X015861Y010376D01*
X015861Y010495D02*
X012770Y010495D01*
X012753Y010613D02*
X015861Y010613D01*
X015861Y010732D02*
X012697Y010732D01*
X012578Y010850D02*
X015861Y010850D01*
X015861Y010969D02*
X012460Y010969D01*
X012341Y011087D02*
X015861Y011087D01*
X015861Y011206D02*
X012283Y011206D01*
X012283Y011324D02*
X015861Y011324D01*
X015861Y011443D02*
X012273Y011443D01*
X012224Y011562D02*
X015861Y011562D01*
X015876Y011680D02*
X012173Y011680D01*
X012054Y011799D02*
X015946Y011799D01*
X016065Y011917D02*
X011873Y011917D01*
X011293Y011917D02*
X007070Y011917D01*
X007176Y011873D02*
X006919Y011980D01*
X006641Y011980D01*
X006383Y011873D01*
X006186Y011676D01*
X006080Y011419D01*
X006080Y011141D01*
X006186Y010883D01*
X006383Y010686D01*
X006641Y010580D01*
X006919Y010580D01*
X007176Y010686D01*
X007373Y010883D01*
X007480Y011141D01*
X007480Y011419D01*
X007373Y011676D01*
X007176Y011873D01*
X007251Y011799D02*
X011112Y011799D01*
X010993Y011680D02*
X007369Y011680D01*
X007421Y011562D02*
X010942Y011562D01*
X010893Y011443D02*
X007470Y011443D01*
X007480Y011324D02*
X010883Y011324D01*
X010883Y011206D02*
X007480Y011206D01*
X007458Y011087D02*
X010905Y011087D01*
X010954Y010969D02*
X007409Y010969D01*
X007340Y010850D02*
X011023Y010850D01*
X011141Y010732D02*
X009562Y010732D01*
X009555Y010739D02*
X009519Y010760D01*
X009478Y010771D01*
X009241Y010771D01*
X009241Y009923D01*
X009121Y009923D01*
X009121Y010771D01*
X008885Y010771D01*
X008844Y010760D01*
X008808Y010739D01*
X008778Y010709D01*
X008757Y010672D01*
X008746Y010632D01*
X008746Y009922D01*
X009121Y009922D01*
X009121Y009803D01*
X008746Y009803D01*
X008746Y009093D01*
X008757Y009053D01*
X008778Y009016D01*
X008808Y008986D01*
X008844Y008965D01*
X008885Y008954D01*
X009121Y008954D01*
X009121Y009802D01*
X009241Y009802D01*
X009241Y008954D01*
X009478Y008954D01*
X009519Y008965D01*
X009555Y008986D01*
X009585Y009016D01*
X009606Y009053D01*
X009617Y009093D01*
X009617Y009803D01*
X009242Y009803D01*
X009242Y009922D01*
X009617Y009922D01*
X009617Y010632D01*
X009606Y010672D01*
X009585Y010709D01*
X009555Y010739D01*
X009617Y010613D02*
X011363Y010613D01*
X011802Y010495D02*
X009617Y010495D01*
X009617Y010376D02*
X011921Y010376D01*
X011970Y010258D02*
X009617Y010258D01*
X009617Y010139D02*
X011970Y010139D01*
X011970Y010021D02*
X009617Y010021D01*
X009241Y010021D02*
X009121Y010021D01*
X009121Y010139D02*
X009241Y010139D01*
X009241Y010258D02*
X009121Y010258D01*
X009121Y010376D02*
X009241Y010376D01*
X009241Y010495D02*
X009121Y010495D01*
X009121Y010613D02*
X009241Y010613D01*
X009241Y010732D02*
X009121Y010732D01*
X008801Y010732D02*
X007222Y010732D01*
X007000Y010613D02*
X008746Y010613D01*
X008746Y010495D02*
X001872Y010495D01*
X002069Y010613D02*
X006560Y010613D01*
X006338Y010732D02*
X002187Y010732D01*
X002287Y010850D02*
X006219Y010850D01*
X006151Y010969D02*
X002356Y010969D01*
X002415Y011087D02*
X006102Y011087D01*
X006080Y011206D02*
X002446Y011206D01*
X002478Y011324D02*
X006080Y011324D01*
X006090Y011443D02*
X002481Y011443D01*
X002481Y011562D02*
X006139Y011562D01*
X006190Y011680D02*
X002467Y011680D01*
X002435Y011799D02*
X006309Y011799D01*
X006489Y011917D02*
X002400Y011917D01*
X002331Y012036D02*
X016183Y012036D01*
X016733Y011680D02*
X017223Y011680D01*
X017181Y011562D02*
X016614Y011562D01*
X016501Y011443D02*
X017181Y011443D01*
X017181Y011324D02*
X016501Y011324D01*
X016501Y011206D02*
X017181Y011206D01*
X017181Y011087D02*
X016501Y011087D01*
X016501Y010969D02*
X017181Y010969D01*
X017181Y010850D02*
X016501Y010850D01*
X016501Y010732D02*
X017202Y010732D01*
X017251Y010613D02*
X016501Y010613D01*
X016521Y010495D02*
X017361Y010495D01*
X017361Y010376D02*
X016639Y010376D01*
X016758Y010258D02*
X017361Y010258D01*
X017361Y010139D02*
X016876Y010139D01*
X016995Y010021D02*
X017402Y010021D01*
X017508Y009902D02*
X017113Y009902D01*
X017232Y009783D02*
X017627Y009783D01*
X017745Y009665D02*
X017350Y009665D01*
X017469Y009546D02*
X017864Y009546D01*
X017982Y009428D02*
X017588Y009428D01*
X017706Y009309D02*
X018101Y009309D01*
X018220Y009191D02*
X017825Y009191D01*
X017943Y009072D02*
X018338Y009072D01*
X018457Y008954D02*
X018062Y008954D01*
X018180Y008835D02*
X018575Y008835D01*
X018694Y008717D02*
X018299Y008717D01*
X018417Y008598D02*
X018812Y008598D01*
X018931Y008479D02*
X018536Y008479D01*
X018654Y008361D02*
X019049Y008361D01*
X019168Y008242D02*
X018773Y008242D01*
X018892Y008124D02*
X019286Y008124D01*
X019405Y008005D02*
X019010Y008005D01*
X019129Y007887D02*
X019524Y007887D01*
X019642Y007768D02*
X019247Y007768D01*
X019366Y007650D02*
X019761Y007650D01*
X019879Y007531D02*
X019484Y007531D01*
X019603Y007413D02*
X019998Y007413D01*
X020116Y007294D02*
X019681Y007294D01*
X019701Y007175D02*
X020235Y007175D01*
X020353Y007057D02*
X019701Y007057D01*
X019701Y006938D02*
X020472Y006938D01*
X020590Y006820D02*
X019701Y006820D01*
X019701Y006701D02*
X020709Y006701D01*
X020827Y006583D02*
X019701Y006583D01*
X019701Y006464D02*
X020946Y006464D01*
X021065Y006346D02*
X019701Y006346D01*
X019701Y006227D02*
X021183Y006227D01*
X021302Y006109D02*
X019701Y006109D01*
X019701Y005990D02*
X021420Y005990D01*
X021539Y005871D02*
X019701Y005871D01*
X019701Y005753D02*
X022342Y005753D01*
X022264Y005634D02*
X019701Y005634D01*
X019701Y005516D02*
X022221Y005516D01*
X022221Y005397D02*
X019701Y005397D01*
X019701Y005279D02*
X022221Y005279D01*
X022221Y005160D02*
X019701Y005160D01*
X019701Y005042D02*
X022221Y005042D01*
X022221Y004923D02*
X019701Y004923D01*
X019701Y004805D02*
X022232Y004805D01*
X022281Y004686D02*
X019701Y004686D01*
X019701Y004568D02*
X022361Y004568D01*
X022361Y004449D02*
X019701Y004449D01*
X019701Y004330D02*
X022361Y004330D01*
X022361Y004212D02*
X021064Y004212D01*
X020993Y004241D02*
X021162Y004171D01*
X021291Y004042D01*
X021361Y003873D01*
X021361Y003690D01*
X021291Y003521D01*
X021162Y003391D01*
X020993Y003321D01*
X020290Y003321D01*
X020121Y003391D01*
X019991Y003521D01*
X019921Y003690D01*
X019921Y003873D01*
X019991Y004042D01*
X020121Y004171D01*
X020290Y004241D01*
X020993Y004241D01*
X021240Y004093D02*
X022361Y004093D01*
X022361Y003975D02*
X021319Y003975D01*
X021361Y003856D02*
X022361Y003856D01*
X022361Y003738D02*
X021361Y003738D01*
X021332Y003619D02*
X022361Y003619D01*
X022361Y003501D02*
X021271Y003501D01*
X021139Y003382D02*
X022361Y003382D01*
X022361Y003264D02*
X019701Y003264D01*
X019701Y003382D02*
X020143Y003382D01*
X020012Y003501D02*
X019701Y003501D01*
X019701Y003619D02*
X019951Y003619D01*
X019921Y003738D02*
X019701Y003738D01*
X019701Y003856D02*
X019921Y003856D01*
X019964Y003975D02*
X019701Y003975D01*
X019701Y004093D02*
X020043Y004093D01*
X020219Y004212D02*
X019701Y004212D01*
X018221Y004212D02*
X017701Y004212D01*
X017701Y004330D02*
X018221Y004330D01*
X018221Y004449D02*
X017701Y004449D01*
X017701Y004568D02*
X017734Y004568D01*
X017061Y004568D02*
X014657Y004568D01*
X014657Y004686D02*
X016950Y004686D01*
X016950Y004805D02*
X014546Y004805D01*
X013817Y004805D02*
X009467Y004805D01*
X009476Y004923D02*
X016950Y004923D01*
X016950Y005042D02*
X009594Y005042D01*
X009713Y005160D02*
X016950Y005160D01*
X016950Y005279D02*
X009831Y005279D01*
X009950Y005397D02*
X017066Y005397D01*
X017627Y005397D02*
X017696Y005397D01*
X017696Y005516D02*
X010068Y005516D01*
X010187Y005634D02*
X017696Y005634D01*
X017696Y005753D02*
X011950Y005753D01*
X012086Y005871D02*
X013975Y005871D01*
X014388Y005871D02*
X015627Y005871D01*
X015423Y005990D02*
X014568Y005990D01*
X015935Y005871D02*
X017696Y005871D01*
X017696Y005990D02*
X017076Y005990D01*
X017101Y006008D02*
X017155Y006062D01*
X017200Y006125D01*
X017235Y006193D01*
X017259Y006267D01*
X017271Y006343D01*
X017271Y006381D01*
X016782Y006381D01*
X016782Y005891D01*
X016820Y005891D01*
X016896Y005903D01*
X016969Y005927D01*
X017038Y005962D01*
X017101Y006008D01*
X017189Y006109D02*
X017696Y006109D01*
X017683Y006227D02*
X017246Y006227D01*
X017271Y006346D02*
X017565Y006346D01*
X017446Y006464D02*
X017264Y006464D01*
X017229Y006583D02*
X017327Y006583D01*
X017209Y006701D02*
X017154Y006701D01*
X016781Y006346D02*
X016782Y006346D01*
X016781Y006227D02*
X016782Y006227D01*
X016781Y006109D02*
X016782Y006109D01*
X016781Y005990D02*
X016782Y005990D01*
X016486Y005990D02*
X016140Y005990D01*
X016242Y006109D02*
X016374Y006109D01*
X016316Y006227D02*
X016291Y006227D01*
X015470Y006820D02*
X014521Y006820D01*
X013842Y006820D02*
X012112Y006820D01*
X011993Y006938D02*
X015788Y006938D01*
X015751Y007057D02*
X011726Y007057D01*
X011440Y007057D02*
X010501Y007057D01*
X010501Y006938D02*
X011173Y006938D01*
X011054Y006820D02*
X010501Y006820D01*
X010501Y006701D02*
X010967Y006701D01*
X010918Y006583D02*
X010501Y006583D01*
X010501Y006464D02*
X010883Y006464D01*
X010883Y006346D02*
X010501Y006346D01*
X010501Y006227D02*
X010883Y006227D01*
X010929Y006109D02*
X010501Y006109D01*
X010490Y005990D02*
X010978Y005990D01*
X011080Y005871D02*
X010424Y005871D01*
X010306Y005753D02*
X011216Y005753D01*
X009861Y006227D02*
X009581Y006227D01*
X009581Y006346D02*
X009861Y006346D01*
X009861Y006464D02*
X009581Y006464D01*
X009581Y006583D02*
X009861Y006583D01*
X009861Y006701D02*
X009657Y006701D01*
X009657Y006820D02*
X009861Y006820D01*
X009861Y006938D02*
X009657Y006938D01*
X009657Y007057D02*
X009861Y007057D01*
X008706Y007057D02*
X006923Y007057D01*
X006919Y007059D02*
X006646Y007059D01*
X005699Y008005D01*
X005552Y008066D01*
X005393Y008066D01*
X003415Y008066D01*
X003347Y008134D01*
X003144Y008218D01*
X002219Y008218D01*
X002016Y008134D01*
X001860Y007979D01*
X001776Y007776D01*
X001776Y007556D01*
X001860Y007353D01*
X002016Y007197D01*
X002219Y007113D01*
X003144Y007113D01*
X003347Y007197D01*
X003415Y007266D01*
X005307Y007266D01*
X006080Y006493D01*
X006080Y006219D01*
X006186Y005962D01*
X006383Y005765D01*
X006641Y005659D01*
X006919Y005659D01*
X007176Y005765D01*
X007373Y005962D01*
X007480Y006219D01*
X007480Y006498D01*
X007373Y006755D01*
X007176Y006952D01*
X006919Y007059D01*
X007190Y006938D02*
X008706Y006938D01*
X008706Y006820D02*
X007308Y006820D01*
X007396Y006701D02*
X008706Y006701D01*
X008781Y006583D02*
X007445Y006583D01*
X007480Y006464D02*
X008781Y006464D01*
X008680Y006346D02*
X007480Y006346D01*
X007480Y006227D02*
X008561Y006227D01*
X008443Y006109D02*
X007434Y006109D01*
X007385Y005990D02*
X008324Y005990D01*
X008206Y005871D02*
X007283Y005871D01*
X007147Y005753D02*
X008087Y005753D01*
X007969Y005634D02*
X003543Y005634D01*
X003544Y005640D02*
X002739Y005640D01*
X002739Y005755D01*
X002624Y005755D01*
X002624Y006210D01*
X002289Y006210D01*
X002209Y006197D01*
X002132Y006172D01*
X002060Y006135D01*
X001995Y006088D01*
X001938Y006031D01*
X001891Y005966D01*
X001854Y005894D01*
X001829Y005817D01*
X001819Y005755D01*
X002624Y005755D01*
X002624Y005640D01*
X001819Y005640D01*
X001829Y005577D01*
X001854Y005500D01*
X001891Y005429D01*
X001938Y005363D01*
X001995Y005306D01*
X002060Y005259D01*
X002132Y005222D01*
X002209Y005197D01*
X002289Y005185D01*
X002624Y005185D01*
X002624Y005639D01*
X002739Y005639D01*
X002739Y005185D01*
X003074Y005185D01*
X003154Y005197D01*
X003231Y005222D01*
X003303Y005259D01*
X003368Y005306D01*
X003425Y005363D01*
X003472Y005429D01*
X003509Y005500D01*
X003534Y005577D01*
X003544Y005640D01*
X003544Y005755D02*
X003534Y005817D01*
X003509Y005894D01*
X003472Y005966D01*
X003425Y006031D01*
X003368Y006088D01*
X003303Y006135D01*
X003231Y006172D01*
X003154Y006197D01*
X003074Y006210D01*
X002739Y006210D01*
X002739Y005755D01*
X003544Y005755D01*
X003516Y005871D02*
X006277Y005871D01*
X006175Y005990D02*
X003455Y005990D01*
X003340Y006109D02*
X006126Y006109D01*
X006080Y006227D02*
X000721Y006227D01*
X000721Y006109D02*
X002023Y006109D01*
X001908Y005990D02*
X000721Y005990D01*
X000721Y005871D02*
X001847Y005871D01*
X001820Y005634D02*
X000721Y005634D01*
X000721Y005516D02*
X001849Y005516D01*
X001913Y005397D02*
X000721Y005397D01*
X000721Y005279D02*
X002033Y005279D01*
X002624Y005279D02*
X002739Y005279D01*
X002739Y005397D02*
X002624Y005397D01*
X002624Y005516D02*
X002739Y005516D01*
X002739Y005634D02*
X002624Y005634D01*
X002624Y005753D02*
X000721Y005753D01*
X000721Y006346D02*
X006080Y006346D01*
X006080Y006464D02*
X000721Y006464D01*
X000721Y006583D02*
X005990Y006583D01*
X005871Y006701D02*
X000721Y006701D01*
X000721Y006820D02*
X005753Y006820D01*
X005634Y006938D02*
X000721Y006938D01*
X000721Y007057D02*
X005516Y007057D01*
X005397Y007175D02*
X003294Y007175D01*
X002068Y007175D02*
X000721Y007175D01*
X000721Y007294D02*
X001919Y007294D01*
X001836Y007413D02*
X000721Y007413D01*
X000721Y007531D02*
X001787Y007531D01*
X001776Y007650D02*
X000721Y007650D01*
X000721Y007768D02*
X001776Y007768D01*
X001822Y007887D02*
X000721Y007887D01*
X000721Y008005D02*
X001887Y008005D01*
X002006Y008124D02*
X000721Y008124D01*
X000721Y008242D02*
X008706Y008242D01*
X008706Y008124D02*
X003357Y008124D01*
X005698Y008005D02*
X008706Y008005D01*
X008706Y007887D02*
X005817Y007887D01*
X005936Y007768D02*
X008706Y007768D01*
X008706Y007650D02*
X006054Y007650D01*
X006173Y007531D02*
X008706Y007531D01*
X008706Y007413D02*
X006291Y007413D01*
X006410Y007294D02*
X008706Y007294D01*
X008706Y007175D02*
X006529Y007175D01*
X008736Y008361D02*
X000721Y008361D01*
X000721Y008479D02*
X011445Y008479D01*
X011327Y008361D02*
X009627Y008361D01*
X009657Y008242D02*
X011208Y008242D01*
X011090Y008124D02*
X009657Y008124D01*
X009657Y008005D02*
X010971Y008005D01*
X011628Y007531D02*
X015932Y007531D01*
X015824Y007413D02*
X011510Y007413D01*
X011391Y007294D02*
X015775Y007294D01*
X015751Y007175D02*
X011273Y007175D01*
X011747Y007650D02*
X016148Y007650D01*
X016415Y007650D02*
X017004Y007650D01*
X016886Y007768D02*
X011865Y007768D01*
X011984Y007887D02*
X016767Y007887D01*
X016648Y008005D02*
X012102Y008005D01*
X012221Y008124D02*
X016530Y008124D01*
X016411Y008242D02*
X012759Y008242D01*
X012882Y008361D02*
X016293Y008361D01*
X016174Y008479D02*
X012979Y008479D01*
X013028Y008598D02*
X016056Y008598D01*
X015937Y008717D02*
X013070Y008717D01*
X013070Y008835D02*
X013745Y008835D01*
X013631Y008954D02*
X013070Y008954D01*
X011969Y009428D02*
X009617Y009428D01*
X009617Y009546D02*
X011970Y009546D01*
X011970Y009665D02*
X009617Y009665D01*
X009617Y009783D02*
X011970Y009783D01*
X011970Y009902D02*
X009242Y009902D01*
X009241Y009783D02*
X009121Y009783D01*
X009121Y009665D02*
X009241Y009665D01*
X009241Y009546D02*
X009121Y009546D01*
X009121Y009428D02*
X009241Y009428D01*
X009241Y009309D02*
X009121Y009309D01*
X009121Y009191D02*
X009241Y009191D01*
X009241Y009072D02*
X009121Y009072D01*
X008751Y009072D02*
X000721Y009072D01*
X000721Y008954D02*
X011670Y008954D01*
X011670Y008835D02*
X000721Y008835D01*
X000721Y008717D02*
X011670Y008717D01*
X011564Y008598D02*
X000721Y008598D01*
X000721Y009191D02*
X008746Y009191D01*
X008746Y009309D02*
X000721Y009309D01*
X000721Y009428D02*
X008746Y009428D01*
X008746Y009546D02*
X000721Y009546D01*
X000721Y009665D02*
X008746Y009665D01*
X008746Y009783D02*
X000721Y009783D01*
X000721Y009902D02*
X009121Y009902D01*
X008746Y010021D02*
X000721Y010021D01*
X000721Y010139D02*
X008746Y010139D01*
X008746Y010258D02*
X000721Y010258D01*
X000721Y010376D02*
X008746Y010376D01*
X009617Y009309D02*
X011851Y009309D01*
X011758Y009191D02*
X009617Y009191D01*
X009611Y009072D02*
X011709Y009072D01*
X012770Y009783D02*
X013631Y009783D01*
X013719Y009902D02*
X012770Y009902D01*
X014731Y008954D02*
X015700Y008954D01*
X015819Y008835D02*
X014618Y008835D01*
X016631Y007531D02*
X017123Y007531D01*
X020280Y008835D02*
X022430Y008835D01*
X022421Y008831D02*
X022291Y008702D01*
X022221Y008533D01*
X022221Y007830D01*
X022291Y007661D01*
X022361Y007591D01*
X022361Y007345D01*
X022361Y007218D01*
X022410Y007100D01*
X022659Y006851D01*
X022264Y006851D01*
X019001Y010114D01*
X019001Y010494D01*
X019105Y010598D01*
X019181Y010782D01*
X019181Y011581D01*
X019107Y011761D01*
X019256Y011761D01*
X019181Y011581D01*
X019181Y010782D01*
X019258Y010598D01*
X019398Y010458D01*
X019582Y010381D01*
X019781Y010381D01*
X019965Y010458D01*
X020105Y010598D01*
X020181Y010782D01*
X020181Y011581D01*
X020107Y011761D01*
X020316Y011761D01*
X020288Y011722D01*
X020255Y011658D01*
X020233Y011589D01*
X020221Y011518D01*
X020221Y011221D01*
X020641Y011221D01*
X020641Y011141D01*
X020721Y011141D01*
X020721Y010422D01*
X020789Y010433D01*
X020858Y010455D01*
X020922Y010488D01*
X020981Y010531D01*
X021032Y010582D01*
X021075Y010640D01*
X021108Y010705D01*
X021130Y010774D01*
X021141Y010845D01*
X021141Y011141D01*
X020722Y011141D01*
X020722Y011221D01*
X021141Y011221D01*
X021141Y011518D01*
X021130Y011589D01*
X021108Y011658D01*
X021075Y011722D01*
X021046Y011761D01*
X022256Y011761D01*
X022181Y011581D01*
X022181Y010782D01*
X022258Y010598D01*
X022361Y010494D01*
X022361Y009745D01*
X022361Y009618D01*
X022410Y009500D01*
X022861Y009049D01*
X022861Y008865D01*
X022773Y008901D01*
X022590Y008901D01*
X022421Y008831D01*
X022306Y008717D02*
X020399Y008717D01*
X020517Y008598D02*
X022248Y008598D01*
X022221Y008479D02*
X020636Y008479D01*
X020754Y008361D02*
X022221Y008361D01*
X022221Y008242D02*
X020873Y008242D01*
X020992Y008124D02*
X022221Y008124D01*
X022221Y008005D02*
X021110Y008005D01*
X021229Y007887D02*
X022221Y007887D01*
X022247Y007768D02*
X021347Y007768D01*
X021466Y007650D02*
X022303Y007650D01*
X022361Y007531D02*
X021584Y007531D01*
X021703Y007413D02*
X022361Y007413D01*
X022361Y007294D02*
X021821Y007294D01*
X021940Y007175D02*
X022379Y007175D01*
X022453Y007057D02*
X022058Y007057D01*
X022177Y006938D02*
X022572Y006938D01*
X023607Y006109D02*
X023902Y006109D01*
X024020Y005990D02*
X023725Y005990D01*
X023845Y005871D02*
X024139Y005871D01*
X024257Y005753D02*
X024020Y005753D01*
X024099Y005634D02*
X024264Y005634D01*
X024221Y005516D02*
X024141Y005516D01*
X024141Y005397D02*
X024221Y005397D01*
X024221Y005279D02*
X024141Y005279D01*
X024141Y005160D02*
X024221Y005160D01*
X024221Y005042D02*
X024141Y005042D01*
X024141Y004923D02*
X024221Y004923D01*
X024232Y004805D02*
X024131Y004805D01*
X024082Y004686D02*
X024281Y004686D01*
X024385Y004568D02*
X023978Y004568D01*
X023385Y004568D02*
X023001Y004568D01*
X023001Y004449D02*
X024796Y004449D01*
X024678Y004330D02*
X023001Y004330D01*
X023001Y004212D02*
X024559Y004212D01*
X024441Y004093D02*
X023001Y004093D01*
X023001Y003975D02*
X024374Y003975D01*
X024325Y003856D02*
X023001Y003856D01*
X023001Y003738D02*
X024265Y003738D01*
X024265Y003619D02*
X023001Y003619D01*
X023001Y003501D02*
X024265Y003501D01*
X024265Y003382D02*
X023001Y003382D01*
X023001Y003264D02*
X024265Y003264D01*
X024283Y003145D02*
X023001Y003145D01*
X023001Y003026D02*
X024265Y003026D01*
X024265Y002908D02*
X023001Y002908D01*
X023001Y002789D02*
X024265Y002789D01*
X024265Y002671D02*
X023001Y002671D01*
X023001Y002552D02*
X024280Y002552D01*
X024361Y002434D02*
X023001Y002434D01*
X023001Y002315D02*
X024308Y002315D01*
X024229Y002197D02*
X023001Y002197D01*
X023113Y002078D02*
X024181Y002078D01*
X024181Y001960D02*
X023113Y001960D01*
X023113Y001841D02*
X024181Y001841D01*
X024181Y001722D02*
X023113Y001722D01*
X023113Y001604D02*
X024181Y001604D01*
X024181Y001485D02*
X023113Y001485D01*
X022998Y001367D02*
X024181Y001367D01*
X024195Y001248D02*
X018701Y001248D01*
X018582Y001130D02*
X024244Y001130D01*
X024344Y001011D02*
X018464Y001011D01*
X018345Y000893D02*
X024555Y000893D01*
X024808Y000893D02*
X025555Y000893D01*
X025344Y001011D02*
X025018Y001011D01*
X025118Y001130D02*
X025244Y001130D01*
X025195Y001248D02*
X025167Y001248D01*
X025181Y001367D02*
X025181Y001367D01*
X025181Y001485D02*
X025181Y001485D01*
X025181Y001604D02*
X025181Y001604D01*
X025181Y001722D02*
X025181Y001722D01*
X025181Y001841D02*
X025181Y001841D01*
X025181Y001960D02*
X025181Y001960D01*
X025181Y002078D02*
X025181Y002078D01*
X025133Y002197D02*
X025229Y002197D01*
X025308Y002315D02*
X025055Y002315D01*
X025001Y002434D02*
X025361Y002434D01*
X025406Y002552D02*
X025083Y002552D01*
X025098Y002671D02*
X025518Y002671D01*
X025637Y002789D02*
X025098Y002789D01*
X025098Y002908D02*
X025755Y002908D01*
X025874Y003026D02*
X025098Y003026D01*
X025079Y003145D02*
X025992Y003145D01*
X026111Y003264D02*
X025098Y003264D01*
X025098Y003382D02*
X026230Y003382D01*
X026348Y003501D02*
X025098Y003501D01*
X025098Y003619D02*
X026467Y003619D01*
X026585Y003738D02*
X025098Y003738D01*
X025109Y003856D02*
X026704Y003856D01*
X026822Y003975D02*
X025227Y003975D01*
X025346Y004093D02*
X026941Y004093D01*
X027059Y004212D02*
X025458Y004212D01*
X025501Y004330D02*
X027778Y004330D01*
X027861Y004449D02*
X025501Y004449D01*
X025978Y004568D02*
X026454Y004568D01*
X026461Y004562D02*
X026520Y004532D01*
X026583Y004512D01*
X026648Y004501D01*
X026661Y004501D01*
X026661Y005161D01*
X026701Y005161D01*
X026701Y004501D01*
X026714Y004501D01*
X026780Y004512D01*
X026843Y004532D01*
X026902Y004562D01*
X026955Y004601D01*
X027002Y004648D01*
X027041Y004701D01*
X027071Y004760D01*
X027091Y004823D01*
X027101Y004888D01*
X027101Y005161D01*
X026702Y005161D01*
X026702Y005201D01*
X027101Y005201D01*
X027101Y005474D01*
X027091Y005540D01*
X027071Y005603D01*
X027041Y005662D01*
X027002Y005715D01*
X026955Y005762D01*
X026902Y005801D01*
X026843Y005831D01*
X026780Y005851D01*
X026714Y005861D01*
X026701Y005861D01*
X026701Y005202D01*
X026661Y005202D01*
X026661Y005861D01*
X026648Y005861D01*
X026583Y005851D01*
X026520Y005831D01*
X026461Y005801D01*
X026408Y005762D01*
X026361Y005715D01*
X026322Y005662D01*
X026292Y005603D01*
X026272Y005540D01*
X026261Y005474D01*
X026261Y005201D01*
X026661Y005201D01*
X026661Y005161D01*
X026261Y005161D01*
X026261Y004888D01*
X026272Y004823D01*
X026292Y004760D01*
X026322Y004701D01*
X026361Y004648D01*
X026408Y004601D01*
X026461Y004562D01*
X026333Y004686D02*
X026082Y004686D01*
X026131Y004805D02*
X026278Y004805D01*
X026261Y004923D02*
X026141Y004923D01*
X026141Y005042D02*
X026261Y005042D01*
X026261Y005160D02*
X026141Y005160D01*
X026141Y005279D02*
X026261Y005279D01*
X026261Y005397D02*
X026141Y005397D01*
X026141Y005516D02*
X026268Y005516D01*
X026308Y005634D02*
X026099Y005634D01*
X026020Y005753D02*
X026399Y005753D01*
X026661Y005753D02*
X026701Y005753D01*
X026701Y005634D02*
X026661Y005634D01*
X026661Y005516D02*
X026701Y005516D01*
X026701Y005397D02*
X026661Y005397D01*
X026661Y005279D02*
X026701Y005279D01*
X026701Y005160D02*
X026661Y005160D01*
X026661Y005042D02*
X026701Y005042D01*
X026701Y004923D02*
X026661Y004923D01*
X026661Y004805D02*
X026701Y004805D01*
X026701Y004686D02*
X026661Y004686D01*
X026661Y004568D02*
X026701Y004568D01*
X026909Y004568D02*
X027385Y004568D01*
X027281Y004686D02*
X027030Y004686D01*
X027085Y004805D02*
X027232Y004805D01*
X027221Y004923D02*
X027101Y004923D01*
X027101Y005042D02*
X027221Y005042D01*
X027221Y005160D02*
X027101Y005160D01*
X027101Y005279D02*
X027221Y005279D01*
X027221Y005397D02*
X027101Y005397D01*
X027095Y005516D02*
X027221Y005516D01*
X027264Y005634D02*
X027054Y005634D01*
X026964Y005753D02*
X027342Y005753D01*
X027239Y005871D02*
X025845Y005871D01*
X025518Y005871D02*
X025501Y005871D01*
X025501Y005990D02*
X027120Y005990D01*
X027002Y006109D02*
X025501Y006109D01*
X025467Y006227D02*
X026883Y006227D01*
X027996Y006820D02*
X032641Y006820D01*
X032641Y006938D02*
X027877Y006938D01*
X027758Y007057D02*
X032641Y007057D01*
X032641Y007175D02*
X027640Y007175D01*
X027521Y007294D02*
X032641Y007294D01*
X032641Y007413D02*
X027403Y007413D01*
X027422Y007531D02*
X027284Y007531D01*
X027303Y007650D02*
X027166Y007650D01*
X027291Y007661D02*
X027421Y007531D01*
X027590Y007461D01*
X027773Y007461D01*
X027942Y007531D01*
X028071Y007661D01*
X028141Y007830D01*
X028141Y008533D01*
X028071Y008702D01*
X027942Y008831D01*
X027773Y008901D01*
X027590Y008901D01*
X027421Y008831D01*
X027291Y008702D01*
X027221Y008533D01*
X027221Y007830D01*
X027291Y007661D01*
X027247Y007768D02*
X027116Y007768D01*
X027141Y007887D02*
X027221Y007887D01*
X027221Y008005D02*
X027141Y008005D01*
X027141Y008124D02*
X027221Y008124D01*
X027221Y008242D02*
X027141Y008242D01*
X027141Y008361D02*
X027221Y008361D01*
X027221Y008479D02*
X027141Y008479D01*
X027114Y008598D02*
X027248Y008598D01*
X027306Y008717D02*
X027057Y008717D01*
X026967Y008835D02*
X027430Y008835D01*
X027933Y008835D02*
X028430Y008835D01*
X028421Y008831D02*
X028291Y008702D01*
X028221Y008533D01*
X028221Y007830D01*
X028291Y007661D01*
X028421Y007531D01*
X028590Y007461D01*
X028773Y007461D01*
X028942Y007531D01*
X029071Y007661D01*
X029141Y007830D01*
X029141Y008533D01*
X029071Y008702D01*
X028942Y008831D01*
X028773Y008901D01*
X028590Y008901D01*
X028421Y008831D01*
X028306Y008717D02*
X028057Y008717D01*
X028114Y008598D02*
X028248Y008598D01*
X028221Y008479D02*
X028141Y008479D01*
X028141Y008361D02*
X028221Y008361D01*
X028221Y008242D02*
X028141Y008242D01*
X028141Y008124D02*
X028221Y008124D01*
X028221Y008005D02*
X028141Y008005D01*
X028141Y007887D02*
X028221Y007887D01*
X028247Y007768D02*
X028116Y007768D01*
X028060Y007650D02*
X028303Y007650D01*
X028422Y007531D02*
X027941Y007531D01*
X028941Y007531D02*
X029422Y007531D01*
X029421Y007531D02*
X029590Y007461D01*
X029773Y007461D01*
X029942Y007531D01*
X030071Y007661D01*
X030141Y007830D01*
X030141Y008533D01*
X030071Y008702D01*
X029942Y008831D01*
X029773Y008901D01*
X029590Y008901D01*
X029421Y008831D01*
X029291Y008702D01*
X029221Y008533D01*
X029221Y007830D01*
X029291Y007661D01*
X029421Y007531D01*
X029303Y007650D02*
X029060Y007650D01*
X029116Y007768D02*
X029247Y007768D01*
X029221Y007887D02*
X029141Y007887D01*
X029141Y008005D02*
X029221Y008005D01*
X029221Y008124D02*
X029141Y008124D01*
X029141Y008242D02*
X029221Y008242D01*
X029221Y008361D02*
X029141Y008361D01*
X029141Y008479D02*
X029221Y008479D01*
X029248Y008598D02*
X029114Y008598D01*
X029057Y008717D02*
X029306Y008717D01*
X029430Y008835D02*
X028933Y008835D01*
X029933Y008835D02*
X030430Y008835D01*
X030421Y008831D02*
X030291Y008702D01*
X030221Y008533D01*
X030221Y007830D01*
X030291Y007661D01*
X030421Y007531D01*
X030590Y007461D01*
X030773Y007461D01*
X030942Y007531D01*
X031071Y007661D01*
X031141Y007830D01*
X031141Y008533D01*
X031071Y008702D01*
X030942Y008831D01*
X030773Y008901D01*
X030590Y008901D01*
X030421Y008831D01*
X030306Y008717D02*
X030057Y008717D01*
X030114Y008598D02*
X030248Y008598D01*
X030221Y008479D02*
X030141Y008479D01*
X030141Y008361D02*
X030221Y008361D01*
X030221Y008242D02*
X030141Y008242D01*
X030141Y008124D02*
X030221Y008124D01*
X030221Y008005D02*
X030141Y008005D01*
X030141Y007887D02*
X030221Y007887D01*
X030247Y007768D02*
X030116Y007768D01*
X030060Y007650D02*
X030303Y007650D01*
X030422Y007531D02*
X029941Y007531D01*
X030941Y007531D02*
X032641Y007531D01*
X032641Y007650D02*
X031060Y007650D01*
X031116Y007768D02*
X032641Y007768D01*
X032641Y007887D02*
X031141Y007887D01*
X031141Y008005D02*
X032641Y008005D01*
X032641Y008124D02*
X031141Y008124D01*
X031141Y008242D02*
X032641Y008242D01*
X032641Y008361D02*
X031141Y008361D01*
X031141Y008479D02*
X032641Y008479D01*
X032641Y008598D02*
X031114Y008598D01*
X031057Y008717D02*
X032641Y008717D01*
X032641Y008835D02*
X030933Y008835D01*
X032641Y008954D02*
X026967Y008954D01*
X026967Y009072D02*
X032641Y009072D01*
X032641Y009191D02*
X027663Y009191D01*
X027693Y009309D02*
X032641Y009309D01*
X032641Y009428D02*
X027693Y009428D01*
X027693Y009546D02*
X032641Y009546D01*
X032641Y009665D02*
X027693Y009665D01*
X027654Y009783D02*
X032641Y009783D01*
X032641Y009902D02*
X026967Y009902D01*
X026967Y010021D02*
X032641Y010021D01*
X032641Y010139D02*
X026967Y010139D01*
X026967Y010258D02*
X032641Y010258D01*
X032641Y010376D02*
X026967Y010376D01*
X027002Y010495D02*
X027431Y010495D01*
X027440Y010488D02*
X027382Y010531D01*
X027331Y010582D01*
X027288Y010640D01*
X027255Y010705D01*
X027233Y010774D01*
X027221Y010845D01*
X027221Y011141D01*
X027641Y011141D01*
X027721Y011141D01*
X027721Y010422D01*
X027789Y010433D01*
X027858Y010455D01*
X027922Y010488D01*
X027981Y010531D01*
X028032Y010582D01*
X028075Y010640D01*
X028108Y010705D01*
X028130Y010774D01*
X028141Y010845D01*
X028141Y011141D01*
X027722Y011141D01*
X027722Y011221D01*
X028141Y011221D01*
X028141Y011518D01*
X028130Y011589D01*
X028108Y011658D01*
X028075Y011722D01*
X028032Y011781D01*
X027981Y011832D01*
X027922Y011875D01*
X027858Y011908D01*
X027789Y011930D01*
X027721Y011941D01*
X027721Y011222D01*
X027641Y011222D01*
X027641Y011941D01*
X027574Y011930D01*
X027505Y011908D01*
X027440Y011875D01*
X027382Y011832D01*
X027331Y011781D01*
X027288Y011722D01*
X027255Y011658D01*
X027233Y011589D01*
X027221Y011518D01*
X027221Y011221D01*
X027641Y011221D01*
X027641Y011141D01*
X027641Y010422D01*
X027574Y010433D01*
X027505Y010455D01*
X027440Y010488D01*
X027308Y010613D02*
X027111Y010613D01*
X027161Y010732D02*
X027246Y010732D01*
X027221Y010850D02*
X027181Y010850D01*
X027181Y010969D02*
X027221Y010969D01*
X027221Y011087D02*
X027181Y011087D01*
X027181Y011206D02*
X027641Y011206D01*
X027722Y011206D02*
X028181Y011206D01*
X028181Y011324D02*
X028141Y011324D01*
X028141Y011443D02*
X028181Y011443D01*
X028181Y011562D02*
X028134Y011562D01*
X028181Y011581D02*
X028258Y011765D01*
X028398Y011905D01*
X028582Y011981D01*
X028781Y011981D01*
X028965Y011905D01*
X029105Y011765D01*
X029181Y011581D01*
X029181Y010782D01*
X029105Y010598D01*
X028965Y010458D01*
X028781Y010381D01*
X028582Y010381D01*
X028398Y010458D01*
X028258Y010598D01*
X028181Y010782D01*
X028181Y011581D01*
X028223Y011680D02*
X028096Y011680D01*
X028015Y011799D02*
X028292Y011799D01*
X028427Y011917D02*
X027829Y011917D01*
X027721Y011917D02*
X027641Y011917D01*
X027534Y011917D02*
X026971Y011917D01*
X026880Y012036D02*
X031031Y012036D01*
X030963Y011917D02*
X028936Y011917D01*
X029071Y011799D02*
X030928Y011799D01*
X030896Y011680D02*
X029140Y011680D01*
X029181Y011562D02*
X030881Y011562D01*
X030881Y011443D02*
X029181Y011443D01*
X029181Y011324D02*
X030885Y011324D01*
X030916Y011206D02*
X029181Y011206D01*
X029181Y011087D02*
X030948Y011087D01*
X031007Y010969D02*
X029181Y010969D01*
X029181Y010850D02*
X031076Y010850D01*
X031175Y010732D02*
X029161Y010732D01*
X029111Y010613D02*
X031294Y010613D01*
X031490Y010495D02*
X029002Y010495D01*
X028361Y010495D02*
X027932Y010495D01*
X028055Y010613D02*
X028251Y010613D01*
X028202Y010732D02*
X028116Y010732D01*
X028141Y010850D02*
X028181Y010850D01*
X028181Y010969D02*
X028141Y010969D01*
X028141Y011087D02*
X028181Y011087D01*
X027721Y011087D02*
X027641Y011087D01*
X027641Y010969D02*
X027721Y010969D01*
X027721Y010850D02*
X027641Y010850D01*
X027641Y010732D02*
X027721Y010732D01*
X027721Y010613D02*
X027641Y010613D01*
X027641Y010495D02*
X027721Y010495D01*
X027354Y009783D02*
X027278Y009783D01*
X027278Y009665D02*
X027354Y009665D01*
X027354Y009546D02*
X027278Y009546D01*
X027278Y009428D02*
X027354Y009428D01*
X027354Y009309D02*
X027278Y009309D01*
X027278Y009191D02*
X027354Y009191D01*
X022861Y008954D02*
X020162Y008954D01*
X020043Y009072D02*
X022838Y009072D01*
X022720Y009191D02*
X019925Y009191D01*
X019806Y009309D02*
X022601Y009309D01*
X022482Y009428D02*
X019688Y009428D01*
X019569Y009546D02*
X022391Y009546D01*
X022361Y009665D02*
X019450Y009665D01*
X019332Y009783D02*
X022361Y009783D01*
X022361Y009902D02*
X019213Y009902D01*
X019095Y010021D02*
X022361Y010021D01*
X022361Y010139D02*
X019001Y010139D01*
X019001Y010258D02*
X022361Y010258D01*
X022361Y010376D02*
X019001Y010376D01*
X019002Y010495D02*
X019361Y010495D01*
X019251Y010613D02*
X019111Y010613D01*
X019161Y010732D02*
X019202Y010732D01*
X019181Y010850D02*
X019181Y010850D01*
X019181Y010969D02*
X019181Y010969D01*
X019181Y011087D02*
X019181Y011087D01*
X019181Y011206D02*
X019181Y011206D01*
X019181Y011324D02*
X019181Y011324D01*
X019181Y011443D02*
X019181Y011443D01*
X019181Y011562D02*
X019181Y011562D01*
X019140Y011680D02*
X019223Y011680D01*
X020140Y011680D02*
X020266Y011680D01*
X020228Y011562D02*
X020181Y011562D01*
X020181Y011443D02*
X020221Y011443D01*
X020221Y011324D02*
X020181Y011324D01*
X020181Y011206D02*
X020641Y011206D01*
X020641Y011141D02*
X020221Y011141D01*
X020221Y010845D01*
X020233Y010774D01*
X020255Y010705D01*
X020288Y010640D01*
X020331Y010582D01*
X020382Y010531D01*
X020440Y010488D01*
X020505Y010455D01*
X020574Y010433D01*
X020641Y010422D01*
X020641Y011141D01*
X020641Y011087D02*
X020721Y011087D01*
X020721Y010969D02*
X020641Y010969D01*
X020641Y010850D02*
X020721Y010850D01*
X020721Y010732D02*
X020641Y010732D01*
X020641Y010613D02*
X020721Y010613D01*
X020721Y010495D02*
X020641Y010495D01*
X020431Y010495D02*
X020002Y010495D01*
X020111Y010613D02*
X020308Y010613D01*
X020246Y010732D02*
X020161Y010732D01*
X020181Y010850D02*
X020221Y010850D01*
X020221Y010969D02*
X020181Y010969D01*
X020181Y011087D02*
X020221Y011087D01*
X020722Y011206D02*
X022181Y011206D01*
X022181Y011324D02*
X021141Y011324D01*
X021141Y011443D02*
X022181Y011443D01*
X022181Y011562D02*
X021134Y011562D01*
X021096Y011680D02*
X022223Y011680D01*
X022181Y011087D02*
X021141Y011087D01*
X021141Y010969D02*
X022181Y010969D01*
X022181Y010850D02*
X021141Y010850D01*
X021116Y010732D02*
X022202Y010732D01*
X022251Y010613D02*
X021055Y010613D01*
X020932Y010495D02*
X022361Y010495D01*
X027071Y011799D02*
X027348Y011799D01*
X027266Y011680D02*
X027140Y011680D01*
X027181Y011562D02*
X027228Y011562D01*
X027221Y011443D02*
X027181Y011443D01*
X027181Y011324D02*
X027221Y011324D01*
X027641Y011324D02*
X027721Y011324D01*
X027721Y011443D02*
X027641Y011443D01*
X027641Y011562D02*
X027721Y011562D01*
X027721Y011680D02*
X027641Y011680D01*
X027641Y011799D02*
X027721Y011799D01*
X032472Y010495D02*
X032641Y010495D01*
X024753Y007057D02*
X024658Y007057D01*
X024777Y006938D02*
X024872Y006938D01*
X024896Y006820D02*
X024990Y006820D01*
X025014Y006701D02*
X025109Y006701D01*
X025133Y006583D02*
X025227Y006583D01*
X025251Y006464D02*
X025346Y006464D01*
X025370Y006346D02*
X025465Y006346D01*
X023221Y005516D02*
X023141Y005516D01*
X023141Y005397D02*
X023221Y005397D01*
X023221Y005279D02*
X023141Y005279D01*
X023141Y005160D02*
X023221Y005160D01*
X023221Y005042D02*
X023141Y005042D01*
X023141Y004923D02*
X023221Y004923D01*
X023232Y004805D02*
X023131Y004805D01*
X023082Y004686D02*
X023281Y004686D01*
X023176Y005634D02*
X023099Y005634D01*
X023057Y005753D02*
X023020Y005753D01*
X018221Y004093D02*
X017720Y004093D01*
X017799Y003975D02*
X018221Y003975D01*
X018221Y003856D02*
X017841Y003856D01*
X017841Y003738D02*
X018221Y003738D01*
X018210Y003619D02*
X017812Y003619D01*
X017751Y003501D02*
X018092Y003501D01*
X017973Y003382D02*
X017619Y003382D01*
X017854Y003264D02*
X016201Y003264D01*
X016201Y003382D02*
X016623Y003382D01*
X016492Y003501D02*
X016201Y003501D01*
X016171Y003619D02*
X016431Y003619D01*
X016401Y003738D02*
X016078Y003738D01*
X015959Y003856D02*
X016401Y003856D01*
X016444Y003975D02*
X015841Y003975D01*
X015722Y004093D02*
X016523Y004093D01*
X016699Y004212D02*
X015603Y004212D01*
X015485Y004330D02*
X017061Y004330D01*
X017061Y004449D02*
X014657Y004449D01*
X013706Y004449D02*
X011545Y004449D01*
X009467Y004568D02*
X013706Y004568D01*
X013706Y004686D02*
X009467Y004686D01*
X008827Y004686D02*
X008152Y004686D01*
X008270Y004805D02*
X008827Y004805D01*
X008827Y004923D02*
X008389Y004923D01*
X008507Y005042D02*
X008827Y005042D01*
X008847Y005160D02*
X008626Y005160D01*
X008744Y005279D02*
X008926Y005279D01*
X008863Y005397D02*
X009045Y005397D01*
X008982Y005516D02*
X009163Y005516D01*
X009100Y005634D02*
X009282Y005634D01*
X009219Y005753D02*
X009400Y005753D01*
X009337Y005871D02*
X009519Y005871D01*
X009456Y005990D02*
X009637Y005990D01*
X009543Y006109D02*
X009756Y006109D01*
X007850Y005516D02*
X003514Y005516D01*
X003450Y005397D02*
X007732Y005397D01*
X007613Y005279D02*
X003330Y005279D01*
X002739Y005753D02*
X006413Y005753D01*
X007495Y005160D02*
X000721Y005160D01*
X000721Y005042D02*
X007376Y005042D01*
X007257Y004923D02*
X000721Y004923D01*
X000721Y004805D02*
X007139Y004805D01*
X007020Y004686D02*
X000721Y004686D01*
X000721Y004568D02*
X006902Y004568D01*
X006783Y004449D02*
X000721Y004449D01*
X000721Y004330D02*
X006665Y004330D01*
X006546Y004212D02*
X000721Y004212D01*
X000721Y004093D02*
X006428Y004093D01*
X006319Y003975D02*
X000721Y003975D01*
X000721Y003856D02*
X006270Y003856D01*
X006266Y003738D02*
X000721Y003738D01*
X000721Y003619D02*
X006266Y003619D01*
X006266Y003501D02*
X004910Y003501D01*
X004894Y003509D02*
X004817Y003534D01*
X004755Y003544D01*
X004755Y002739D01*
X005210Y002739D01*
X005210Y003074D01*
X005197Y003154D01*
X005172Y003231D01*
X005135Y003303D01*
X005088Y003368D01*
X005031Y003425D01*
X004966Y003472D01*
X004894Y003509D01*
X004755Y003501D02*
X004640Y003501D01*
X004640Y003544D02*
X004577Y003534D01*
X004500Y003509D01*
X004429Y003472D01*
X004363Y003425D01*
X004306Y003368D01*
X004259Y003303D01*
X004222Y003231D01*
X004197Y003154D01*
X004185Y003074D01*
X004185Y002739D01*
X004639Y002739D01*
X004639Y002624D01*
X004185Y002624D01*
X004185Y002289D01*
X004197Y002209D01*
X004222Y002132D01*
X004259Y002060D01*
X004306Y001995D01*
X004363Y001938D01*
X004429Y001891D01*
X004500Y001854D01*
X004577Y001829D01*
X004640Y001819D01*
X004640Y002624D01*
X004755Y002624D01*
X004755Y002739D01*
X004640Y002739D01*
X004640Y003544D01*
X004484Y003501D02*
X000721Y003501D01*
X000721Y003382D02*
X004321Y003382D01*
X004239Y003264D02*
X000721Y003264D01*
X000721Y003145D02*
X004196Y003145D01*
X004185Y003026D02*
X000721Y003026D01*
X000721Y002908D02*
X004185Y002908D01*
X004185Y002789D02*
X000721Y002789D01*
X000721Y002671D02*
X004639Y002671D01*
X004755Y002671D02*
X006113Y002671D01*
X006113Y002789D02*
X005210Y002789D01*
X005210Y002908D02*
X006113Y002908D01*
X006113Y003026D02*
X005210Y003026D01*
X005198Y003145D02*
X006114Y003145D01*
X006163Y003264D02*
X005155Y003264D01*
X005074Y003382D02*
X006232Y003382D01*
X007203Y003738D02*
X008794Y003738D01*
X008730Y003856D02*
X007322Y003856D01*
X007440Y003975D02*
X008730Y003975D01*
X008730Y004093D02*
X007559Y004093D01*
X007678Y004212D02*
X008730Y004212D01*
X008730Y004330D02*
X007796Y004330D01*
X007915Y004449D02*
X008818Y004449D01*
X008827Y004568D02*
X008033Y004568D01*
X004755Y003382D02*
X004640Y003382D01*
X004640Y003264D02*
X004755Y003264D01*
X004755Y003145D02*
X004640Y003145D01*
X004640Y003026D02*
X004755Y003026D01*
X004755Y002908D02*
X004640Y002908D01*
X004640Y002789D02*
X004755Y002789D01*
X004755Y002624D02*
X005210Y002624D01*
X005210Y002289D01*
X005197Y002209D01*
X005172Y002132D01*
X005135Y002060D01*
X005088Y001995D01*
X005031Y001938D01*
X004966Y001891D01*
X004894Y001854D01*
X004817Y001829D01*
X004755Y001819D01*
X004755Y002624D01*
X004755Y002552D02*
X004640Y002552D01*
X004640Y002434D02*
X004755Y002434D01*
X004755Y002315D02*
X004640Y002315D01*
X004640Y002197D02*
X004755Y002197D01*
X004755Y002078D02*
X004640Y002078D01*
X004640Y001960D02*
X004755Y001960D01*
X004755Y001841D02*
X004640Y001841D01*
X004540Y001841D02*
X002424Y001841D01*
X002376Y001960D02*
X004342Y001960D01*
X004250Y002078D02*
X002307Y002078D01*
X002222Y002197D02*
X004201Y002197D01*
X004185Y002315D02*
X002103Y002315D01*
X001932Y002434D02*
X004185Y002434D01*
X004185Y002552D02*
X001635Y002552D01*
X001128Y002552D02*
X000721Y002552D01*
X000721Y002434D02*
X000831Y002434D01*
X002481Y001626D02*
X002481Y001337D01*
X002406Y001057D01*
X002262Y000806D01*
X002230Y000774D02*
X013746Y000774D01*
X013746Y000893D02*
X002312Y000893D01*
X002380Y001011D02*
X013746Y001011D01*
X014617Y001011D02*
X015999Y001011D01*
X016118Y000893D02*
X014617Y000893D01*
X014617Y000774D02*
X016287Y000774D01*
X015880Y001130D02*
X014617Y001130D01*
X014617Y001248D02*
X015762Y001248D01*
X015643Y001367D02*
X014617Y001367D01*
X016201Y001722D02*
X016401Y001722D01*
X016401Y001841D02*
X016201Y001841D01*
X016201Y001960D02*
X016437Y001960D01*
X016508Y002078D02*
X016201Y002078D01*
X016201Y002197D02*
X016662Y002197D01*
X017581Y002197D02*
X018744Y002197D01*
X018626Y002078D02*
X017735Y002078D01*
X017806Y001960D02*
X018507Y001960D01*
X018388Y001841D02*
X017841Y001841D01*
X017841Y001722D02*
X018270Y001722D01*
X018151Y001604D02*
X017806Y001604D01*
X017736Y001485D02*
X018033Y001485D01*
X018819Y001367D02*
X020180Y001367D01*
X020027Y001485D02*
X018938Y001485D01*
X019056Y001604D02*
X019957Y001604D01*
X019921Y001722D02*
X019175Y001722D01*
X019294Y001841D02*
X019921Y001841D01*
X019957Y001960D02*
X019412Y001960D01*
X019531Y002078D02*
X020028Y002078D01*
X020182Y002197D02*
X019649Y002197D01*
X019700Y002315D02*
X022361Y002315D01*
X022361Y002197D02*
X022328Y002197D01*
X021766Y002197D02*
X021101Y002197D01*
X021063Y002392D02*
X021000Y002372D01*
X020934Y002361D01*
X020401Y002361D01*
X020401Y002761D01*
X020361Y002761D01*
X020361Y002361D01*
X020348Y002361D01*
X020283Y002372D01*
X020220Y002392D01*
X020161Y002422D01*
X020108Y002461D01*
X020061Y002508D01*
X020022Y002561D01*
X019992Y002620D01*
X019972Y002683D01*
X019961Y002748D01*
X019961Y002761D01*
X020361Y002761D01*
X020361Y002801D01*
X019961Y002801D01*
X019961Y002814D01*
X019972Y002880D01*
X019992Y002943D01*
X020022Y003002D01*
X020061Y003055D01*
X020108Y003102D01*
X020161Y003141D01*
X020220Y003171D01*
X020283Y003191D01*
X020348Y003201D01*
X020361Y003201D01*
X020361Y002802D01*
X020401Y002802D01*
X020401Y003201D01*
X020934Y003201D01*
X021000Y003191D01*
X021063Y003171D01*
X021122Y003141D01*
X021175Y003102D01*
X021222Y003055D01*
X021261Y003002D01*
X021291Y002943D01*
X021311Y002880D01*
X021321Y002814D01*
X021321Y002801D01*
X020402Y002801D01*
X020402Y002761D01*
X021321Y002761D01*
X021321Y002748D01*
X021311Y002683D01*
X021291Y002620D01*
X021261Y002561D01*
X021222Y002508D01*
X021175Y002461D01*
X021122Y002422D01*
X021063Y002392D01*
X021137Y002434D02*
X022361Y002434D01*
X022361Y002552D02*
X021254Y002552D01*
X021307Y002671D02*
X022361Y002671D01*
X022361Y002789D02*
X020402Y002789D01*
X020361Y002789D02*
X019701Y002789D01*
X019701Y002671D02*
X019976Y002671D01*
X020029Y002552D02*
X019701Y002552D01*
X019701Y002434D02*
X020145Y002434D01*
X020361Y002434D02*
X020401Y002434D01*
X020401Y002552D02*
X020361Y002552D01*
X020361Y002671D02*
X020401Y002671D01*
X020401Y002908D02*
X020361Y002908D01*
X020361Y003026D02*
X020401Y003026D01*
X020401Y003145D02*
X020361Y003145D01*
X020170Y003145D02*
X019701Y003145D01*
X019701Y003026D02*
X020040Y003026D01*
X019981Y002908D02*
X019701Y002908D01*
X021113Y003145D02*
X022361Y003145D01*
X022361Y003026D02*
X021242Y003026D01*
X021302Y002908D02*
X022361Y002908D01*
X026068Y002315D02*
X026365Y002315D01*
X026382Y002332D02*
X026331Y002281D01*
X026288Y002222D01*
X026255Y002158D01*
X026233Y002089D01*
X026221Y002018D01*
X026221Y001721D01*
X026641Y001721D01*
X026641Y001641D01*
X026221Y001641D01*
X026221Y001345D01*
X026233Y001274D01*
X026255Y001205D01*
X026288Y001140D01*
X026331Y001082D01*
X026382Y001031D01*
X026440Y000988D01*
X026505Y000955D01*
X026574Y000933D01*
X026641Y000922D01*
X026641Y001641D01*
X026721Y001641D01*
X026721Y000922D01*
X026789Y000933D01*
X026858Y000955D01*
X026922Y000988D01*
X026981Y001031D01*
X027032Y001082D01*
X027075Y001140D01*
X027108Y001205D01*
X027130Y001274D01*
X027141Y001345D01*
X027141Y001641D01*
X026722Y001641D01*
X026722Y001721D01*
X027141Y001721D01*
X027141Y002018D01*
X027130Y002089D01*
X027108Y002158D01*
X027075Y002222D01*
X027032Y002281D01*
X026981Y002332D01*
X026922Y002375D01*
X026858Y002408D01*
X026789Y002430D01*
X026721Y002441D01*
X026721Y001722D01*
X026641Y001722D01*
X026641Y002441D01*
X026574Y002430D01*
X026505Y002408D01*
X026440Y002375D01*
X026382Y002332D01*
X026186Y002434D02*
X026597Y002434D01*
X026641Y002434D02*
X026721Y002434D01*
X026766Y002434D02*
X027361Y002434D01*
X027406Y002552D02*
X026305Y002552D01*
X026423Y002671D02*
X027518Y002671D01*
X027637Y002789D02*
X026542Y002789D01*
X026660Y002908D02*
X027755Y002908D01*
X027874Y003026D02*
X026779Y003026D01*
X026898Y003145D02*
X027992Y003145D01*
X028111Y003264D02*
X027016Y003264D01*
X027135Y003382D02*
X028230Y003382D01*
X028348Y003501D02*
X027253Y003501D01*
X027372Y003619D02*
X028361Y003619D01*
X028361Y003738D02*
X028090Y003738D01*
X028209Y003856D02*
X028361Y003856D01*
X028361Y003975D02*
X028327Y003975D01*
X029001Y003975D02*
X029265Y003975D01*
X029265Y004093D02*
X029001Y004093D01*
X029001Y004212D02*
X029265Y004212D01*
X029265Y004296D02*
X029265Y003736D01*
X029320Y003681D01*
X029265Y003626D01*
X029265Y003317D01*
X028500Y002553D01*
X028410Y002463D01*
X028378Y002385D01*
X028258Y002265D01*
X028181Y002081D01*
X028181Y001282D01*
X028258Y001098D01*
X028398Y000958D01*
X028582Y000881D01*
X028781Y000881D01*
X028965Y000958D01*
X029105Y001098D01*
X029181Y001282D01*
X029181Y002081D01*
X029109Y002256D01*
X029802Y002950D01*
X029981Y002950D01*
X030098Y003067D01*
X030098Y003626D01*
X030043Y003681D01*
X030098Y003736D01*
X030098Y004296D01*
X030001Y004392D01*
X030001Y004591D01*
X030071Y004661D01*
X030141Y004830D01*
X030141Y005533D01*
X030071Y005702D01*
X029942Y005831D01*
X029773Y005901D01*
X029590Y005901D01*
X029421Y005831D01*
X029291Y005702D01*
X029221Y005533D01*
X029221Y004830D01*
X029291Y004661D01*
X029361Y004591D01*
X029361Y004392D01*
X029265Y004296D01*
X029300Y004330D02*
X029001Y004330D01*
X029001Y004449D02*
X029361Y004449D01*
X029361Y004568D02*
X029001Y004568D01*
X029082Y004686D02*
X029281Y004686D01*
X029232Y004805D02*
X029131Y004805D01*
X029141Y004923D02*
X029221Y004923D01*
X029221Y005042D02*
X029141Y005042D01*
X029141Y005160D02*
X029221Y005160D01*
X029221Y005279D02*
X029141Y005279D01*
X029141Y005397D02*
X029221Y005397D01*
X029221Y005516D02*
X029141Y005516D01*
X029099Y005634D02*
X029264Y005634D01*
X029342Y005753D02*
X029020Y005753D01*
X028845Y005871D02*
X029518Y005871D01*
X029845Y005871D02*
X030518Y005871D01*
X030590Y005901D02*
X030421Y005831D01*
X030291Y005702D01*
X030221Y005533D01*
X030221Y004830D01*
X030291Y004661D01*
X030361Y004591D01*
X030361Y004392D01*
X030265Y004296D01*
X030265Y003736D01*
X030320Y003681D01*
X030265Y003626D01*
X030265Y003067D01*
X030361Y002971D01*
X030361Y002964D01*
X029850Y002453D01*
X029781Y002481D01*
X029582Y002481D01*
X029398Y002405D01*
X029258Y002265D01*
X029181Y002081D01*
X029181Y001282D01*
X029258Y001098D01*
X029398Y000958D01*
X029582Y000881D01*
X029781Y000881D01*
X029965Y000958D01*
X030105Y001098D01*
X030181Y001282D01*
X030181Y001879D01*
X030953Y002650D01*
X031001Y002768D01*
X031001Y002895D01*
X031001Y002971D01*
X031098Y003067D01*
X031098Y003626D01*
X031043Y003681D01*
X031098Y003736D01*
X031098Y004296D01*
X031001Y004392D01*
X031001Y004591D01*
X031071Y004661D01*
X031141Y004830D01*
X031141Y005533D01*
X031071Y005702D01*
X030942Y005831D01*
X030773Y005901D01*
X030590Y005901D01*
X030845Y005871D02*
X032641Y005871D01*
X032641Y005753D02*
X031020Y005753D01*
X031099Y005634D02*
X032641Y005634D01*
X032641Y005516D02*
X031141Y005516D01*
X031141Y005397D02*
X032641Y005397D01*
X032641Y005279D02*
X031141Y005279D01*
X031141Y005160D02*
X032641Y005160D01*
X032641Y005042D02*
X031141Y005042D01*
X031141Y004923D02*
X032641Y004923D01*
X032641Y004805D02*
X031131Y004805D01*
X031082Y004686D02*
X032641Y004686D01*
X032641Y004568D02*
X031001Y004568D01*
X031001Y004449D02*
X032641Y004449D01*
X032641Y004330D02*
X031063Y004330D01*
X031098Y004212D02*
X032641Y004212D01*
X032641Y004093D02*
X031098Y004093D01*
X031098Y003975D02*
X032641Y003975D01*
X032641Y003856D02*
X031098Y003856D01*
X031098Y003738D02*
X032641Y003738D01*
X032641Y003619D02*
X031098Y003619D01*
X031098Y003501D02*
X032641Y003501D01*
X032641Y003382D02*
X031098Y003382D01*
X031098Y003264D02*
X032641Y003264D01*
X032641Y003145D02*
X031098Y003145D01*
X031057Y003026D02*
X032641Y003026D01*
X032641Y002908D02*
X031001Y002908D01*
X031001Y002789D02*
X032641Y002789D01*
X032641Y002671D02*
X030961Y002671D01*
X030855Y002552D02*
X031728Y002552D01*
X031431Y002434D02*
X030736Y002434D01*
X030618Y002315D02*
X031260Y002315D01*
X031141Y002197D02*
X030499Y002197D01*
X030381Y002078D02*
X031056Y002078D01*
X030987Y001960D02*
X030262Y001960D01*
X030181Y001841D02*
X030939Y001841D01*
X030907Y001722D02*
X030181Y001722D01*
X030181Y001604D02*
X030881Y001604D01*
X030881Y001485D02*
X030181Y001485D01*
X030181Y001367D02*
X030881Y001367D01*
X030905Y001248D02*
X030167Y001248D01*
X030118Y001130D02*
X030937Y001130D01*
X030983Y001011D02*
X030018Y001011D01*
X029808Y000893D02*
X031051Y000893D01*
X031133Y000774D02*
X018176Y000774D01*
X016507Y001485D02*
X016430Y001485D01*
X016437Y001604D02*
X016311Y001604D01*
X016201Y003145D02*
X016574Y003145D01*
X017668Y003145D02*
X017736Y003145D01*
X021103Y001367D02*
X021765Y001367D01*
X022328Y001367D02*
X022434Y001367D01*
X025808Y000893D02*
X027555Y000893D01*
X027344Y001011D02*
X026954Y001011D01*
X027067Y001130D02*
X027244Y001130D01*
X027195Y001248D02*
X027122Y001248D01*
X027141Y001367D02*
X027181Y001367D01*
X027181Y001485D02*
X027141Y001485D01*
X027141Y001604D02*
X027181Y001604D01*
X027181Y001722D02*
X027141Y001722D01*
X027141Y001841D02*
X027181Y001841D01*
X027181Y001960D02*
X027141Y001960D01*
X027132Y002078D02*
X027181Y002078D01*
X027229Y002197D02*
X027088Y002197D01*
X026998Y002315D02*
X027308Y002315D01*
X026721Y002315D02*
X026641Y002315D01*
X026641Y002197D02*
X026721Y002197D01*
X026721Y002078D02*
X026641Y002078D01*
X026641Y001960D02*
X026721Y001960D01*
X026721Y001841D02*
X026641Y001841D01*
X026641Y001722D02*
X026721Y001722D01*
X026721Y001604D02*
X026641Y001604D01*
X026641Y001485D02*
X026721Y001485D01*
X026721Y001367D02*
X026641Y001367D01*
X026641Y001248D02*
X026721Y001248D01*
X026721Y001130D02*
X026641Y001130D01*
X026641Y001011D02*
X026721Y001011D01*
X026408Y001011D02*
X026018Y001011D01*
X026118Y001130D02*
X026296Y001130D01*
X026241Y001248D02*
X026167Y001248D01*
X026181Y001367D02*
X026221Y001367D01*
X026221Y001485D02*
X026181Y001485D01*
X026181Y001604D02*
X026221Y001604D01*
X026221Y001722D02*
X026181Y001722D01*
X026181Y001841D02*
X026221Y001841D01*
X026221Y001960D02*
X026181Y001960D01*
X026181Y002078D02*
X026231Y002078D01*
X026275Y002197D02*
X026133Y002197D01*
X028068Y002315D02*
X028308Y002315D01*
X028229Y002197D02*
X028133Y002197D01*
X028181Y002078D02*
X028181Y002078D01*
X028181Y001960D02*
X028181Y001960D01*
X028181Y001841D02*
X028181Y001841D01*
X028181Y001722D02*
X028181Y001722D01*
X028181Y001604D02*
X028181Y001604D01*
X028181Y001485D02*
X028181Y001485D01*
X028181Y001367D02*
X028181Y001367D01*
X028167Y001248D02*
X028195Y001248D01*
X028244Y001130D02*
X028118Y001130D01*
X028018Y001011D02*
X028344Y001011D01*
X028555Y000893D02*
X027808Y000893D01*
X028808Y000893D02*
X029555Y000893D01*
X029344Y001011D02*
X029018Y001011D01*
X029118Y001130D02*
X029244Y001130D01*
X029195Y001248D02*
X029167Y001248D01*
X029181Y001367D02*
X029181Y001367D01*
X029181Y001485D02*
X029181Y001485D01*
X029181Y001604D02*
X029181Y001604D01*
X029181Y001722D02*
X029181Y001722D01*
X029181Y001841D02*
X029181Y001841D01*
X029181Y001960D02*
X029181Y001960D01*
X029181Y002078D02*
X029181Y002078D01*
X029133Y002197D02*
X029229Y002197D01*
X029168Y002315D02*
X029308Y002315D01*
X029286Y002434D02*
X029467Y002434D01*
X029405Y002552D02*
X029950Y002552D01*
X030068Y002671D02*
X029523Y002671D01*
X029642Y002789D02*
X030187Y002789D01*
X030305Y002908D02*
X029760Y002908D01*
X030057Y003026D02*
X030305Y003026D01*
X030265Y003145D02*
X030098Y003145D01*
X030098Y003264D02*
X030265Y003264D01*
X030265Y003382D02*
X030098Y003382D01*
X030098Y003501D02*
X030265Y003501D01*
X030265Y003619D02*
X030098Y003619D01*
X030098Y003738D02*
X030265Y003738D01*
X030265Y003856D02*
X030098Y003856D01*
X030098Y003975D02*
X030265Y003975D01*
X030265Y004093D02*
X030098Y004093D01*
X030098Y004212D02*
X030265Y004212D01*
X030300Y004330D02*
X030063Y004330D01*
X030001Y004449D02*
X030361Y004449D01*
X030361Y004568D02*
X030001Y004568D01*
X030082Y004686D02*
X030281Y004686D01*
X030232Y004805D02*
X030131Y004805D01*
X030141Y004923D02*
X030221Y004923D01*
X030221Y005042D02*
X030141Y005042D01*
X030141Y005160D02*
X030221Y005160D01*
X030221Y005279D02*
X030141Y005279D01*
X030141Y005397D02*
X030221Y005397D01*
X030221Y005516D02*
X030141Y005516D01*
X030099Y005634D02*
X030264Y005634D01*
X030342Y005753D02*
X030020Y005753D01*
X028518Y005871D02*
X028501Y005871D01*
X028501Y005990D02*
X032641Y005990D01*
X032641Y006109D02*
X028501Y006109D01*
X028501Y006227D02*
X032641Y006227D01*
X032641Y006346D02*
X028460Y006346D01*
X028351Y006464D02*
X032641Y006464D01*
X032641Y006583D02*
X028233Y006583D01*
X028114Y006701D02*
X032641Y006701D01*
X029265Y003856D02*
X029001Y003856D01*
X029001Y003738D02*
X029265Y003738D01*
X029265Y003619D02*
X029001Y003619D01*
X029001Y003501D02*
X029265Y003501D01*
X029265Y003382D02*
X029001Y003382D01*
X028979Y003264D02*
X029211Y003264D01*
X029092Y003145D02*
X028898Y003145D01*
X028974Y003026D02*
X028779Y003026D01*
X028855Y002908D02*
X028660Y002908D01*
X028737Y002789D02*
X028542Y002789D01*
X028618Y002671D02*
X028423Y002671D01*
X028500Y002552D02*
X028305Y002552D01*
X028398Y002434D02*
X028186Y002434D01*
X032235Y002552D02*
X032641Y002552D01*
X032641Y002434D02*
X032532Y002434D01*
X008645Y001130D02*
X002426Y001130D01*
X002458Y001248D02*
X008555Y001248D01*
X008555Y001367D02*
X002481Y001367D01*
X002481Y001485D02*
X008555Y001485D01*
X008555Y001604D02*
X002481Y001604D01*
X004854Y001841D02*
X006400Y001841D01*
X006254Y001960D02*
X005053Y001960D01*
X005145Y002078D02*
X006171Y002078D01*
X006122Y002197D02*
X005193Y002197D01*
X005210Y002315D02*
X006113Y002315D01*
X006113Y002434D02*
X005210Y002434D01*
X005210Y002552D02*
X006113Y002552D01*
X002739Y005871D02*
X002624Y005871D01*
X002624Y005990D02*
X002739Y005990D01*
X002739Y006109D02*
X002624Y006109D01*
X000890Y010495D02*
X000721Y010495D01*
D22*
X010181Y007400D02*
X010181Y006081D01*
X009147Y005047D01*
X009147Y004081D01*
X009188Y004040D02*
X009188Y002921D01*
X011235Y002921D02*
X011235Y004062D01*
X011216Y004081D02*
X013963Y004081D01*
X015281Y004081D01*
X015881Y003481D01*
X015881Y001581D01*
X016381Y001081D01*
X018081Y001081D01*
X019381Y002381D01*
X019381Y007181D01*
X016181Y010381D01*
X016181Y011581D01*
X016681Y012081D01*
X019681Y012081D01*
X019681Y011181D01*
X018681Y011181D02*
X018681Y009981D01*
X022131Y006531D01*
X023931Y006531D01*
X024681Y005781D01*
X024681Y005181D01*
X023681Y005181D02*
X023681Y005581D01*
X023181Y006081D01*
X021781Y006081D01*
X017681Y010181D01*
X017681Y011181D01*
X019681Y012081D02*
X026381Y012081D01*
X026681Y011781D01*
X026681Y011181D01*
X026647Y011147D01*
X026647Y009481D01*
X026647Y008216D01*
X026681Y008181D01*
X026681Y007681D01*
X028181Y006181D01*
X028181Y004281D01*
X027881Y003981D01*
X027281Y003981D01*
X025681Y002381D01*
X025681Y001681D01*
X024681Y001681D02*
X024681Y002847D01*
X024681Y003516D02*
X024681Y003881D01*
X025181Y004381D01*
X025181Y006081D01*
X024281Y006981D01*
X022981Y006981D01*
X022681Y007281D01*
X022681Y008181D01*
X023681Y008181D02*
X023681Y011181D01*
X022681Y011181D02*
X022681Y009681D01*
X023181Y009181D01*
X023181Y007681D01*
X023481Y007381D01*
X024881Y007381D01*
X025681Y006581D01*
X026981Y006581D01*
X027681Y005881D01*
X027681Y005181D01*
X028681Y005181D02*
X028681Y003381D01*
X027681Y002381D01*
X027681Y001681D01*
X028681Y001681D02*
X028681Y002281D01*
X029681Y003281D01*
X029681Y003347D01*
X030681Y003347D02*
X030681Y002831D01*
X029681Y001831D01*
X029681Y001681D01*
X029681Y004016D02*
X029681Y005181D01*
X030681Y005181D02*
X030681Y004016D01*
X022681Y005181D02*
X022681Y001816D01*
X022047Y001781D02*
X020381Y001781D01*
X017381Y003781D02*
X017381Y004947D01*
X018016Y004981D02*
X018016Y006347D01*
X017231Y007131D01*
X016281Y007131D01*
X020681Y005481D02*
X020681Y004681D01*
X024681Y008181D02*
X024681Y011181D01*
X025681Y011181D02*
X025681Y008181D01*
X020681Y009781D02*
X020681Y011181D01*
D23*
X010281Y007500D02*
X010181Y007400D01*
X011583Y006359D02*
X011606Y006381D01*
X017347Y004981D02*
X017381Y004947D01*
X014181Y003863D02*
X013963Y004081D01*
X011235Y004062D02*
X011216Y004081D01*
X009188Y004040D02*
X009147Y004081D01*
X022681Y001816D02*
X022716Y001781D01*
D24*
X014181Y006381D02*
X011606Y006381D01*
X009181Y006281D02*
X009181Y007500D01*
X010281Y007500D01*
X011032Y007500D01*
X012370Y008839D01*
X012370Y010492D01*
X011583Y011280D01*
X012913Y009381D02*
X014181Y009381D01*
X012913Y009381D02*
X012370Y008839D01*
X006780Y006359D02*
X005473Y007666D01*
X002681Y007666D01*
X006666Y003766D02*
X009181Y006281D01*
X006666Y003766D02*
X006666Y002681D01*
D25*
X014181Y006381D02*
X015781Y006381D01*
X018581Y006581D02*
X015781Y009381D01*
X014181Y009381D01*
X018581Y006581D02*
X018581Y003481D01*
X017881Y002781D01*
X017381Y002781D01*
D26*
X031981Y001481D03*
X031981Y011481D03*
X001381Y011481D03*
X001381Y001481D03*
M02*
