%
M48
M72
T01C0.0240
T02C0.0276
T03C0.0320
T04C0.0400
T05C0.0470
T06C0.1102
%
T01
X14181Y6381
X15781Y6381
X16781Y6381
X16281Y7131
X14181Y9381
T02
X20681Y9781
X20681Y5481
T03
X22681Y5181
X23681Y5181
X24681Y5181
X25681Y5181
X26681Y5181
X27681Y5181
X28681Y5181
X29681Y5181
X30681Y5181
X30681Y8181
X29681Y8181
X28681Y8181
X27681Y8181
X26681Y8181
X25681Y8181
X24681Y8181
X23681Y8181
X22681Y8181
X20381Y3781
X20381Y2781
X20381Y1781
X17381Y1781
X17381Y2781
X17381Y3781
T04
X11583Y6359
X6780Y6359
X12370Y8839
X17681Y11181
X18681Y11181
X19681Y11181
X20681Y11181
X22681Y11181
X23681Y11181
X24681Y11181
X25681Y11181
X26681Y11181
X27681Y11181
X28681Y11181
X11583Y11280
X6780Y11280
X24681Y1681
X25681Y1681
X26681Y1681
X27681Y1681
X28681Y1681
X29681Y1681
T05
X6666Y2681
X4697Y2681
X2681Y5697
X2681Y7666
T06
X1381Y1481
X1381Y11481
X31981Y11481
X31981Y1481
M30
