%
M48
M72
T01C0.0200
T02C0.0240
T03C0.0400
T04C0.0470
T05C0.1300
%
T01
X13690Y16413
X12170Y17333
X14910Y17843
X17190Y20633
X15510Y21633
X15310Y23793
X18110Y25593
X20160Y26793
X23910Y26093
X24166Y21587
X23110Y19493
X22260Y18543
X24160Y18193
X21560Y20243
X21060Y20643
X20610Y20243
X20160Y20643
X22730Y15533
X27290Y20393
X31510Y18193
X33290Y16413
X32310Y13293
X30710Y9893
X28210Y9893
X25110Y9893
X12430Y21053
X12510Y26193
T02
X20510Y29593
X22510Y29593
X26710Y26393
X28010Y26393
X28010Y23393
X26710Y23393
T03
X35910Y23793
X35910Y22793
X35910Y21793
X35910Y20793
X35910Y19793
X35910Y18793
X30130Y7693
X29040Y7693
X27960Y7693
X26870Y7693
X25780Y7693
X24700Y7693
X23610Y7693
X22520Y7693
X21440Y7693
X20350Y7693
X19260Y7693
X18180Y7693
X17090Y7693
X17630Y6693
X18720Y6693
X19810Y6693
X20890Y6693
X21980Y6693
X23070Y6693
X24150Y6693
X25240Y6693
X26330Y6693
X27410Y6693
X28500Y6693
X29590Y6693
X4510Y10643
X4510Y11643
X4510Y12643
X4510Y13643
X4510Y14643
X4510Y15643
T04
X4910Y17859
X4910Y19827
X5003Y22224
X5003Y24193
X5003Y26161
X8576Y6243
X10545Y6243
T05
X4610Y6193
X14350Y7193
X32870Y7193
X35610Y6193
X35610Y28693
X4610Y28693
M30
