%
M48
M72
T01C0.0240
T02C0.0315
T03C0.0320
T04C0.0400
T05C0.0470
T06C0.1300
%
T01
X20081Y10181
X20081Y13181
X24481Y13181
X25931Y13181
X25931Y10181
X24481Y10181
X15081Y19381
X13281Y19381
X13281Y22381
X15081Y22381
X8081Y22381
X8081Y19381
T02
X19181Y17781
X19181Y16781
X19181Y15781
X23481Y15781
X23481Y16781
X23481Y17781
T03
X25931Y16781
X25931Y15781
X16631Y16781
X16631Y17781
T04
X17131Y12931
X17131Y10931
X22431Y10681
X22431Y11681
X22431Y12681
X10981Y19881
X10981Y20881
X10981Y21881
X4831Y19031
X4831Y17031
T05
X3281Y12266
X3281Y10297
X6197Y2081
X8166Y2081
X18797Y2081
X20766Y2081
X26131Y5947
X26131Y7916
X22150Y22289
X20181Y22289
X18213Y22289
T06
X2181Y2181
X2181Y22181
X26181Y22181
X26181Y2181
M30
